<svg width="363" height="368" viewBox="0 0 363 368" fill="none" xmlns="http://www.w3.org/2000/svg">
<path d="M181.053 96.5855L214.445 113.458L181.682 41.1138L181.053 96.5855Z" fill="#606C68"/>
<path d="M181.682 41.1138L148.008 113.458L181.053 96.5855L181.682 41.1138Z" fill="#EDEAD5"/>
<path fill-rule="evenodd" clip-rule="evenodd" d="M180.298 367.155L305.298 293.155L362.106 180.36L334.077 94.7403L356.171 68.2625L351.055 19.6362L306.35 0.0423712L263.322 29.0291L238.322 16.0291L181.682 26.0855V41.1138L214.445 113.458L181.053 96.5855L180.761 133.131L215.761 149.131L241.03 229.436L222.995 263.819L188.053 251.585V243.585L209.275 229.169L210.053 208.562L201.181 198.92L181.053 199.585V266.585L212.753 276.044L180.352 290.044L180.298 367.155ZM332.752 31.1269L309.272 21.1717L281.204 40.9436L320.204 78.9436L334.929 62.9147L332.752 31.1269ZM220.865 145.976L240.865 129.976L265.826 139.004L242.826 154.004L220.865 145.976Z" fill="#203A50"/>
<path fill-rule="evenodd" clip-rule="evenodd" d="M27.9391 95.2681L0 179.362L58 295.362L180.298 367.155L180.352 290.044L148.352 276.044L181.053 266.585V199.585L159.887 198.957L149.887 207.957L152.843 229.179L173.843 244.179L174.053 252.585L138.098 263.794L121.098 226.794L146.029 149.738L180.761 133.131L181.053 96.5855L148.008 113.458L181.682 41.1138V26.0855L123.466 16.0779L98.2732 29L55.2732 0L9.76043 21.0403L5.04998 67.6384L27.9391 95.2681ZM80.2622 40.9923L40.1668 78.9033L26.1668 61.9033L29.7521 31.044L52.2622 20.9923L80.2622 40.9923ZM120.413 130.105L94.2638 137.993L118.264 154.993L139.875 146.203L120.413 130.105Z" fill="#325367"/>
<path d="M146.029 149.738L121.098 226.794L138.098 263.794L174.053 252.585L173.843 244.179L152.843 229.179L149.887 207.957L159.887 198.957L181.053 199.585L201.181 198.92L210.053 208.562L209.275 229.169L188.053 243.585V251.585L222.995 263.819L241.03 229.436L215.761 149.131L180.761 133.131L146.029 149.738Z" fill="#EEE9D9"/>
<path d="M181.053 266.585L148.352 276.044L180.352 290.044L212.753 276.044L181.053 266.585Z" fill="#EEE9D9"/>
<path d="M240.865 129.976L220.865 145.976L242.826 154.004L265.826 139.004L240.865 129.976Z" fill="#EEE9D9"/>
<path d="M94.2638 137.993L120.413 130.105L139.875 146.203L118.264 154.993L94.2638 137.993Z" fill="#EEE9D9"/>
<path d="M309.272 21.1717L332.752 31.1269L334.929 62.9147L320.204 78.9436L281.204 40.9436L309.272 21.1717Z" fill="#EEE9D9"/>
<path d="M40.1668 78.9033L80.2622 40.9923L52.2622 20.9923L29.7521 31.044L26.1668 61.9033L40.1668 78.9033Z" fill="#EEE9D9"/>
</svg>
