<svg width="347" height="248" viewBox="0 0 347 248" fill="none" xmlns="http://www.w3.org/2000/svg">
<path d="M99.401 113.012C99.401 113.012 38.2017 163.526 23.1428 172.268C8.08395 181.01 -5.51385 160.61 2.25807 143.123C10.03 125.637 20.2299 124.182 20.2299 124.182C20.2299 124.182 -1.14291 88.2381 27.5168 60.0664C56.1766 31.8947 86.7731 27.0388 91.6321 41.1246C91.6321 41.1246 112.968 13.4594 155.262 2.75307C193.634 -6.96184 192.664 10.525 171.291 31.8978C171.291 31.8978 185.862 24.6108 192.664 27.0419C199.46 29.4698 99.401 113.012 99.401 113.012Z" fill="#F4E8D8"/>
<path d="M278.147 109.614C278.147 109.614 154.287 170.813 144.575 177.13C134.86 183.444 131.947 184.902 132.432 189.273C132.917 193.644 151.374 184.417 151.374 184.417C151.374 184.417 137.773 199.473 174.69 192.674C211.603 185.875 256.777 174.217 299.035 147.989C341.292 121.76 351.007 116.904 345.663 107.189C340.319 97.4743 323.805 99.4173 314.578 103.788C305.351 108.159 329.634 93.1034 319.922 91.6454C310.204 90.1843 278.147 109.614 278.147 109.614Z" fill="#F4E8D8"/>
<path d="M204.073 62.7399C204.073 62.7399 204.073 51.8125 183.674 47.4385C163.274 43.0645 163.274 52.54 164.732 60.5544C166.19 68.5688 177.848 73.6703 180.033 73.6703C182.219 73.6703 204.073 62.7399 204.073 62.7399Z" fill="#48598B"/>
<path d="M177.602 118.841C177.602 118.841 171.773 132.442 181.488 140.699C191.203 148.955 208.201 152.356 223.745 140.699C239.289 129.041 201.402 91.1571 177.602 118.841Z" fill="#273150"/>
<path d="M188.771 66.1408C188.771 66.1408 207.044 44.5408 229.086 49.627C254.345 55.4559 263.329 69.7842 267.7 91.642C267.7 91.642 281.543 85.0856 285.914 105.485C290.285 125.885 264.057 135.358 248.758 134.63C233.46 133.9 188.771 66.1408 188.771 66.1408Z" fill="#48598B"/>
<path d="M183.915 69.2994C183.915 69.2994 202.188 47.6995 224.23 52.7856C249.489 58.6146 258.473 72.9429 262.844 94.8007C262.844 94.8007 276.687 88.2443 281.058 108.644C285.429 129.044 259.201 138.516 243.899 137.789C228.601 137.055 183.915 69.2994 183.915 69.2994Z" fill="#273150"/>
<path d="M171.045 95.528C171.045 95.528 160.118 102.815 155.744 91.8845C151.37 80.9541 168.129 71.4847 174.685 72.2122C181.245 72.9427 179.059 86.0555 171.045 95.528Z" fill="#273150"/>
<path d="M201.645 64.9283C201.645 64.9283 201.645 54.001 181.245 49.627C160.845 45.253 160.845 54.7285 162.303 62.7429C163.761 70.7573 175.419 75.8588 177.605 75.8588C179.787 75.8557 201.645 64.9283 201.645 64.9283Z" fill="#273150"/>
<path d="M197.517 151.386C197.517 151.386 183.189 166.2 175.175 175.672C167.799 184.386 151.132 191.943 148.704 203.601C146.276 215.259 171.774 218.903 179.546 211.131C187.318 203.359 213.061 172.274 216.947 164.017C220.83 155.757 210.63 138.755 197.517 151.386Z" fill="#CE6D3E"/>
<path d="M223.746 146.527C223.746 146.527 215.974 140.698 211.118 141.183C206.262 141.668 192.176 156.97 192.176 156.97C192.176 156.97 197.763 157.212 201.406 160.613C205.05 164.014 209.663 174.457 209.663 174.457C209.663 174.457 229.09 152.356 223.746 146.527Z" fill="#C93F37"/>
<path d="M207.717 211.616C207.717 211.616 191.931 200.041 177.928 196.719C165.764 193.837 159.877 193.318 153.563 196.719C147.249 200.12 142.39 210.078 147.976 212.263C153.56 214.449 207.717 211.616 207.717 211.616Z" fill="#F6874E"/>
<path d="M281.059 219.873C281.059 219.873 283.002 188.788 280.089 169.358C277.176 149.929 272.802 135.358 263.575 129.529C254.346 123.7 237.347 132.93 224.719 138.271C214.421 142.626 210.148 163.041 203.346 174.699C197.529 184.672 193.146 194.129 207.717 211.613C222.288 229.097 272.802 251.442 281.059 219.873Z" fill="#D09435"/>
<path d="M281.06 219.873C281.06 219.873 283.003 188.788 280.09 169.358C277.177 149.929 272.803 135.358 263.576 129.529C254.346 123.7 265.034 168.385 255.804 186.845C249.812 198.828 244.631 211.616 258.232 221.816C276.44 235.472 272.803 251.442 281.06 219.873Z" fill="#F6BE4A"/>
<path d="M202.857 126.613C219.77 146.386 224.23 154.3 224.23 154.3C224.23 154.3 241.717 153.815 241.229 142.157C240.741 130.499 234.562 128.586 227.143 117.871C218.401 105.243 197.209 120.01 202.857 126.613Z" fill="#F6874E"/>
<path d="M202.858 126.613C211.115 137.055 223.5 136.328 223.5 136.328C223.5 136.328 246.085 140.333 227.143 117.871C217.244 106.127 197.21 120.01 202.858 126.613Z" fill="#CE6D3E"/>
<path d="M190.11 64.0781C190.11 64.0781 172.98 62.571 168.86 88.9716C163.517 123.215 171.773 136.331 205.289 132.687C238.805 129.044 239.532 107.428 237.347 92.1301C235.161 76.8257 209.78 58.9767 190.11 64.0781Z" fill="#F6874E"/>
<path d="M190.11 64.0781C190.11 64.0781 172.98 62.571 168.86 88.9716C163.517 123.215 171.773 136.331 205.289 132.687C205.289 132.687 189.988 116.173 187.802 100.872C185.617 85.5706 213.061 63.633 190.11 64.0781Z" fill="#CE6D3E"/>
<path d="M172.016 78.1025C172.016 78.1025 178.722 63.6299 199.46 67.1138C214.638 69.6645 230.91 85.0856 230.91 85.0856L237.346 79.4991C237.346 79.4991 223.254 57.715 194.116 61.1621C178.21 63.0437 173.777 72.2736 172.016 78.1025Z" fill="#F6BE4A"/>
<path d="M172.016 78.1024C172.016 78.1024 178.722 63.6298 199.46 67.1137L194.116 61.165C178.21 63.0436 173.777 72.2735 172.016 78.1024Z" fill="#D09435"/>
<path d="M243.176 95.5281C235.161 95.5281 229.09 104.27 227.147 114.47C225.419 123.549 223.503 134.87 250.463 134.142C277.419 133.415 258.474 95.5281 243.176 95.5281Z" fill="#273150"/>
<path d="M231.03 105.728C235.926 105.728 239.895 100.1 239.895 93.1584C239.895 86.2164 235.926 80.5889 231.03 80.5889C226.134 80.5889 222.165 86.2164 222.165 93.1584C222.165 100.1 226.134 105.728 231.03 105.728Z" fill="#F6874E"/>
<path d="M197.186 88.9976C198.812 88.5874 199.57 86.0402 198.881 83.3084C198.192 80.5766 196.315 78.6946 194.689 79.1048C193.064 79.5151 192.305 82.0622 192.994 84.794C193.684 87.5259 195.56 89.4079 197.186 88.9976Z" fill="#263052"/>
<path d="M179.231 93.9263C179.395 91.6215 178.415 89.6743 177.044 89.5771C175.672 89.4799 174.428 91.2695 174.265 93.5743C174.102 95.8791 175.081 97.8264 176.452 97.9236C177.824 98.0208 179.068 96.2311 179.231 93.9263Z" fill="#263052"/>
<path d="M172.906 88.7258L178.492 89.131" stroke="#273150" stroke-width="2" stroke-miterlimit="10"/>
<path d="M186.67 79.7415C186.67 79.7415 188.208 76.098 190.961 75.9353" stroke="#273150" stroke-width="2" stroke-miterlimit="10"/>
<path d="M223.205 74.6433C223.205 74.6433 231.708 84.9752 240.428 89.4014C247.022 92.7502 252.304 93.3672 252.304 93.3672L250.984 90.7274L254.269 88.1951C254.269 88.1951 241.945 86.9059 225.775 73.0933L223.205 74.6433Z" fill="#C93F37"/>
<path d="M222.344 73.437C222.344 73.437 226.794 86.0557 233.471 93.2014C238.52 98.6037 243.271 100.995 243.271 100.995L242.937 98.0635L246.887 96.8111C246.887 96.8111 235.751 91.3781 225.287 72.863L222.344 73.437Z" fill="#C93F37"/>
<path d="M227.749 80.1038C230.892 79.5513 233.882 62.7736 226.398 62.4206C219.354 62.086 211.367 62.9853 212.693 68.2955C214.022 73.6057 224.609 80.6563 227.749 80.1038Z" fill="#C93F37"/>
<path d="M230.462 70.5608C230.462 70.5608 229.305 63.366 227.074 63.5256C224.839 63.6852 226.837 66.7577 227.414 71.497C227.992 76.2363 230.868 73.5965 230.462 70.5608Z" fill="#F7BC4B"/>
<path d="M225.14 76.6262C225.14 76.6262 224.667 73.3143 229.492 70.1097C234.318 66.9052 237.989 65.1587 241.058 67.0617C244.128 68.9648 245.19 77.3353 243.437 81.5558C241.684 85.7733 230.947 82.5688 228.243 80.9818C225.539 79.3949 225.14 76.6262 225.14 76.6262Z" fill="#C93F37"/>
<path d="M242.704 73.824C242.704 73.824 243.714 80.537 240.712 81.6358C236.252 83.2657 239.063 70.5519 239.324 68.5414C239.585 66.5309 243.508 69.0141 242.704 73.824Z" fill="#F7BC4B"/>
<path d="M146.637 147.258C146.637 147.258 149.55 136.693 148.095 131.229C146.637 125.765 145.91 123.942 140.808 121.029C135.707 118.116 130.243 118.479 130.974 112.65C131.701 106.821 133.159 109.737 140.081 110.829C147.002 111.922 146.892 116.195 152.831 118.479C157.568 120.299 163.759 123.215 167.04 130.864C170.318 138.513 179.425 144.707 171.411 150.171C163.393 155.635 147.365 153.084 146.637 147.258Z" fill="#F6874E"/>
<path d="M226.658 140.214C226.658 140.214 215.485 164.014 212.087 173.729C208.686 183.444 213.057 188.785 220.829 193.159C228.601 197.53 237.828 199.23 245.6 183.687C253.372 168.143 260.17 157.7 257.258 149.928C254.345 142.157 236.373 126.613 226.658 140.214Z" fill="#F6874E"/>
<path d="M226.658 140.214C226.658 140.214 215.485 164.014 212.087 173.729C208.686 183.444 213.057 188.785 220.829 193.159C228.601 197.53 228.601 191.216 236.373 175.672C244.145 160.128 260.174 157.7 257.258 149.928C254.342 142.157 236.373 126.613 226.658 140.214Z" fill="#CE6D3E"/>
<path d="M226.173 141.671C226.173 141.671 235.403 119.814 238.316 115.443C241.229 111.072 247.546 108.156 254.345 110.587C261.144 113.015 264.545 129.529 264.545 135.846C264.545 142.16 255.315 161.104 254.83 164.99C254.345 168.876 253.372 150.904 243.657 145.076C233.942 139.247 226.173 141.671 226.173 141.671Z" fill="#C93F37"/>
<path d="M238.316 115.443C241.229 111.072 247.546 108.156 254.345 110.587C261.144 113.015 264.545 129.529 264.545 135.846C264.545 142.16 255.315 161.104 254.83 164.99C254.345 168.876 257.743 129.047 253.86 123.703C248.341 116.112 238.316 115.443 238.316 115.443Z" fill="#EE5D4F"/>
<path d="M239.961 177.462C239.961 177.462 234.639 157.759 216.452 158.532C198.266 159.306 206.249 188.665 224.436 190.983C242.623 193.3 239.961 177.462 239.961 177.462Z" fill="#CE6D3E"/>
<path d="M240.259 181.013C240.259 181.013 234.43 157.538 214.515 158.508C194.601 159.478 183.431 150.898 175.171 147.982C168.808 145.736 157.807 155.269 167.522 162.553C177.237 169.84 203.342 195.096 223.257 198.012C243.172 200.928 240.259 181.013 240.259 181.013Z" fill="#F6874E"/>
<path d="M152.831 142.522C152.831 142.522 140.811 137.785 139.353 136.693C137.895 135.6 137.168 130.499 132.432 130.499C127.695 130.499 131.704 135.6 132.066 138.513C132.432 141.426 135.925 144.173 138.503 147.743C140.081 149.928 141.781 153.937 146.64 156C154.805 159.468 163.762 162.556 170.318 160.371C176.875 158.185 164.124 139.971 152.831 142.522Z" fill="#F6874E"/>
<path d="M159.63 130.336C159.63 130.336 160.845 145.069 163.031 146.162C165.216 147.255 170.68 147.982 170.68 147.982C170.68 147.982 163.758 152.353 160.48 147.982C157.202 143.615 159.63 130.336 159.63 130.336Z" fill="#CE6D3E"/>
<path d="M151.542 122.647C150.787 121.741 148.068 120.682 145.195 122.042C142.325 123.402 142.325 123.706 142.475 126.576C142.625 129.446 142.475 135.339 143.38 136.248C144.286 137.153 147.159 138.212 148.82 136.248C150.48 134.283 151.238 130.809 151.238 127.936C151.241 125.063 152.297 123.552 151.542 122.647Z" fill="#F6874E"/>
<path d="M154.894 120.867C154.084 119.897 151.171 118.761 148.095 120.219C145.02 121.677 145.02 121.999 145.182 125.075C145.345 128.15 145.182 134.464 146.152 135.437C147.122 136.407 150.201 137.543 151.981 135.437C153.762 133.332 154.572 129.608 154.572 126.533C154.572 123.457 155.705 121.837 154.894 120.867Z" fill="#CE6D3E"/>
<path d="M155.867 120.867C155.056 119.897 152.143 118.761 149.068 120.219C145.992 121.677 145.992 121.999 146.155 125.075C146.317 128.15 146.155 134.464 147.125 135.437C148.095 136.407 151.173 137.543 152.954 135.437C154.734 133.332 155.544 129.608 155.544 126.533C155.544 123.457 156.674 121.837 155.867 120.867Z" fill="#F6874E"/>
<path d="M153.598 121.757C151.048 122.484 148.497 130.499 148.497 132.684C148.497 134.87 150.603 137.178 155.093 137.297C159.225 137.408 157.441 130.821 157.441 130.821C157.441 130.821 156.149 121.026 153.598 121.757Z" fill="#CE6D3E"/>
<path d="M175.416 148.713C175.416 148.713 174.931 137.055 173.838 134.142C172.746 131.229 168.375 128.313 163.273 125.4C158.172 122.487 157.444 121.029 154.894 121.757C152.343 122.484 149.792 130.499 149.792 132.684C149.792 134.869 150.762 135.842 155.256 135.962C159.387 136.073 158.737 130.821 158.737 130.821C158.737 130.821 160.354 132.684 160.719 138.51C161.085 144.336 162.423 153.084 175.416 148.713Z" fill="#F6874E"/>
<path d="M62.7299 197.244L81.9141 196.557L110.694 196.434L117.615 194.856L78.0282 192.671L62.7299 197.244Z" fill="#634874"/>
<path d="M69.449 110.464L89.3638 112.769L125.062 98.441L125.329 96.7128L107.821 92.0073L69.449 110.464Z" fill="#634874"/>
<path d="M38.1986 66.5673L48.8344 60.6647L49.1413 60.6586L62.512 53.166H62.8189L76.0852 45.5383L124.414 63.2277V79.7416L76.5733 64.6428L38.1986 84.1739V66.5673Z" fill="#29ACE4"/>
<path d="M76.5733 64.4801L38.1986 84.1739V66.5673L48.8374 60.6586H49.1413L62.512 53.166H62.8189L76.0852 45.5383" fill="#48598B"/>
<path d="M38.1986 84.174L93.0871 93.4623L124.414 79.7417L76.5733 64.4802L62.8404 71.5247L62.5212 71.5155L49.1474 78.5016L48.8313 78.4985L38.1986 84.174Z" fill="#634874"/>
<path d="M51.3146 161.338L78.4181 164.907L122.471 154.72L105.896 149.588L51.3146 161.338Z" fill="#634874"/>
<path d="M79.4866 114.835L61.9199 106.293L74.6306 97.5906L125.145 111.517L79.4866 114.835Z" fill="#634874"/>
<path d="M37.7139 128.436V145.192L79.1641 148.47L121.501 138.998L111.667 129.286L124.172 126.37L96.9733 109.249L76.3279 111.676L37.7139 128.436Z" fill="#634874"/>
<path d="M38.1986 85.0856L76.0852 65.2905L93.9557 70.9353L94.057 81.6048L110.583 76.1841L125.307 80.8344V97.3482L76.5733 84.2354L38.1986 102.692V85.0856Z" fill="#29ACE4"/>
<path d="M76.5733 84.2354L38.1986 102.692V85.0856L76.0852 65.2905" fill="#48598B"/>
<path d="M94.0688 81.6048L110.573 76.2209V93.4622L94.0565 96.8233L94.0688 81.6048Z" fill="#48598B"/>
<path d="M38.1986 102.692L55.3631 103.46L94.0785 88.9409L76.5733 84.2354L38.1986 102.692Z" fill="#634874"/>
<path d="M61.9199 92.4922V106.293L76.4907 100.181V85.4478L61.9199 92.4922Z" fill="#48598B"/>
<path d="M125.145 97.6735V111.517L76.4905 100.264V85.4478L125.145 97.6735Z" fill="#29ACE4"/>
<path d="M37.7139 116.778V129.203L76.3279 114.633V100.749L37.7139 116.778Z" fill="#48598B"/>
<path d="M76.3276 100.749V114.633L92.2367 118.479V104.635L76.3276 100.749Z" fill="#29ACE4"/>
<path d="M108.671 108.438L108.305 122.767L124.172 126.37V112.165L108.671 108.438Z" fill="#29ACE4"/>
<path d="M37.7538 130.256V145.192L51.5972 138.998V124.792L37.7538 130.256Z" fill="#48598B"/>
<path d="M62.1625 121.391V135.235L76.3281 130.256V115.685L62.1625 121.391Z" fill="#48598B"/>
<path d="M76.3276 115.685L121.501 126.978V138.998L76.3276 130.256V115.685Z" fill="#29ACE4"/>
<path d="M65.241 163.671V149.87L105.743 136.822V152.099L65.241 163.671Z" fill="#48598B"/>
<path d="M105.691 136.828V152.068L122.471 154.741V140.14L105.691 136.828Z" fill="#29ACE4"/>
<path d="M36.0342 170.841L81.7572 178.244L108.437 170.908L65.4306 160.822L36.0342 170.841Z" fill="#634874"/>
<path d="M48.8155 149.548L48.4901 167.556L77.1744 171.936L77.4814 153.863L48.8155 149.548Z" fill="#29ACE4"/>
<path d="M49.6075 167.004L61.9407 163.762L84.5474 166.028L68.6874 169.303L49.6075 167.004Z" fill="#634874"/>
<path d="M36.3381 154.02L36.0342 170.841L48.6651 167.618L48.9905 149.532L36.3381 154.02Z" fill="#48598B"/>
<path d="M49.9882 149.631L49.6075 167.004L61.9438 163.83L62.1894 145.735L49.9882 149.631Z" fill="#48598B"/>
<path d="M62.1522 145.754L61.876 163.956L108.529 170.908L108.781 155.582L62.1522 145.754Z" fill="#29ACE4"/>
<path d="M124.576 184.656L104.256 190.363L72.8311 188.502L109.883 182.511L124.576 184.656Z" fill="#634874"/>
<path d="M109.883 167.676L124.577 169.705V184.656L109.883 182.511V167.676Z" fill="#29ACE4"/>
<path d="M109.945 167.697V182.511L85.7203 187.247V173.566L109.945 167.697Z" fill="#48598B"/>
<path d="M93.8332 180.703L56.6587 188.463L38.6869 187.207L72.0982 177.321L93.8332 180.703Z" fill="#634874"/>
<path d="M77.3808 163.262V178.146L38.6869 187.207V173.241L77.3808 163.262Z" fill="#48598B"/>
<path d="M77.3804 163.262V178.146L93.7714 180.795V165.957L77.3804 163.262Z" fill="#29ACE4"/>
<path d="M122.311 198.742L90.091 205.381L67.9907 199.27L108.548 191.053L122.311 198.742Z" fill="#634874"/>
<path d="M62.7299 182.996V197.244L78.0988 193.684V178.91L62.7299 182.996Z" fill="#48598B"/>
<path d="M122.311 186.031V198.742L75.9248 194.411V179.638L122.311 186.031Z" fill="#29ACE4"/>
<path d="M40.224 200.566V214.974H77.3801L95.6373 211.573L95.5544 197.65L77.7852 195.587L40.224 200.566Z" fill="#48598B"/>
<path d="M73.1716 202.91V216.081H107.129L123.815 212.972L123.741 200.245L107.501 198.361L73.1716 202.91Z" fill="#48598B"/>
<path d="M107.832 198.325V213.307L123.889 213.024V199.767L107.832 198.325Z" fill="#29ACE4"/>
<path d="M78.1509 195.544V211.938L95.7175 211.628V197.125L78.1509 195.544Z" fill="#29ACE4"/>
<path d="M48.9879 60.6587V78.4954" stroke="#29ACE4" stroke-miterlimit="10"/>
<path d="M62.6688 53.166V71.5154" stroke="#29ACE4" stroke-miterlimit="10"/>
<path d="M108.671 108.438L92.2766 112.364V119.633L105.534 122.969L108.305 122.767L108.671 108.438Z" fill="#48598B"/>
<path d="M318.946 244.159C318.053 242.636 283.976 210.643 202.858 209.673C137.129 208.887 38.1992 211.616 16.3414 218.903C16.3414 218.903 81.6722 215.259 122.472 224.974C163.271 234.689 190.332 240.227 210.145 242.704C225.689 244.647 254.024 247.237 260.822 247.722C292.843 250.009 257.621 235.837 293.083 242.338C314.94 246.344 319.977 245.917 318.946 244.159Z" fill="#866694"/>
<path d="M114.457 228.13C114.457 228.13 92.5991 219.873 55.6855 222.301C11.6262 225.198 0.407227 219.293 0.407227 219.293C0.407227 219.293 12.5501 237.071 41.0441 232.123C79.7073 225.413 114.457 228.13 114.457 228.13Z" fill="#866694"/>
</svg>
