<svg width="655" height="378" viewBox="0 0 655 378" fill="none" xmlns="http://www.w3.org/2000/svg">
<path d="M116.045 197.122C116.045 197.122 196.19 209.449 207.285 218.082L202.353 199.585C202.353 199.585 227.014 198.353 238.109 205.748C238.109 205.748 214.679 183.557 199.891 176.155L231.946 189.72L236.878 181.087L262.769 186.019L277.566 165.06L324.417 176.155L331.811 171.223L363.865 192.183C363.865 192.183 373.73 181.087 379.893 171.223L382.355 178.617C382.355 178.617 387.287 174.916 392.219 162.59L398.382 171.223C398.382 171.223 418.111 156.427 418.111 133.005L156.11 120.056L165.351 137.072L73.8149 138.545L116.045 197.122Z" fill="#F3E7D9"/>
<path d="M180.162 219.313C180.162 219.313 204.823 226.707 217.149 230.408L186.326 247.667L199.891 258.762C199.891 258.762 175.23 267.395 144.407 276.02L170.298 282.183L66.4205 294.821L132.073 299.442L19.2579 329.954L-39 304.062L10.0092 272.623L-33.4524 264.302C-33.4524 264.302 122.208 218.066 137.005 218.066C151.801 218.066 180.162 219.313 180.162 219.313Z" fill="#F3E7D9"/>
<path d="M412.267 133.932L451.108 120.063L654.851 215.62L632.349 247.674L516.76 289.289L545.426 267.099L499.494 278.506L448.942 277.275L456.336 255.084L408.254 245.22L444.01 225.492L418.118 220.56L425.513 205.763C425.513 205.763 407.015 205.763 393.458 209.464C379.893 213.165 408.254 195.899 408.254 195.899L398.39 188.505C398.39 188.505 425.513 168.777 437.847 167.545C450.173 166.314 395.928 161.382 392.227 162.613C388.526 163.844 395.928 161.382 395.928 161.382L412.267 133.932Z" fill="#F3E7D9"/>
<path d="M216.464 94.1326C216.464 94.1326 388.604 90.3849 406.735 91.0082C406.735 91.0082 421.952 101.636 421.952 118.723C421.952 135.81 411.947 145.401 411.947 145.401H219.798C219.798 145.401 205.883 137.041 204.792 130.395C200.203 102.47 216.464 94.1326 216.464 94.1326Z" fill="#7A462F"/>
<path d="M411.948 145.448L403.611 136.067L399.232 116.058C399.232 116.058 402.372 94.5456 406.688 91.6394C411.013 88.7409 422.116 105.898 422.404 117.835C422.692 129.772 422.404 135.592 422.404 135.592L411.948 145.448Z" fill="#CC6D3D"/>
<path d="M412.703 135.296L407.584 129.538L404.896 117.25C404.896 117.25 406.821 104.036 409.478 102.251C412.134 100.467 418.952 111.009 419.131 118.341C419.311 125.673 419.131 129.249 419.131 129.249L412.703 135.296Z" fill="#B44C29"/>
<path d="M411.947 145.401L382.238 136.877L387.817 133.519L376.527 134.571L381.763 129.81L369.873 130.286L367.496 127.434L383.75 126.865L372.545 119.502L391.946 111.352L281.344 110.962C266.712 110.456 228.689 112.287 214.555 113.012L209.934 112.91L210.534 113.222C209.638 113.269 209.155 113.292 209.155 113.292L215.427 115.77L218.856 117.562L209.926 117.951L211.477 120.671L230.115 121.59L259.208 133.091L219.783 145.417H411.947V145.401Z" fill="#A96443"/>
<path d="M229.336 126.865L220.025 126.086L230.894 129.584L226.235 130.745L243.696 128.416L229.336 126.865Z" fill="#A96443"/>
<path d="M397.042 152.102C397.042 152.102 396.434 135.506 403.12 129.031L400.556 147.131C400.556 147.131 405.247 136.574 414.386 134.158C414.386 134.158 404.818 140.579 402.029 152.453L397.042 152.102Z" fill="#BB83C3"/>
<path d="M244.233 150.552C244.233 150.552 243.508 146.227 240.625 141.895C237.742 137.571 233.052 137.571 233.052 137.571C233.052 137.571 237.742 143.337 239.184 145.144C239.184 145.144 234.493 143.345 231.61 147.31C228.728 151.276 228.728 151.276 228.728 151.276C228.728 151.276 240.485 149.29 244.233 150.552Z" fill="#BB83C3"/>
<path d="M246.983 151.051C246.983 151.051 244.279 144.287 249.96 140.501L246.983 151.051Z" fill="#BB83C3"/>
<path d="M249.414 150.24C249.414 150.24 248.877 146.181 253.739 144.287C258.608 142.394 261.039 142.667 261.039 142.667L249.414 150.24Z" fill="#BB83C3"/>
<path d="M279.693 87.728C279.693 87.728 277.877 106.482 295.33 104.605C311.467 102.867 320.895 105.103 324.619 100.382C328.25 95.7845 328.094 87.7202 318.658 81.5181C309.231 75.3159 288.131 81.5259 279.693 87.728Z" fill="#1D2538"/>
<path d="M279.693 82.0167C279.693 82.0167 255.866 86.98 249.407 89.7149C242.955 92.4419 242.706 96.1663 244.942 100.14C247.178 104.114 254.05 113.565 268.769 107.339C275.22 104.612 292.346 106.591 297.068 104.114C301.782 101.628 297.068 76.3133 279.693 82.0167Z" fill="#1D2538"/>
<path d="M312.971 84.3698C324.113 80.5753 351.664 74.8173 356.627 76.8042C365.315 80.2792 368.143 92.2705 358.084 95.4339C352.022 97.3429 350.121 98.6285 337.764 101.114C325.484 103.576 321.09 103.124 316.204 102.836C306.566 102.267 303.387 87.6345 312.971 84.3698Z" fill="#273252"/>
<path d="M312.971 84.3698C324.113 80.5753 351.664 74.8173 356.627 76.8042C365.315 80.2792 368.143 92.2705 358.084 95.4339C352.022 97.3429 350.121 98.6285 337.764 101.114C325.484 103.576 321.09 103.124 316.204 102.836C306.566 102.267 303.387 87.6345 312.971 84.3698Z" fill="#1D2538"/>
<path d="M364.777 162.247C364.777 162.247 371.251 163.626 371.914 167.686C372.607 171.979 371.797 173.779 369.849 174.394C367.854 175.025 364.668 176.124 360.39 175.836C352.419 175.306 352.824 175.165 346.388 168.878C340.147 162.769 345.064 160.541 345.609 159.497C346.147 158.476 364.777 162.247 364.777 162.247Z" fill="#EE5D4F"/>
<path d="M359.026 158.289C359.026 158.289 371.454 163.424 372.03 167.109C372.638 170.997 370.869 172.992 360.39 172.75C352.536 172.571 352.949 171.013 346.716 165.364C340.63 159.847 345.001 159.091 345.539 158.149C346.077 157.221 359.026 158.289 359.026 158.289Z" fill="#121721"/>
<path d="M341.581 90.424C341.207 81.1676 359.572 77.1861 363.904 83.7933C368.236 90.4006 365.112 109.817 364.683 119.814C364.255 129.811 362.455 147.7 363.156 149.274C363.857 150.848 366.468 155.835 366.468 155.835L365.533 159.645C365.533 159.645 356.175 162.325 355.403 162.286C354.632 162.255 345.633 162.637 344.674 161.055C343.716 159.473 342.321 156.076 342.321 156.076C342.321 156.076 342.586 149.929 342.617 149.157C342.656 148.378 341.947 99.6804 341.581 90.424Z" fill="#1D2538"/>
<path d="M359.541 123.951C359.541 123.951 360.538 89.7305 364.239 95.3639C367.94 101.005 365.275 117.578 364.901 126.11C364.535 134.641 363 149.913 363.6 151.253C364.2 152.593 366.428 156.855 366.428 156.855L365.634 160.104C365.634 160.104 357.647 162.387 356.993 162.364C356.338 162.333 348.656 162.66 347.838 161.312C347.02 159.964 345.827 157.058 345.827 157.058C345.827 157.058 346.723 137.984 346.747 137.329C346.77 136.675 359.541 123.951 359.541 123.951Z" fill="#273252"/>
<path d="M258.172 166.618C258.172 166.618 251.697 167.997 251.035 172.057C250.341 176.35 251.152 178.15 253.1 178.765C255.094 179.396 258.281 180.495 262.559 180.207C270.53 179.677 270.124 179.536 276.56 173.249C282.801 167.14 277.885 164.912 277.339 163.868C276.802 162.847 258.172 166.618 258.172 166.618Z" fill="#EE5D4F"/>
<path d="M263.93 162.66C263.93 162.66 251.502 167.795 250.926 171.48C250.318 175.368 252.087 177.363 262.566 177.121C270.42 176.942 270.007 175.384 276.241 169.735C282.326 164.218 277.955 163.462 277.417 162.52C276.88 161.6 263.93 162.66 263.93 162.66Z" fill="#121721"/>
<path d="M272.742 125.704C272.742 125.704 271.254 106.591 266.782 100.631C262.317 94.6702 250.154 85.4917 244.942 93.182C239.729 100.872 242.215 106.334 244.692 114.032C247.17 121.731 254.51 151.907 255.749 156.372C256.988 160.837 256.497 159.099 257.237 162.333C257.977 165.566 265.426 167.296 265.426 167.296C265.426 167.296 278.578 165.558 280.074 163.821C281.562 162.083 279.825 161.834 280.324 158.11C280.822 154.385 277.347 150.17 277.347 150.17L272.742 125.704Z" fill="#1D2538"/>
<path d="M272.532 126.46L263.198 118.419C263.198 118.419 248.043 109.88 250.03 116.471C251.152 120.188 259.411 148.986 259.411 148.986L271.348 155.094L260.104 157.829C260.704 160.595 266.673 162.083 266.673 162.083C266.673 162.083 277.222 160.595 278.422 159.107C279.622 157.619 278.22 157.408 278.625 154.222C279.03 151.035 276.233 147.419 276.233 147.419L272.532 126.46Z" fill="#273252"/>
<path d="M328.102 60.699C328.102 60.699 322.507 49.2765 322.281 43.6198C322.055 37.9709 322.196 32.3375 328.071 33.701C333.945 35.0568 335.925 37.1761 337.054 43.5107C338.184 49.8375 339.314 53.0087 341.347 57.5278C343.381 62.0469 352.154 78.0509 343.817 80.2949C334.545 82.796 328.102 60.699 328.102 60.699Z" fill="#CC6D3D"/>
<path d="M278.703 39.3266C275.477 36.841 271.628 38.2045 269.026 40.8147C265.551 44.2898 263.813 48.0142 262.574 53.7254C261.335 59.4367 257.042 67.2595 255.624 74.0771C254.385 80.0377 252.648 85.7412 259.348 86.9878C266.049 88.2267 269.524 78.7989 270.763 75.0745C272.002 71.3501 275.477 62.9117 277.713 57.9485C279.716 53.4761 281.929 41.8121 278.703 39.3266Z" fill="#CC6D3D"/>
<path d="M326.356 33.1244C326.356 33.1244 314.692 27.9119 298.805 29.6494C284.523 31.2077 274.231 37.8383 274.231 37.8383C274.231 37.8383 275.999 56.3201 275.999 59.0471C275.999 60.2548 282.404 89.0292 282.404 89.0292C282.404 89.0292 291.107 94.6782 291.855 95.1768C292.603 95.6755 307.742 97.1637 312.706 96.665C317.669 96.1664 325.858 82.2661 325.858 82.2661C325.858 82.2661 325.609 53.4761 325.858 51.4893C326.107 49.5024 326.356 33.1244 326.356 33.1244Z" fill="#F7BC4B"/>
<path d="M322.858 48.8324C321.121 47.313 301.517 45.3729 301.517 45.3729C301.517 45.3729 283.121 49.3155 281.726 51.9724C280.332 54.6293 282.435 67.0959 282.435 68.8335C282.435 69.6048 287.648 87.9151 287.648 87.9151C287.648 87.9151 294.738 91.5149 295.338 91.8265C295.946 92.146 308.272 93.0887 312.316 92.7771C316.36 92.4576 323.03 83.6141 323.03 83.6141C323.03 83.6141 322.827 65.2805 323.03 64.0182C323.24 62.756 324.603 50.3518 322.858 48.8324Z" fill="#FEED7F"/>
<path d="M284.157 78.643C284.157 78.643 284.96 62.3664 285.568 60.8392C285.568 60.8392 279.225 68.6698 284.157 78.643Z" fill="#F7BC4B"/>
<path d="M312.417 47.796C312.417 47.796 317.934 53.5852 319.305 55.237C320.684 56.8888 323.715 70.9527 323.715 70.9527C323.715 70.9527 323.443 58.8211 321.238 54.4111C319.033 50.001 312.417 47.796 312.417 47.796Z" fill="#F7BC4B"/>
<path d="M323.996 75.9082L318.207 85.2815C318.207 85.2815 311.592 88.5929 306.356 89.9643C301.12 91.3434 293.398 94.647 293.398 94.647C293.398 94.647 307.906 92.8627 311.319 91.6161C325.648 86.3879 323.996 75.9082 323.996 75.9082Z" fill="#F7BC4B"/>
<path d="M312.207 36.5995C312.207 42.2173 307.758 50.0011 302.281 50.0011C296.803 50.0011 292.354 45.443 292.354 39.8253C292.354 34.2075 296.803 29.6494 302.281 29.6494C307.758 29.6494 312.207 30.974 312.207 36.5995Z" fill="#F5894E"/>
<path d="M304.82 42.8484L294.832 46.7754C294.832 46.7754 290.367 42.7159 290.367 37.0982C290.367 31.4804 296.795 29.6494 302.28 29.6494C307.766 29.6494 304.82 42.8484 304.82 42.8484Z" fill="#CC6D3D"/>
<path d="M293.842 29.6495L295.33 40.3239C295.33 40.3239 296.819 43.3004 302.281 43.5497C307.742 43.799 307.742 33.6232 307.742 33.6232L307.244 28.1613L293.842 29.6495Z" fill="#CC6D3D"/>
<path d="M331.787 168.792C331.694 171.473 323.699 174.02 309.862 174.02C296.024 174.02 287.819 170.491 287.913 167.81C288.006 165.13 296.063 158.492 309.901 158.492C323.738 158.492 331.888 166.112 331.787 168.792Z" fill="#856792"/>
<path d="M287.741 167.811L284.274 125.214L332.8 123.648L331.787 168.792L287.741 167.811Z" fill="#856792"/>
<path d="M308.688 130.365C322.153 130.342 333.064 127.64 333.058 124.331C333.052 121.022 322.132 118.358 308.668 118.382C295.203 118.405 284.292 121.106 284.298 124.415C284.304 127.724 295.224 130.388 308.688 130.365Z" fill="#665070"/>
<path d="M308.733 128.612C321.177 128.59 331.262 126.469 331.258 123.875C331.253 121.28 321.161 119.194 308.716 119.215C296.272 119.236 286.187 121.357 286.191 123.952C286.196 126.547 296.288 128.633 308.733 128.612Z" fill="#34283A"/>
<path d="M286.775 155.944C286.775 155.944 294.255 159.372 309.456 159.372C324.658 159.372 331.787 156.333 331.787 156.333" stroke="#665070" stroke-width="4" stroke-miterlimit="10" stroke-linecap="round" stroke-linejoin="round"/>
<path d="M286.97 161.616C286.97 161.616 294.255 165.044 309.456 165.044C324.658 165.044 331.787 162.006 331.787 162.006" stroke="#665070" stroke-width="4" stroke-miterlimit="10" stroke-linecap="round" stroke-linejoin="round"/>
<path d="M287.92 84.0028C289.689 84.891 290.601 86.6208 289.713 88.8336C289.058 90.4776 289.175 91.6853 282.755 91.3347C276.21 90.9685 259.808 89.979 257.377 88.2103C254.946 86.4416 252.663 83.1068 257.751 79.3434C262.839 75.5801 268.808 78.5409 271.87 79.2032C278.469 80.629 286.144 83.1223 287.92 84.0028Z" fill="#F5894E"/>
<path d="M287.92 84.0035C289.689 84.8918 269.704 81.4557 265.434 81.0661C261.164 80.6765 257.377 88.2032 257.377 88.2032C254.946 86.4345 252.663 83.0997 257.751 79.3363C262.839 75.573 268.807 78.5338 271.87 79.1961C278.469 80.6298 286.144 83.1231 287.92 84.0035Z" fill="#CC6D3D"/>
<path d="M293.125 83.9023C293.125 83.9023 289.931 87.4397 291.138 88.4838C292.346 89.5279 296.499 85.9827 297.722 85.6632C298.945 85.3516 300.512 83.5362 299.109 82.9596C297.707 82.383 293.125 83.9023 293.125 83.9023Z" fill="#CC6D3D"/>
<path d="M284.71 86.6994C284.71 86.6994 285.248 91.3354 288.637 91.164C292.026 90.9848 292.206 87.9539 293.99 85.632C295.774 83.3101 299.522 81.705 299.522 81.705C299.522 81.705 304.158 82.7725 305.054 81.8842C305.95 80.9882 304.337 80.6375 304.337 80.6375C304.337 80.6375 304.516 78.8533 302.911 78.6741C302.911 78.6741 304.158 77.4274 302.194 76.3522C300.231 75.2769 294.878 74.2095 293.811 74.3887C292.743 74.5679 289.346 78.1209 287.741 79.2039C286.144 80.2869 284.531 83.1309 284.71 86.6994Z" fill="#F5894E"/>
<path d="M345.523 83.2869C347.534 80.4118 349.98 74.9343 345.952 72.9241C341.924 70.9138 339.789 71.132 333.922 76.9991C329.036 81.8844 320.653 91.3356 317.778 94.499C314.902 97.6624 315.004 103.942 324.821 99.3844C332.878 95.6444 343.513 86.162 345.523 83.2869Z" fill="#CC6D3D"/>
<path d="M343.693 85.6555C345.438 83.1621 340.521 80.4897 340.521 80.4897C340.521 80.4897 336.867 79.6793 331.787 84.7595C327.556 88.9903 322.149 92.629 319.663 95.3638C317.17 98.1065 317.263 103.545 325.764 99.5947C332.738 96.3611 341.955 88.141 343.693 85.6555Z" fill="#F5894E"/>
<path d="M323.45 94.7249C323.45 94.7249 325.787 97.5766 322.936 99.9063C320.084 102.244 315.129 104.254 315.129 104.254L311.217 108.835C311.217 108.835 311.396 111.952 310.796 112.365C310.196 112.778 308.412 112.864 308.178 111.718C307.945 110.573 308.412 108.049 308.412 108.049L309.565 105.758L307.088 107.682C307.088 107.682 305.981 109.381 305.755 110.526C305.529 111.672 304.15 111.212 303.464 110.293C302.779 109.373 304.018 107.036 304.018 107.036C304.018 107.036 302.046 107.449 301.587 106.529C301.127 105.61 307.142 96.3845 307.368 96.1585C307.594 95.9326 312.511 93.1354 312.511 93.1354C312.511 93.1354 317.162 92.925 319.32 93.112C321.479 93.299 323.45 94.7249 323.45 94.7249Z" fill="#F5894E"/>
<path d="M285.98 27.0391C291.388 36.0774 295.175 36.5994 295.175 36.5994C310.921 36.2098 317.887 25.8236 315.955 16.4503C314.334 6.68742 311.825 3.35258 300.66 4.44341C285.116 5.95498 281.165 18.9826 285.98 27.0391Z" fill="#1D2538"/>
<path d="M285.98 27.0391C291.388 36.0774 295.175 36.5994 295.175 36.5994C310.921 36.2098 317.887 25.8236 315.955 16.4503C314.334 6.68742 311.825 3.35258 300.66 4.44341C285.116 5.95498 281.165 18.9826 285.98 27.0391Z" fill="#3E4C6F"/>
<path d="M285.661 24.2654C290.274 31.9791 301.283 24.5848 301.283 24.5848C303.488 22.8863 303.745 17.4166 303.605 11.9235C303.48 7.17838 305.717 2.41769 292.494 5.38629C280.737 8.01986 281.563 17.4009 285.661 24.2654Z" fill="#1D2538"/>
<path d="M300.73 5.58887C300.73 5.58887 309.597 8.77564 311.186 10.1002C312.776 11.4326 315.924 27.8417 313.89 33.2803C311.887 38.6409 294.481 38.1812 290.18 34.9788C286.658 32.3531 287.243 30.709 285.965 25.8237C284.617 20.6734 287.936 16.8088 288.092 14.7284C288.365 11.1677 300.73 5.58887 300.73 5.58887Z" fill="#CC6D3D"/>
<path d="M312.074 18.8735C313.648 20.1903 315.916 27.8494 313.882 33.288C312.534 36.8487 294.489 38.9836 294.021 33.5217C293.78 30.67 292.829 25.8626 296.141 21.881C300.192 17.0035 311.217 18.1567 312.074 18.8735Z" fill="#F5894E"/>
<path d="M283.666 23.6576C284.718 26.5249 286.939 28.4805 288.638 28.0208C290.344 27.5611 290.881 24.8419 289.83 21.9512C288.778 19.0449 286.534 17.0814 284.827 17.5645C283.121 18.0476 282.607 20.7825 283.666 23.6576Z" fill="#CC6D3D"/>
<path d="M288.855 11.3391C288.855 11.3391 290.64 18.9281 289.977 21.3279L288.294 24.9666L286.222 14.1363L288.855 11.3391Z" fill="#1D2538"/>
<path d="M307.259 5.38635C307.259 5.38635 305.257 8.60429 296.795 10.3574C292.595 11.2301 289.315 13.4351 287.188 13.4429C281.975 13.4584 288.614 2.65149 297.185 0.586714C305.849 -1.50923 307.259 5.38635 307.259 5.38635Z" fill="#1D2538"/>
<path d="M297.216 0.469797C290.398 2.40212 284.398 10.0067 288.598 9.99115C289.79 9.98336 291.676 9.92104 293.943 9.71846C297.73 8.36272 301.4 5.62787 301.4 5.62787C301.501 7.49785 299.475 8.65099 297.169 9.36003C299.187 9.09512 301.353 8.72113 303.519 8.20689C307.08 7.3576 307.493 7.45888 307.508 6.26676C307.547 3.82798 304.579 -1.62615 297.216 0.469797Z" fill="#3E4C6F"/>
<path d="M308.109 19.0293C308.389 20.2759 309.106 20.6655 309.729 20.5018C310.36 20.3382 310.664 19.676 310.384 18.4293C310.103 17.1748 309.363 16.2944 308.732 16.4658C308.109 16.6294 307.828 17.7826 308.109 19.0293Z" fill="#34283A"/>
<path d="M297.185 19.8006C297.481 21.0317 298.19 21.4213 298.806 21.2577C299.421 21.094 299.709 20.4395 299.421 19.2007C299.125 17.9618 298.393 17.0891 297.769 17.2528C297.146 17.4242 296.889 18.5618 297.185 19.8006Z" fill="#34283A"/>
<path d="M296.912 15.1335C296.912 15.1335 298.003 14.1283 299.32 14.5101" stroke="#34283A" stroke-miterlimit="10" stroke-linecap="round" stroke-linejoin="round"/>
<path d="M307.657 14.0739C308.981 13.8947 310.072 14.5959 310.072 14.5959" stroke="#34283A" stroke-miterlimit="10" stroke-linecap="round" stroke-linejoin="round"/>
<path d="M608.958 169.454L451.007 140.906C451.007 140.906 436.327 147.7 433.881 148.518C431.434 149.336 427.359 168.909 427.359 168.909L440.41 195.011L588.03 233.345L616.306 222.468L625.274 190.663L608.958 169.454Z" fill="#7A462F"/>
<path d="M608.958 169.454C608.958 169.454 586.939 171.355 581.501 178.422C576.062 185.489 573.888 207.781 573.888 207.781L588.022 233.338L616.298 222.461C616.298 222.461 625.001 202.343 625.266 190.655C625.547 178.976 608.958 169.454 608.958 169.454Z" fill="#CC6D3D"/>
<path d="M605.678 181.96C605.678 181.96 605.187 182.006 604.377 182.1L603.528 195.011L601.245 182.56C597.154 183.269 591.419 184.679 589.432 187.266C586.215 191.45 584.929 204.633 584.929 204.633L593.289 219.749L610.01 213.313C610.01 213.313 615.153 201.415 615.316 194.496C615.488 187.593 605.678 181.96 605.678 181.96Z" fill="#B44C29"/>
<path d="M544.233 202.335L544.623 201.47L538.125 200.465L545.807 198.868L546.025 198.392L525.074 191.411L547.568 194.995L549.656 190.398L444.641 175.976C444.641 175.976 478.581 189.65 476.618 190.312C474.646 190.967 447.22 188.107 447.22 188.107L457.201 199.577L554.168 224.681L576.491 219.718L544.233 202.335Z" fill="#A96443"/>
<path d="M431.052 163.47L429.962 167.818L441.93 168.909L444.103 166.19L465.304 168.363L443.013 160.213L431.052 163.47Z" fill="#A96443"/>
<path d="M439.218 203.083C439.218 203.083 440.55 192.299 449.744 188.918C449.744 188.918 448.669 195.759 439.218 203.083Z" fill="#BB83C3"/>
<path d="M441.579 191.232C441.735 189.26 440.636 186.72 441.213 183.066C441.213 183.066 434.691 190.32 436.748 196.951L437.231 199.483C437.223 199.491 441.423 193.203 441.579 191.232Z" fill="#BB83C3"/>
<path d="M602.491 240.934C602.491 240.934 614.218 223.24 624.838 218.744C624.838 218.744 609.387 217.77 604.587 227.611C604.587 227.611 602.211 221.144 601.182 211.046C601.182 211.046 596.577 232.738 599.507 237.935C601.12 240.779 602.491 240.934 602.491 240.934Z" fill="#34283A"/>
<path d="M596.055 236.127C596.055 236.127 596.788 230.431 593.819 222.087C593.048 219.928 587.913 216.297 587.913 216.297L596.055 236.127Z" fill="#34283A"/>
<path d="M529.92 232.278C529.92 232.278 531.276 221.627 537.525 218.362L533.372 229.559C533.372 229.559 538.429 223.442 546.252 223.084C546.252 223.084 539.87 225.195 535.764 230.377C535.102 231.218 534.494 232.138 533.988 233.143L529.92 232.278Z" fill="#BB83C3"/>
<path d="M552.641 229.052C552.641 229.052 560.121 216.687 565.645 215.004L559.084 224.307C559.084 224.307 571.808 218.113 578.4 218.424L559.271 230.626C559.271 230.626 562.793 230.018 565.364 231.203C567.928 232.395 551.036 234.405 551.036 234.405L548.48 224.86L552.641 229.052Z" fill="#BB83C3"/>
<path d="M511.501 63.4727C511.501 63.4727 504.932 59.9431 499.4 64.5168C493.868 69.0905 484.721 84.9074 478.347 93.8133C474.303 99.47 469.644 109.685 477.249 112.661C493.923 119.183 499.548 87.3073 506.522 80.8169C513.495 74.3186 517.461 67.1192 511.501 63.4727Z" fill="#7A462F"/>
<path d="M499.4 64.517C493.868 69.0906 484.721 84.9076 478.347 93.8134C474.304 99.4701 480.693 97.2495 485.625 95.7068C490.557 94.164 488.102 95.8314 492.513 87.3853C496.206 80.3028 504.932 59.9433 499.4 64.517Z" fill="#A96443"/>
<path d="M499.276 127.325C499.276 127.325 481.636 131.307 471.125 134.213C460.614 137.119 453.905 140.01 457.17 147.622C460.434 155.235 522.471 155.601 526.827 144.724C531.182 133.847 516.674 124.419 499.276 127.325Z" fill="#CE9436"/>
<path d="M558.398 124.738C558.398 124.738 564.289 150.521 554.861 154.868C545.433 159.216 502.299 153.778 503.39 140.734C504.48 127.683 510.636 119.346 531.665 120.796C552.695 122.245 558.398 124.738 558.398 124.738Z" fill="#CE9436"/>
<path d="M551.238 143.633C549.009 144.622 543.392 146.118 538.678 147.435C540.345 146.492 542.012 145.511 543.719 144.724C550.474 141.607 555.679 137.111 555.679 137.111C555.679 137.111 543.376 132.023 537.462 135.755C521.513 145.814 518.7 144.817 523.328 148.355C525.518 150.03 527.598 150.669 529.616 150.669C527.395 152.04 527.201 153.364 533.839 152.336C543.259 150.879 554.495 142.184 551.238 143.633Z" fill="#F7BC4B"/>
<path d="M502.12 62.974C499.946 65.5998 501.302 71.5837 501.302 81.37C501.302 87.3539 501.933 91.8809 502.657 103.116C503.779 120.546 503.397 126.631 503.397 126.631C503.397 126.631 511.844 130.52 524.559 131.766C535.203 132.818 559.287 129.304 559.287 129.304C559.287 129.304 560.37 126.148 559.887 118.209C558.391 93.6028 558.967 90.9069 558.484 81.8219C557.76 68.2489 558.936 62.0702 553.77 60.4339C548.604 58.7977 537.19 57.4653 530.832 57.2783C523.056 57.068 505.657 59.6002 502.12 62.974Z" fill="#29ABE2"/>
<path d="M502.12 62.974C499.946 65.5998 501.302 71.5838 501.302 81.37C501.302 87.354 504.73 68.7632 515.934 67.6568C541.008 65.1947 547.584 96.0183 547.584 96.0183C547.584 96.0183 528.471 88.624 517.376 104.34C513.043 110.48 519.994 131.322 524.567 131.774C535.211 132.826 559.294 129.312 559.294 129.312C559.294 129.312 560.378 126.156 559.894 118.217C558.398 93.6107 558.975 90.9148 558.492 81.8298C557.767 68.2568 558.944 62.078 553.778 60.4418C548.612 58.8055 537.197 57.4732 530.84 57.2862C523.056 57.068 505.657 59.6003 502.12 62.974Z" fill="#1689CB"/>
<path d="M502.844 97.1092C502.844 97.1092 522.417 105.392 550.848 99.0103L549.984 91.5537C549.984 91.5537 534.034 98.9947 502.361 90.7045L502.844 97.1092Z" fill="#3E4C6F"/>
<path d="M502.205 87.5411C502.205 87.5411 524.505 94.8808 549.337 88.0241L548.34 80.2871C548.34 80.2871 525.666 85.8269 501.527 80.2247L502.205 87.5411Z" fill="#3E4C6F"/>
<path d="M538.093 58.081C537.275 63.0677 535.584 64.5091 534.743 65.6934C532.561 68.7321 528.65 71.3034 522.541 71.1242C516.433 70.945 519.09 62.5768 519.09 62.5768C519.09 62.5768 521.084 57.668 525.868 57.1226C532.46 56.3746 538.179 57.5824 538.093 58.081Z" fill="#7A462F"/>
<path d="M525.946 62.9429C521.342 62.7949 521.692 61.369 521.692 61.369L520.399 49.37C520.212 47.5467 521.879 46.0351 524.747 46.1286L529.686 46.2066C532.468 46.2923 534.011 47.8584 534.47 49.6271C534.47 49.6271 536.208 57.5044 536.208 59.9665C536.216 62.4599 530.559 63.091 525.946 62.9429Z" fill="#7A462F"/>
<path d="M485.742 250.596C485.656 250.627 485.57 250.666 485.492 250.713C484.253 251.391 474.148 256.861 472.979 258.325C472.021 259.525 472.636 263.943 472.971 265.938C473.073 266.553 473.509 267.06 474.101 267.262C476.493 268.088 482.796 270.286 488.905 269.67C496.564 268.899 496.33 266.008 502.034 263.281C505.766 261.497 508.041 260.351 509.163 259.767C509.701 259.486 509.942 258.941 509.966 258.333L510.277 251.648C510.316 250.806 509.857 250.066 509.031 249.903C505.221 249.131 494.515 247.433 485.742 250.596Z" fill="#29ABE2"/>
<path d="M485.609 250.651C485.609 250.651 474 256.986 472.753 258.552C471.506 260.11 472.691 265.487 472.691 265.487C472.691 265.487 481.004 268.79 488.663 268.019C496.323 267.248 496.323 264.692 502.026 261.965C506.444 259.853 508.82 258.63 509.662 258.186C509.888 258.069 510.036 257.835 510.051 257.586L510.402 251.228C510.433 250.644 510.036 250.129 509.467 250.005C506.101 249.272 494.772 247.285 485.609 250.651Z" fill="#121721"/>
<path d="M479.953 253.658C479.953 253.658 485.757 251.609 491.445 254.227" stroke="#29ABE2" stroke-width="2" stroke-miterlimit="10" stroke-linecap="round" stroke-linejoin="round"/>
<path d="M484.16 251.157C484.16 251.157 489.965 249.108 495.653 251.726" stroke="#29ABE2" stroke-width="2" stroke-miterlimit="10" stroke-linecap="round" stroke-linejoin="round"/>
<path d="M514.991 236.423C514.991 236.423 519.339 214.677 521.879 203.8C524.419 192.923 521.879 187.85 521.879 187.85L524.419 175.89L527.684 170.818C527.684 170.818 526.235 165.021 520.071 160.307C513.908 155.593 503.397 143.633 499.408 153.785C495.419 163.938 489.256 208.88 488.531 215.409C487.806 221.931 486.357 236.431 486.357 236.431C486.357 236.431 482.009 240.054 482.368 242.594C482.734 245.134 487.44 249.84 487.44 249.84L501.94 248.391C501.94 248.391 508.828 251.29 511.368 250.565C513.9 249.84 514.991 236.423 514.991 236.423Z" fill="#F7BC4B"/>
<path d="M527.676 170.818C527.676 170.818 526.227 165.021 520.064 160.307C513.901 155.593 503.39 143.633 499.4 153.785C497.749 157.985 495.777 168.831 495.777 168.831C495.777 168.831 505.197 181.36 509.21 196.047C508.376 205.522 506.491 220.637 506.491 220.637C508.922 215.027 510.278 210.228 510.932 206.199C511.025 208.007 511.01 209.815 510.831 211.607C509.74 222.484 503.764 237.709 503.764 237.709C503.764 237.709 482.017 240.062 482.376 242.602C482.742 245.142 487.448 249.848 487.448 249.848L501.948 248.399C501.948 248.399 508.836 251.297 511.376 250.573C513.916 249.848 514.999 236.439 514.999 236.439C514.999 236.439 519.347 214.692 521.887 203.815C524.427 192.938 521.887 187.866 521.887 187.866L524.427 175.906L527.676 170.818Z" fill="#CE9436"/>
<path d="M541.085 155.593C541.085 155.593 500.304 138.74 485.445 136.924C470.587 135.109 460.434 134.205 457.536 140.368C454.637 146.531 457.536 149.796 459.71 154.868C461.884 159.941 530.216 172.633 530.216 172.633L541.085 155.593Z" fill="#F7BC4B"/>
<path d="M541.085 155.593C541.085 155.593 500.125 138.194 485.266 136.379C470.408 134.563 460.434 134.205 457.536 140.368C454.637 146.531 457.536 149.796 459.71 154.868C460.099 155.78 459.998 142.176 466.777 141.817C482.36 140.991 512.451 151.604 512.451 151.604L530.216 172.625L541.085 155.593Z" fill="#CE9436"/>
<path d="M492.512 145.441C492.512 145.441 500.086 145.417 503.389 147.981C506.693 150.536 511.002 157.408 511.002 157.408L492.512 145.441Z" fill="#CE9436"/>
<path d="M475.114 140.368C475.114 140.368 492.878 143.267 497.226 146.165C497.226 146.165 490.338 136.379 475.114 140.368Z" fill="#F7BC4B"/>
<path d="M535.016 156.949C535.016 156.949 531.214 160.214 525.861 166.829C523.492 169.758 520.204 172.54 519.285 175.991C518.326 179.583 520.064 186.315 525.502 187.858C532.172 189.806 535.585 185.637 538.249 183.643C540.914 181.648 543.236 171.34 545.566 170.335C547.895 169.33 550.887 163.681 550.887 163.681C550.887 163.681 548.893 157.027 545.566 155.032C542.239 153.037 537.673 153.295 535.016 156.949Z" fill="#121721"/>
<path d="M536.372 163.478C536.372 163.478 527.372 173.786 525.939 176.654C524.505 179.521 522.752 185.419 528.494 187.141C534.237 188.863 536.785 185.248 539.979 181.975C543.174 178.703 544.288 171.355 546.298 170.491C548.308 169.626 550.241 165.488 550.794 164.024C551.612 161.85 550.248 157.954 547.124 156.816C543.968 155.679 538.67 160.322 536.372 163.478Z" fill="#1689CB"/>
<path d="M554.588 61.0727C559.941 61.7116 563.073 68.0618 564.125 72.2459C565.824 78.9856 566.782 88.4602 568.255 92.9248C570.958 101.129 571.808 110.277 563.525 111.57C555.235 112.864 555.508 104.355 553.505 95.8155C552.095 89.816 548.986 79.6089 550.194 83.0762C551.409 86.5824 543.711 59.7871 554.588 61.0727Z" fill="#A96443"/>
<path d="M554.589 61.0728C559.941 61.7117 563.448 67.6333 564.499 71.8096C566.198 78.5416 566.775 88.4603 568.255 92.9249C570.959 101.129 571.808 110.277 563.526 111.57C559.139 112.256 555.804 91.0861 555.804 91.0861C555.804 91.0861 554.682 78.7442 553.334 72.6901C551.62 65.0621 554.589 61.0728 554.589 61.0728Z" fill="#7A462F"/>
<path d="M578.633 106.132C579.132 110.183 576.132 114.913 571.925 116.713C567.717 118.513 557.923 120.164 557.417 116.113C556.918 112.061 555.383 108.952 559.591 107.152C563.798 105.36 578.135 102.088 578.633 106.132Z" fill="#7A462F"/>
<path d="M586.136 91.7251C586.846 91.7251 587.422 91.1775 587.422 90.5019C587.422 89.8263 586.846 89.2786 586.136 89.2786C585.426 89.2786 584.851 89.8263 584.851 90.5019C584.851 91.1775 585.426 91.7251 586.136 91.7251Z" fill="#4B3355"/>
<path d="M581.352 92.8315C582.063 92.8315 582.638 92.2838 582.638 91.6082C582.638 90.9326 582.063 90.3849 581.352 90.3849C580.642 90.3849 580.067 90.9326 580.067 91.6082C580.067 92.2838 580.642 92.8315 581.352 92.8315Z" fill="#4B3355"/>
<path d="M579.28 96.1351L539.605 109.35L541.428 117.095L580.971 103.109L583.705 103.88L592.549 100.272L593.663 99.5635L594.123 97.148L588.388 91.7329L580.059 94.2652L579.28 96.1351Z" fill="#4B3355"/>
<path d="M578.633 94.6081L538.958 107.815L540.782 115.56L580.324 101.574L583.051 102.345L591.902 98.7376L594.123 97.1014L590.835 90.8291L587.734 90.198L579.412 92.7303L578.633 94.6081Z" fill="#665070"/>
<path d="M547.381 113.76C547.381 113.76 549.781 127.411 544.031 130.995C538.53 134.423 535.491 133.784 535.491 133.784C533.419 135.218 529.749 141.124 523.687 143.516C517.625 145.908 506.615 142.877 500.554 137.134C494.492 131.392 547.381 113.76 547.381 113.76Z" fill="#4B3355"/>
<path d="M547.381 113.76C547.381 113.76 546.664 101.075 537.33 97.9662C527.996 94.8574 524.17 102.275 521.536 102.992C518.903 103.709 512.685 101.558 507.659 102.275C502.634 102.992 494.975 106.825 495.216 121.185C495.458 135.545 502.392 142.246 513.643 140.571C524.894 138.896 528.962 129.32 531.595 126.452C531.595 126.452 536.146 128.844 542.122 125.977C547.778 123.25 547.381 113.76 547.381 113.76Z" fill="#856792"/>
<path d="M527.442 120.219C530.924 120.219 533.746 117.756 533.746 114.718C533.746 111.68 530.924 109.217 527.442 109.217C523.961 109.217 521.139 111.68 521.139 114.718C521.139 117.756 523.961 120.219 527.442 120.219Z" fill="#4B3355"/>
<path d="M527.443 120.227C530.571 120.227 533.107 118.012 533.107 115.279C533.107 112.547 530.571 110.331 527.443 110.331C524.314 110.331 521.778 112.547 521.778 115.279C521.778 118.012 524.314 120.227 527.443 120.227Z" fill="#34283A"/>
<path d="M506.561 132.304L510.909 130.854L504.746 113.814L501.489 115.63L506.561 132.304Z" fill="#BB83C3"/>
<path d="M508.143 119.004C508.143 119.004 577.496 95.8391 579.28 95.1768C581.064 94.5067 582.062 94.3976 581.508 92.5043" stroke="#BB83C3" stroke-width="0.5" stroke-miterlimit="10" stroke-linecap="round" stroke-linejoin="round"/>
<path d="M508.587 120.788C508.587 120.788 580.043 96.5715 583.503 95.7067C586.962 94.8418 586.962 93.2835 586.183 90.611" stroke="#BB83C3" stroke-width="0.5" stroke-miterlimit="10" stroke-linecap="round" stroke-linejoin="round"/>
<path d="M509.631 122.268C509.631 122.268 584.726 97.0311 585.957 96.7117C587.188 96.3922 588.194 100.07 588.194 100.07" stroke="#BB83C3" stroke-width="0.5" stroke-miterlimit="10" stroke-linecap="round" stroke-linejoin="round"/>
<path d="M510.075 123.904C510.075 123.904 580.838 100.187 581.952 99.7427C583.067 99.2985 584.29 100.187 584.96 101.971" stroke="#BB83C3" stroke-width="0.5" stroke-miterlimit="10" stroke-linecap="round" stroke-linejoin="round"/>
<path d="M586.964 103.044C586.975 102.369 586.408 101.812 585.698 101.801C584.988 101.789 584.404 102.328 584.393 103.004C584.382 103.679 584.949 104.236 585.659 104.247C586.369 104.258 586.953 103.72 586.964 103.044Z" fill="#665070"/>
<path d="M589.992 101.431C590.003 100.756 589.436 100.199 588.726 100.188C588.016 100.176 587.432 100.715 587.421 101.39C587.411 102.066 587.978 102.623 588.688 102.634C589.398 102.645 589.982 102.107 589.992 101.431Z" fill="#665070"/>
<path d="M567.593 103.833L566.354 104.916L566.665 109.248L569.914 112.342C569.914 112.342 572.54 115.895 574.091 115.747C575.633 115.591 575.789 114.664 577.34 114.664C578.883 114.664 579.35 115.131 580.745 113.892C582.139 112.653 583.526 112.497 584.298 112.349C585.069 112.194 585.069 110.183 585.84 108.796C586.612 107.402 583.986 103.537 582.903 101.527C581.82 99.5167 579.498 100.444 579.498 101.215C579.498 101.987 580.581 104.308 580.581 104.308L580.114 107.713L578.719 104.005L575.47 99.6725C575.47 99.6725 573.927 99.6725 573.304 100.14C572.688 100.607 572.992 102.306 572.992 102.306L570.366 101.223L568.044 102.618L568.512 104.16L567.593 103.833Z" fill="#7A462F"/>
<path d="M507.013 111.859C504.753 110.815 500.967 110.059 496.93 106.35C494.04 103.693 486.31 98.9713 480.739 99.1583C475.176 99.3376 470.852 102.555 473.696 110.503C476.54 118.45 494.64 120.429 499.408 121.871C504.184 123.305 506.693 125.143 510.371 120.975C514.049 116.806 509.272 112.903 507.013 111.859Z" fill="#7A462F"/>
<path d="M481.62 109.887C478.729 107.23 470.852 102.548 473.696 110.495C476.54 118.443 494.64 120.422 499.408 121.863C504.185 123.297 485.656 113.604 481.62 109.887Z" fill="#A96443"/>
<path d="M506.818 111.157C506.818 111.157 510.589 109.038 512.708 109.272C514.828 109.505 516.955 112.809 518.131 113.277C519.308 113.752 518.607 117.281 518.607 117.281L517.189 117.99C517.189 117.99 519.783 120.585 520.96 121.053C522.136 121.528 522.612 122.229 522.612 123.647C522.612 125.065 521.902 126.242 521.902 126.242C521.902 126.242 522.845 126.242 522.845 127.66C522.845 129.078 521.669 130.255 520.484 130.255C519.308 130.255 516.947 128.836 516.947 128.836L513.643 130.255C513.643 130.255 510.106 131.431 508.696 130.488C507.278 129.545 504.216 122.003 504.216 122.003C504.216 122.003 505.166 111.157 506.818 111.157Z" fill="#7A462F"/>
<path d="M537.525 35.7501C540.415 49.7283 538.678 54.7617 529.788 57.0992C523.063 58.8679 515.552 51.871 513.074 41.7263C510.597 31.5895 514.064 22.0291 520.812 20.3773C527.559 18.7255 534.922 23.1667 537.525 35.7501Z" fill="#273252"/>
<path d="M532.99 33.5297C530.707 24.4524 528.471 19.4892 518.552 21.1332C513.378 21.9903 508.485 23.6889 505.93 25.9874C503.616 28.0678 502.548 30.6779 503.078 36.8645C503.475 41.5316 504.831 51.7932 508.127 58.9615C510.238 63.5508 516.293 61.9691 521.606 60.7458C529.336 58.9693 536.652 54.1307 535.881 47.2896C534.829 38.0254 533.925 37.2541 532.99 33.5297Z" fill="#A96443"/>
<path d="M535.6 44.0404C535.016 36.0696 531.159 28.3092 522.697 29.7116C518.279 30.4441 510.324 34.9632 511.166 40.1992C512.077 45.8715 512.802 51.9022 514.882 56.4992C516.667 60.4496 520.134 61.408 525.081 59.6471C530.707 57.6446 533.037 57.4342 534.743 53.2735C536.442 49.1205 535.896 48.0687 535.6 44.0404Z" fill="#7A462F"/>
<path d="M503.803 26.3606C503.117 27.0696 502.611 31.6433 502.829 35.0327C502.875 35.7495 504.262 31.4563 504.262 31.4563C504.262 31.4563 505.018 32.3835 509.919 31.8926C514.82 31.4017 518.139 29.5941 518.139 29.5941C518.139 29.5941 521.529 35.2976 523.383 37.6117C525.23 39.9258 527.793 40.9465 527.793 40.9465L534.354 37.5182C532.912 30.459 529.601 20.7506 524.77 20.2909C515.942 19.4572 506.343 23.7582 503.803 26.3606Z" fill="#273252"/>
<path d="M535.608 40.7368C535.631 44.7027 533.699 47.9674 531.307 48.1388C531.307 48.1388 529.305 39.6226 528.868 38.0097C528.596 36.9968 528.401 33.7166 530.949 33.5296C533.504 33.3426 535.592 36.6306 535.608 40.7368Z" fill="#7A462F"/>
<path d="M534.969 43.7288C535.063 44.6638 534.392 45.5287 533.481 45.6767C532.569 45.8169 531.736 45.1859 531.634 44.2587C531.525 43.3159 532.195 42.4354 533.122 42.2874C534.042 42.1315 534.876 42.786 534.969 43.7288Z" fill="#F3E7D9"/>
<path d="M515.809 43.6977C516.043 45.1079 515.669 46.3313 514.976 46.4481C514.282 46.5572 513.519 45.5209 513.269 44.1106C513.012 42.6848 513.378 41.4225 514.087 41.3056C514.804 41.1888 515.576 42.2718 515.809 43.6977Z" fill="#1D2538"/>
<path d="M506.374 44.4379C506.576 45.7235 506.436 46.8143 506.062 46.8766C505.688 46.939 505.213 45.965 505.003 44.6794C504.784 43.3782 504.925 42.2562 505.306 42.1861C505.688 42.1237 506.164 43.1367 506.374 44.4379Z" fill="#1D2538"/>
<path d="M512.077 37.6748L515.786 37.9085" stroke="#1D2538" stroke-miterlimit="10" stroke-linecap="round" stroke-linejoin="round"/>
<path d="M503.857 39.3811L505.26 38.9214" stroke="#1D2538" stroke-miterlimit="10" stroke-linecap="round" stroke-linejoin="round"/>
<path d="M195.013 118.263C195.013 118.263 195.333 113.884 196.05 110.651C196.735 107.558 198.083 109.342 199.244 112.03C200.46 114.843 201.052 119.378 201.27 120.445C201.496 121.512 195.933 121.972 195.013 118.263Z" fill="#1D2538"/>
<path d="M190.424 155.757C187.058 155.157 178.752 148.331 178.97 142.425C179.189 136.519 178.861 127.886 179.991 124.411C179.991 124.411 179.095 118.427 179.025 115.131C178.963 111.835 179.773 111.531 181.191 112.848C182.609 114.165 185.126 119.113 185.126 119.113C185.126 119.113 191.982 114.656 198.496 116.066C205.01 117.476 207.643 121.177 208.828 124.551L209.062 124.769C209.062 124.769 215.957 125.089 219.3 125.751C222.642 126.413 223.897 127.816 223.149 131.416C222.401 135.015 222.494 136.722 220.842 138.319C219.183 139.916 211.321 144.241 207.137 145.721C207.137 145.721 206.841 153.84 205.789 156.201C204.737 158.562 193.79 156.349 190.424 155.757Z" fill="#273252"/>
<path d="M187.58 146.36C187.58 146.36 178.76 148.323 178.97 142.417C179.188 136.511 178.861 127.878 179.991 124.403C179.991 124.403 179.095 118.419 179.025 115.123C178.963 111.827 179.773 111.523 181.191 112.84C182.609 114.157 185.126 119.105 185.126 119.105C185.126 119.105 191.982 114.648 198.496 116.058C198.496 116.058 191.577 117.609 189.38 120.741C187.19 123.873 185.928 135.155 185.928 135.155C185.928 135.155 195.387 142.931 195.052 143.672C194.016 146.033 187.58 146.36 187.58 146.36Z" fill="#1D2538"/>
<path d="M196.517 118.053C196.517 118.053 196.579 113.822 196.673 111.009C196.782 107.838 198.59 109.287 199.758 111.975C200.974 114.788 201.917 117.749 202.143 118.816C202.361 119.884 196.829 120.718 196.517 118.053Z" fill="#273252"/>
<path d="M199.236 126.989C199.807 126.575 199.673 125.414 198.935 124.397C198.198 123.379 197.137 122.89 196.566 123.304C195.994 123.718 196.129 124.879 196.866 125.896C197.603 126.914 198.664 127.403 199.236 126.989Z" fill="#121721"/>
<path d="M207.786 124.71C208.142 124.501 207.99 123.582 207.446 122.659C206.902 121.736 206.173 121.157 205.817 121.367C205.461 121.577 205.613 122.495 206.157 123.418C206.701 124.341 207.43 124.92 207.786 124.71Z" fill="#121721"/>
<path d="M223.211 128.299C223.803 130.091 223.032 131.119 222.775 132.249C222.416 133.792 218.014 131.914 217.422 130.122C216.83 128.33 216.3 125.751 218.575 125.72C220.157 125.696 222.627 126.507 223.211 128.299Z" fill="#121721"/>
<path d="M197.46 145.09C197.46 145.09 206.763 147.755 206.896 145.667C211.01 144.256 217.391 140.703 217.391 140.703L205.961 142.955L197.46 145.09Z" fill="#1D2538"/>
<path d="M157.481 177.277C156.912 176.311 153.25 171.628 152.572 169.283C151.894 166.937 150.515 161.343 153.211 158.593C153.211 158.593 149.674 158.359 147.516 165.745C145.357 173.132 152.183 180.651 152.759 181.282C155.354 184.11 159.109 180.035 157.481 177.277Z" fill="#1D2538"/>
<path d="M215.544 199.927C214.586 198.283 211.843 196.873 211.843 196.873C211.539 196.522 210.589 195.876 210.449 195.509C209.397 192.697 206.537 185.006 206.21 183.752C205.532 181.142 205.142 173.046 203.732 167.039C202.314 161.031 194.071 167.608 194.803 173.529C195.325 177.752 201.589 194.216 202.221 195.821L205.548 200.823C206.607 201.82 209.069 202.187 211.461 201.836C213.838 201.47 216.479 201.54 215.544 199.927Z" fill="#1D2538"/>
<path d="M196.089 145.464C196.089 145.464 185.258 140.563 177.669 145.939C170.875 150.747 169.021 164.81 160.738 166.571C155.533 167.678 155.767 186.362 157.559 189.728C160.839 196.016 167.945 195.346 170.914 194.863C179.672 193.437 200.514 171.799 203.771 169.384C206.693 167.218 209.685 157.432 204.324 151.495C202.275 149.227 199.953 146.796 196.089 145.464Z" fill="#273252"/>
<path d="M193.86 146.617C187.58 143.368 185.266 140.555 177.669 145.931C170.875 150.739 166.8 165.348 158.549 167.249C149.206 169.4 151.684 186.752 157.699 191.162C173.438 202.701 182.695 184.889 185.359 179.116C185.359 179.116 176.368 175.532 176.033 171.784C175.698 168.036 183.778 160.837 183.778 160.837C187.284 155.492 196.081 147.77 193.86 146.617Z" fill="#1D2538"/>
<path d="M199.704 202.452C199.4 200.854 194.702 197.769 194.647 197.371C193.743 190.686 194.164 184.11 194.133 182.552C194.063 179.357 196.517 173.428 196.4 166.517C196.291 159.855 185.445 165.278 185.414 172.992C185.398 177.441 186.17 192.564 186.411 196.686C186.443 197.27 186.598 197.831 186.848 198.361L190.097 202.787C190.642 204.135 193.089 204.898 195.831 204.524C198.574 204.135 200.117 204.625 199.704 202.452Z" fill="#273252"/>
<path d="M178.697 142.752C178.697 142.752 177.342 144.918 177.225 146.609C177.225 146.609 183.209 149.352 193.533 151.985C199.065 153.396 207.316 154.066 207.316 154.066L207.612 149.601C207.612 149.609 190.829 148.573 178.697 142.752Z" fill="#992C29"/>
<path d="M207.566 149.663C207.566 149.663 211.422 154.744 211.539 157.665L204.909 161.328C204.909 161.328 206.031 152.554 207.566 149.663Z" fill="#C94039"/>
<path d="M207.566 149.663C205.883 152.157 204.909 161.328 204.909 161.328C204.909 161.328 208.017 157.658 208.173 156.45C208.329 155.25 207.566 149.663 207.566 149.663Z" fill="#992C29"/>
<path d="M207.012 152.687C207.012 152.687 202.828 158.133 200.67 159.138L199.338 155.491C199.338 155.491 202.641 152.912 207.012 152.687Z" fill="#992C29"/>
<path d="M10.8506 290.606C10.8506 290.606 1.50064 291.938 -6.51693 287.933C-6.51693 287.933 -3.17433 283.928 2.83301 285.931C2.83301 285.931 -3.8444 278.583 -11.1919 271.236C-11.1919 271.236 16.1956 278.583 20.2005 286.601C24.2132 294.611 10.8506 290.606 10.8506 290.606Z" fill="#34283A"/>
<path d="M60.9116 291.798L180.825 213.017C180.825 213.017 184.9 193.226 179.079 180.417C173.259 167.608 145.895 167.031 145.895 167.031L3.86145 233.977L60.9116 291.798Z" fill="#7A462F"/>
<path d="M72.8484 284.622L180.825 213.017L148.232 218.261L157.543 203.706L153.468 197.302L80.7024 235.722L72.8484 253.183L91.1821 264.535L72.8484 284.622Z" fill="#A96443"/>
<path d="M60.9118 291.798C60.9118 291.798 29.8622 294.128 19.3903 291.798C8.91056 289.469 -1.95095 265.408 -1.95095 265.408C-1.95095 265.408 -10.101 245.617 3.86938 233.977C17.8397 222.336 39.3758 233.392 46.9492 237.467C54.5071 241.542 71.3915 258.037 60.9118 291.798Z" fill="#CC6D3D"/>
<path d="M69.319 249.451L65.5712 245.617L101.023 229.193L81.4739 242.54L92.9198 239.439L91.9614 245.874L100.548 244.449L73.1291 259.946L69.319 249.451Z" fill="#7A462F"/>
<path d="M178.067 217.388C178.067 217.388 178.067 201.626 172.394 194.684L174.288 211.708C174.288 211.708 164.829 200.356 161.673 197.2C161.673 197.2 169.239 208.553 172.394 217.381L163.566 210.446L176.181 224.954L178.067 217.388Z" fill="#856792"/>
<path d="M42.3288 243.646C42.3288 243.646 24.2445 234.249 13.3674 239.415L20.1617 257.258L5.47447 249.1C3.31619 256.541 6.44842 264.154 6.44842 264.154C6.44842 264.154 14.4192 283.103 22.1096 284.817C29.7999 286.523 52.5826 283.524 52.5826 283.524C60.2651 258.738 42.3288 243.646 42.3288 243.646Z" fill="#B44C29"/>
<path d="M160.574 175.251L145.794 181.336L149.23 181.983L161.073 178.898L158.954 183.83L173.625 178.313L167.657 175.407L160.574 175.251Z" fill="#A96443"/>
<path d="M91.0497 208.872C95.1247 215.44 127.468 199.319 132.228 192.05C136.381 185.707 100.166 190.733 92.5379 193.889C84.9099 197.044 87.224 202.701 91.0497 208.872Z" fill="#C94039"/>
<path d="M51.0475 100.389C51.1099 97.5922 43.9182 86.5437 39.0562 88.7332C34.1865 90.9304 41.8378 99.883 41.8378 99.883C41.8378 99.883 34.8877 99.3765 31.4127 101.737C27.9376 104.098 28.9817 111.025 34.7163 110.347C40.4509 109.677 50.8761 108.493 51.0475 100.389Z" fill="#273252"/>
<path d="M40.537 108.773C40.537 108.773 34.9271 110.176 34.2258 115.957C33.5947 121.177 36.3295 123.141 36.3295 123.141C36.3295 123.141 28.9665 126.117 31.3195 134.065C34.0778 143.407 51.9751 144.132 56.0657 137.992C56.0657 137.992 73.0436 140.54 83.1104 129.281C93.1771 118.014 83.1104 106.342 76.6278 106.849C76.6278 106.849 69.9659 85.8191 50.6973 94.9353C40.7708 99.6258 40.537 108.773 40.537 108.773Z" fill="#273252"/>
<path d="M45.7337 108.205C45.7337 108.205 40.8094 111.049 40.2094 116.643C39.6718 121.692 42.0093 123.585 42.0093 123.585C42.0093 123.585 35.7215 126.468 37.7317 134.143C40.0925 143.173 55.3719 143.882 58.8703 137.937C58.8703 137.937 73.3705 140.4 81.9725 129.515C90.5744 118.63 81.9725 107.332 76.4326 107.831C76.4326 107.831 68.3995 86.5673 51.9358 95.3796C43.4507 99.9221 45.7337 108.205 45.7337 108.205Z" fill="#3E4C6F"/>
<path d="M51.8579 99.7741C51.5462 97.6859 44.7909 90.3851 41.4483 92.6369C38.1057 94.8887 44.9389 100.569 44.9389 100.569C44.9389 100.569 39.703 101.083 37.42 103.28C35.1371 105.485 36.7967 110.503 40.973 109.264C45.1649 108.041 52.7695 105.828 51.8579 99.7741Z" fill="#3E4C6F"/>
<path d="M118.819 174.441C118.819 174.441 135.906 176.28 138.532 177.596C141.158 178.913 143.378 186.907 136.545 191.115C129.712 195.322 124.343 196.257 112.516 192.315C100.68 188.364 101.21 173.124 118.819 174.441Z" fill="#1D2538"/>
<path d="M85.4399 207.025C85.4399 207.025 116.458 207.025 121.975 207.025C127.491 207.025 131.434 187.578 118.032 186.791C104.631 186.004 85.4399 181.009 80.7104 186.004C75.9809 190.998 70.4566 205.187 85.4399 207.025Z" fill="#273252"/>
<path d="M85.4399 207.025C85.4399 207.025 116.458 207.025 121.975 207.025C127.491 207.025 131.434 187.578 118.032 186.791C104.631 186.004 85.4399 181.009 80.7104 186.004C75.9809 190.998 70.4566 205.187 85.4399 207.025Z" fill="#1D2538"/>
<path d="M119.021 254.297C119.021 254.297 140.635 198.127 137.168 192.065C133.701 186.003 113.45 203.285 114.736 212.316C116.014 221.346 109.695 251.874 109.695 251.874L119.021 254.297Z" fill="#CC6D3D"/>
<path d="M133.755 211.568C138.415 196.834 142.015 183.354 140.55 180.791C137.082 174.729 127.779 175.321 123.128 182.404C118.476 189.486 113.45 203.278 114.728 212.316L133.755 211.568Z" fill="#1D2538"/>
<path d="M134.659 210.508C138.477 198.423 141.438 187.367 140.238 185.271C137.394 180.3 129.166 180.651 125.348 186.463C121.53 192.276 118.009 203.722 119.06 211.124L134.659 210.508Z" fill="#273252"/>
<path d="M111.596 249.809C110.458 250.557 109.017 252.115 105.994 254.227C103.407 256.035 107.848 260.273 108.541 263.211C107.529 261.395 119.824 274.742 123.096 276.417C130.506 280.204 120.922 263.818 123.447 268.556C123.447 268.556 117.938 259.003 118.943 254.897C119.956 250.791 112.741 249.061 111.596 249.809Z" fill="#CC6D3D"/>
<path d="M107.677 252.38C108.16 252.123 108.783 252.014 108.588 252.45C108.394 252.887 108.043 254.796 108.635 255.809C109.227 256.822 116.076 268.182 120.299 269.436C122.878 270.2 122.457 267.847 121.624 265.61C121.071 264.13 120.151 261.497 120.151 261.497C120.151 261.497 122.629 266.99 124 269.389C125.372 271.789 127.265 278.311 126.696 280.056C126.12 281.801 111.682 272.21 110.03 269.834C108.378 267.457 106.305 263.756 105.441 261.995C104.755 260.608 103.29 259.884 103.158 259.167C102.869 257.562 106.228 253.167 107.677 252.38Z" fill="#992C29"/>
<path d="M115.336 197.886C115.336 197.886 116.108 192.408 122.325 191.964C129.455 191.465 141.828 220.684 143.285 223.349C144.742 226.013 161.011 254.671 162.289 258.941C163.465 262.844 157.045 268.969 151.458 261.917C146.402 255.528 135.143 240.482 129.72 235.184C124.289 229.886 109.36 210.22 115.336 197.886Z" fill="#CC6D3D"/>
<path d="M137.581 217.139C141.571 216.858 147.921 232.317 149.277 234.249C150.64 236.174 158.759 251.289 159.484 253.674C160.138 255.863 152.012 248.82 149.978 246.202C147.944 243.584 145.03 239.212 142.412 235.434C139.794 231.655 134.106 217.38 137.581 217.139Z" fill="#F5894E"/>
<path d="M109.921 194.582C109.921 194.582 113.7 186.689 120.829 187.235C127.959 187.78 140.784 219.087 143.215 222.523L129.712 235.176C124.289 229.886 103.945 206.916 109.921 194.582Z" fill="#1D2538"/>
<path d="M114.954 196.655C114.954 196.655 117.9 190.515 123.447 190.936C128.995 191.356 138.984 215.729 140.877 218.409L129.797 216.313C125.567 212.191 114.954 196.655 114.954 196.655Z" fill="#273252"/>
<path d="M151.396 260.086C151.762 261.403 152.798 263.25 153.873 266.771C154.801 269.795 160.2 266.865 163.208 267.106C161.166 267.512 177.653 259.915 180.248 257.312C186.131 251.43 167.595 255.513 172.877 254.562C172.877 254.562 162.094 256.868 158.494 254.648C154.894 252.435 151.03 258.769 151.396 260.086Z" fill="#CC6D3D"/>
<path d="M152.128 263.787C152.027 263.25 152.121 262.618 152.479 262.938C152.83 263.257 154.972 263.125 156.118 262.876C157.263 262.626 171.319 258.349 173.586 256.198C175.854 254.048 172.768 254.858 170.337 255.146C168.763 255.333 164.984 255.606 164.984 255.606C164.984 255.606 170.836 254.858 173.547 254.297C176.259 253.736 182.22 253.424 184.378 254.04C186.147 254.546 185.095 260.203 171.327 265.984C168.662 267.106 163.675 267.239 160.816 269.685C160.434 270.013 160.504 270.667 160.13 270.987C159.375 271.641 158.229 271.867 157.746 271.805C156.102 271.594 152.424 265.408 152.128 263.787Z" fill="#992C29"/>
<path d="M124.655 140.329C124.655 140.329 126.915 141.054 126.689 141.856C126.47 142.659 124.429 142.293 124.429 142.293C124.429 142.293 124.717 143.532 123.845 143.75C122.972 143.968 122.247 143.68 122.247 143.68C122.247 143.68 122.972 144.482 122.247 144.7C121.523 144.918 118.024 145.285 118.172 144.918C118.32 144.544 124.655 140.329 124.655 140.329Z" fill="#F5894E"/>
<path d="M115.048 145.417C115.048 145.417 117.962 139.768 118.928 138.794C119.902 137.82 123.782 139.083 123.782 139.083L115.048 145.417Z" fill="#F5894E"/>
<path d="M84.1932 147.825C84.1932 147.825 93.4808 160.268 95.0313 163.182C96.5818 166.096 93.3093 172.376 88.2604 169.072C83.2192 165.776 75.451 156.559 75.2562 152.484C75.077 148.401 80.3129 145.495 84.1932 147.825Z" fill="#CC6D3D"/>
<path d="M108.254 150.053C104.693 151.947 91.9538 155.975 87.2944 159.66C82.635 163.346 83.9985 167.226 88.6501 169.75C93.3017 172.275 104.148 163.369 110.163 159.684C116.178 155.998 117.658 152.772 116.108 150.638C114.565 148.503 112.82 147.63 108.254 150.053Z" fill="#CC6D3D"/>
<path d="M109.22 156.068L95.9351 168.683C95.9351 168.683 103.306 164.413 111.261 158.935C118.219 154.144 109.22 156.068 109.22 156.068Z" fill="#F5894E"/>
<path d="M114.206 155.383C114.206 155.383 118.437 155.85 120.222 153.879C122.006 151.907 125.31 149.85 126.322 149.204C127.702 148.331 128.216 146.726 125.45 146.944C123.549 147.092 122.66 148.043 120.876 148.417C119.092 148.791 118.718 146.539 118.718 146.539C118.718 146.539 120.876 144.092 121.351 143.251C121.827 142.409 124.639 141.28 126.33 140.337C128.021 139.394 128.395 138.646 127.741 137.703C127.086 136.761 126.104 137.555 124.078 137.984C122.512 138.319 119.372 139.153 118.056 140.462C116.739 141.778 115.141 143.056 111.557 148.105C109.228 151.385 110.451 155.57 114.206 155.383Z" fill="#CC6D3D"/>
<path d="M68.3139 140.664C70.067 136.106 71.9915 135.054 76.3704 136.807C80.7493 138.561 85.8294 151.876 85.8294 151.876L73.0356 156.084C73.0434 156.084 67.8074 141.981 68.3139 140.664Z" fill="#EE5D4F"/>
<path d="M49.1232 138.732C50.5413 135.896 55.0449 136.768 62.0885 136.628C70.8463 136.457 73.4798 137.501 82.6739 141.708C89.2345 144.708 88.8916 159.582 89.5929 164.312C90.2941 169.041 90.2941 188.318 77.6795 191.123C65.0649 193.928 61.3872 178.157 53.8528 166.244C46.3183 154.331 46.8481 143.29 49.1232 138.732Z" fill="#F7BC4B"/>
<path d="M49.1232 138.732C50.5413 135.896 55.0449 136.768 62.0885 136.628C66.4674 136.542 66.1947 146.757 64.1065 151.191C61.6444 156.434 59.8757 161.328 64.5662 166.143C72.5838 174.363 64.052 173.794 77.6795 191.123C65.0649 193.928 61.3872 178.157 53.8528 166.244C46.3183 154.331 46.8481 143.29 49.1232 138.732Z" fill="#CE9436"/>
<path d="M62.1042 182.863C62.2756 193.024 61.8704 196.779 66.2961 202.818C70.7217 208.864 88.5489 208.428 91.5253 209.651C94.5017 210.874 94.3303 210.352 94.3303 210.352C94.3303 210.352 94.7277 206.059 95.4289 202.031C96.1301 198.003 96.2158 193.359 101.997 188.364C107.779 183.37 113.428 187.983 116.716 185.474C126.704 177.854 130.912 175.75 130.912 175.75C130.912 175.75 120.658 174.433 108.573 173.124C97.5716 171.932 98.3196 171.901 86.2348 172.072C81.7936 172.134 61.925 172.703 62.1042 182.863Z" fill="#F7BC4B"/>
<path d="M61.1301 182.193C61.3015 192.354 61.8781 196.779 66.2959 202.826C70.7216 208.872 88.5488 208.436 91.5252 209.659C94.5016 210.882 94.3301 210.36 94.3301 210.36C94.3301 210.36 94.7275 206.067 95.4288 202.039C96.13 198.01 96.2157 193.367 101.997 188.372C107.778 183.378 113.427 187.99 116.715 185.481C116.715 185.481 107.677 178.679 99.1376 179.459C90.598 180.238 78.5911 182.162 76.4328 181.593C74.2745 181.025 71.5007 178.173 69.4983 175.859C67.4958 173.545 61.021 176.272 61.1301 182.193Z" fill="#CE9436"/>
<path d="M85.8839 157.736C85.0814 155.328 79.4559 154.253 76.7755 155.858C74.0952 157.463 71.4149 161.218 70.8851 163.891C70.3553 166.564 74.3679 161.748 79.9935 160.946C84.2633 160.338 86.6865 160.151 85.8839 157.736Z" fill="#CE9436"/>
<path d="M56.4861 160.813C56.4861 160.813 54.5149 176.28 53.463 178.726C52.4111 181.181 51.7099 186.611 46.6298 186.44C41.5496 186.268 41.0198 182.412 41.199 178.555C41.3782 174.698 41.4172 160.112 42.1184 158.71C42.8196 157.307 56.1355 153.629 56.4861 160.813Z" fill="#CC6D3D"/>
<path d="M56.4861 160.813C56.4861 160.813 54.5148 176.28 53.463 178.726C52.4111 181.181 50.2606 182.716 50.4398 178.866C50.6112 175.01 50.658 160.424 51.3592 159.021C52.0527 157.619 56.1355 153.629 56.4861 160.813Z" fill="#F5894E"/>
<path d="M57.1874 154.331C57.1874 154.331 59.6418 137.158 52.1073 137.337C44.5728 137.509 42.9911 145.596 42.2976 153.98C41.947 158.188 41.5964 162.037 41.5964 162.037C41.5964 162.037 44.9234 160.813 48.4296 160.284C52.2475 159.715 56.4861 160.806 56.4861 160.806L57.1874 154.331Z" fill="#C94039"/>
<path d="M57.1875 154.331C57.1875 154.331 59.6419 137.158 52.1074 137.337L53.9306 144.919L52.3801 157.144L48.4297 160.299C52.2476 159.73 56.4863 160.821 56.4863 160.821L57.1875 154.331Z" fill="#EE5D4F"/>
<path d="M52.3644 186.837C53.1124 181.095 55.1226 173.74 47.5881 172.166C40.0537 170.592 41.1523 181.757 40.6224 184.562C40.1004 187.367 39.22 209.791 39.0485 213.298C38.8771 216.804 45.5312 219.96 47.9855 215.752C50.4399 211.545 51.5541 193.071 52.3644 186.837Z" fill="#CC6D3D"/>
<path d="M52.3646 186.837C52.9723 182.162 54.4215 176.404 50.853 173.584C50.0426 172.945 50.6504 174.675 49.918 180.207C49.5674 182.879 48.4064 188.17 47.8844 190.975C47.3623 193.78 46.7234 199.039 46.552 202.545C46.3806 206.051 49.4271 211.56 49.9725 208.132C51.1257 200.909 51.8191 191.06 52.3646 186.837Z" fill="#F5894E"/>
<path d="M26.021 222.71C26.021 222.71 23.9095 223.24 22.9823 222.18C22.0551 221.12 28.1326 217.162 29.3247 215.97C30.5168 214.778 35.6671 213.064 38.4409 213.329C41.2147 213.594 26.021 222.71 26.021 222.71Z" fill="#A96443"/>
<path d="M47.6816 212.137C47.6816 212.137 49.3958 214.646 49.1309 217.155C48.866 219.663 49.2633 220.723 45.6948 221.12C42.1262 221.518 38.955 224.027 38.955 224.027C38.955 224.027 38.1603 224.689 36.976 224.689C35.7916 224.689 35.2618 224.027 35.3943 223.364C35.5267 222.702 40.4121 218.744 40.4121 218.744C40.4121 218.744 36.0566 219.009 35.2618 219.009C34.4671 219.009 30.7738 220.988 30.7738 220.988C30.7738 220.988 28.2649 223.629 27.3377 224.292C26.4105 224.954 25.756 225.219 24.299 224.159C22.8498 223.1 25.6236 220.856 26.2781 219.671C26.9404 218.479 31.1634 215.448 31.1634 215.448C31.1634 215.448 42.7963 211.217 47.6816 212.137Z" fill="#CC6D3D"/>
<path d="M71.1363 143.296C72.1156 141.482 70.8683 138.91 68.3504 137.55C65.8324 136.19 62.9974 136.559 62.0181 138.372C61.0388 140.186 62.2861 142.758 64.804 144.118C67.322 145.477 70.1571 145.109 71.1363 143.296Z" fill="#F5894E"/>
<path d="M55.0837 125.946L62.065 141.358L71.5551 142.363L67.8697 126.78L55.0837 125.946Z" fill="#F5894E"/>
<path d="M55.0837 125.946L62.065 141.358L69.054 132.647L67.8697 126.78L55.0837 125.946Z" fill="#CC6D3D"/>
<path d="M67.8226 97.2103C67.8226 97.2103 70.3548 100.039 72.8793 101.192C74.7883 102.064 76.292 102.174 76.292 102.174L75.8869 101.441L76.7907 100.685C76.7907 100.685 73.2767 100.467 68.5316 96.735L67.8226 97.2103Z" fill="#EE5D4F"/>
<path d="M67.5655 96.8752C67.5655 96.8752 68.9758 100.405 70.9548 102.353C72.4508 103.825 73.83 104.449 73.83 104.449L73.6975 103.623L74.8039 103.218C74.8039 103.218 71.5782 101.807 68.3914 96.6804L67.5655 96.8752Z" fill="#EE5D4F"/>
<path d="M69.1785 98.7063C70.0667 98.5115 70.7134 93.7197 68.5863 93.7041C66.5839 93.6963 64.3321 94.0392 64.7684 95.5352C65.2048 97.0312 68.298 98.8933 69.1785 98.7063Z" fill="#EE5D4F"/>
<path d="M69.833 95.9636C69.833 95.9636 69.42 93.9378 68.7889 94.0079C68.1578 94.078 68.7577 94.9273 68.9837 96.2675C69.2018 97.5998 69.9888 96.8207 69.833 95.9636Z" fill="#F7BC4B"/>
<path d="M68.3994 97.7479C68.3994 97.7479 68.228 96.8129 69.5603 95.8467C70.8927 94.8806 71.9134 94.343 72.8016 94.8494C73.6977 95.3559 74.0951 97.7167 73.6509 98.9322C73.2068 100.148 70.1213 99.3685 69.3344 98.9478C68.5474 98.527 68.3994 97.7479 68.3994 97.7479Z" fill="#EE5D4F"/>
<path d="M73.3469 96.7428C73.3469 96.7428 73.7131 98.6361 72.8716 98.979C71.6249 99.4932 72.2717 95.8545 72.3262 95.2779C72.3729 94.717 73.5183 95.3715 73.3469 96.7428Z" fill="#F7BC4B"/>
<path d="M74.8119 107.004C81.0997 121.559 78.0766 127.8 67.5189 130.746C59.5871 132.958 51.5929 130.005 48.0009 120.336C44.4012 110.667 46.0141 101.301 53.3616 97.5766C63.0699 92.6523 70.5888 97.226 74.8119 107.004Z" fill="#F5894E"/>
<path d="M72.5679 110.604C77.3597 123.546 69.9577 128.875 65.4074 130.184C59.0339 132.015 51.7331 129.881 48.5853 121.31C45.4375 112.739 47.3153 103.233 53.2135 100.132C66.9579 92.9016 70.6823 105.524 72.5679 110.604Z" fill="#CC6D3D"/>
<path d="M50.7872 125.74C52.376 124.735 52.2499 121.685 50.5055 118.929C48.761 116.174 46.0589 114.755 44.4701 115.76C42.8813 116.766 43.0074 119.815 44.7518 122.571C46.4962 125.327 49.1984 126.746 50.7872 125.74Z" fill="#CC6D3D"/>
<path d="M46.7231 116.261L47.5413 117.648C47.5413 117.648 44.8687 109.435 52.9409 103.405C60.1247 98.0285 68.9682 98.5817 68.9682 98.5817C68.9682 98.5817 60.9974 90.9849 50.3307 99.5946C42.1728 106.179 46.7231 116.261 46.7231 116.261Z" fill="#F7BC4B"/>
<path d="M60.834 111.492C60.834 111.492 61.021 113.292 59.6652 114.001C58.3095 114.718 56.9849 113.292 56.9849 113.292C56.9849 113.292 57.9433 113.448 59.003 112.957C60.0704 112.459 60.834 111.492 60.834 111.492Z" fill="#273252"/>
<path d="M73.0201 106.28C73.0201 106.28 73.8226 107.565 72.3578 108.298C71.5709 108.695 70.1138 107.636 70.1138 107.636C70.1138 107.636 71.2904 107.815 72.0929 107.433C72.8954 107.051 73.0201 106.28 73.0201 106.28Z" fill="#273252"/>
<path d="M68.4774 103.755C70.176 102.477 71.6564 103.342 71.6564 103.342" stroke="#1D2538" stroke-width="0.25" stroke-miterlimit="10" stroke-linecap="round" stroke-linejoin="round"/>
<path d="M57.6005 107.838C55.863 108.236 55.2864 110.713 55.2864 110.713" stroke="#1D2538" stroke-width="0.25" stroke-miterlimit="10" stroke-linecap="round" stroke-linejoin="round"/>
<path d="M313.874 315.796C313.874 315.796 260.541 320.004 258.437 320.004C256.333 320.004 254.23 327.024 260.541 332.634L311.069 322.809L313.874 315.796Z" fill="#B44C29"/>
<path d="M284.321 322.131L289.315 324.351L260.541 332.642L311.062 322.816L294.59 319.076L284.321 322.131Z" fill="#7A462F"/>
<path d="M332.115 327.725C332.115 327.725 347.55 344.571 354.57 350.882C361.59 357.201 374.922 363.512 374.922 363.512C374.922 363.512 375.623 369.831 372.117 373.337C368.611 376.844 355.972 377.545 355.972 377.545L343.171 359.32L323.692 330.522L332.115 327.725Z" fill="#B44C29"/>
<path d="M374.922 363.52L365.938 362.943L355.941 368.772L356.222 377.654C356.222 377.654 370.987 376.579 372.117 375.449C374.221 373.345 377.033 367.026 374.922 363.52Z" fill="#D77D5B"/>
<path d="M372.148 366.621L366.725 366.27L360.694 369.792L360.866 375.153C360.866 375.153 369.779 374.498 370.465 373.82C371.719 372.55 373.418 368.74 372.148 366.621Z" fill="#A96443"/>
<path d="M342.252 344.571L347.363 346.371L333.876 332.4L333.182 335.556L347.363 354.708L352.248 361.923L342.252 344.571Z" fill="#7A462F"/>
<path d="M400.369 347.672L337.031 323.518L334.849 328.793L367.208 350.188L382.043 360.442L400.369 347.672Z" fill="#B44C29"/>
<path d="M400.369 347.672C400.369 347.672 392.741 344.337 392.04 344.337C391.339 344.337 383.43 349.331 383.43 349.331C383.43 349.331 379.745 359.905 382.316 360.988C384.895 362.078 393.419 361.821 393.419 361.821L400.634 357.661L400.369 347.672Z" fill="#D77D5B"/>
<path d="M397.198 350.547C397.198 350.547 390.661 350.165 390.279 350.165C389.897 350.165 386.866 352.775 386.866 352.775C386.866 352.775 385.409 357.255 386.819 357.855C388.23 358.455 392.967 359.009 392.967 359.009L397.198 354.014V350.547Z" fill="#A96443"/>
<path d="M380.804 346.745L356.736 333.234L363.616 334.706L344.207 326.853L340.522 329.798L362.876 341.836L361.645 338.883L380.804 346.745Z" fill="#7A462F"/>
<path d="M308.748 326.572C308.748 326.572 291.411 352.292 287.905 355.097C284.399 357.902 283.698 369.13 295.627 371.943C307.556 374.748 313.173 370.54 313.173 370.54L320.194 328.434L308.748 326.572Z" fill="#B44C29"/>
<path d="M313.173 370.54L310.423 358.783L295.712 352.121L286.83 355.728C286.83 355.728 284.609 361.556 286.83 366.278C289.05 371 292.938 372.387 300.714 374.054C308.475 375.714 313.173 370.54 313.173 370.54Z" fill="#D77D5B"/>
<path d="M307.688 368.46L305.966 361.097L296.756 356.928L291.193 359.188C291.193 359.188 289.806 362.834 291.193 365.787C292.58 368.74 295.019 369.613 299.881 370.649C304.743 371.693 307.688 368.46 307.688 368.46Z" fill="#A96443"/>
<path d="M311.802 332.681L304.306 345.171L309.862 342.117L311.802 356.274L318.744 333.787L311.802 332.681Z" fill="#7A462F"/>
<path d="M303.348 320.713L277.386 331.239L268.964 338.26C263.346 339.662 239.488 352.292 236.683 352.994C233.878 353.695 237.228 363.855 240.742 365.258C244.249 366.66 247.209 363.52 247.209 363.52C247.209 363.52 303.348 331.941 308.966 329.136C314.576 326.323 303.348 320.713 303.348 320.713Z" fill="#B44C29"/>
<path d="M300.886 326.666L281.882 334.481L293.757 331.995L282.077 338.891L282.264 339.849L274.605 345.015L306.254 329.346L300.886 326.666Z" fill="#7A462F"/>
<path d="M234.992 356.975C234.758 353.609 236.667 352.986 236.667 352.986C236.667 352.986 242.207 352.861 243.594 354.154C244.981 355.448 245.721 362.39 245.721 362.39C245.721 362.39 245.074 365.211 244.241 365.585C243.407 365.959 240.571 365.904 238.553 365.125C234.345 363.497 235.117 358.744 234.992 356.975Z" fill="#D77D5B"/>
<path d="M236.628 358.479C236.48 356.313 237.711 355.907 237.711 355.907C237.711 355.907 241.28 355.822 242.176 356.663C243.072 357.497 243.547 361.969 243.547 361.969C243.547 361.969 243.126 363.785 242.597 364.026C242.059 364.268 240.236 364.229 238.935 363.73C236.208 362.678 236.706 359.624 236.628 358.479Z" fill="#A96443"/>
<path d="M280.807 337.122L253.038 350.446L249.337 356.367L254.526 352.3L263.034 351.186L280.807 337.122Z" fill="#7A462F"/>
<path d="M324.923 336.849C290.375 337.714 277.589 300.517 275.843 294.993C274.098 289.468 269.228 269.21 275.843 261.863C275.843 282.783 287.461 284.692 287.461 284.692C287.461 284.692 276.537 263.998 284.523 256.775C292.51 249.56 308.101 249.653 307.298 225.188C307.049 217.7 314.147 210.033 320.022 210.033C320.022 210.033 315.643 233.049 331.133 232.403C346.622 231.756 341.371 259.284 342.111 268.836C342.111 268.836 344.254 278.435 348.773 271.766C353.292 265.096 354.928 255.31 354.928 255.31C354.928 255.31 360.414 273.168 361.247 285.097C363.445 316.7 344.082 336.374 324.923 336.849Z" fill="#F7BC4B"/>
<path d="M315.62 331.644C283.261 325.512 291.232 298.522 293.569 294.291C293.569 294.291 293.725 303.127 295.245 306.618C297.769 312.438 307.711 314.409 303.566 305.527C299.421 296.645 297.995 291.027 306.309 275.592C306.309 275.592 318.222 265.852 315.643 245.204C314.131 233.096 321.549 272.249 321.549 272.249C321.549 272.249 325.686 262.806 327.26 276.612C328.25 285.323 334.14 314.472 344.036 301.561C346.256 321.157 328.063 334.005 315.62 331.644Z" fill="#EE5D4F"/>
<path d="M358.24 320.276C373.527 321.944 367.847 301.506 367.847 301.506C367.847 301.506 364.434 313.428 358.24 320.276Z" fill="#F7BC4B"/>
<path d="M295.626 202.311C294.94 206.441 295.743 214.56 299.756 205.755C303.34 197.901 296.312 198.182 295.626 202.311Z" fill="#FEED7F"/>
<path d="M342.586 222.897C342.586 222.897 350.16 224.276 348.095 218.074C346.03 211.879 342.586 222.897 342.586 222.897Z" fill="#EE5D4F"/>
<path d="M335.356 253.884C335.356 253.884 338.8 251.819 338.106 246.311C337.421 240.794 335.356 253.884 335.356 253.884Z" fill="#EE5D4F"/>
<path d="M298.517 232.535L296.452 222.897L295.073 224.276C295.081 224.276 290.943 228.405 298.517 232.535Z" fill="#EE5D4F"/>
<path d="M309.145 164.382C301.805 166.828 294.465 152.967 305.88 147.256C314.388 143.002 308.101 146.134 305.841 153.559C303.316 161.865 311.022 163.758 309.145 164.382Z" fill="#F7BC4B"/>
<path d="M281.297 221.276C278.851 218.011 268.496 227.891 272.368 238.862C273.833 243.007 272.322 233.509 278.033 229.434C283.744 225.359 283.744 224.541 281.297 221.276Z" fill="#F7BC4B"/>
<path d="M334.304 180.16C331.857 180.978 329.411 189.946 339.197 195.657C339.197 195.657 336.75 179.342 334.304 180.16Z" fill="#F7BC4B"/>
</svg>
