<svg width="515" height="541" viewBox="0 0 515 541" fill="none" xmlns="http://www.w3.org/2000/svg">
<path d="M48.4582 342.608C48.4582 342.608 46.2672 334.643 43.7623 328.936C41.3665 323.476 39.5305 327.264 38.3633 332.649C37.1416 338.294 37.7149 346.874 37.6944 348.921C37.6739 350.976 48.1033 349.809 48.4582 342.608Z" fill="#1D2538"/>
<path d="M70.6068 410.139C76.5995 407.811 89.4382 392.167 86.8787 381.342C84.3191 370.517 81.7664 354.47 78.4151 348.471C78.4151 348.471 77.8895 337.1 76.8043 330.991C75.7259 324.889 74.1151 324.616 71.9719 327.564C69.8287 330.513 66.9893 340.56 66.9893 340.56C66.9893 340.56 52.7036 334.84 41.1959 339.816C29.6882 344.792 26.1731 352.593 25.2243 359.248L24.8762 359.733C24.8762 359.733 12.2696 362.845 6.33827 365.289C0.406945 367.732 -1.38815 370.776 1.30108 377.151C3.99031 383.526 4.44079 386.714 8.08558 389.055C11.7304 391.396 27.8248 396.502 36.0836 397.716C36.0836 397.716 39.5919 412.603 42.404 416.575C45.2161 420.554 64.6209 412.473 70.6068 410.139Z" fill="#273150"/>
<path d="M72.436 391.758C72.436 391.758 89.4382 392.167 86.8855 381.342C84.3328 370.517 81.7732 354.47 78.4219 348.471C78.4219 348.471 77.8963 337.1 76.8111 330.991C75.7327 324.889 74.1219 324.616 71.9787 327.564C69.8355 330.513 66.9961 340.56 66.9961 340.56C66.9961 340.56 52.7104 334.84 41.2027 339.816C41.2027 339.816 54.5465 340.157 59.7338 345.133C64.9212 350.109 71.3712 370.483 71.3712 370.483C71.3712 370.483 56.7511 388.284 57.6316 389.533C60.4368 393.512 72.436 391.758 72.436 391.758Z" fill="#1D2538"/>
<path d="M45.5984 342.785C45.5984 342.785 43.933 335.004 42.7317 329.838C41.3802 324.029 38.5613 327.367 37.3942 332.752C36.1724 338.397 35.5172 344.191 35.4967 346.246C35.4831 348.3 46.0011 347.809 45.5984 342.785Z" fill="#273150"/>
<path d="M43.2967 355.925C44.1893 353.378 43.5344 350.83 41.8339 350.234C40.1335 349.639 38.0315 351.22 37.1389 353.767C36.2464 356.314 36.9012 358.862 38.6017 359.458C40.3021 360.054 42.4041 358.472 43.2967 355.925Z" fill="#121721"/>
<path d="M0.0656847 371.438C-0.364319 374.96 1.42398 376.578 2.31812 378.564C3.53988 381.274 10.9864 376.203 11.4233 372.681C11.8533 369.159 11.8942 364.204 7.68975 364.982C4.76163 365.528 0.495688 367.917 0.0656847 371.438Z" fill="#121721"/>
<path d="M53.7343 393.034C53.7343 393.034 37.5375 401.354 36.5205 397.546C28.4119 396.447 15.3411 392.215 15.3411 392.215L37.2577 392.202L53.7343 393.034Z" fill="#1D2538"/>
<path d="M130.575 403.457C129.954 401.437 128.077 390.42 125.675 386.502C123.279 382.585 117.231 373.582 109.996 373.841C109.996 373.841 114.153 368.62 127.163 374.974C140.172 381.322 141.994 400.351 142.138 401.962C142.766 409.156 132.343 409.218 130.575 403.457Z" fill="#1D2538"/>
<path d="M40.37 500.842C41.5304 497.45 46.0897 493.846 46.0897 493.846C46.5266 493.082 48.0418 491.546 48.1579 490.816C49.0656 485.233 51.5433 469.998 51.6866 467.561C51.9938 462.497 49.7482 447.413 50.1645 435.816C50.5809 424.22 68.2111 433.339 69.0233 444.539C69.6035 452.525 64.0475 485.205 63.4674 488.4L59.1605 498.843C57.5702 501.068 53.1541 502.651 48.6152 502.87C44.083 503.074 39.237 504.16 40.37 500.842Z" fill="#1D2538"/>
<path d="M117.982 436.676C113.587 435.222 106.754 439.011 106.679 445.242C106.618 450.546 130.732 471.507 130.732 471.507L132.084 475.779C132.084 475.779 128.685 479.704 130.138 481.813C130.48 482.311 135.128 481.492 138.875 480.741C141.619 480.189 143.571 478.878 143.564 477.561L143.55 475.902L144.97 469.609L128.371 452.334C128.377 452.341 123.989 438.669 117.982 436.676Z" fill="#1D2538"/>
<path d="M56.403 393.219C56.403 393.219 74.5997 380.209 90.5781 387.362C104.864 393.758 111.375 394.836 127.306 395.075C137.312 395.225 144.185 430.431 142.11 437.284C138.356 450.088 94.1614 451.221 88.4963 451.413C71.8012 451.979 57.8432 443.434 50.9563 440.171C44.7792 437.243 35.6809 420.275 43.4073 407.354C46.3559 402.426 49.755 397.089 56.403 393.219Z" fill="#273150"/>
<path d="M60.942 394.536C71.3371 386.243 74.5929 380.216 90.5781 387.362C104.864 393.758 115.675 395.048 131.599 395.532C149.625 396.085 147.202 426.377 141.906 439.359C137.885 449.215 94.1615 451.221 88.5032 451.412C88.5032 451.412 103.792 441.516 103.041 434.479C102.297 427.441 84.756 417.101 84.756 417.101C76.3061 408.521 57.2562 397.478 60.942 394.536Z" fill="#1D2538"/>
<path d="M70.5317 499.716C70.5112 496.652 78.0601 489.246 78.0124 488.495C77.2411 475.827 74.0604 463.835 73.5554 460.948C72.5247 455.023 65.8221 444.983 63.5151 432.179C61.29 419.838 83.2816 425.892 86.162 440.117C87.8205 448.321 91.9158 476.517 92.967 484.216C93.1171 485.301 93.0488 486.4 92.769 487.465L88.3802 496.816C87.8683 499.498 83.6229 501.805 78.4287 502.112C73.2345 502.419 70.5658 503.887 70.5317 499.716Z" fill="#273150"/>
<path d="M142.335 423.974C136.848 418.971 124.644 425.544 122.419 427.578C120.084 429.715 130.282 443.14 130.794 445.017C131.326 446.976 153.918 459.433 158.505 463.077C163.467 467.023 159.317 472.442 162.279 474.135C163.781 474.995 176.306 472.367 175.507 467.453C174.756 462.811 169.828 455.501 169.706 455.133C169.467 454.416 150.069 439.366 149.605 438.431C149.161 437.516 143.96 425.462 142.335 423.974Z" fill="#1D2538"/>
<path d="M87.5067 381.868C87.5067 381.868 90.8033 385.369 91.6361 388.455C91.6361 388.455 81.5958 395.71 63.4947 404.337C53.7957 408.958 38.8138 413.204 38.8138 413.204L36.6365 405.075C36.6433 405.068 67.2487 397.034 87.5067 381.868Z" fill="#992C29"/>
<path d="M36.7525 405.157C36.7525 405.157 31.4901 415.948 32.3364 421.374L45.9123 425.722C45.9123 425.722 40.643 409.928 36.7525 405.157Z" fill="#C93F37"/>
<path d="M36.7525 405.156C40.7659 409.149 45.9123 425.721 45.9123 425.721C45.9123 425.721 38.8343 420.084 38.1108 417.913C37.3873 415.743 36.7525 405.156 36.7525 405.156Z" fill="#992C29"/>
<path d="M38.8753 410.528C38.8753 410.528 48.5879 419.053 52.9289 420.118L54.0551 412.91C54.0619 412.91 47.0249 409.354 38.8753 410.528Z" fill="#992C29"/>
<path d="M265.665 281.759L202.086 278.019C184.053 275.609 184.238 250.942 184.64 232.582L185.466 168.716C185.835 150.888 195.977 138.711 213.997 138.711H266.28C286.497 138.711 298.694 150.806 298.694 170.484L303.683 251.42C303.683 271.93 286.462 284.585 265.665 281.759Z" fill="#634874"/>
<path d="M199.465 157.918C205.341 144.356 189.104 132.002 173.63 126.671C151.666 119.108 149.066 115.074 140.063 110.392C129.006 104.638 119.627 102.522 112.925 107.566C106.229 112.611 104.775 121.347 108.741 125.156C118.098 134.158 122.562 136.165 134.473 144.677C156.287 160.259 167.938 163.644 174.989 168.361C186.804 176.272 192.435 174.142 199.465 157.918Z" fill="#A86243"/>
<path d="M204.058 160C209.935 146.437 122.555 136.165 134.466 144.67C156.28 160.252 167.931 163.638 174.982 168.354C186.804 176.272 197.035 176.224 204.058 160Z" fill="#D77E5B"/>
<path d="M126.036 90.728C121.286 97.5875 113.717 109.382 120.126 115.798C124.746 120.419 122.76 125.053 129.593 121.736C137.271 118.002 142.022 100.55 142.226 100.133C145.837 92.8234 130.842 83.8001 126.036 90.728Z" fill="#7A4630"/>
<path d="M153.686 51.9934C153.686 51.9934 122.631 75.2955 114.474 84.4212C106.406 93.4513 99.3831 104.468 104.059 116.876C106.898 124.412 110.161 129.51 120.262 126.234C131.859 122.473 140.786 106.072 145.462 95.6286C151.734 81.6432 159.788 74.5857 164.546 69.7055C170.648 63.4465 170.177 43.68 153.686 51.9934Z" fill="#A86243"/>
<path d="M197.479 47.168L198.031 56.5734L191.95 58.232L187.152 50.1643L197.479 47.168Z" fill="#273150"/>
<path d="M148.042 63.8359L155.154 52.4783C155.154 52.4783 170.129 46.8746 178.763 46.2398C187.397 45.6051 192.298 49.6662 192.298 49.6662L193.028 66.3135C193.11 68.1905 191.868 69.8969 190.168 70.2518L187.513 70.8047L183.425 70.6067L183.268 72.8386C183.193 73.958 182.476 74.9341 181.487 75.2753L176.128 77.1114L168.156 78.8519C168.156 78.8519 162.143 77.3298 162.778 73.3164C163.413 69.3031 151.68 76.9749 148.042 63.8359Z" fill="#A86243"/>
<path d="M139.025 63.2146L144.888 73.1729L159.631 68.4156C160.908 68.0061 161.604 66.2519 161.106 64.6957C160.539 62.9211 158.99 62.0133 157.556 62.6071L147.496 65.4192L145.544 60.9895L139.025 63.2146Z" fill="#273150"/>
<path d="M128.227 27.654C113.266 33.2645 49.0658 52.5874 49.0658 52.5874C48.6495 55.7066 49.4821 68.791 51.7687 70.2448C51.7687 70.2448 61.1196 82.7081 117.628 70.6612C183.602 56.5939 251.256 28.8211 251.256 28.8211L250.178 10.8224C250.185 10.8292 143.182 22.0434 128.227 27.654Z" fill="#B44C29"/>
<path d="M123.859 17.4773C108.761 22.7056 57.3724 38.9843 49.8917 50.4101C44.0491 59.3378 64.0204 67.5488 136.322 50.7241C208.625 33.8993 237.298 18.8287 247.891 13.8462C258.485 8.85674 233.865 2.42034 188.264 0.0314288C177.821 -0.521433 156.273 6.25624 123.859 17.4773Z" fill="#F08650"/>
<path d="M51.9734 57.7817L76.0741 49.4683L55.2974 60.6893L51.9734 57.7817Z" fill="#B44C29"/>
<path d="M188.838 0.700195L148.479 13.9484C148.485 13.9416 188.756 2.45434 188.838 0.700195Z" fill="#B44C29"/>
<path d="M106.099 45.4207C112.645 42.3014 85.0838 50.7855 71.194 56.6417C71.194 56.6417 99.5538 48.5331 106.099 45.4207Z" fill="#B44C29"/>
<path d="M221.723 25.7838L218.603 22.0435L229.196 23.6065L221.723 25.7838Z" fill="#B44C29"/>
<path d="M110.775 57.8838L115.45 52.9012L121.054 56.9487L110.775 57.8838Z" fill="#B44C29"/>
<path d="M164.034 21.8185C165.815 24.4258 161.652 28.5688 152.424 31.7905C139.176 36.4113 121.457 37.3669 119.32 32.0157C117.307 26.9649 131.552 21.0472 145.161 19.3067C154.881 18.0577 162.3 19.2862 164.034 21.8185Z" fill="#B44C29"/>
<path d="M163.181 19.6342C164.675 21.5317 160.396 25.0809 151.366 28.2957C138.404 32.9097 121.47 35.0188 119.853 31.0122C118.324 27.2309 132.33 21.5249 145.414 19.1223C154.758 17.4091 161.727 17.7913 163.181 19.6342Z" fill="#F08650"/>
<path d="M267.917 140.213C270.572 130.91 284.913 136.493 292.073 140.991C303.464 148.137 302.27 153.447 309.989 157.474C323.934 164.75 362.518 191.397 351.987 203.526C341.462 215.654 323.791 204.87 310.003 196.277C300.134 190.127 282.619 176.954 272.763 167.31C268.661 163.296 265.262 149.516 267.917 140.213Z" fill="#A86243"/>
<path d="M349.577 221.32C354.655 212.999 359.87 205.505 352.976 197.171C342.178 184.128 333.708 191.267 326.453 200.202C319.32 208.993 319.354 211.928 312.843 220.774C306.283 229.681 293.663 242.478 293.663 242.478C293.663 242.478 282.981 252.034 288.073 259.208C293.445 266.784 297.24 266.866 303.185 263.624C311.86 258.901 345.755 227.585 349.577 221.32Z" fill="#A86243"/>
<path d="M181.077 449.884C180.92 449.938 180.763 450.013 180.613 450.095C178.354 451.337 159.904 461.316 157.761 463.992C156.007 466.183 157.126 474.257 157.741 477.888C157.932 479.015 158.717 479.936 159.795 480.311C164.163 481.82 175.671 485.833 186.831 484.707C200.823 483.294 200.393 478.025 210.809 473.042C217.62 469.787 221.77 467.684 223.832 466.626C224.821 466.114 225.251 465.125 225.306 464.012L225.879 451.808C225.947 450.279 225.101 448.921 223.599 448.621C216.658 447.201 197.103 444.102 181.077 449.884Z" fill="#29ACE4"/>
<path d="M180.838 449.973C180.838 449.973 159.638 461.549 157.358 464.395C155.079 467.241 157.242 477.056 157.242 477.056C157.242 477.056 172.415 483.09 186.408 481.677C200.4 480.264 200.393 475.602 210.809 470.62C218.876 466.763 223.21 464.531 224.753 463.719C225.169 463.501 225.436 463.084 225.456 462.62L226.091 451.017C226.152 449.952 225.429 449.003 224.391 448.785C218.255 447.468 197.574 443.83 180.838 449.973Z" fill="#13161F"/>
<path d="M170.504 455.467C170.504 455.467 181.097 451.727 191.486 456.504" stroke="#29ACE4" stroke-width="2" stroke-miterlimit="10" stroke-linecap="round" stroke-linejoin="round"/>
<path d="M178.19 450.894C178.19 450.894 188.783 447.153 199.171 451.931" stroke="#29ACE4" stroke-width="2" stroke-miterlimit="10" stroke-linecap="round" stroke-linejoin="round"/>
<path d="M294.004 450.341C305.751 454.45 322.787 458.443 323.586 463.698C324.384 468.913 324.937 474.414 324.48 476.366C324.132 477.841 323.504 478.721 322.371 479.206C319.484 480.441 313.723 483.403 302.072 484.564C297.041 485.069 285.998 482.366 279.261 477.376C273.91 473.411 267.487 468.797 265.078 467.07C264.45 466.619 264.034 465.937 263.924 465.173L263.044 459.262C262.866 458.054 263.474 456.859 264.566 456.306C269.678 453.713 284.421 446.99 294.004 450.341Z" fill="#29ACE4"/>
<path d="M298.741 447.918C309 451.788 323.04 457.637 323.838 463.439C324.555 468.667 324.876 471.541 324.732 473.541C324.664 474.517 322.302 474.981 321.149 475.466C318.214 476.701 312.351 479.67 300.509 480.844C295.39 481.349 285.343 479.841 278.504 474.858C272.804 470.708 265.917 465.848 263.774 464.34C263.344 464.04 263.057 463.576 262.969 463.057L262.109 457.958C261.74 455.76 262.989 453.617 265.085 452.866C272.702 450.116 289.615 444.478 298.741 447.918Z" fill="#13161F"/>
<path d="M292.257 458.996C292.257 458.996 301.812 450.273 312.617 453.597" stroke="#29ACE4" stroke-width="2" stroke-miterlimit="10" stroke-linecap="round" stroke-linejoin="round"/>
<path d="M285.609 454.839C285.609 454.839 295.581 446.942 306.386 450.266" stroke="#29ACE4" stroke-width="2" stroke-miterlimit="10" stroke-linecap="round" stroke-linejoin="round"/>
<path d="M290.591 276.162C290.591 276.162 293.67 316.931 299.314 349.713C302.358 367.391 305.212 399.041 307.013 422.09C308.228 437.625 309.225 449.344 308.501 449.877C306.72 451.201 298.113 448.628 282.387 452.566C266.866 456.457 260.477 458.702 260.477 458.702L258.041 451.208C258.041 451.208 256.58 447.72 258.491 433.339C259.058 429.086 254.191 422.486 253.495 417.067C249.058 382.339 242.643 329.285 239.469 293.615C234.629 239.12 280.435 230.513 290.591 276.162Z" fill="#F6BE4A"/>
<path opacity="0.5" d="M290.591 276.162C290.591 276.162 293.67 316.931 299.314 349.713C302.789 369.889 305.519 404.337 307.86 428.315C308.351 433.346 310.187 433.769 310.529 437.659C310.938 442.348 310.249 449.085 308.222 450.15C306.024 451.303 298.12 448.628 282.394 452.566C266.873 456.457 260.484 458.702 260.484 458.702L258.048 451.208C257.283 447.652 257.167 445.884 258.498 433.339C258.949 429.134 254.157 422.186 253.502 417.067C249.065 382.209 242.561 328.309 239.476 293.615C234.63 239.12 280.435 230.513 290.591 276.162Z" fill="#F6BE4A"/>
<path d="M186.865 273.841C186.865 273.841 184.64 320.336 183.459 348.041C182.606 367.964 179.937 449.808 179.937 449.808C179.937 449.808 183.445 448.457 198.332 448.921L219.695 458.415C219.695 458.415 224.487 459.712 225.75 458.989C227.012 458.272 230.439 454.907 230.773 446.73C231.838 420.732 232.036 364.074 231.647 359.876C231.292 356.088 231.654 312.316 234.507 279.868C235.756 265.651 229.203 253.747 210.406 248.894C192.359 244.239 187.336 259.528 186.865 273.841Z" fill="#F6BE4A"/>
<path d="M299.321 349.713C302.761 369.698 305.478 403.668 307.798 427.619C307.969 429.346 310.187 433.707 310.351 435.318C311.279 444.471 309.634 450.245 307.832 450.621C306.024 450.989 298.127 448.628 282.401 452.566C266.88 456.456 260.491 458.702 260.491 458.702L258.054 451.208C258.054 451.208 273.616 428.977 281.868 414.534C284.36 410.173 293.963 397.218 296.516 379.943C298.905 363.78 297.936 341.686 299.321 349.713Z" fill="#F6BE4A"/>
<path d="M238.029 298.604C265.682 298.604 288.1 282.21 288.1 261.986C288.1 241.762 265.682 225.367 238.029 225.367C210.375 225.367 187.957 241.762 187.957 261.986C187.957 282.21 210.375 298.604 238.029 298.604Z" fill="#F6BE4A"/>
<path opacity="0.5" d="M238.029 298.604C265.682 298.604 288.1 282.21 288.1 261.986C288.1 241.762 265.682 225.367 238.029 225.367C210.375 225.367 187.957 241.762 187.957 261.986C187.957 282.21 210.375 298.604 238.029 298.604Z" fill="#F6BE4A"/>
<path d="M230.548 261.515C231.852 253.822 226.234 258.648 221.873 261.201C218.651 263.091 216.098 264.511 219.102 266.682C223.934 270.176 229.701 266.518 230.548 261.515Z" stroke="#FEED7F" stroke-width="3" stroke-miterlimit="10"/>
<path d="M231.381 260.58C231.381 260.58 237.612 267.746 243.223 268.681C248.833 269.617 247.898 261.201 244.158 259.645C240.417 258.088 233.565 258.088 231.381 260.58Z" stroke="#FEED7F" stroke-width="3" stroke-miterlimit="10"/>
<path d="M231.695 259.959C231.695 259.959 239.482 267.596 239.796 278.189" stroke="#FEED7F" stroke-width="3" stroke-miterlimit="10"/>
<path d="M230.445 275.384C230.445 275.384 231.224 263.699 231.695 259.959" stroke="#FEED7F" stroke-width="3" stroke-miterlimit="10"/>
<path d="M285.09 406.692C292.148 399.396 298.577 381.991 298.072 373.397C298.072 373.397 271.548 411.654 270.647 413.285C268.136 417.852 284.817 406.979 285.09 406.692Z" fill="#F6BE4A"/>
<path d="M201.39 135.08C201.39 135.08 196.783 136.151 195.39 150.662C194.769 157.126 189.445 187.001 189.828 207.648C190.278 231.851 188.21 264.572 188.21 264.572C188.21 264.572 205.082 259.597 229.975 257.685C254.874 255.774 285.063 266.122 285.063 266.122C294.701 267.712 284.517 238.54 282.306 227.428C279.719 214.426 283.37 190.905 281.227 173.37C277.999 147.004 273.487 141.707 272.948 139.544C271.767 134.793 256.499 134.65 246.206 133.175C231.149 131.032 212.461 133.483 201.39 135.08Z" fill="#29ACE4"/>
<path d="M188.995 170.279C188.995 170.279 235.742 157.372 272.204 168.019L274.074 177.698C274.074 177.698 231.381 162.211 187.746 179.636L188.995 170.279Z" fill="#3D4C6D"/>
<path d="M187.439 181.896C187.439 181.896 235.742 168.668 272.204 179.316L274.074 188.994C274.074 188.994 231.688 174.476 188.06 191.895L187.439 181.896Z" fill="#3D4C6D"/>
<path opacity="0.5" d="M201.39 135.08C201.39 135.08 196.783 136.151 195.39 150.662C194.769 157.126 189.445 187.001 189.828 207.648C213.068 171.992 268.948 256.894 288.1 258.559C293.397 259.016 282.026 238.697 281.452 218.985C280.784 195.949 284.258 175.759 284.258 175.759C281.029 149.393 273.494 141.721 272.955 139.55C271.774 134.8 256.505 134.657 246.213 133.182C231.149 131.032 212.461 133.483 201.39 135.08Z" fill="#29ACE4"/>
<path d="M256.314 134.309C257.017 134.268 256.314 135.926 256.314 135.926C251.38 140.404 239.817 147.373 229.531 147.373C219.382 147.373 210.836 146.731 208.632 140.219C207.683 137.414 212.167 133.722 212.167 133.722C212.167 133.722 220.228 132.343 229.518 132.056C238.582 131.77 255.611 134.35 256.314 134.309Z" fill="#7A4630"/>
<path d="M229.17 138.254C221.013 137.994 221.266 131.694 221.327 127.742L222.132 114.842C222.18 111.703 225.463 109.102 230.541 109.252L239.312 109.389C244.24 109.539 246.656 112.249 247.107 115.293C247.107 115.293 248.554 128.889 248.049 133.128C247.53 137.428 237.333 138.506 229.17 138.254Z" fill="#7A4630"/>
<path d="M286.926 164.682C286.926 164.682 289.199 193.287 285.275 189.643C270.969 176.347 273.173 151.502 274.272 144.861C275.371 138.22 278.504 135.674 282.797 138.561C289.404 142.984 286.926 164.682 286.926 164.682Z" fill="#A86243"/>
<path d="M196.346 131.237C200.127 131.353 205.13 132.493 204.236 134.465C201.533 140.438 197.281 155.276 195.056 167.665C192.449 182.175 190.107 195.383 188.981 205.382C188.462 209.996 184.429 213.648 180.838 211.068C179.821 210.337 179.057 209.313 178.818 207.887C177.883 202.174 174.634 177.288 188.032 136.499C189.691 131.462 192.367 131.114 196.346 131.237Z" fill="#634874"/>
<path d="M279.705 134.472C277.214 132.534 266.819 130.411 262.962 131.599C259.106 132.786 260.232 149.782 265.037 168.989C269.685 187.554 276.873 211.62 280.709 215.866C281.466 216.698 282.531 217.128 283.63 217.053C285.937 216.89 289.609 216.084 289.418 212.596C289.145 207.539 285.097 185.206 281.964 160.928C279.302 140.233 282.121 136.349 279.705 134.472Z" fill="#634874"/>
<path d="M292.633 269.951C294.749 270.62 297.09 270.081 298.646 268.497C302.338 264.75 303.861 259.133 303.355 253.113C302.734 245.632 293.697 242.827 287.875 241.585C283.268 240.595 279.446 239.612 278.053 239.243C277.699 239.148 277.316 239.23 277.03 239.462L260.492 252.853C260.205 253.086 260.048 253.44 260.068 253.809L260.396 260.027C260.43 260.641 260.935 261.119 261.55 261.119C262.56 261.119 263.078 262.32 262.396 263.058L262.02 263.46C261.7 263.801 261.625 264.307 261.816 264.73L263.461 268.286C263.747 268.9 264.491 269.139 265.078 268.805L266.129 268.204C266.58 267.945 267.146 268.02 267.515 268.388L270.477 271.35C270.818 271.692 271.337 271.787 271.774 271.583L275.323 269.944C275.903 269.678 276.579 269.931 276.852 270.511C277.228 271.303 277.883 272.326 278.941 272.852C280.565 273.664 287.445 270.163 289.22 269.235C289.493 269.091 289.807 269.064 290.1 269.159L292.633 269.951Z" fill="#A86243"/>
<path d="M276.531 239.872L260.498 252.847C260.212 253.079 260.055 253.434 260.075 253.803L260.403 260.021C260.437 260.635 260.942 261.113 261.556 261.113C262.566 261.113 263.085 262.314 262.403 263.051L262.027 263.454C261.706 263.795 261.631 264.3 261.822 264.723L263.467 268.279C263.754 268.894 264.498 269.133 265.085 268.798L266.136 268.197C266.587 267.938 267.153 268.013 267.522 268.382L270.484 271.344C270.825 271.685 271.344 271.781 271.781 271.576L275.33 269.938C275.91 269.672 276.586 269.924 276.859 270.504C277.234 271.296 277.89 272.32 278.948 272.846C280.497 273.624 286.838 270.463 288.954 269.365C289.37 269.146 289.616 268.696 289.568 268.225L289.015 262.655C288.844 260.928 288.06 259.311 286.804 258.109L284.688 256.082C283.309 254.765 282.504 252.963 282.442 251.059L282.34 248.083C282.292 246.677 281.842 245.312 281.036 244.158L278.197 240.09C277.815 239.558 277.05 239.449 276.531 239.872Z" fill="#D77E5B"/>
<path d="M262.02 90.5507C261.119 114.699 256.082 122.275 240.015 122.548C227.865 122.753 218.009 108.222 218.009 90.5507C218.009 72.8796 227.865 58.553 240.015 58.553C252.164 58.553 262.825 68.8116 262.02 90.5507Z" fill="#273150"/>
<path d="M255.242 85.0765C255.126 69.2346 253.399 60.1704 235.878 58.8804C226.732 58.2115 217.73 59.0442 212.426 61.788C207.635 64.2725 204.741 68.1357 203.068 78.5309C201.806 86.3597 200.031 99.9014 202.652 113.013C204.331 121.415 215.109 124.596 224.61 125.251C249.14 126.944 252.908 120.426 254.437 108.863C256.498 93.2125 255.283 91.5812 255.242 85.0765Z" fill="#7A4630"/>
<path d="M252.068 94.6664C251.918 80.9336 246.274 74.9682 230.5 73.801C222.268 73.1935 206.051 77.4321 205.294 86.5237C204.481 96.366 203.3 104.939 205.048 113.457C206.549 120.781 214.406 123.347 222.965 123.948C245.052 125.49 250.082 118.01 251.386 107.99C252.498 99.4579 252.13 100.304 252.068 94.6664Z" fill="#A96344"/>
<path d="M208.658 61.5561C207.191 62.4434 206.624 63.3239 205.587 68.989C205.369 70.1834 207.566 65.5694 209.546 63.7675C211.525 61.9656 211.068 64.3818 221.429 64.1293C231.79 63.8767 246.478 62.0953 246.478 62.0953L247.918 76.4151L253.27 88.8511L256.498 81.9847C256.983 69.7944 254.785 62.6959 246.779 60.0067C232.124 55.0787 214.044 58.2935 208.658 61.5561Z" fill="#273150"/>
<path d="M234.643 74.0809C234.459 76.4971 233.319 78.3605 232.09 78.2649C230.862 78.1694 230.002 76.1558 230.159 73.7396C230.316 71.2961 231.462 69.3645 232.718 69.4601C233.967 69.5556 234.827 71.6374 234.643 74.0809Z" fill="#102342"/>
<path d="M229.64 69.269L235.817 67.3101" stroke="#273150" stroke-miterlimit="10" stroke-linecap="round" stroke-linejoin="round"/>
<path d="M217.313 74.6881C217.231 76.9678 216.235 78.7219 215.088 78.6332C213.935 78.5445 213.047 76.647 213.102 74.3673C213.156 72.0671 214.153 70.2515 215.327 70.3403C216.508 70.429 217.395 72.3879 217.313 74.6881Z" fill="#102342"/>
<path d="M216.713 69.2688L211.163 67.6853" stroke="#273150" stroke-miterlimit="10" stroke-linecap="round" stroke-linejoin="round"/>
<path d="M263.085 95.4443C261.474 101.976 256.846 106.563 252.703 105.894C252.703 105.894 252.833 91.0828 252.771 88.2571C252.73 86.4825 253.754 81.0085 258.17 81.732C262.573 82.4486 264.75 88.6871 263.085 95.4443Z" fill="#7A4630"/>
<path d="M260.75 100.106C260.518 101.683 259.024 102.836 257.413 102.707C255.802 102.577 254.655 101.205 254.867 99.6284C255.072 98.0381 256.573 96.8505 258.211 96.9801C259.843 97.1167 260.982 98.5227 260.75 100.106Z" fill="#E2D6C9"/>
<path d="M326.172 228.002C326.172 228.002 308.467 228.295 300.215 225.094C291.963 221.9 294.291 187.895 310.699 183.418C329.449 178.299 351.979 189.233 364.443 198.024C376.906 206.815 371.842 219.961 353.809 226.159C335.51 232.445 326.172 228.002 326.172 228.002Z" fill="#1689CB"/>
<path d="M364.757 212.023C364.757 220.76 331.619 221.204 321.511 221.204C311.409 221.204 303.218 214.119 303.218 205.382C303.218 196.646 311.409 189.561 321.511 189.561C331.612 189.554 364.757 203.287 364.757 212.023Z" fill="#992C29"/>
<path d="M358.013 217.531C358.013 217.531 402.993 232.841 429.175 271.07C451.59 303.805 483.192 282.708 501.894 291.431C520.596 300.154 409.074 321.435 389.806 326.65C366.743 332.882 298.495 255.863 311.272 234.677C326.712 209.061 358.013 217.531 358.013 217.531Z" fill="#1689CB"/>
<path d="M368.92 227.544C369.145 228.602 393.362 239.011 408.706 262.866C441.325 313.559 481.841 280.735 500.536 289.458C519.23 298.181 513.832 320.684 513.832 320.684C513.832 320.684 482.667 311.962 475.186 336.888C467.705 361.815 402.843 365.343 383.575 370.551C360.511 376.783 307.477 367.453 307.477 367.453C307.477 367.453 287.458 282.714 312.726 226.295C317.19 216.323 348.669 218.815 348.669 218.815L368.92 227.544Z" fill="#992C29"/>
<path d="M331.838 153.563C331.838 153.563 323.552 150.799 315.266 161.849C308.754 170.531 305.444 178.422 311.887 189.158C313.71 192.195 306.365 192.844 310.966 205.73C315.785 219.224 343.189 219.845 352.396 213.402C352.396 213.402 370.197 228.439 390.141 217.695C403.56 210.467 385.234 191.301 385.234 191.301C385.234 191.301 394.81 170.449 372.716 149.891C356.983 135.257 340.124 145.277 331.838 153.563Z" fill="#273150"/>
<path d="M325.49 176.858C331.337 176.858 336.077 168.822 336.077 158.908C336.077 148.993 331.337 140.957 325.49 140.957C319.644 140.957 314.904 148.993 314.904 158.908C314.904 168.822 319.644 176.858 325.49 176.858Z" fill="#273150"/>
<path d="M348.273 150.185C351.366 142.935 350.274 135.521 345.832 133.626C341.391 131.731 335.282 136.072 332.188 143.322C329.094 150.572 330.187 157.986 334.629 159.881C339.07 161.776 345.179 157.435 348.273 150.185Z" fill="#273150"/>
<path d="M329.592 158.102C329.592 158.102 322.699 153.638 314.993 162.709C307.287 171.78 306.051 179.807 311.607 189.062C313.177 191.683 306.652 194.154 310.618 205.266C312.829 211.45 322.965 213.982 322.317 212.829C321.668 211.675 322.228 208.419 322.228 208.419C329.197 212.583 340.588 215.033 352.608 214.091C359.358 218.139 371.808 217.729 379.855 213.395C391.424 207.17 375.623 190.646 375.623 190.646C375.623 190.646 383.882 172.674 364.832 154.949C351.27 142.315 336.739 150.956 329.592 158.102Z" fill="#3D4C6D"/>
<path d="M328.446 159.269C328.446 167.815 329.169 178.183 324.125 178.183C319.088 178.183 315 171.255 315 162.709C315 154.164 319.088 147.236 324.125 147.236C329.162 147.236 328.446 150.724 328.446 159.269Z" fill="#3D4C6D"/>
<path d="M341.674 150.089C339.005 156.334 335.824 165.207 331.995 163.569C328.166 161.938 327.224 155.543 329.886 149.297C332.555 143.052 337.817 139.312 341.646 140.943C345.475 142.581 344.342 143.844 341.674 150.089Z" fill="#3D4C6D"/>
<path d="M366.873 217.681C366.873 217.681 374.613 215.525 375.876 209.941C375.876 209.941 378.579 218.043 366.873 217.681Z" fill="#273150"/>
<path d="M375.405 236.636C375.405 236.636 388.236 261.815 391.888 268.149C395.54 274.476 385.745 281.848 379.357 280.135C372.968 278.421 360.785 248.758 357.727 242.479C354.662 236.192 367.323 226.33 375.405 236.636Z" fill="#F6874E"/>
<path d="M377.179 239.728C377.179 239.728 365.426 216.255 357.515 217.497C349.584 218.74 349.741 222.316 351.427 229.224C353.925 239.462 360.764 253.167 360.764 253.167C360.764 253.167 367.569 242.363 377.179 239.728Z" fill="#C93F37"/>
<path d="M407.88 266.709C407.88 266.709 391.984 265.672 388.243 264.423C384.503 263.173 371.255 269.255 376.715 278.135C381.179 285.404 405.594 282.599 409.75 280.94C413.907 279.282 415.668 268.163 407.88 266.709Z" fill="#F6874E"/>
<path d="M448.915 99.349C448.915 99.349 423.811 230.152 423.51 232.186C423.21 234.22 422.944 236.049 422.944 236.049C422.527 236.998 421.511 237.155 417.791 236.302L401.853 233.531L424.097 94.5098C424.207 93.7999 437.537 81.8963 437.537 81.8963C437.98 81.8554 438.54 81.2138 439.659 82.5311L448.635 96.8714C449.167 97.9634 449.024 98.7757 448.915 99.349Z" fill="#F6BE4A"/>
<path d="M448.915 99.3491C448.915 99.3491 423.811 230.152 423.511 232.186C423.21 234.22 422.944 236.049 422.944 236.049C422.528 236.998 424.289 237.21 420.576 236.35L446.13 97.9021C446.13 97.9021 438.54 81.2071 439.666 82.5244L448.642 96.8647C449.167 97.9636 449.024 98.7758 448.915 99.3491Z" fill="#F6874E"/>
<path d="M435.462 164.116L436.765 158.806C436.929 158.423 436.213 158.198 435.469 158.403L430.418 159.795C429.967 159.918 429.756 160.198 429.947 160.41L434.404 164.505C434.725 164.86 435.284 164.505 435.462 164.116Z" fill="#F6874E"/>
<path d="M418.794 127.354L422.391 124.89L419.709 121.928L418.794 127.354Z" fill="#F6874E"/>
<path d="M443.215 120.686L438.97 116.604L444.273 116.263L443.215 120.686Z" fill="#F6874E"/>
<path d="M438.52 81.9167L411.177 234.677" stroke="#F4E8D8" stroke-miterlimit="10"/>
<path d="M414.863 152.246L418.152 152.82L421.006 148.765L418.985 144.711L426.022 138.261L428.711 135.735" stroke="#F4E8D8" stroke-miterlimit="10"/>
<path d="M405.525 286.155C405.457 286.366 403.874 287.11 401.034 286.359C397.703 285.479 397.997 283.192 397.997 283.192L403.628 234.541L419.163 237.032L405.525 286.155Z" fill="#1D2538"/>
<path d="M398.529 300.864C403.075 302.031 407.334 298.686 407.948 293.635C408.535 288.837 405.58 284.346 401.423 283.384C397.314 282.435 393.274 285.24 392.311 289.84C391.301 294.68 394.038 299.71 398.529 300.864ZM400.959 288.079C402.515 288.626 403.662 290.776 403.512 292.926C403.362 295.123 401.915 296.461 400.297 295.867C398.693 295.274 397.574 293.021 397.792 290.871C398.004 288.769 399.417 287.533 400.959 288.079Z" fill="#1D2538"/>
<path d="M398.099 297.73C400.673 298.44 403.102 296.509 403.491 293.512C403.567 292.925 403.553 292.338 403.471 291.779C403.526 292.154 403.539 292.543 403.512 292.932C403.362 295.13 401.915 296.468 400.297 295.874C398.693 295.28 397.574 293.028 397.792 290.878C398.004 288.775 399.417 287.547 400.959 288.086C401.922 288.427 402.727 289.376 403.164 290.564C402.57 288.898 401.307 287.574 399.724 287.171C397.301 286.55 394.953 288.277 394.441 291.11C393.922 294.024 395.54 297.027 398.099 297.73Z" fill="#F6BE4A"/>
<path d="M403.423 291.506C403.417 291.458 403.41 291.403 403.396 291.355C403.41 291.41 403.417 291.458 403.423 291.506Z" fill="#F6BE4A"/>
<path d="M403.287 290.926C403.266 290.851 403.239 290.776 403.212 290.694C403.239 290.769 403.266 290.844 403.287 290.926Z" fill="#F6BE4A"/>
<path d="M403.225 286.284C403.314 286.284 403.403 286.318 403.478 286.373C404.037 286.81 404.488 287.288 404.809 287.806C404.932 287.997 404.85 288.257 404.638 288.38C404.426 288.503 404.153 288.448 404.037 288.257C403.764 287.82 403.375 287.404 402.891 287.028C402.706 286.885 402.693 286.626 402.857 286.448C402.945 286.332 403.089 286.277 403.225 286.284Z" fill="#F4E8D8"/>
<path d="M404.74 266.34C401.881 266.34 399.874 267.241 399.874 267.241L402.686 243.468C402.877 240.902 403.505 233.449 403.505 233.449C403.505 233.449 418.173 235.578 420.023 236.131C420.023 236.131 418.023 244.226 417.347 246.513L411.184 267.166C411.184 267.173 407.6 266.34 404.74 266.34Z" fill="#C73F37"/>
<path d="M413.136 260.621L412.269 263.481C412.269 263.481 407.32 263.064 401.369 263.064C401.375 263.064 403.171 261.358 413.136 260.621Z" fill="#1D2538"/>
<path d="M399.86 267.426C399.86 267.426 408.037 267.358 410.72 268.743L409.675 272.142C409.675 272.142 401.335 269.822 399.58 269.822L399.86 267.426Z" fill="#C73F37"/>
<path d="M400.864 258.901L400.98 257.966C400.98 257.966 407.225 257.611 411.375 258.928L400.864 258.901Z" fill="#1D2538"/>
<path d="M414.453 255.795L415.218 253.372C415.218 253.372 406.911 251.57 401.444 253.72C401.444 253.72 411.477 253.372 414.453 255.795Z" fill="#1D2538"/>
<path d="M417.347 246.519L416.098 250.649C416.098 250.649 407.942 247.339 402.031 248.444L402.891 240.998C402.891 240.998 409.075 243.496 417.347 246.519Z" fill="#1D2538"/>
<path d="M418.63 241.557L419.238 239.401C419.238 239.401 411.477 235.687 404.856 237.305C404.856 237.305 417.818 239.735 418.63 241.557Z" fill="#1D2538"/>
<path d="M390.032 221.545C390.496 221.347 391.021 221.286 391.526 221.375L436.881 228.343C437.462 228.466 438.035 229.436 439.659 231.872C440.751 233.51 441.263 235.619 439.414 236.486C436.991 237.626 434.301 239.558 433.305 239.264L389.786 231.517C389.117 231.388 387.028 229.709 386.175 229.012C385.206 228.221 383.854 226.699 383.029 225.408C382.414 224.453 382.797 223.197 383.834 222.753L390.032 221.545Z" fill="#C73F37"/>
<path d="M388.899 219.613C389.39 219.402 389.929 219.34 390.462 219.436L436.513 227.62C436.636 227.647 439.823 231.142 439.414 232.445C439.004 233.749 433.469 236.056 433.469 236.056C433.469 236.056 386.523 228.466 386.107 227.9C385.336 226.848 384.059 225.784 383.192 224.439C382.551 223.443 382.954 222.132 384.032 221.668L388.899 219.613Z" fill="#F6874E"/>
<path d="M388.899 219.613C389.39 219.402 389.929 219.34 390.462 219.436L396.222 225.961L433.469 236.056C433.469 236.056 386.523 228.466 386.107 227.9C384.967 226.773 384.059 225.784 383.192 224.439C382.551 223.443 382.954 222.132 384.032 221.668L388.899 219.613Z" fill="#F6BE4A"/>
<path d="M415.033 157.986L413.013 169.951L427.531 191.226L429.735 179.555L415.033 157.986Z" fill="#F6BE4A"/>
<path d="M412.59 173.48L412.016 178.088L426.527 199.362L427.292 195.042L412.59 173.48Z" fill="#F6BE4A"/>
<path d="M396.7 220.747L398.045 222.644C398.495 223.313 398.632 223.381 399.321 222.938L401.512 221.593L396.7 220.747Z" fill="#C73F37"/>
<path d="M402.515 264.395C402.085 265.426 403.191 265.753 404.754 265.924C405.88 266.047 407.962 264.914 407.962 264.914C407.962 264.914 409.839 265.528 410.624 265.999C411.027 266.238 407.484 265.924 406.228 265.999C404.972 266.074 402.126 267.275 402.126 267.275C402.044 267.282 401.962 267.296 401.887 267.323C400.932 267.665 400.331 268.675 400.508 270.251C400.536 270.463 400.638 270.62 400.795 270.763C400.993 270.948 401.355 271.023 401.218 271.589C401.034 272.333 400.174 272.872 400.181 273.412C400.181 273.719 400.782 276.312 400.986 276.544L403.744 276.654C403.744 276.654 400.577 277.015 400.351 278.462C399.962 280.974 402.099 282.291 403.58 282.053C405.416 281.759 405.402 282.66 406.986 282.933C406.986 282.933 410.89 283.356 411.409 281.998C411.955 280.571 413.695 279.459 414.234 277.445C414.548 276.265 414.548 273.917 415.408 272.504C417.094 269.746 415.019 268.941 415.484 267.166C415.893 265.631 416.972 265.521 416.425 263.713C415.995 262.307 414.521 261.911 413.443 261.515C412.364 261.126 409.518 260.887 406.699 261.201C406.706 261.214 402.952 263.364 402.515 264.395Z" fill="#CE6D3E"/>
<path d="M402.515 264.395C402.085 265.426 403.177 265.91 404.74 266.081C405.867 266.204 407.955 264.914 407.955 264.914C407.955 264.914 409.832 265.528 410.617 265.999C411.02 266.238 407.477 265.924 406.221 265.999C404.965 266.074 402.119 267.275 402.119 267.275C402.037 267.282 401.955 267.296 401.88 267.323C400.925 267.664 400.242 268.763 400.427 270.333C400.454 270.545 400.884 271.063 401.041 271.207C401.239 271.391 401.082 271.63 401.041 271.712C400.7 272.401 400.283 272.551 400.167 273.077C399.894 274.292 400.215 275.418 400.979 276.544L403.873 276.653C403.873 276.653 400.536 277.008 400.345 278.462C400.16 279.861 401.362 281.766 402.966 281.356C405.259 280.769 408.03 281.711 408.324 281.581C410.392 280.64 408.583 278.633 409.266 277.083C409.771 275.937 409.812 274.626 410.344 273.391C410.808 272.319 410.617 269.248 410.617 269.248L413.32 266.818C413.32 266.818 413.231 264.477 413.047 263.576C412.712 261.897 408.365 260.887 406.699 261.201C406.399 261.269 402.952 263.364 402.515 264.395Z" fill="#F6874E"/>
<path d="M399 270.606C400.631 273.064 402.706 270.511 402.222 266.777C401.99 264.982 401.423 262.662 398.707 263.46C395.99 264.259 396.086 266.218 399 270.606Z" fill="#F6874E"/>
<path d="M423.668 347.631C423.804 351.358 409.716 353.05 406.113 358.088C400.912 365.364 405.396 365.65 357.509 369.247C318.767 372.162 306.625 353.44 307.109 345.549C307.587 337.768 335.36 327.482 364.58 327.448C393.854 327.421 423.381 339.734 423.668 347.631Z" fill="#EC5E4D"/>
<path d="M312.515 371.875C312.515 371.875 305.035 341.502 304.413 332.26C303.792 323.018 334.957 309.811 340.568 324.998C346.178 340.184 347.428 364.613 347.428 375.841C347.428 387.069 345.557 396.972 331.845 396.31C311.805 395.341 317.382 391.771 312.515 371.875Z" fill="#273150"/>
<path d="M312.515 371.875C312.515 371.875 305.035 341.502 304.413 332.26C303.792 323.018 334.957 309.811 340.568 324.998C346.178 340.184 347.428 364.613 347.428 375.841C347.428 387.069 345.557 396.972 331.845 396.31C311.805 395.341 317.382 391.771 312.515 371.875Z" fill="#102441"/>
<path d="M334.432 374.435C326.2 372.469 314.604 379.294 315.423 388.386C316.044 395.321 309.089 397.3 304.414 410.835C299.738 424.37 334.33 433.284 337.449 416.118C340.561 398.952 356.56 379.718 334.432 374.435Z" fill="#273150"/>
<path d="M334.957 372.21C326.726 370.244 314.611 379.295 315.43 388.386C316.051 395.321 320.208 399.341 315.532 412.876C310.857 426.411 334.336 433.291 337.456 416.118C340.561 398.952 357.079 377.493 334.957 372.21Z" fill="#102441"/>
<path d="M337.449 416.118C334.329 433.284 315.635 481.164 313.764 489.744C311.894 498.33 305.663 501.518 305.663 501.518C305.663 501.518 297.131 505.436 297.397 486.086C297.595 471.302 299.745 424.377 304.42 410.842C304.42 410.842 316.263 405.886 323.743 407.873C331.217 409.845 337.449 416.118 337.449 416.118Z" fill="#F6874E"/>
<path d="M337.449 416.118C334.329 433.284 315.635 481.164 313.764 489.744C312.85 493.955 311.792 500.275 309.505 500.446C307.137 500.624 306.181 502.214 305.56 487.43C304.939 473.561 310.857 424.37 315.532 410.835C315.532 410.835 316.263 405.879 323.743 407.866C331.217 409.845 337.449 416.118 337.449 416.118Z" fill="#CE6D3E"/>
<path d="M306.174 482.004C302.755 488.474 296.516 492.29 296.516 492.29C296.516 492.29 292.094 500.119 292.728 503.067C293.138 504.856 294.933 509.415 294.933 509.415C294.933 509.415 296.271 525.284 296.742 527.154C297.438 529.953 325.497 534.43 327.374 535.14C329.251 535.85 328.842 520.063 328.842 520.063C328.842 520.063 316.815 505.21 314.563 498.856C312.345 492.617 309.867 475.028 306.174 482.004Z" fill="#CE6D3E"/>
<path d="M353.652 320.37C347.421 325.653 343.783 337.536 348.458 348.764C353.133 359.992 357.393 380.236 361.754 384.864C366.115 389.492 373.596 395.648 382.326 395.648C391.049 395.648 394.789 383.103 393.233 373.199C391.677 363.296 386.066 335.229 381.705 322.684C377.343 310.139 359.884 315.087 353.652 320.37Z" fill="#102441"/>
<path d="M362.935 377.848C359.843 381.151 359.072 392.079 357.331 397.962C354.99 405.88 354.539 411.873 354.99 422.711C355.447 433.728 357.659 447.986 358.737 455.665C360.949 471.438 356.348 477.301 363.829 478.175C371.31 479.056 370.061 476.414 372.968 468.49C375.876 460.565 386.476 419.189 388.551 410.821C390.626 402.46 391.875 393.212 392.291 385.731C392.707 378.25 371.194 369.022 362.935 377.848Z" fill="#273150"/>
<path d="M363.986 376.872C359.256 380.059 358.642 392.024 360.034 404.849C361.14 415.026 386.483 419.196 388.558 410.835C390.632 402.474 391.882 393.226 392.298 385.745C392.714 378.264 372.961 369.623 363.986 376.872Z" fill="#102441"/>
<path d="M355.625 405.525C353.106 413.715 354.362 427.667 357.911 453.596C360.068 469.377 356.874 480.523 364.354 481.403C371.835 482.284 373.125 482.53 374.634 474.23C376.162 465.814 386.476 419.203 388.551 410.842C388.551 410.842 379.2 405.122 370.477 404.678C361.754 404.235 355.625 405.525 355.625 405.525Z" fill="#F6874E"/>
<path d="M360.034 404.849C360.082 414.207 363.815 443.324 364.245 458.893C364.689 474.981 360.403 479.103 367.883 479.984C375.364 480.864 373.166 482.536 374.64 474.23C376.238 465.207 386.483 419.203 388.558 410.842C388.558 410.842 379.596 405.409 370.484 404.678C366.805 404.378 360.034 404.849 360.034 404.849Z" fill="#CE6D3E"/>
<path d="M359.208 472.537C359.208 472.537 358.348 477.779 355.986 483.287C353.959 488.01 364.511 490.174 368.354 493.689C368.354 493.689 396.25 508.282 405.594 503.661C415.975 498.528 387.186 483.936 395.417 488.413C395.417 488.413 377.964 479.827 375.473 473.226C372.975 466.633 359.208 472.537 359.208 472.537Z" fill="#F6874E"/>
<path d="M363.679 471.677C363.317 479.506 359.884 481.274 358.635 485.901C356.225 494.822 373.924 500.303 372.763 499.614C372.763 499.614 395.929 507.661 405.28 503.04C415.853 497.812 386.988 484.038 395.41 488.42C395.41 488.42 377.958 479.833 375.466 473.233C372.975 466.633 364.006 464.613 363.679 471.677Z" fill="#CE6D3E"/>
<path d="M356.662 479.424C357.106 478.544 357.918 477.779 358.055 478.66C358.198 479.54 359.543 482.912 361.385 483.949C363.221 484.987 384.189 496.413 391.54 494.331C396.025 493.061 392.782 489.014 389.574 486.045C387.527 484.147 385.486 482.694 385.486 482.694C385.486 482.694 394.891 487.99 399.212 490.481C403.533 492.973 412.617 501.491 413.477 504.815C414.344 508.139 381.541 508.555 376.838 506.371C372.135 504.187 365.167 497.955 362.573 495.464C360.184 493.171 357.406 494.194 356.519 493.177C354.512 490.891 355.318 482.066 356.662 479.424Z" fill="#992C29"/>
<path d="M347.107 216.951C347.107 216.951 355.406 215.081 358.328 218.821C361.686 223.128 370.661 234.192 371.105 242.997C371.46 250.014 370.252 255.624 366.716 265.385C363.815 273.404 359.904 285.718 354.976 287.956C339.96 294.775 327.135 293.662 318.747 288.632C315.628 286.762 312.317 282.018 312.57 269.603C312.679 264.251 312.515 262.456 311.266 243.447C309.594 217.893 319.682 216.835 329.947 216.262C340.206 215.682 347.107 216.951 347.107 216.951Z" fill="#F6BE4A"/>
<path d="M346.015 226.909L344.377 226.821C341.442 226.664 339.189 224.152 339.353 221.217L340.513 199.689C340.67 196.754 343.182 194.502 346.117 194.666L347.755 194.755C350.69 194.912 352.943 197.423 352.779 200.358L351.618 221.886C351.455 224.821 348.95 227.066 346.015 226.909Z" fill="#F6874E"/>
<path d="M346.431 218.187L344.793 218.098C341.858 217.941 339.606 215.429 339.769 212.494L340.93 190.967C341.087 188.032 343.598 185.779 346.533 185.943L348.172 186.032C351.106 186.189 353.359 188.701 353.195 191.636L352.035 213.163C351.871 216.091 349.366 218.344 346.431 218.187Z" fill="#CE6D3E"/>
<path d="M297.615 491.437C296.728 491.723 294.844 493.218 294.51 494.092C293.042 497.921 291.807 501.538 292.169 503.811C292.312 504.699 293.165 506.965 294.046 511.265C295.022 516.002 294.366 524.533 297.001 528.124C299.629 531.714 322.071 539.508 327.053 538.573C332.043 537.638 329.217 522.957 328.835 520.07C328.432 517.025 317.505 503.388 312.959 493.246C312.959 493.246 313 494.242 313.723 496.781C315.43 502.719 318.754 515.169 314.106 515.626C307.451 516.275 297.902 507.231 297.506 502.706C297.117 498.235 296.387 494.665 296.516 493.744C296.646 492.809 297.615 491.437 297.615 491.437Z" fill="#992C29"/>
<path d="M367.774 338.649L380.476 349.836C381.807 350.887 383.664 350.061 383.398 348.518C382.483 343.229 379.78 334.294 367.774 338.649Z" fill="#EC5E4D"/>
<path d="M312.932 273.875C310.857 277.82 294.858 327.687 310.229 360.927C310.229 360.927 323.77 346.225 343.114 342.246C381.637 334.328 378.313 345.201 379.302 348.075C379.958 349.986 382.032 350.976 383.944 350.32C384.435 350.15 384.988 349.945 385.602 349.699C394.257 346.246 409.307 341.004 423.313 345.959C423.313 345.959 396.141 300.761 359.802 278.216C325.019 256.661 315.007 269.93 312.932 273.875Z" fill="#F6BE4A"/>
<path opacity="0.5" d="M381.998 345.133C381.998 345.133 378.401 319.21 369.399 311.292C369.399 311.292 372.996 317.415 372.996 322.09L368.675 319.21C368.675 319.21 373.153 325.817 376.238 332.533C378.941 338.417 380.149 344.457 381.998 345.133Z" fill="#F6BE4A"/>
<path d="M371.712 176.585C376.988 201.969 366.641 210.624 348.731 210.064C335.271 209.641 324.248 201.123 323.367 184.278C322.48 167.432 329.572 153.611 342.861 151.386C360.402 148.451 368.279 160.095 371.712 176.585Z" fill="#CE6D3E"/>
<path d="M365.542 182.36C365.808 183.609 366.019 184.803 366.19 185.943C368.675 202.932 360.607 208.815 347.263 208.413C336.561 208.085 327.79 201.457 327.087 188.346C326.384 175.234 337.428 166.436 348 164.709C361.958 162.423 362.812 169.521 365.542 182.36Z" fill="#F6874E"/>
<path d="M325.327 196.491C329.443 195.854 332.119 191.068 331.304 185.8C330.489 180.533 326.492 176.779 322.375 177.416C318.259 178.053 315.583 182.839 316.398 188.107C317.213 193.374 321.21 197.128 325.327 196.491Z" fill="#F6874E"/>
<path d="M323.36 177.302L327.681 182.046C327.681 182.046 327.701 162.204 343.25 156.737C357.092 151.864 363.426 157.324 363.426 157.324C363.426 157.324 355.952 144.977 337.134 153.065C321.395 159.829 323.36 177.302 323.36 177.302Z" fill="#F6BE4A"/>
<path d="M336.22 180.053C337.43 180.053 338.411 178.219 338.411 175.957C338.411 173.696 337.43 171.862 336.22 171.862C335.01 171.862 334.029 173.696 334.029 175.957C334.029 178.219 335.01 180.053 336.22 180.053Z" fill="#273150"/>
<path d="M358.737 178.299C359.947 178.299 360.928 176.465 360.928 174.203C360.928 171.942 359.947 170.108 358.737 170.108C357.527 170.108 356.546 171.942 356.546 174.203C356.546 176.465 357.527 178.299 358.737 178.299Z" fill="#273150"/>
<path d="M356.157 169.235L360.252 166.989" stroke="#273150" stroke-miterlimit="10" stroke-linecap="round" stroke-linejoin="round"/>
<path d="M339.714 170.402L334.281 168.941" stroke="#273150" stroke-miterlimit="10" stroke-linecap="round" stroke-linejoin="round"/>
<path d="M361.365 153.843C361.365 153.843 365.31 158.642 369.357 160.696C372.415 162.252 374.872 162.539 374.872 162.539L374.258 161.31L375.78 160.136C375.78 160.136 370.06 159.536 362.552 153.127L361.365 153.843Z" fill="#EE5D4F"/>
<path d="M360.969 153.284C360.969 153.284 363.037 159.14 366.136 162.457C368.477 164.962 370.688 166.074 370.688 166.074L370.531 164.716L372.367 164.136C372.367 164.136 367.2 161.617 362.341 153.017L360.969 153.284Z" fill="#EE5D4F"/>
<path d="M363.474 156.375C364.934 156.116 366.32 148.328 362.846 148.164C359.576 148.007 355.87 148.431 356.484 150.894C357.105 153.358 362.02 156.635 363.474 156.375Z" fill="#EE5D4F"/>
<path d="M364.736 151.946C364.736 151.946 364.197 148.608 363.16 148.683C362.122 148.758 363.05 150.185 363.317 152.383C363.59 154.581 364.921 153.359 364.736 151.946Z" fill="#F7BC4B"/>
<path d="M362.265 154.765C362.265 154.765 362.047 153.229 364.286 151.741C366.525 150.253 368.231 149.441 369.651 150.328C371.07 151.215 371.569 155.099 370.756 157.058C369.944 159.017 364.962 157.529 363.706 156.792C362.45 156.048 362.265 154.765 362.265 154.765Z" fill="#EE5D4F"/>
<path d="M370.415 153.461C370.415 153.461 370.886 156.58 369.494 157.085C367.426 157.843 368.729 151.939 368.852 151.011C368.968 150.075 370.791 151.229 370.415 153.461Z" fill="#F7BC4B"/>
<path d="M316.255 258.006C316.255 258.006 324.391 276.148 328.104 280.127C331.845 284.141 336.793 288.598 341.66 286.714C346.512 284.837 348.656 272.749 345.236 266.415C341.857 260.163 335.66 242.13 333.571 239.284C331.496 236.451 323.763 238.458 319.996 240.745C316.201 243.038 313.525 251.228 316.255 258.006Z" fill="#F6874E"/>
<path d="M336.124 244.232C336.124 244.232 329.135 216.118 319.784 217.36C310.856 218.548 309.211 226.165 310.338 236.601C311.484 247.262 316.392 258.538 316.392 258.538C316.392 258.538 318.255 248.313 336.124 244.232Z" fill="#EC5E4D"/>
<path d="M333.292 235.1C333.292 235.1 329.142 216.118 319.791 217.361C310.863 218.548 309.218 226.165 310.345 236.602C311.491 247.263 313.252 249.331 313.252 249.331C313.252 249.331 314.18 242.601 315.423 238.554C316.494 235.079 323.32 233.462 323.32 233.462L333.292 235.1Z" fill="#C93F37"/>
<path d="M389.178 251.645C389.178 251.645 375.05 254.552 367.166 257.153C360.218 259.446 348.314 263.323 341.516 268.128C334.657 272.981 333.865 279.916 335.687 284.448C337.53 289.021 346.383 286.298 353.693 283.8C360.969 281.308 388.639 268.074 395.41 263.699C402.126 259.351 400.393 247.393 389.178 251.645Z" fill="#CE6D3E"/>
<path d="M359.57 259.747C352.089 261.822 348.314 263.323 341.516 268.128C334.657 272.981 333.865 279.916 335.687 284.448C337.53 289.021 346.383 286.298 353.693 283.8C360.976 281.308 366.156 257.917 359.57 259.747Z" fill="#F6874E"/>
<path d="M393.984 260.477C396.038 263.289 401.253 262.859 403.007 261.371C405.136 259.576 406.406 258.047 407.757 258.054C408.604 258.054 411.723 258.641 413.429 259.412C413.525 259.596 413.115 260.32 413.19 260.525C413.293 260.811 413.381 260.982 413.689 261.002C415.627 261.139 417.224 259.862 417.122 257.835L416.924 255.139L418.91 252.737L419.292 245.208L412.706 238.123C412.378 237.775 411.914 237.591 411.436 237.625L402.481 238.287C401.942 238.328 401.451 238.622 401.164 239.072L393.035 251.795C393.028 251.802 391.929 257.665 393.984 260.477Z" fill="#CE6D3E"/>
<path d="M413.095 255.665C413.716 256.341 414.692 257.371 415.531 258.027C416.439 258.736 417.183 258.989 417.122 257.835L416.924 255.139L419.402 253.167C419.402 253.167 419.975 247.324 419.784 245.638C419.272 241.161 412.638 237.837 412.638 237.837C412.051 237.543 411.907 237.598 411.429 237.632C411.429 237.632 409.32 241.12 409.191 242.171C409.061 243.222 411.006 247.843 411.006 247.843C411.006 247.843 408.883 250.539 408.767 251.344C408.488 253.235 410.938 253.324 413.095 255.665Z" fill="#F6874E"/>
<path d="M313.498 243.748C313.498 243.748 314.119 239.543 317.238 238.294C317.238 238.294 313.778 248.375 313.245 249.331C312.713 250.287 312.72 246.089 313.498 243.748Z" fill="#C93F37"/>
<path d="M311.478 222.971C309.812 227.749 303.581 243.953 297.349 279.691C291.118 315.429 301.09 361.549 306.905 366.538C312.72 371.527 333.08 334.54 376.716 357.604C376.716 357.604 346.786 314.685 329.968 302.959C309.396 288.625 311.061 253.925 313.553 235.435C316.051 216.951 311.478 222.971 311.478 222.971Z" fill="#29ACE4"/>
<path d="M297.349 279.698C291.117 315.436 301.089 361.555 306.905 366.545C312.72 371.534 333.08 334.547 376.716 357.61C376.716 357.61 360.887 335.55 351.072 324.138C351.072 324.138 338.432 342.751 335.189 342.076C333.265 341.673 317.539 343.031 308.188 331.817C298.837 320.603 297.349 279.698 297.349 279.698Z" fill="#1689CB"/>
<path d="M307.649 321.818C307.649 321.818 308.167 325.845 312.781 332.616C318.358 340.799 335.196 344.226 335.196 344.226L341.947 339.769C341.947 339.769 332.678 339.004 324.753 335.045C316.829 331.087 307.949 324.329 307.649 321.818Z" fill="#1689CB"/>
<path d="M338.07 215.238C334.937 214.515 317.191 213.054 312.201 221.784C307.212 230.507 311.266 246.662 311.266 246.662C311.266 246.662 312.194 233.346 318.904 229.107C322.788 226.65 345.68 234.677 348.977 235.182C355.051 236.117 347.421 227.394 347.421 227.394C347.421 227.394 342.124 216.173 338.07 215.238Z" fill="#29ACE4"/>
<path d="M352.56 216.432C350.403 216.985 344.376 237.427 350.321 233.783C351.884 232.82 360.491 230.199 370.32 231.134C376.866 231.755 382.019 235.448 382.476 234.718C384.039 232.22 361.74 214.064 352.56 216.432Z" fill="#1689CB"/>
<path d="M350.069 232.015C350.672 232.015 351.161 231.526 351.161 230.923C351.161 230.32 350.672 229.831 350.069 229.831C349.466 229.831 348.977 230.32 348.977 230.923C348.977 231.526 349.466 232.015 350.069 232.015Z" fill="#273150"/>
<path d="M177.357 314.746C177.357 314.746 178.094 301.075 170.914 300.283C163.733 299.491 148.431 315.34 144.97 317.026C141.51 318.719 138.78 324.165 137.012 325.851C135.244 327.537 130.493 328.827 127.859 330.943C125.217 333.066 115.969 339.448 122.603 346.573C129.251 353.713 131.763 355.808 140.923 351.918C150.055 348.034 179.746 321.804 177.357 314.746Z" fill="#1D2436"/>
<path d="M163.14 389.635C163.14 389.635 138.903 381.704 111.109 378.189C98.5777 376.605 97.943 395.45 106.229 409.982C110.782 417.974 135.06 423.728 157.516 434.813C176.081 443.973 193.015 459.528 200.721 459.207C217.723 458.49 206.918 399.007 163.14 389.635Z" fill="#48598B"/>
<path d="M140.896 398.017C137.196 397.696 143.871 404.904 145.612 408.064C150.676 417.258 154.82 427.755 159.277 434.417C163.215 440.301 160.451 432.417 157.249 422.404C155.796 417.859 154.703 413.504 153.646 410.528C153.052 408.849 140.896 398.017 140.896 398.017Z" fill="#273150"/>
<path d="M141.674 508.221C141.674 508.221 127.456 520.186 122.481 526.643C117.484 533.12 130.828 540.15 142.67 538.526C154.485 536.908 165.686 532.594 169.685 526.165C173.671 519.756 173.699 519.687 179.944 512.807C186.169 505.955 177.603 491.41 174.074 488.352C170.539 485.301 143.626 497.853 141.674 508.221Z" fill="#EC6141"/>
<path d="M142.042 505.101C142.042 505.101 127.825 517.066 122.849 523.523C117.853 530 132.057 534.328 143.899 532.703C155.714 531.086 163.781 529.052 167.781 522.622C171.767 516.213 174.675 515.271 180.92 508.391C187.145 501.538 177.972 488.297 174.443 485.239C170.907 482.181 143.994 494.733 142.042 505.101Z" fill="#13161F"/>
<path d="M133.79 485.97C133.79 485.97 138.118 492.604 137.278 495.307C136.439 498.017 133.879 505.531 144.022 508.937C152.663 511.838 173.596 499.389 180.197 495.027C181.37 494.249 182.149 492.993 182.278 491.662C182.633 487.956 182.831 480.325 179.261 475.807C174.415 469.684 175.05 471.445 167.385 451.262C159.782 431.223 135.503 389.533 133.981 385.253C132.459 380.98 112.713 376.913 108.734 377.383C104.748 377.854 89.3019 398.263 89.7114 403.887C90.121 409.525 98.8712 429.032 106.393 445.604C113.955 462.272 123.238 469.998 125.456 474.776C128.93 482.263 133.79 485.97 133.79 485.97Z" fill="#48598B"/>
<path d="M174.252 469.8C170.682 463.152 172.402 473.124 170.525 480.188C169.447 484.243 177.828 476.448 174.252 469.8Z" fill="#273150"/>
<path d="M133.51 483.929C133.51 483.929 137.797 495.048 140.193 495.874C142.588 496.706 149.762 495.771 154.628 493.28C159.495 490.782 142.199 494.734 133.51 483.929Z" fill="#273150"/>
<path d="M97.2673 412.507C97.2673 412.507 99.8746 408.043 101.943 403.955C104.011 399.866 104.994 413.715 100.523 417.278C96.0524 420.848 97.2673 412.507 97.2673 412.507Z" fill="#273150"/>
<path d="M151.222 412.35L137.237 405.484L119.976 391.676C119.976 391.676 124.016 391.758 127.183 393.976C128.617 394.979 136.159 401.225 140.268 404.494C145.216 408.446 149.694 410.767 151.222 412.35Z" fill="#273150"/>
<path d="M233.954 319.169C233.954 319.169 162.334 303.396 175.985 292.994C189.547 282.653 227.388 264.04 241.223 284.059C255.154 304.221 242.349 326.336 233.954 319.169Z" fill="#1D2436"/>
<path d="M261.495 464.06C261.495 464.06 262.614 461.419 265.938 459.119C269.255 456.825 279.541 457.781 281.377 461.856C283.213 465.944 283.193 493.969 283.193 495.867C283.193 497.771 279.5 505.668 276.149 510.31C272.791 514.965 266.464 515.859 260.887 513.675C255.311 511.49 259.085 501.873 260.594 497.28C262.102 492.707 258.887 468.981 261.495 464.06Z" fill="#EC6141"/>
<path d="M259.317 461.883C259.317 461.883 259.515 460.259 262.839 457.959C266.156 455.665 276.442 456.621 278.278 460.696C280.114 464.784 281.015 491.792 281.015 493.69C281.015 495.594 277.323 503.491 273.972 508.132C270.613 512.787 264.286 513.682 258.71 511.497C253.133 509.313 256.908 499.696 258.416 495.103C259.925 490.523 256.71 466.804 259.317 461.883Z" fill="#13161F"/>
<path d="M242.144 472.429C242.144 472.429 254.594 461.788 260.437 461.528C272.914 460.969 270.026 473.514 269.999 482.162C269.979 490.837 263.249 497.225 260.751 498.884C258.252 500.543 262.607 499.696 255.352 509.586C248.055 519.524 235.101 531.435 226.473 532.649C219.9 533.578 197.854 521.995 209.642 498.365C213.327 490.987 235.524 478.674 242.144 472.429Z" fill="#273150"/>
<path d="M201.854 419.831C201.854 419.831 199.547 476.496 200.495 497.908C201.451 519.51 200.468 529.687 205.696 535.032C210.932 540.39 220.433 541.386 227.094 539.188C233.742 536.99 231.353 534.219 236.65 532.745C241.94 531.278 245.735 515.217 247.086 509.791C248.437 504.378 252.048 451.775 253.454 432.759C254.853 413.9 251.058 404.263 235.626 404.454C220.166 404.658 204.632 408.761 201.854 419.831Z" fill="#273150"/>
<path d="M200.448 428.991C200.448 428.991 199.67 481.67 200.414 501.348C201.171 521.203 200.393 530.547 204.509 535.468C208.631 540.39 216.126 541.311 221.375 539.284C226.617 537.263 239.639 517.483 240.704 512.501C241.769 507.525 245.564 473.616 242.151 441.489C240.315 424.22 240.261 415.299 228.098 415.477C215.914 415.647 202.639 418.814 200.448 428.991Z" fill="#47588A"/>
<path d="M158.949 401.655C162.73 406.59 166.839 410.18 171.829 414.118C172.996 415.04 212.549 431.571 212.549 431.571C212.549 431.571 190.353 423.135 193.438 425.339C206.618 434.752 210.058 441.127 225.436 444.867C229.026 445.741 236.493 438.69 238.629 441.024C245.489 448.505 243.052 462.668 243.619 455.672C245.639 430.697 254.342 419.306 235.517 409.545C215.689 399.266 148.397 387.868 158.949 401.655Z" fill="#273150"/>
<path d="M167.467 389.158C168.047 383.984 166.798 363.972 166.996 338.629C167.194 313.559 167.016 303.607 181.541 297.751C195.997 291.922 214.112 290.195 227.845 299.164C234.213 303.321 237.005 394.352 238.22 402.488C239.435 410.651 225.087 424.036 212.119 424.868C199.13 425.708 165.808 404.037 167.467 389.158Z" fill="#F6BE4A"/>
<path opacity="0.5" d="M199.676 395.007C199.676 395.007 197.615 398.857 198.468 402.556C190.899 399.266 183.452 395.546 181.391 392.932C181.391 392.932 188.039 404.153 198.011 407.894C207.983 411.634 217.122 409.968 217.122 409.968C217.122 409.968 202.884 400.174 199.676 395.007Z" fill="#F6BE4A"/>
<path d="M158.833 396.993C158.833 397.26 158.928 397.512 159.113 397.703C160.601 399.259 165.105 405.989 172.033 408.337C173.89 408.965 177.084 407.607 177.098 406.815L177.132 405.198C177.139 404.808 173.262 405.184 172.92 405.006C170.873 403.928 162.225 397.15 158.621 392.891C158 392.154 158.84 396.01 158.833 396.993Z" fill="#F4E8D8"/>
<path d="M187.513 295.048C189.267 294.072 166.129 305.273 176.518 351.604C179.282 363.924 176.538 385.431 177.439 389.601C178.347 393.772 181.138 403.081 177.029 405.191C169.419 409.095 162.211 397.096 159.556 394.406C155.434 390.243 163.911 388.291 163.563 372.94C163.194 356.716 157.754 334.076 158.819 324.862C161.256 303.832 168.19 302.208 170.914 300.283C173.883 298.188 185.391 296.236 187.513 295.048Z" fill="#972B28"/>
<path d="M187.513 295.048C188.175 292.591 174.081 299.928 172.149 301.676C170.265 303.382 168.272 305.737 166.464 308.999C160.669 319.429 175.364 346.137 175.364 346.137C175.364 346.137 175.316 320.589 175.876 314.76C176.429 308.945 186.237 299.799 187.513 295.048Z" fill="#F4E8D8"/>
<path d="M187.984 293.035C187.984 293.035 187.281 294.652 187.356 296.632C187.636 304.59 189.302 326.589 192.271 326.862C195.288 327.135 196.68 326.411 200.461 314.077C201.267 311.45 209.28 291.663 206.761 289.956" stroke="#913636" stroke-miterlimit="10"/>
<path d="M192.824 333.66C193.706 333.66 194.421 332.022 194.421 330.002C194.421 327.981 193.706 326.343 192.824 326.343C191.941 326.343 191.226 327.981 191.226 330.002C191.226 332.022 191.941 333.66 192.824 333.66Z" fill="#29ACE4"/>
<path d="M187.438 285.595L187.902 298.017C188.094 303.184 192.837 307 198.277 306.358L199.014 306.269C204.236 305.655 208.058 301.15 207.56 296.222L206.311 283.909C205.724 278.101 199.465 274.544 193.656 276.701C189.807 278.135 187.295 281.725 187.438 285.595Z" fill="#CE6D3E"/>
<path d="M213.785 411.354L213.832 412.391C213.86 412.985 214.085 413.538 214.467 413.948C217.204 416.896 228.869 429.134 236.575 432.028C242.506 434.253 250.465 434.67 255.004 434.704C257.16 434.717 259.14 433.318 260.054 431.127C260.655 429.694 259.897 428.035 258.519 427.756C251.611 426.343 232.896 421.585 217.272 409.197C215.791 408.016 213.689 409.313 213.785 411.354Z" fill="#F4E8D8"/>
<path d="M209.061 291.048C206.932 292.7 197.792 309.238 205.444 332.056C213.157 355.078 206.099 396.44 211.102 406.706C212.529 409.627 232.971 428.22 240.731 428.547C245.844 428.759 253.208 429.585 258.321 430.254C260.723 430.568 264.423 425.906 264.504 423.462C264.757 415.736 264.504 399.396 259.303 383.008C252.205 360.627 251.659 296.509 233.653 288.011C219.907 281.52 211.191 289.397 209.061 291.048Z" fill="#972B28"/>
<path d="M233.237 387.13C233.237 387.13 247.7 395.942 251.536 397.184L249.366 402.358C249.366 402.358 233.169 393.546 230.637 390.154L233.237 387.13Z" fill="#F4E8D8"/>
<path d="M208.659 289.82C212.918 286.113 226.773 284.216 230.923 286.857C233.271 288.345 222.173 283.656 216.542 296.352C209.566 312.064 207.055 337.065 207.055 337.065C207.055 337.065 203.267 335.004 201.915 315.012C201.014 301.669 204.393 293.533 208.659 289.82Z" fill="#F4E8D8"/>
<path d="M244.24 378.073C244.24 378.073 245.953 373.083 245.175 370.749C244.397 368.415 242.37 376.36 240.035 379.629C238.909 381.199 243.516 378.605 244.24 378.073Z" fill="#972B28"/>
<path d="M163.317 379.213L162.744 381.97L166.43 379.841L167.105 376.565L163.317 379.213Z" fill="#F4E8D8"/>
<path d="M205.806 434.376C205.806 434.376 212.037 438.014 216.194 441.338C220.351 444.662 228.248 447.263 228.248 447.263C228.248 447.263 218.269 448.921 205.806 434.376Z" fill="#273150"/>
<path d="M157.911 347.222C161.119 356.737 150.683 368.176 140.862 368.272C134.978 368.333 130.555 365.623 126.617 360.204C125.129 358.156 126.037 355.781 124.958 353.542C124.126 351.809 121.211 350.218 120.658 348.553C117.518 339.045 122.952 332.179 132.678 331.23C139.688 330.547 141.135 335.195 144.984 336.936C146.37 337.564 150.547 337.687 151.844 338.492C156.526 341.434 156.342 342.574 157.911 347.222Z" fill="#C93F37"/>
<path d="M155.993 353.317C156.478 358.252 153.366 363.166 149.025 364.292C144.677 365.412 140.773 362.299 140.302 357.351C139.831 352.409 141.953 345.215 146.281 344.109C150.601 342.997 155.509 348.389 155.993 353.317Z" fill="#F4E8D8"/>
<path d="M153.762 353.815C154.116 357.528 151.85 361.235 148.697 362.074C145.544 362.92 142.704 360.572 142.363 356.846C142.022 353.126 144.199 345.761 148.977 347.01C152.123 347.829 153.407 350.109 153.762 353.815Z" fill="#CE6D3E"/>
<path d="M147.782 347.843C146.015 349.235 144.595 352.129 144.097 356.566C143.598 361.002 153.222 365.801 153.222 365.801C153.222 365.801 159.222 368.019 163.222 358.402C164.812 354.573 156.608 347.481 156.669 345.038C156.894 336.171 150.683 345.556 147.782 347.843Z" fill="#F6874E"/>
<path d="M155.42 346.594C155.42 346.594 152.301 346.955 152.929 349.297C153.55 351.631 158.458 355.788 163.604 354.545C168.75 353.303 155.42 346.594 155.42 346.594Z" fill="#CE6D3E"/>
<path d="M125.19 350.334C124.774 347.632 125.054 345.045 124.985 344.519C124.781 342.963 122.494 350.546 122.494 350.546C125.293 354.593 125.402 351.734 125.19 350.334Z" fill="#972B28"/>
<path d="M143.578 337.243C143.578 337.243 137.654 331.946 135.79 340.362C135.783 340.362 139.217 338.178 143.578 337.243Z" fill="#972B28"/>
<path d="M233.715 345.884C229.463 339.004 225.136 330.26 220.679 323.414C216.228 316.589 218.788 294.905 228.473 291.171C238.131 287.451 239.933 292.045 248.847 304.945C257.795 317.9 271.597 351.883 267.331 363.596C265.058 369.828 245.052 373.001 233.715 345.884Z" fill="#1D2436"/>
<path d="M264.573 352.259C259.816 345.413 253.748 340.676 241.339 343.167C235.155 344.41 234.371 350.286 234.371 350.286C234.371 350.286 227.32 349.645 224.105 352.511C220.883 355.385 209.97 352.511 210.318 366.845C210.666 381.178 214.181 387.765 223.764 389.594C233.34 391.423 248.301 378.906 248.301 378.906C248.301 378.906 253.577 379.929 260.587 373.268C267.658 366.551 272.129 363.132 264.573 352.259Z" fill="#C93F37"/>
<path d="M235.968 348.355C235.968 348.355 241.612 343.386 247.161 348.286C247.769 348.826 240.316 347.331 235.968 348.355Z" fill="#972B28"/>
<path d="M210.638 372.906C209.908 385.867 225.436 384.577 225.436 384.577C225.436 384.577 222.46 385.949 224.31 386.454C226.494 387.048 230.316 387.697 232.65 386.065C240.991 380.23 245.639 365.903 235.435 360.033C233.565 358.961 233.012 367.056 232.739 364.722C232.446 362.245 229.811 358.409 225.149 355.972C222.549 354.607 211.539 356.839 210.638 372.906Z" fill="#972B28"/>
<path d="M250.219 356.566C250.219 356.566 247.544 353.761 244.097 352.512C240.65 351.263 234.616 349.863 234.616 349.863C235.565 349.577 250.595 348.648 250.219 356.566Z" fill="#972B28"/>
<path d="M217.621 357.057C215.266 357.2 207.785 357.951 207.212 371.213C206.755 381.915 216.29 384.407 216.29 384.407C216.29 384.407 223.231 385.007 226.392 382.318C230.651 378.694 230.999 370.073 228.357 362.695C226.999 358.914 219.976 356.914 217.621 357.057Z" fill="#F4E8D8"/>
<path d="M212.884 359.521C210.536 359.624 203.711 358.347 203.356 370.933C203.069 381.083 212.611 383.581 212.611 383.581C212.611 383.581 219.532 384.243 222.638 381.731C226.822 378.346 227.026 370.169 224.276 363.132C222.863 359.514 215.232 359.419 212.884 359.521Z" fill="#CE6D3E"/>
<path d="M166.28 314.405C166.28 314.405 168.989 310.726 176.723 310.965C187.527 311.299 199.131 314.542 202.584 319.422C205.144 323.032 205.287 326.698 205.287 326.698C205.287 326.698 208.72 327.032 210.42 329.544C211.491 331.127 211.014 351.037 211.014 351.037C210.829 354.552 209.075 356.969 205.499 356.921L202.468 356.88L165.542 352.054C165.556 352.054 162.751 318.719 166.28 314.405Z" fill="#634874"/>
<path d="M153.55 342.232C153.966 351.788 162.164 353.46 164.525 353.856C170.907 354.921 205.273 357.924 205.273 357.924C205.273 357.924 211.266 355.631 207.847 355.392C207.028 355.337 190.066 351.549 184.51 350.539C175.043 348.819 171.835 342.642 171.835 342.642C171.835 342.642 153.359 337.871 153.55 342.232Z" fill="#7E6391"/>
<path d="M204.031 386.564L206.857 358.49C206.693 357.044 205.553 356.436 201.062 355.651C201.062 355.651 198.892 355.453 197.192 355.283C196.366 355.201 194.373 355.603 194.291 358.088L192.878 389.881C192.756 391.041 196.926 390.229 196.926 390.229C203.089 389.464 203.902 389.185 204.031 386.564Z" fill="#634874"/>
<path d="M171.651 346.751C165.706 349.399 161.836 350.191 156.383 347.556C152.328 345.829 151.209 336.99 151.311 334.219L151.386 324.691C151.605 318.48 156.901 313.449 163.215 313.449C172.3 313.443 177.043 320.521 176.798 329.476L176.477 334.84C176.402 337.605 174.381 345.536 171.651 346.751Z" fill="#634874"/>
<path d="M195.677 389.676L196.455 357.105C196.592 354.436 196.762 353.993 192.496 353.638L188.647 353.611C185.473 353.781 183.903 355.392 183.807 358.013L185.132 384.045C185.07 388.68 184.469 389.97 187.739 390.229C193.186 390.659 195.615 391.267 195.677 389.676Z" fill="#7E6391"/>
<path d="M181.705 357.856C182.101 361.897 182.947 366.272 188.565 367.664C188.804 367.726 193.213 367.446 193.213 367.446L191.363 356.737C191.397 354.628 190.271 353.508 188.933 353.358L184.19 353.031C182.449 352.833 181.446 355.174 181.705 357.856Z" fill="#7E6391"/>
<path d="M186.422 357.938C186.756 361.781 187.725 366.101 192.578 367.432C192.783 367.487 193.001 367.487 193.213 367.446C196.1 367.685 200.714 365.869 200.748 363.856L201.212 355.658C201.076 355.317 188.933 353.727 188.933 353.727C187.432 353.543 186.196 355.392 186.422 357.938Z" fill="#634874"/>
<path d="M169.481 328.384C169.16 331.728 166.123 334.267 162.696 334.056C159.27 333.844 156.758 330.957 157.086 327.606C157.413 324.261 160.457 321.736 163.877 321.947C167.29 322.166 169.802 325.046 169.481 328.384Z" fill="#1D2436"/>
<path d="M167.604 326.616C167.16 331.264 162.942 334.799 158.178 334.506C153.407 334.213 149.919 330.192 150.376 325.537C150.834 320.896 155.059 317.381 159.809 317.681C164.56 317.982 168.047 321.981 167.604 326.616Z" fill="#F6BE4A"/>
<path d="M163.979 325.926C163.7 328.854 161.038 331.073 158.041 330.888C155.045 330.704 152.84 328.172 153.134 325.244C153.42 322.322 156.082 320.104 159.072 320.295C162.061 320.486 164.259 323.005 163.979 325.926Z" fill="#1D2436"/>
<path d="M177.937 314.432C182.292 317.442 183.377 321.893 182.244 329.728C182.149 330.37 182.667 330.943 183.432 331.059L199.363 333.687C200.325 333.837 202.789 334.526 202.891 333.707C203.314 330.397 203.86 320.944 196.939 317.415C193.67 315.75 185.773 313.47 179.33 312.269C177.746 311.975 176.716 313.586 177.937 314.432Z" fill="#BB83C3"/>
<path d="M179.425 311.655C179.425 311.655 190.954 316.35 186.169 332.274" stroke="#634874" stroke-width="2" stroke-miterlimit="10" stroke-linecap="round" stroke-linejoin="round"/>
<path d="M187.684 313.47C187.684 313.47 197.233 319.77 192.639 333.025" stroke="#634874" stroke-width="2" stroke-miterlimit="10" stroke-linecap="round" stroke-linejoin="round"/>
<path d="M193.943 315.313C193.943 315.313 202.482 321.565 198.844 333.714" stroke="#634874" stroke-width="2" stroke-miterlimit="10" stroke-linecap="round" stroke-linejoin="round"/>
<path d="M181.862 334.54L202.789 338.178" stroke="#BB83C3" stroke-width="2" stroke-miterlimit="10" stroke-linecap="round" stroke-linejoin="round"/>
<path d="M221.266 363.992C221.266 363.992 219.587 357.371 218.631 355.556C218.16 354.662 218.27 352.88 217.184 350.259C216.01 347.42 216.584 345.126 215.328 342.874C214.263 340.963 209.342 344.444 209.54 348.041C209.649 350.075 209.895 354.047 210.441 356.033C211.055 358.286 202.639 356.504 202.639 356.504C201.745 356.19 195.964 356.6 195.022 356.702L189.057 356.784C186.579 357.583 186.163 359.385 186.245 361.985C186.286 363.378 192.975 362.593 195.807 363.05C197.868 363.378 202.462 362.606 202.53 362.907C202.53 362.907 186.763 366.852 185.897 368.879C184.19 372.899 184.682 378.162 185.31 378.946C187.173 381.274 187.316 381.451 187.316 381.451C187.316 381.451 187.207 384.448 189.391 385.915C192.688 388.134 203.185 389.976 203.185 389.976C203.185 389.976 215.567 385.799 217.635 383.84C219.703 381.888 222.283 380.291 222.549 374.059C222.802 367.848 221.266 363.992 221.266 363.992Z" fill="#F6874E"/>
<path d="M185.882 368.872C184.21 372.906 184.667 378.155 185.295 378.94C187.159 381.267 187.302 381.445 187.302 381.445C187.302 381.445 187.193 384.441 189.377 385.909C192.674 388.127 203.171 389.97 203.171 389.97L199.404 382.81C199.404 382.81 196.059 366.449 195.076 365.89C194.093 365.33 186.497 367.398 185.882 368.872Z" fill="#CE6D3E"/>
<path d="M157.7 306.611L157.263 284.776L147.175 293.888L135.654 277.056L134.466 296.952L117.798 297.15L130.726 305.894L124.556 313.415L141.141 314.173C142.616 314.235 133.224 310.214 133.224 310.214L134.302 306.256L130.705 300.133L138.268 299.771L139.708 291.854L146.643 298.597L153.748 294.018C153.741 294.011 157.707 306.768 157.7 306.611Z" fill="#F6BE4A"/>
<path d="M146.977 359.945L154.601 366.982C154.731 367.098 154.888 367.173 155.065 367.193C156.731 367.377 167.064 367.234 170.457 366.695C171.938 366.463 175.535 362.784 179.378 359.023C180.579 357.842 181.439 357.153 182.661 355.672C183.336 354.853 183.507 353.781 182.586 353.256C182.586 353.256 181.077 352.416 180.244 353.037C179.883 353.31 179.855 353.208 179.944 353.003C180.128 352.573 179.944 352.075 179.507 351.897C178.661 351.556 177.364 351.256 176.088 351.897C174.218 352.832 174.422 352.573 174.422 352.573C174.422 351.693 173.433 350.648 172.136 350.6C170.402 350.532 169.023 351.542 168.757 351.754C168.723 351.781 166.375 352.307 164.293 353.296C161.823 354.47 158.164 352.935 156.239 352.204C152.697 350.867 147.209 350.723 146.697 359.296C146.697 359.535 146.8 359.781 146.977 359.945Z" fill="#F6874E"/>
<path d="M220.583 256.211C217.17 275.582 210.713 279.172 210.713 279.172C182.565 289.519 159.113 277.848 156.731 260.928C153.653 243.946 151.591 235.039 180.21 229.503C208.645 224.009 223.586 239.202 220.583 256.211Z" fill="#1D2436"/>
<path d="M217.402 252.457C214.495 268.872 190.08 264.135 190.08 264.135C185.145 262.845 168.15 259.419 164.949 250.307C162.219 242.54 158.642 233.796 182.92 229.1C205.028 224.828 219.962 238.028 217.402 252.457Z" fill="#3D4C6D"/>
<path d="M214.174 261.405C214.174 261.405 216.194 256.102 214.317 250.355C214.317 250.355 221.737 252.068 214.174 261.405Z" fill="#1D2436"/>
<path d="M171.829 236.322C171.829 236.322 155.031 240.786 153.154 244.048C151.277 247.318 159.666 283.622 166.56 291.465C173.467 299.328 204.079 286.359 209.58 277.752C214.085 270.715 211.887 268.313 210.775 259.078C209.621 249.454 201.144 245.434 199.472 242.123C196.639 236.479 171.829 236.322 171.829 236.322Z" fill="#CE6D3E"/>
<path d="M207.335 263.978C208.57 270.278 202.386 284.666 189.664 288.55C176.893 292.454 166.566 291.458 161.29 277.923C155.878 264.033 169.638 245.079 182.299 241.297C194.913 237.537 203.021 249.809 207.335 263.978Z" fill="#F6874E"/>
<path d="M170.484 262.498C170.989 264.709 170.116 265.944 168.962 266.217C167.802 266.49 166.798 265.705 166.3 263.487C165.795 261.276 166.327 259.255 167.488 258.982C168.634 258.716 169.979 260.286 170.484 262.498Z" fill="#34273A"/>
<path d="M186.831 246.335L183.596 249.618" stroke="#34273A" stroke-miterlimit="10" stroke-linecap="round" stroke-linejoin="round"/>
<path d="M169.494 256.321L164.949 256.614" stroke="#34273A" stroke-miterlimit="10" stroke-linecap="round" stroke-linejoin="round"/>
<path d="M184.859 254.648C185.398 252.928 188.305 249.591 191.978 250.615C191.978 250.615 187.056 255.317 185.37 256.894C185.111 257.133 184.756 254.976 184.859 254.648Z" fill="#34273A"/>
<path d="M213.396 253.754C213.512 259.358 210.891 264.272 207.54 264.709C204.188 265.146 201.383 260.941 201.281 255.331C201.178 249.727 203.806 244.853 207.144 244.423C210.481 243.987 213.28 248.164 213.396 253.754Z" fill="#F6874E"/>
<path d="M188.879 229.25C188.879 229.25 161.946 258.429 152.745 262.006C143.517 265.596 148.144 240.553 161.673 231.674C175.126 222.855 188.879 229.25 188.879 229.25Z" fill="#1D2436"/>
<path d="M190.626 228.725C190.626 228.725 190.954 230.766 185.425 234.445C175.856 240.813 157.448 250.628 152.786 252.437C145.401 255.303 151.1 238.99 161.652 231.482C172.894 223.49 190.626 228.725 190.626 228.725Z" fill="#3D4C6D"/>
<path d="M172.19 236.929C172.19 236.929 164.717 248.136 156.915 251.713C156.908 251.72 175.398 243.604 172.19 236.929Z" fill="#1D2436"/>
<path d="M195.732 236.677C195.732 236.677 197.656 250.451 200.421 253.966L205.867 258.859L202.182 239.339L195.732 236.677Z" fill="#3D4C6D"/>
</svg>
