<svg width="765" height="557" viewBox="0 0 765 557" fill="none" xmlns="http://www.w3.org/2000/svg">
<path d="M750.504 506.668C729.31 476.377 584.918 366.76 357.89 375.804C165.337 383.475 30.6635 472.281 10.1121 482.267C-10.4394 492.253 -1.87342 498.914 56.3545 490.587C114.583 482.26 143.693 483.926 143.693 483.926L140.267 492.246C140.267 492.246 93.8877 531.233 90.4682 544.549C87.0418 557.866 105.88 559.531 126.432 551.211C146.983 542.891 297.826 513.889 316.664 512.224C335.502 510.559 368.708 521.206 382.407 522.865C396.105 524.53 486.529 552.713 505.538 554.358C524.547 556.009 515.018 525.315 490.959 481.919C480.297 462.685 578.864 511.569 601.128 516.565C623.393 521.561 590.631 492.26 587.204 487.27C583.778 482.281 713.981 515.548 741.385 530.53C768.782 545.525 771.697 536.959 750.504 506.668Z" fill="#F4E8D8"/>
<path d="M135.639 260.904C135.639 260.904 133.448 252.938 130.943 247.232C128.547 241.772 126.711 245.56 125.544 250.945C124.322 256.59 124.895 265.169 124.875 267.217C124.854 269.272 135.284 268.104 135.639 260.904Z" fill="#1D2538"/>
<path d="M157.787 328.434C163.78 326.107 176.619 310.463 174.059 299.638C171.499 288.813 168.947 272.766 165.595 266.766C165.595 266.766 165.07 255.395 163.985 249.286C162.906 243.185 161.295 242.912 159.152 245.86C157.009 248.809 154.17 258.856 154.17 258.856C154.17 258.856 139.884 253.136 128.376 258.112C116.869 263.088 113.353 270.889 112.405 277.544L112.057 278.029C112.057 278.029 99.4499 281.141 93.5186 283.584C87.5873 286.028 85.7922 289.072 88.4814 295.447C91.1707 301.822 91.6211 305.01 95.2659 307.351C98.9107 309.692 115.005 314.797 123.264 316.012C123.264 316.012 126.772 330.898 129.584 334.871C132.396 338.85 151.801 330.769 157.787 328.434Z" fill="#273150"/>
<path d="M159.616 310.054C159.616 310.054 176.619 310.463 174.066 299.638C171.513 288.813 168.954 272.766 165.602 266.766C165.602 266.766 165.077 255.395 163.991 249.286C162.913 243.185 161.302 242.912 159.159 245.86C157.016 248.809 154.176 258.856 154.176 258.856C154.176 258.856 139.891 253.136 128.383 258.112C128.383 258.112 141.727 258.453 146.914 263.429C152.102 268.405 158.552 288.779 158.552 288.779C158.552 288.779 143.931 306.579 144.812 307.828C147.617 311.808 159.616 310.054 159.616 310.054Z" fill="#1D2538"/>
<path d="M132.779 261.081C132.779 261.081 131.113 253.3 129.912 248.133C128.561 242.325 125.742 245.662 124.575 251.048C123.353 256.692 122.698 262.487 122.677 264.542C122.663 266.596 133.181 266.105 132.779 261.081Z" fill="#273150"/>
<path d="M130.477 274.221C131.37 271.674 130.715 269.126 129.014 268.53C127.314 267.934 125.212 269.516 124.319 272.063C123.427 274.61 124.082 277.158 125.782 277.754C127.482 278.35 129.585 276.768 130.477 274.221Z" fill="#121721"/>
<path d="M87.246 289.734C86.816 293.256 88.6043 294.874 89.4985 296.86C90.7202 299.57 98.1668 294.498 98.6036 290.976C99.0336 287.454 99.0746 282.499 94.8701 283.277C91.942 283.823 87.676 286.212 87.246 289.734Z" fill="#121721"/>
<path d="M140.915 311.33C140.915 311.33 124.718 319.65 123.701 315.842C115.592 314.743 102.521 310.511 102.521 310.511L124.438 310.497L140.915 311.33Z" fill="#1D2538"/>
<path d="M217.756 321.753C217.135 319.732 215.258 308.716 212.855 304.798C210.459 300.88 204.412 291.878 197.177 292.137C197.177 292.137 201.334 286.916 214.343 293.27C227.352 299.618 229.175 318.647 229.318 320.258C229.946 327.452 219.523 327.513 217.756 321.753Z" fill="#1D2538"/>
<path d="M127.55 419.138C128.711 415.746 133.27 412.142 133.27 412.142C133.707 411.378 135.222 409.842 135.338 409.112C136.246 403.528 138.724 388.294 138.867 385.857C139.174 380.793 136.929 365.708 137.345 354.112C137.761 342.516 155.391 351.634 156.204 362.835C156.784 370.821 151.228 403.501 150.648 406.695L146.341 417.138C144.751 419.363 140.334 420.947 135.796 421.165C131.263 421.37 126.417 422.455 127.55 419.138Z" fill="#1D2538"/>
<path d="M205.163 354.972C200.767 353.518 193.935 357.306 193.86 363.538C193.798 368.841 217.913 389.802 217.913 389.802L219.264 394.075C219.264 394.075 215.865 398 217.319 400.109C217.66 400.607 222.308 399.788 226.055 399.037C228.799 398.484 230.751 397.174 230.744 395.857L230.731 394.198L232.15 387.905L215.551 370.63C215.558 370.636 211.169 356.965 205.163 354.972Z" fill="#1D2538"/>
<path d="M143.583 311.515C143.583 311.515 161.78 298.505 177.758 305.658C192.044 312.054 198.556 313.132 214.486 313.371C224.492 313.521 231.366 348.727 229.291 355.58C225.537 368.384 181.342 369.517 175.677 369.708C158.982 370.275 145.024 361.729 138.137 358.467C131.96 355.539 122.861 338.571 130.588 325.65C133.536 320.722 136.935 315.385 143.583 311.515Z" fill="#273150"/>
<path d="M148.122 312.832C158.517 304.539 161.773 298.512 177.758 305.658C192.044 312.054 202.856 313.344 218.779 313.828C236.805 314.381 234.382 344.672 229.086 357.655C225.066 367.51 181.342 369.517 175.684 369.708C175.684 369.708 190.973 359.811 190.222 352.774C189.478 345.737 171.936 335.397 171.936 335.397C163.486 326.817 144.437 315.774 148.122 312.832Z" fill="#1D2538"/>
<path d="M157.712 418.012C157.692 414.948 165.24 407.542 165.193 406.791C164.421 394.123 161.241 382.131 160.736 379.244C159.705 373.319 153.002 363.279 150.695 350.474C148.47 338.134 170.462 344.188 173.342 358.412C175.001 366.617 179.096 394.813 180.147 402.512C180.297 403.597 180.229 404.696 179.949 405.761L175.561 415.111C175.049 417.794 170.803 420.101 165.609 420.408C160.415 420.715 157.746 422.183 157.712 418.012Z" fill="#273150"/>
<path d="M229.516 342.27C224.028 337.267 211.824 343.84 209.599 345.874C207.265 348.01 217.462 361.436 217.974 363.313C218.506 365.272 241.099 377.728 245.685 381.373C250.647 385.318 246.498 390.738 249.46 392.43C250.961 393.29 263.486 390.663 262.688 385.748C261.937 381.107 257.009 373.797 256.886 373.428C256.647 372.712 237.249 357.662 236.785 356.727C236.341 355.812 231.14 343.758 229.516 342.27Z" fill="#1D2538"/>
<path d="M174.687 300.164C174.687 300.164 177.984 303.665 178.816 306.75C178.816 306.75 168.776 314.006 150.675 322.633C140.976 327.254 125.994 331.499 125.994 331.499L123.817 323.37C123.824 323.364 154.429 315.33 174.687 300.164Z" fill="#992C29"/>
<path d="M123.933 323.453C123.933 323.453 118.67 334.244 119.517 339.67L133.093 344.018C133.093 344.018 127.823 328.224 123.933 323.453Z" fill="#C93F37"/>
<path d="M123.933 323.452C127.946 327.445 133.093 344.017 133.093 344.017C133.093 344.017 126.015 338.379 125.291 336.209C124.568 334.038 123.933 323.452 123.933 323.452Z" fill="#992C29"/>
<path d="M126.056 328.824C126.056 328.824 135.768 337.349 140.109 338.414L141.235 331.206C141.242 331.206 134.205 327.65 126.056 328.824Z" fill="#992C29"/>
<path d="M419.018 71.859C419.018 71.859 410.732 69.0947 402.446 80.1451C395.935 88.8271 392.624 96.7173 399.068 107.454C400.89 110.491 393.546 111.14 398.146 124.026C402.965 137.52 430.369 138.141 439.577 131.698C439.577 131.698 457.377 146.734 477.321 135.991C490.74 128.763 472.414 109.597 472.414 109.597C472.414 109.597 481.99 88.7452 459.896 68.1869C444.163 53.5531 427.304 63.5729 419.018 71.859Z" fill="#273150"/>
<path d="M412.671 95.1542C418.517 95.1542 423.257 87.1173 423.257 77.2033C423.257 67.2892 418.517 59.2523 412.671 59.2523C406.824 59.2523 402.084 67.2892 402.084 77.2033C402.084 87.1173 406.824 95.1542 412.671 95.1542Z" fill="#273150"/>
<path d="M435.453 68.481C438.547 61.231 437.454 53.8171 433.013 51.9218C428.571 50.0265 422.462 54.3674 419.369 61.6174C416.275 68.8675 417.367 76.2813 421.809 78.1767C426.251 80.072 432.359 75.7311 435.453 68.481Z" fill="#273150"/>
<path d="M416.773 76.3978C416.773 76.3978 409.879 71.934 402.173 81.005C394.467 90.076 393.232 98.1028 398.788 107.358C400.358 109.979 393.832 112.45 397.798 123.562C400.009 129.746 410.145 132.278 409.497 131.124C408.848 129.971 409.408 126.715 409.408 126.715C416.377 130.879 427.769 133.329 439.788 132.387C446.539 136.435 458.988 136.025 467.035 131.691C478.605 125.466 462.804 108.942 462.804 108.942C462.804 108.942 471.062 90.9702 452.013 73.2444C438.45 60.6105 423.919 69.2515 416.773 76.3978Z" fill="#3D4C6D"/>
<path d="M415.626 77.5651C415.626 86.1106 416.35 96.4785 411.306 96.4785C406.268 96.4785 402.18 89.5506 402.18 81.0052C402.18 72.4597 406.268 65.5319 411.306 65.5319C416.343 65.5319 415.626 69.0197 415.626 77.5651Z" fill="#3D4C6D"/>
<path d="M428.854 68.3848C426.185 74.6301 423.004 83.5032 419.175 81.8651C415.346 80.2338 414.404 73.8383 417.066 67.593C419.735 61.3478 424.997 57.6074 428.827 59.2387C432.656 60.8768 431.523 62.1395 428.854 68.3848Z" fill="#3D4C6D"/>
<path d="M454.053 135.977C454.053 135.977 461.794 133.82 463.056 128.237C463.056 128.237 465.759 136.339 454.053 135.977Z" fill="#273150"/>
<path d="M462.585 154.932C462.585 154.932 475.417 180.111 479.068 186.445C482.72 192.772 472.926 200.144 466.537 198.43C460.148 196.717 447.965 167.054 444.907 160.774C441.842 154.488 454.504 144.625 462.585 154.932Z" fill="#F6874E"/>
<path d="M464.36 158.024C464.36 158.024 452.606 134.551 444.695 135.793C436.764 137.035 436.921 140.612 438.607 147.519C441.105 157.758 447.944 171.463 447.944 171.463C447.944 171.463 454.749 160.658 464.36 158.024Z" fill="#C93F37"/>
<path d="M495.061 185.005C495.061 185.005 479.164 183.967 475.424 182.718C471.683 181.469 458.435 187.551 463.895 196.431C468.359 203.7 492.774 200.895 496.931 199.236C501.087 197.577 502.848 186.459 495.061 185.005Z" fill="#F6874E"/>
<path d="M536.095 17.6448C536.095 17.6448 510.991 148.448 510.691 150.482C510.39 152.516 510.124 154.345 510.124 154.345C509.708 155.294 508.691 155.451 504.971 154.598L489.034 151.826L511.278 12.8055C511.387 12.0957 524.717 0.192089 524.717 0.192089C525.161 0.151136 525.72 -0.490452 526.84 0.826862L535.815 15.1671C536.348 16.2592 536.204 17.0715 536.095 17.6448Z" fill="#F6BE4A"/>
<path d="M536.095 17.6449C536.095 17.6449 510.991 148.448 510.691 150.482C510.391 152.516 510.124 154.345 510.124 154.345C509.708 155.294 511.469 155.505 507.756 154.645L533.31 16.1979C533.31 16.1979 525.721 -0.497171 526.847 0.820142L535.822 15.1604C536.348 16.2593 536.204 17.0716 536.095 17.6449Z" fill="#F6874E"/>
<path d="M522.642 82.4116L523.946 77.1013C524.11 76.7191 523.393 76.4939 522.649 76.6986L517.598 78.091C517.148 78.2139 516.936 78.4937 517.127 78.7053L521.584 82.8006C521.905 83.1555 522.465 82.8006 522.642 82.4116Z" fill="#F6874E"/>
<path d="M505.974 45.6496L509.571 43.1856L506.889 40.2234L505.974 45.6496Z" fill="#F6874E"/>
<path d="M530.396 38.9814L526.15 34.8997L531.454 34.5585L530.396 38.9814Z" fill="#F6874E"/>
<path d="M525.7 0.212524L498.357 152.973" stroke="#F4E8D8" stroke-miterlimit="10"/>
<path d="M502.043 70.542L505.333 71.1154L508.186 67.061L506.166 63.0067L513.203 56.5567L515.892 54.0312" stroke="#F4E8D8" stroke-miterlimit="10"/>
<path d="M492.706 204.45C492.637 204.662 491.054 205.406 488.215 204.655C484.884 203.775 485.177 201.488 485.177 201.488L490.808 152.836L506.343 155.328L492.706 204.45Z" fill="#1D2538"/>
<path d="M485.71 219.159C490.255 220.327 494.515 216.982 495.129 211.931C495.716 207.133 492.76 202.642 488.604 201.679C484.495 200.731 480.454 203.536 479.492 208.136C478.482 212.975 481.219 218.006 485.71 219.159ZM488.14 206.375C489.696 206.921 490.842 209.071 490.692 211.221C490.542 213.419 489.095 214.757 487.478 214.163C485.874 213.569 484.754 211.317 484.973 209.167C485.184 207.065 486.597 205.829 488.14 206.375Z" fill="#1D2538"/>
<path d="M485.28 216.026C487.853 216.736 490.283 214.805 490.672 211.808C490.747 211.221 490.733 210.634 490.651 210.075C490.706 210.45 490.72 210.839 490.692 211.228C490.542 213.426 489.095 214.764 487.478 214.17C485.874 213.576 484.754 211.324 484.973 209.174C485.184 207.071 486.597 205.843 488.14 206.382C489.102 206.723 489.907 207.672 490.344 208.86C489.75 207.194 488.488 205.87 486.904 205.467C484.481 204.846 482.133 206.573 481.621 209.406C481.103 212.32 482.72 215.323 485.28 216.026Z" fill="#F6BE4A"/>
<path d="M490.604 209.802C490.597 209.754 490.59 209.699 490.576 209.651C490.59 209.706 490.597 209.754 490.604 209.802Z" fill="#F6BE4A"/>
<path d="M490.467 209.222C490.447 209.146 490.419 209.071 490.392 208.99C490.419 209.065 490.447 209.14 490.467 209.222Z" fill="#F6BE4A"/>
<path d="M490.406 204.58C490.494 204.58 490.583 204.614 490.658 204.669C491.218 205.106 491.668 205.583 491.989 206.102C492.112 206.293 492.03 206.553 491.818 206.675C491.607 206.798 491.334 206.744 491.218 206.553C490.945 206.116 490.556 205.699 490.071 205.324C489.887 205.181 489.873 204.921 490.037 204.744C490.126 204.628 490.269 204.573 490.406 204.58Z" fill="#F4E8D8"/>
<path d="M491.921 184.636C489.061 184.636 487.054 185.537 487.054 185.537L489.866 161.764C490.057 159.198 490.685 151.744 490.685 151.744C490.685 151.744 505.353 153.874 507.203 154.427C507.203 154.427 505.203 162.522 504.527 164.808L498.364 185.462C498.364 185.469 494.781 184.636 491.921 184.636Z" fill="#C73F37"/>
<path d="M500.316 178.917L499.449 181.776C499.449 181.776 494.501 181.36 488.549 181.36C488.556 181.36 490.351 179.654 500.316 178.917Z" fill="#1D2538"/>
<path d="M487.041 185.722C487.041 185.722 495.217 185.653 497.9 187.039L496.856 190.438C496.856 190.438 488.515 188.117 486.761 188.117L487.041 185.722Z" fill="#C73F37"/>
<path d="M488.044 177.197L488.16 176.262C488.16 176.262 494.405 175.907 498.555 177.224L488.044 177.197Z" fill="#1D2538"/>
<path d="M501.633 174.091L502.398 171.668C502.398 171.668 494.091 169.866 488.624 172.016C488.624 172.016 498.658 171.668 501.633 174.091Z" fill="#1D2538"/>
<path d="M504.528 164.815L503.278 168.945C503.278 168.945 495.122 165.634 489.211 166.74L490.071 159.293C490.071 159.293 496.255 161.792 504.528 164.815Z" fill="#1D2538"/>
<path d="M505.811 159.853L506.418 157.696C506.418 157.696 498.658 153.983 492.037 155.601C492.037 155.601 504.998 158.031 505.811 159.853Z" fill="#1D2538"/>
<path d="M477.212 139.841C477.676 139.643 478.202 139.582 478.707 139.67L524.062 146.639C524.642 146.762 525.215 147.731 526.84 150.168C527.932 151.806 528.444 153.915 526.594 154.782C524.171 155.922 521.482 157.853 520.485 157.56L476.966 149.813C476.297 149.683 474.209 148.004 473.355 147.308C472.386 146.516 471.035 144.994 470.209 143.704C469.595 142.749 469.977 141.493 471.014 141.049L477.212 139.841Z" fill="#C73F37"/>
<path d="M476.079 137.909C476.57 137.698 477.11 137.636 477.642 137.732L523.693 145.916C523.816 145.943 527.004 149.437 526.594 150.741C526.185 152.045 520.649 154.352 520.649 154.352C520.649 154.352 473.704 146.762 473.287 146.195C472.516 145.144 471.24 144.079 470.373 142.735C469.731 141.738 470.134 140.428 471.212 139.964L476.079 137.909Z" fill="#F6874E"/>
<path d="M476.079 137.909C476.57 137.698 477.11 137.636 477.642 137.732L483.403 144.257L520.649 154.352C520.649 154.352 473.704 146.762 473.287 146.195C472.147 145.069 471.24 144.079 470.373 142.735C469.731 141.738 470.134 140.428 471.212 139.964L476.079 137.909Z" fill="#F6BE4A"/>
<path d="M502.214 76.2822L500.193 88.2473L514.711 109.522L516.916 97.8507L502.214 76.2822Z" fill="#F6BE4A"/>
<path d="M499.77 91.7761L499.197 96.3833L513.708 117.658L514.472 113.338L499.77 91.7761Z" fill="#F6BE4A"/>
<path d="M483.88 139.042L485.225 140.94C485.675 141.609 485.812 141.677 486.501 141.233L488.692 139.889L483.88 139.042Z" fill="#C73F37"/>
<path d="M489.696 182.691C489.266 183.722 490.371 184.049 491.934 184.22C493.06 184.343 495.142 183.21 495.142 183.21C495.142 183.21 497.019 183.824 497.804 184.295C498.207 184.534 494.664 184.22 493.409 184.295C492.153 184.37 489.306 185.571 489.306 185.571C489.225 185.578 489.143 185.592 489.068 185.619C488.112 185.96 487.511 186.97 487.689 188.547C487.716 188.759 487.819 188.916 487.976 189.059C488.173 189.243 488.535 189.318 488.399 189.885C488.214 190.629 487.354 191.168 487.361 191.707C487.361 192.014 487.962 194.608 488.167 194.84L490.924 194.949C490.924 194.949 487.757 195.311 487.532 196.758C487.143 199.27 489.279 200.587 490.76 200.348C492.596 200.055 492.583 200.956 494.166 201.229C494.166 201.229 498.07 201.652 498.589 200.294C499.135 198.867 500.876 197.755 501.415 195.741C501.729 194.56 501.729 192.212 502.589 190.8C504.275 188.042 502.2 187.237 502.664 185.462C503.073 183.926 504.152 183.817 503.606 182.008C503.176 180.602 501.702 180.206 500.623 179.811C499.545 179.421 496.698 179.183 493.88 179.497C493.886 179.51 490.132 181.66 489.696 182.691Z" fill="#CE6D3E"/>
<path d="M489.696 182.691C489.266 183.721 490.358 184.206 491.921 184.377C493.047 184.499 495.135 183.209 495.135 183.209C495.135 183.209 497.012 183.824 497.797 184.295C498.2 184.534 494.658 184.22 493.402 184.295C492.146 184.37 489.3 185.571 489.3 185.571C489.218 185.578 489.136 185.592 489.061 185.619C488.105 185.96 487.423 187.059 487.607 188.629C487.634 188.84 488.064 189.359 488.221 189.503C488.419 189.687 488.262 189.926 488.221 190.008C487.88 190.697 487.464 190.847 487.348 191.373C487.075 192.588 487.395 193.714 488.16 194.84L491.054 194.949C491.054 194.949 487.716 195.304 487.525 196.758C487.341 198.157 488.542 200.062 490.146 199.652C492.439 199.065 495.211 200.007 495.504 199.877C497.572 198.935 495.763 196.929 496.446 195.379C496.951 194.233 496.992 192.922 497.524 191.687C497.988 190.615 497.797 187.544 497.797 187.544L500.5 185.114C500.5 185.114 500.411 182.773 500.227 181.872C499.893 180.193 495.545 179.182 493.88 179.496C493.579 179.565 490.132 181.66 489.696 182.691Z" fill="#F6874E"/>
<path d="M486.18 188.902C487.812 191.359 489.887 188.807 489.402 185.073C489.17 183.278 488.603 180.957 485.887 181.756C483.17 182.554 483.266 184.513 486.18 188.902Z" fill="#F6874E"/>
<path d="M510.848 265.927C510.985 269.654 496.897 271.346 493.293 276.383C488.092 283.659 492.576 283.946 444.689 287.543C405.948 290.458 393.805 271.735 394.29 263.845C394.768 256.064 422.54 245.778 451.76 245.744C481.035 245.717 510.561 258.03 510.848 265.927Z" fill="#EC5E4D"/>
<path d="M399.696 290.171C399.696 290.171 392.215 259.798 391.594 250.556C390.973 241.314 422.138 228.107 427.748 243.294C433.359 258.48 434.608 282.909 434.608 294.136C434.608 305.364 432.738 315.268 419.025 314.606C398.986 313.637 404.562 310.067 399.696 290.171Z" fill="#273150"/>
<path d="M399.696 290.171C399.696 290.171 392.215 259.798 391.594 250.556C390.973 241.314 422.138 228.107 427.748 243.294C433.359 258.48 434.608 282.909 434.608 294.136C434.608 305.364 432.738 315.268 419.025 314.606C398.986 313.637 404.562 310.067 399.696 290.171Z" fill="#102441"/>
<path d="M421.612 292.73C413.381 290.765 401.784 297.59 402.603 306.682C403.224 313.616 396.269 315.596 391.594 329.131C386.918 342.665 421.51 351.579 424.629 334.413C427.742 317.247 443.74 298.013 421.612 292.73Z" fill="#273150"/>
<path d="M422.138 290.505C413.906 288.54 401.791 297.59 402.61 306.682C403.231 313.616 407.388 317.637 402.713 331.172C398.037 344.706 421.517 351.586 424.636 334.414C427.742 317.248 444.259 295.788 422.138 290.505Z" fill="#102441"/>
<path d="M424.629 334.414C421.51 351.58 402.815 399.46 400.945 408.04C399.075 416.626 392.843 419.814 392.843 419.814C392.843 419.814 384.311 423.732 384.577 404.381C384.775 389.597 386.925 342.672 391.601 329.138C391.601 329.138 403.443 324.182 410.924 326.168C418.397 328.141 424.629 334.414 424.629 334.414Z" fill="#F6874E"/>
<path d="M424.629 334.413C421.51 351.579 402.815 399.46 400.945 408.04C400.03 412.251 398.972 418.571 396.686 418.742C394.317 418.919 393.362 420.51 392.741 405.726C392.119 391.856 398.037 342.665 402.713 329.13C402.713 329.13 403.443 324.175 410.924 326.161C418.397 328.141 424.629 334.413 424.629 334.413Z" fill="#CE6D3E"/>
<path d="M393.355 400.3C389.935 406.77 383.697 410.586 383.697 410.586C383.697 410.586 379.274 418.414 379.909 421.363C380.318 423.151 382.113 427.711 382.113 427.711C382.113 427.711 383.451 443.58 383.922 445.45C384.618 448.249 412.678 452.726 414.555 453.436C416.432 454.146 416.022 438.358 416.022 438.358C416.022 438.358 403.996 423.506 401.743 417.152C399.525 410.913 397.047 393.324 393.355 400.3Z" fill="#CE6D3E"/>
<path d="M440.833 238.666C434.601 243.949 430.963 255.832 435.638 267.06C440.314 278.288 444.573 298.532 448.934 303.16C453.296 307.787 460.777 313.944 469.506 313.944C478.229 313.944 481.97 301.399 480.413 291.495C478.857 281.591 473.247 253.525 468.885 240.98C464.524 228.435 447.064 233.383 440.833 238.666Z" fill="#102441"/>
<path d="M450.115 296.143C447.023 299.447 446.252 310.375 444.511 316.258C442.17 324.176 441.72 330.168 442.17 341.007C442.628 352.023 444.839 366.282 445.918 373.961C448.129 389.734 443.529 395.597 451.009 396.471C458.49 397.351 457.241 394.71 460.149 386.786C463.056 378.861 473.656 337.485 475.731 329.117C477.806 320.756 479.055 311.508 479.471 304.027C479.888 296.546 458.374 287.318 450.115 296.143Z" fill="#273150"/>
<path d="M451.166 295.168C446.436 298.355 445.822 310.32 447.214 323.145C448.32 333.322 473.663 337.492 475.738 329.131C477.813 320.77 479.062 311.521 479.478 304.041C479.895 296.56 460.142 287.919 451.166 295.168Z" fill="#102441"/>
<path d="M442.805 323.821C440.286 332.011 441.542 345.962 445.092 371.892C447.248 387.673 444.054 398.819 451.535 399.699C459.016 400.58 460.305 400.825 461.814 392.526C463.343 384.11 473.656 337.499 475.731 329.138C475.731 329.138 466.38 323.418 457.657 322.974C448.934 322.531 442.805 323.821 442.805 323.821Z" fill="#F6874E"/>
<path d="M447.214 323.145C447.262 332.502 450.996 361.62 451.426 377.189C451.869 393.276 447.583 397.399 455.064 398.279C462.544 399.16 460.346 400.832 461.821 392.526C463.418 383.502 473.663 337.499 475.738 329.138C475.738 329.138 466.776 323.704 457.664 322.974C453.985 322.674 447.214 323.145 447.214 323.145Z" fill="#CE6D3E"/>
<path d="M446.388 390.833C446.388 390.833 445.528 396.075 443.167 401.583C441.14 406.306 451.692 408.47 455.534 411.985C455.534 411.985 483.43 426.578 492.774 421.957C503.156 416.824 474.366 402.231 482.597 406.709C482.597 406.709 465.145 398.122 462.653 391.522C460.155 384.929 446.388 390.833 446.388 390.833Z" fill="#F6874E"/>
<path d="M450.859 389.973C450.497 397.802 447.064 399.569 445.815 404.197C443.406 413.118 461.104 418.599 459.944 417.909C459.944 417.909 483.109 425.957 492.46 421.336C503.033 416.107 474.168 402.334 482.591 406.716C482.591 406.716 465.138 398.129 462.647 391.529C460.155 384.929 451.187 382.908 450.859 389.973Z" fill="#CE6D3E"/>
<path d="M443.842 397.72C444.286 396.839 445.098 396.075 445.235 396.955C445.378 397.836 446.723 401.208 448.566 402.245C450.402 403.283 471.37 414.708 478.721 412.627C483.205 411.357 479.963 407.31 476.755 404.341C474.707 402.443 472.666 400.989 472.666 400.989C472.666 400.989 482.072 406.286 486.392 408.777C490.713 411.268 499.798 419.787 500.658 423.111C501.524 426.435 468.721 426.851 464.019 424.667C459.316 422.483 452.347 416.251 449.753 413.76C447.364 411.466 444.586 412.49 443.699 411.473C441.692 409.187 442.498 400.361 443.842 397.72Z" fill="#992C29"/>
<path d="M434.287 135.247C434.287 135.247 442.587 133.377 445.508 137.117C448.866 141.424 457.842 152.488 458.285 161.293C458.64 168.309 457.432 173.92 453.896 183.68C450.996 191.7 447.085 204.013 442.157 206.252C427.141 213.071 414.316 211.958 405.927 206.928C402.808 205.058 399.498 200.314 399.75 187.898C399.859 182.547 399.696 180.752 398.446 161.743C396.774 136.189 406.862 135.131 417.128 134.557C427.386 133.977 434.287 135.247 434.287 135.247Z" fill="#F6BE4A"/>
<path d="M433.195 145.205L431.557 145.116C428.622 144.959 426.37 142.448 426.533 139.513L427.694 117.985C427.851 115.05 430.362 112.798 433.297 112.962L434.935 113.05C437.87 113.207 440.123 115.719 439.959 118.654L438.799 140.182C438.635 143.117 436.13 145.362 433.195 145.205Z" fill="#F6874E"/>
<path d="M433.611 136.482L431.973 136.394C429.038 136.237 426.786 133.725 426.95 130.79L428.11 109.262C428.267 106.327 430.779 104.075 433.714 104.239L435.352 104.328C438.287 104.485 440.539 106.996 440.375 109.931L439.215 131.459C439.051 134.387 436.546 136.639 433.611 136.482Z" fill="#CE6D3E"/>
<path d="M384.796 409.733C383.908 410.019 382.024 411.514 381.69 412.388C380.223 416.217 378.987 419.834 379.349 422.107C379.492 422.994 380.345 425.26 381.226 429.56C382.202 434.297 381.547 442.829 384.181 446.419C386.809 450.01 409.251 457.804 414.234 456.869C419.223 455.934 416.397 441.253 416.015 438.365C415.613 435.321 404.685 421.684 400.139 411.541C400.139 411.541 400.18 412.538 400.904 415.077C402.61 421.015 405.934 433.465 401.286 433.922C394.631 434.57 385.082 425.527 384.686 421.001C384.297 416.531 383.567 412.961 383.697 412.04C383.826 411.104 384.796 409.733 384.796 409.733Z" fill="#992C29"/>
<path d="M454.955 256.945L467.657 268.132C468.988 269.183 470.844 268.357 470.578 266.814C469.663 261.524 466.961 252.59 454.955 256.945Z" fill="#EC5E4D"/>
<path d="M400.112 192.171C398.037 196.116 382.038 245.983 397.409 279.223C397.409 279.223 410.951 264.521 430.294 260.542C468.817 252.624 465.493 263.497 466.483 266.371C467.138 268.282 469.213 269.271 471.124 268.616C471.615 268.445 472.168 268.241 472.783 267.995C481.437 264.541 496.487 259.299 510.493 264.255C510.493 264.255 483.321 219.056 446.982 196.512C412.2 174.957 402.187 188.226 400.112 192.171Z" fill="#F6BE4A"/>
<path opacity="0.5" d="M469.179 263.429C469.179 263.429 465.582 237.506 456.579 229.588C456.579 229.588 460.176 235.71 460.176 240.386L455.855 237.506C455.855 237.506 460.333 244.113 463.418 250.829C466.121 256.712 467.329 262.753 469.179 263.429Z" fill="#F6BE4A"/>
<path d="M458.892 94.8812C464.168 120.265 453.821 128.92 435.911 128.36C422.451 127.937 411.428 119.419 410.548 102.573C409.66 85.7283 416.752 71.9067 430.041 69.6816C447.583 66.7467 455.459 78.3909 458.892 94.8812Z" fill="#CE6D3E"/>
<path d="M452.722 100.656C452.988 101.905 453.2 103.099 453.37 104.239C455.855 121.228 447.787 127.111 434.443 126.708C423.741 126.381 414.97 119.753 414.267 106.642C413.564 93.5298 424.608 84.7318 435.181 83.005C449.139 80.7184 449.992 87.8169 452.722 100.656Z" fill="#F6874E"/>
<path d="M412.507 114.787C416.623 114.15 419.299 109.363 418.484 104.096C417.669 98.8287 413.672 95.075 409.556 95.7119C405.439 96.3488 402.763 101.135 403.578 106.402C404.393 111.67 408.391 115.423 412.507 114.787Z" fill="#F6874E"/>
<path d="M410.541 95.5981L414.861 100.342C414.861 100.342 414.882 80.5002 430.43 75.033C444.272 70.1596 450.606 75.62 450.606 75.62C450.606 75.62 443.132 63.2727 424.315 71.3609C408.575 78.1249 410.541 95.5981 410.541 95.5981Z" fill="#F6BE4A"/>
<path d="M423.4 98.3485C424.61 98.3485 425.591 96.515 425.591 94.2532C425.591 91.9915 424.61 90.158 423.4 90.158C422.19 90.158 421.209 91.9915 421.209 94.2532C421.209 96.515 422.19 98.3485 423.4 98.3485Z" fill="#273150"/>
<path d="M445.917 96.5945C447.127 96.5945 448.108 94.761 448.108 92.4992C448.108 90.2374 447.127 88.4039 445.917 88.4039C444.707 88.4039 443.726 90.2374 443.726 92.4992C443.726 94.761 444.707 96.5945 445.917 96.5945Z" fill="#273150"/>
<path d="M443.337 87.5304L447.432 85.2848" stroke="#273150" stroke-miterlimit="10" stroke-linecap="round" stroke-linejoin="round"/>
<path d="M426.895 88.6975L421.461 87.2368" stroke="#273150" stroke-miterlimit="10" stroke-linecap="round" stroke-linejoin="round"/>
<path d="M448.545 72.1392C448.545 72.1392 452.49 76.9375 456.537 78.9919C459.595 80.5481 462.052 80.8348 462.052 80.8348L461.438 79.6062L462.96 78.4322C462.96 78.4322 457.241 77.8316 449.733 71.4225L448.545 72.1392Z" fill="#EE5D4F"/>
<path d="M448.149 71.5793C448.149 71.5793 450.217 77.4355 453.316 80.7527C455.657 83.2577 457.868 84.3702 457.868 84.3702L457.712 83.0119L459.548 82.4318C459.548 82.4318 454.381 79.9132 449.521 71.3131L448.149 71.5793Z" fill="#EE5D4F"/>
<path d="M450.654 74.6711C452.115 74.4117 453.5 66.6239 450.026 66.4601C446.757 66.3031 443.05 66.7263 443.665 69.1903C444.286 71.6543 449.2 74.9305 450.654 74.6711Z" fill="#EE5D4F"/>
<path d="M451.917 70.2417C451.917 70.2417 451.377 66.9041 450.34 66.9792C449.303 67.0542 450.231 68.4807 450.497 70.6785C450.77 72.8763 452.101 71.6546 451.917 70.2417Z" fill="#F7BC4B"/>
<path d="M449.446 73.0604C449.446 73.0604 449.227 71.5247 451.466 70.0367C453.705 68.5488 455.411 67.7365 456.831 68.6238C458.251 69.5111 458.749 73.3948 457.937 75.3537C457.124 77.3126 452.142 75.8247 450.886 75.0875C449.63 74.3436 449.446 73.0604 449.446 73.0604Z" fill="#EE5D4F"/>
<path d="M457.596 71.7567C457.596 71.7567 458.067 74.8759 456.674 75.381C454.606 76.1386 455.91 70.2346 456.033 69.3063C456.149 68.3712 457.971 69.5247 457.596 71.7567Z" fill="#F7BC4B"/>
<path d="M403.436 176.302C403.436 176.302 411.571 194.444 415.285 198.423C419.025 202.437 423.973 206.894 428.84 205.01C433.693 203.133 435.836 191.045 432.416 184.711C429.038 178.459 422.84 160.426 420.752 157.58C418.677 154.747 410.944 156.754 407.176 159.04C403.381 161.334 400.705 169.524 403.436 176.302Z" fill="#F6874E"/>
<path d="M423.305 162.528C423.305 162.528 416.315 134.413 406.964 135.656C398.037 136.843 396.392 144.461 397.518 154.897C398.665 165.558 403.572 176.834 403.572 176.834C403.572 176.834 405.435 166.609 423.305 162.528Z" fill="#EC5E4D"/>
<path d="M420.472 153.396C420.472 153.396 416.322 134.414 406.971 135.656C398.044 136.844 396.399 144.461 397.525 154.897C398.672 165.559 400.433 167.627 400.433 167.627C400.433 167.627 401.361 160.897 402.603 156.849C403.675 153.375 410.5 151.758 410.5 151.758L420.472 153.396Z" fill="#C93F37"/>
<path d="M476.359 169.941C476.359 169.941 462.23 172.848 454.347 175.449C447.398 177.742 435.495 181.619 428.697 186.424C421.837 191.277 421.045 198.212 422.868 202.744C424.71 207.317 433.563 204.593 440.873 202.095C448.149 199.604 475.82 186.369 482.59 181.994C489.307 177.647 487.573 165.688 476.359 169.941Z" fill="#CE6D3E"/>
<path d="M446.75 178.042C439.269 180.117 435.495 181.619 428.697 186.424C421.837 191.277 421.045 198.212 422.868 202.744C424.71 207.317 433.563 204.594 440.873 202.095C448.156 199.604 453.336 176.213 446.75 178.042Z" fill="#F6874E"/>
<path d="M481.164 178.773C483.218 181.585 488.433 181.155 490.187 179.667C492.317 177.872 493.586 176.343 494.938 176.349C495.784 176.349 498.903 176.936 500.61 177.708C500.705 177.892 500.296 178.616 500.371 178.82C500.473 179.107 500.562 179.278 500.869 179.298C502.807 179.435 504.405 178.158 504.302 176.131L504.104 173.435L506.09 171.032L506.473 163.504L499.886 156.419C499.558 156.071 499.094 155.887 498.617 155.921L489.662 156.583C489.122 156.624 488.631 156.917 488.344 157.368L480.215 170.091C480.208 170.097 479.109 175.96 481.164 178.773Z" fill="#CE6D3E"/>
<path d="M500.275 173.961C500.896 174.636 501.872 175.667 502.712 176.322C503.62 177.032 504.364 177.285 504.302 176.131L504.104 173.435L506.582 171.463C506.582 171.463 507.155 165.62 506.964 163.934C506.452 159.457 499.818 156.133 499.818 156.133C499.231 155.839 499.088 155.894 498.61 155.928C498.61 155.928 496.501 159.416 496.371 160.467C496.241 161.518 498.187 166.139 498.187 166.139C498.187 166.139 496.064 168.835 495.948 169.64C495.668 171.531 498.118 171.62 500.275 173.961Z" fill="#F6874E"/>
<path d="M400.678 162.044C400.678 162.044 401.299 157.839 404.418 156.59C404.418 156.59 400.958 166.671 400.426 167.627C399.893 168.582 399.9 164.385 400.678 162.044Z" fill="#C93F37"/>
<path d="M398.658 141.267C396.993 146.045 390.761 162.249 384.53 197.987C378.298 233.725 388.27 279.844 394.085 284.834C399.9 289.823 420.261 252.836 463.896 275.899C463.896 275.899 433.966 232.981 417.148 221.255C396.576 206.921 398.242 172.221 400.733 153.73C403.231 135.247 398.658 141.267 398.658 141.267Z" fill="#29ACE4"/>
<path d="M384.529 197.994C378.298 233.732 388.27 279.851 394.085 284.841C399.9 289.83 420.261 252.843 463.896 275.906C463.896 275.906 448.068 253.846 438.253 242.434C438.253 242.434 425.612 261.047 422.37 260.371C420.445 259.969 404.719 261.327 395.368 250.113C386.017 238.898 384.529 197.994 384.529 197.994Z" fill="#1689CB"/>
<path d="M394.829 240.113C394.829 240.113 395.348 244.14 399.962 250.911C405.538 259.095 422.377 262.521 422.377 262.521L429.127 258.064C429.127 258.064 419.858 257.3 411.934 253.341C404.009 249.382 395.129 242.625 394.829 240.113Z" fill="#1689CB"/>
<path d="M425.25 133.534C422.117 132.81 404.371 131.35 399.382 140.079C394.392 148.802 398.446 164.958 398.446 164.958C398.446 164.958 399.375 151.642 406.084 147.403C409.968 144.946 432.86 152.973 436.157 153.478C442.232 154.413 434.601 145.69 434.601 145.69C434.601 145.69 429.304 134.469 425.25 133.534Z" fill="#29ACE4"/>
<path d="M439.741 134.728C437.584 135.281 431.557 155.723 437.502 152.078C439.065 151.116 447.672 148.495 457.5 149.43C464.046 150.051 469.199 153.744 469.657 153.013C471.22 150.515 448.921 132.36 439.741 134.728Z" fill="#1689CB"/>
<path d="M437.249 150.311C437.852 150.311 438.341 149.822 438.341 149.219C438.341 148.615 437.852 148.126 437.249 148.126C436.646 148.126 436.157 148.615 436.157 149.219C436.157 149.822 436.646 150.311 437.249 150.311Z" fill="#273150"/>
<path d="M264.537 233.042C264.537 233.042 265.275 219.371 258.094 218.579C250.914 217.787 235.611 233.636 232.151 235.322C228.69 237.015 225.96 242.461 224.192 244.147C222.424 245.833 217.674 247.123 215.039 249.239C212.398 251.362 203.149 257.743 209.784 264.869C216.432 272.009 218.943 274.104 228.103 270.214C237.236 266.33 266.926 240.1 264.537 233.042Z" fill="#1D2436"/>
<path d="M250.32 307.931C250.32 307.931 226.083 300 198.29 296.485C185.758 294.901 185.123 313.746 193.409 328.278C197.962 336.27 222.24 342.024 244.696 353.109C263.261 362.268 280.195 377.824 287.901 377.503C304.903 376.786 294.099 317.302 250.32 307.931Z" fill="#48598B"/>
<path d="M228.076 316.313C224.377 315.992 231.052 323.2 232.792 326.36C237.857 335.554 242 346.051 246.457 352.713C250.395 358.596 247.631 350.713 244.43 340.7C242.976 336.154 241.884 331.8 240.826 328.824C240.232 327.145 228.076 316.313 228.076 316.313Z" fill="#273150"/>
<path d="M228.854 426.516C228.854 426.516 214.637 438.481 209.661 444.938C204.665 451.416 218.008 458.446 229.851 456.821C241.665 455.204 252.866 450.89 256.866 444.461C260.852 438.051 260.879 437.983 267.124 431.103C273.349 424.25 264.783 409.705 261.255 406.648C257.719 403.597 230.806 416.149 228.854 426.516Z" fill="#EC6141"/>
<path d="M229.223 423.397C229.223 423.397 215.005 435.362 210.029 441.819C205.033 448.296 219.237 452.624 231.079 450.999C242.894 449.382 250.962 447.348 254.961 440.918C258.948 434.509 261.855 433.567 268.1 426.687C274.325 419.834 265.152 406.593 261.623 403.535C258.088 400.477 231.175 413.029 229.223 423.397Z" fill="#13161F"/>
<path d="M220.971 404.265C220.971 404.265 225.298 410.9 224.458 413.603C223.619 416.312 221.059 423.827 231.202 427.233C239.843 430.134 260.777 417.684 267.377 413.323C268.551 412.545 269.329 411.289 269.459 409.958C269.814 406.252 270.011 398.621 266.442 394.102C261.596 387.98 262.23 389.741 254.565 369.558C246.962 349.518 222.684 307.829 221.162 303.549C219.64 299.276 199.894 295.208 195.914 295.679C191.928 296.15 176.482 316.558 176.892 322.183C177.301 327.82 186.052 347.327 193.573 363.9C201.136 380.567 210.418 388.294 212.637 393.072C216.111 400.559 220.971 404.265 220.971 404.265Z" fill="#48598B"/>
<path d="M261.432 388.096C257.862 381.448 259.582 391.42 257.705 398.484C256.627 402.538 265.009 394.744 261.432 388.096Z" fill="#273150"/>
<path d="M220.691 402.225C220.691 402.225 224.977 413.343 227.373 414.169C229.769 415.002 236.942 414.067 241.809 411.576C246.675 409.077 229.38 413.029 220.691 402.225Z" fill="#273150"/>
<path d="M184.448 330.803C184.448 330.803 187.055 326.339 189.123 322.251C191.191 318.162 192.174 332.011 187.703 335.574C183.233 339.144 184.448 330.803 184.448 330.803Z" fill="#273150"/>
<path d="M238.403 330.646L224.417 323.78L207.156 309.972C207.156 309.972 211.197 310.054 214.364 312.272C215.797 313.275 223.339 319.52 227.448 322.79C232.396 326.742 236.874 329.062 238.403 330.646Z" fill="#273150"/>
<path d="M321.134 237.465C321.134 237.465 249.515 221.691 263.166 211.289C276.728 200.949 314.568 182.336 328.403 202.355C342.334 222.517 329.53 244.632 321.134 237.465Z" fill="#1D2436"/>
<path d="M348.675 382.356C348.675 382.356 349.794 379.715 353.118 377.414C356.436 375.121 366.721 376.077 368.558 380.151C370.394 384.24 370.373 412.265 370.373 414.163C370.373 416.067 366.681 423.964 363.329 428.605C359.971 433.26 353.644 434.154 348.067 431.97C342.491 429.786 346.266 420.169 347.774 415.576C349.282 411.003 346.068 387.277 348.675 382.356Z" fill="#EC6141"/>
<path d="M346.498 380.179C346.498 380.179 346.696 378.554 350.02 376.254C353.337 373.961 363.623 374.917 365.459 378.991C367.295 383.08 368.196 410.088 368.196 411.986C368.196 413.89 364.503 421.787 361.152 426.428C357.794 431.083 351.467 431.977 345.89 429.793C340.314 427.609 344.088 417.992 345.597 413.398C347.105 408.819 343.89 385.1 346.498 380.179Z" fill="#13161F"/>
<path d="M329.325 390.724C329.325 390.724 341.774 380.083 347.617 379.824C360.094 379.264 357.207 391.81 357.179 400.457C357.159 409.133 350.429 415.521 347.931 417.18C345.433 418.838 349.787 417.992 342.532 427.882C335.236 437.82 322.281 449.73 313.654 450.945C307.081 451.874 285.034 440.291 296.822 416.661C300.508 409.283 322.704 396.97 329.325 390.724Z" fill="#273150"/>
<path d="M289.034 338.127C289.034 338.127 286.727 394.792 287.676 416.204C288.631 437.806 287.648 447.983 292.877 453.327C298.112 458.685 307.613 459.682 314.275 457.484C320.923 455.286 318.534 452.515 323.83 451.041C329.12 449.573 332.915 433.513 334.266 428.087C335.618 422.674 339.229 370.07 340.635 351.055C342.034 332.196 338.239 322.558 322.806 322.749C307.347 322.954 291.812 327.056 289.034 338.127Z" fill="#273150"/>
<path d="M287.628 347.287C287.628 347.287 286.85 399.966 287.594 419.644C288.352 439.499 287.573 448.843 291.689 453.764C295.812 458.685 303.306 459.607 308.555 457.58C313.797 455.559 326.82 435.779 327.885 430.796C328.949 425.821 332.744 391.912 329.332 359.784C327.496 342.516 327.441 333.595 315.278 333.773C303.095 333.943 289.819 337.11 287.628 347.287Z" fill="#47588A"/>
<path d="M246.129 319.951C249.911 324.886 254.02 328.476 259.009 332.414C260.176 333.336 299.73 349.867 299.73 349.867C299.73 349.867 277.533 341.431 280.618 343.635C293.798 353.047 297.238 359.422 312.616 363.163C316.206 364.036 323.673 356.986 325.81 359.32C332.669 366.801 330.233 380.964 330.799 373.967C332.819 348.993 341.522 337.601 322.697 327.841C302.869 317.562 235.577 306.163 246.129 319.951Z" fill="#273150"/>
<path d="M254.647 307.453C255.228 302.28 253.978 282.267 254.176 256.925C254.374 231.855 254.197 221.903 268.721 216.047C283.178 210.218 301.293 208.491 315.025 217.46C321.394 221.616 324.185 312.648 325.4 320.784C326.615 328.947 312.268 342.332 299.299 343.164C286.311 344.004 252.989 322.333 254.647 307.453Z" fill="#F6BE4A"/>
<path opacity="0.5" d="M286.857 313.303C286.857 313.303 284.795 317.152 285.649 320.852C278.079 317.562 270.633 313.842 268.571 311.228C268.571 311.228 275.219 322.449 285.191 326.189C295.163 329.93 304.303 328.264 304.303 328.264C304.303 328.264 290.065 318.47 286.857 313.303Z" fill="#F6BE4A"/>
<path d="M246.013 315.289C246.013 315.555 246.109 315.808 246.293 315.999C247.781 317.555 252.286 324.285 259.214 326.633C261.07 327.261 264.264 325.903 264.278 325.111L264.312 323.493C264.319 323.104 260.442 323.48 260.101 323.302C258.053 322.224 249.405 315.446 245.802 311.187C245.18 310.45 246.02 314.306 246.013 315.289Z" fill="#F4E8D8"/>
<path d="M274.694 213.344C276.448 212.368 253.31 223.568 263.698 269.9C266.462 282.22 263.718 303.727 264.619 307.897C265.527 312.067 268.319 321.377 264.21 323.486C256.599 327.39 249.392 315.391 246.737 312.702C242.614 308.539 251.091 306.586 250.743 291.236C250.375 275.012 244.935 252.372 245.999 243.157C248.436 222.128 255.371 220.504 258.094 218.579C261.063 216.484 272.571 214.532 274.694 213.344Z" fill="#972B28"/>
<path d="M274.694 213.344C275.356 210.887 261.261 218.224 259.33 219.972C257.446 221.678 255.453 224.033 253.644 227.295C247.849 237.725 262.544 264.433 262.544 264.433C262.544 264.433 262.497 238.885 263.056 233.056C263.609 227.241 273.417 218.095 274.694 213.344Z" fill="#F4E8D8"/>
<path d="M275.165 211.33C275.165 211.33 274.462 212.948 274.537 214.927C274.817 222.886 276.482 244.884 279.451 245.157C282.468 245.43 283.86 244.707 287.642 232.373C288.447 229.745 296.46 209.958 293.942 208.252" stroke="#913636" stroke-miterlimit="10"/>
<path d="M280.004 251.956C280.886 251.956 281.601 250.318 281.601 248.297C281.601 246.277 280.886 244.639 280.004 244.639C279.122 244.639 278.407 246.277 278.407 248.297C278.407 250.318 279.122 251.956 280.004 251.956Z" fill="#29ACE4"/>
<path d="M274.619 203.891L275.083 216.313C275.274 221.48 280.018 225.295 285.457 224.654L286.195 224.565C291.416 223.951 295.238 219.446 294.74 214.518L293.491 202.205C292.904 196.396 286.645 192.84 280.837 194.997C276.987 196.43 274.475 200.021 274.619 203.891Z" fill="#CE6D3E"/>
<path d="M300.965 329.65L301.013 330.687C301.04 331.281 301.265 331.834 301.647 332.243C304.384 335.192 316.049 347.43 323.755 350.324C329.686 352.549 337.645 352.965 342.184 353C344.341 353.013 346.32 351.614 347.235 349.423C347.835 347.99 347.078 346.331 345.699 346.051C338.792 344.638 320.076 339.881 304.453 327.493C302.972 326.312 300.869 327.609 300.965 329.65Z" fill="#F4E8D8"/>
<path d="M296.242 209.344C294.112 210.996 284.973 227.534 292.624 250.352C300.337 273.374 293.279 314.736 298.282 325.002C299.709 327.923 320.151 346.515 327.912 346.843C333.024 347.055 340.389 347.881 345.501 348.549C347.904 348.863 351.603 344.202 351.685 341.758C351.937 334.032 351.685 317.692 346.484 301.304C339.385 278.923 338.839 214.805 320.834 206.307C307.087 199.816 298.371 207.692 296.242 209.344Z" fill="#972B28"/>
<path d="M320.417 305.426C320.417 305.426 334.881 314.238 338.716 315.48L336.546 320.654C336.546 320.654 320.349 311.842 317.817 308.45L320.417 305.426Z" fill="#F4E8D8"/>
<path d="M295.839 208.115C300.098 204.409 313.954 202.512 318.104 205.153C320.452 206.641 309.353 201.952 303.722 214.647C296.747 230.36 294.235 255.361 294.235 255.361C294.235 255.361 290.447 253.3 289.095 233.308C288.195 219.964 291.573 211.828 295.839 208.115Z" fill="#F4E8D8"/>
<path d="M331.42 296.369C331.42 296.369 333.133 291.379 332.355 289.045C331.577 286.711 329.55 294.655 327.216 297.925C326.089 299.495 330.697 296.901 331.42 296.369Z" fill="#972B28"/>
<path d="M250.497 297.509L249.924 300.266L253.61 298.137L254.286 294.86L250.497 297.509Z" fill="#F4E8D8"/>
<path d="M292.986 352.672C292.986 352.672 299.218 356.31 303.374 359.634C307.531 362.958 315.428 365.558 315.428 365.558C315.428 365.558 305.449 367.217 292.986 352.672Z" fill="#273150"/>
<path d="M245.092 265.518C248.3 275.032 237.864 286.472 228.042 286.567C222.158 286.629 217.735 283.919 213.797 278.5C212.309 276.452 213.217 274.077 212.139 271.838C211.306 270.104 208.391 268.514 207.838 266.849C204.699 257.341 210.132 250.474 219.858 249.526C226.868 248.843 228.315 253.491 232.164 255.232C233.55 255.86 237.727 255.983 239.024 256.788C243.706 259.73 243.522 260.87 245.092 265.518Z" fill="#C93F37"/>
<path d="M243.174 271.613C243.658 276.547 240.546 281.462 236.205 282.588C231.857 283.707 227.953 280.595 227.482 275.646C227.011 270.705 229.134 263.511 233.461 262.405C237.782 261.293 242.689 266.685 243.174 271.613Z" fill="#F4E8D8"/>
<path d="M240.942 272.111C241.297 275.824 239.031 279.53 235.877 280.37C232.724 281.216 229.885 278.868 229.543 275.142C229.202 271.422 231.379 264.057 236.157 265.306C239.304 266.125 240.587 268.405 240.942 272.111Z" fill="#CE6D3E"/>
<path d="M234.963 266.139C233.195 267.531 231.775 270.425 231.277 274.862C230.779 279.298 240.403 284.097 240.403 284.097C240.403 284.097 246.402 286.315 250.402 276.698C251.992 272.869 243.788 265.777 243.85 263.333C244.075 254.467 237.864 263.852 234.963 266.139Z" fill="#F6874E"/>
<path d="M242.601 264.89C242.601 264.89 239.481 265.251 240.109 267.592C240.73 269.927 245.638 274.083 250.784 272.841C255.931 271.599 242.601 264.89 242.601 264.89Z" fill="#CE6D3E"/>
<path d="M212.371 268.63C211.954 265.927 212.234 263.34 212.166 262.815C211.961 261.259 209.674 268.842 209.674 268.842C212.473 272.889 212.582 270.029 212.371 268.63Z" fill="#972B28"/>
<path d="M230.758 255.539C230.758 255.539 224.834 250.242 222.971 258.658C222.964 258.658 226.397 256.474 230.758 255.539Z" fill="#972B28"/>
<path d="M320.896 264.18C316.643 257.3 312.316 248.556 307.859 241.71C303.409 234.885 305.968 213.2 315.654 209.467C325.312 205.747 327.114 210.34 336.028 223.241C344.976 236.195 358.777 270.179 354.511 281.892C352.238 288.123 332.233 291.297 320.896 264.18Z" fill="#1D2436"/>
<path d="M351.754 270.555C346.996 263.709 340.928 258.972 328.52 261.463C322.336 262.705 321.551 268.582 321.551 268.582C321.551 268.582 314.5 267.941 311.285 270.807C308.064 273.681 297.15 270.807 297.498 285.141C297.846 299.474 301.361 306.061 310.944 307.89C320.52 309.719 335.482 297.201 335.482 297.201C335.482 297.201 340.758 298.225 347.767 291.563C354.839 284.847 359.309 281.428 351.754 270.555Z" fill="#C93F37"/>
<path d="M323.148 266.65C323.148 266.65 328.793 261.681 334.342 266.582C334.949 267.121 327.496 265.627 323.148 266.65Z" fill="#972B28"/>
<path d="M297.819 291.202C297.088 304.163 312.616 302.873 312.616 302.873C312.616 302.873 309.64 304.245 311.49 304.75C313.674 305.344 317.496 305.992 319.831 304.361C328.171 298.525 332.82 284.199 322.616 278.329C320.745 277.257 320.193 285.352 319.92 283.018C319.626 280.54 316.991 276.704 312.33 274.268C309.729 272.903 298.72 275.135 297.819 291.202Z" fill="#972B28"/>
<path d="M337.4 274.862C337.4 274.862 334.724 272.057 331.277 270.807C327.83 269.558 321.797 268.159 321.797 268.159C322.745 267.873 337.775 266.944 337.4 274.862Z" fill="#972B28"/>
<path d="M304.801 275.353C302.446 275.496 294.966 276.247 294.392 289.509C293.935 300.211 303.47 302.703 303.47 302.703C303.47 302.703 310.412 303.303 313.572 300.614C317.831 296.99 318.179 288.369 315.538 280.991C314.179 277.209 307.156 275.21 304.801 275.353Z" fill="#F4E8D8"/>
<path d="M300.064 277.817C297.716 277.919 290.891 276.643 290.536 289.229C290.249 299.379 299.791 301.877 299.791 301.877C299.791 301.877 306.712 302.539 309.818 300.027C314.002 296.642 314.207 288.465 311.456 281.428C310.043 277.81 302.412 277.715 300.064 277.817Z" fill="#CE6D3E"/>
<path d="M253.46 232.701C253.46 232.701 256.17 229.022 263.903 229.261C274.708 229.595 286.311 232.837 289.765 237.718C292.324 241.328 292.468 244.994 292.468 244.994C292.468 244.994 295.901 245.328 297.6 247.84C298.672 249.423 298.194 269.333 298.194 269.333C298.01 272.848 296.256 275.264 292.679 275.217L289.649 275.176L252.723 270.35C252.736 270.35 249.931 237.015 253.46 232.701Z" fill="#634874"/>
<path d="M240.73 260.528C241.147 270.084 249.344 271.756 251.706 272.152C258.088 273.217 292.454 276.22 292.454 276.22C292.454 276.22 298.447 273.927 295.027 273.688C294.208 273.633 277.247 269.845 271.691 268.835C262.224 267.115 259.016 260.938 259.016 260.938C259.016 260.938 240.539 256.167 240.73 260.528Z" fill="#7E6391"/>
<path d="M291.212 304.86L294.037 276.786C293.874 275.339 292.734 274.732 288.243 273.947C288.243 273.947 286.072 273.749 284.372 273.578C283.547 273.497 281.554 273.899 281.472 276.384L280.059 308.177C279.936 309.337 284.106 308.525 284.106 308.525C290.27 307.76 291.082 307.48 291.212 304.86Z" fill="#634874"/>
<path d="M258.832 265.047C252.887 267.695 249.017 268.487 243.563 265.852C239.509 264.125 238.389 255.286 238.492 252.515L238.567 242.987C238.785 236.776 244.082 231.745 250.395 231.745C259.48 231.739 264.224 238.817 263.978 247.772L263.657 253.136C263.582 255.901 261.562 263.832 258.832 265.047Z" fill="#634874"/>
<path d="M282.857 307.972L283.635 275.401C283.772 272.732 283.942 272.289 279.677 271.934L275.827 271.906C272.653 272.077 271.083 273.688 270.988 276.309L272.312 302.341C272.25 306.976 271.65 308.266 274.919 308.525C280.366 308.955 282.796 309.563 282.857 307.972Z" fill="#7E6391"/>
<path d="M268.886 276.152C269.281 280.193 270.128 284.568 275.745 285.96C275.984 286.022 280.393 285.742 280.393 285.742L278.544 275.033C278.578 272.924 277.451 271.804 276.114 271.654L271.37 271.326C269.63 271.128 268.626 273.47 268.886 276.152Z" fill="#7E6391"/>
<path d="M273.602 276.234C273.936 280.077 274.906 284.397 279.758 285.728C279.963 285.783 280.182 285.783 280.393 285.742C283.28 285.981 287.894 284.165 287.929 282.152L288.393 273.954C288.256 273.613 276.114 272.023 276.114 272.023C274.612 271.838 273.377 273.688 273.602 276.234Z" fill="#634874"/>
<path d="M256.661 246.68C256.34 250.024 253.303 252.563 249.877 252.352C246.45 252.14 243.938 249.253 244.266 245.902C244.594 242.557 247.638 240.032 251.057 240.243C254.47 240.462 256.982 243.342 256.661 246.68Z" fill="#1D2436"/>
<path d="M254.784 244.912C254.34 249.56 250.122 253.095 245.358 252.802C240.587 252.508 237.099 248.488 237.557 243.833C238.014 239.192 242.239 235.677 246.989 235.977C251.74 236.277 255.228 240.277 254.784 244.912Z" fill="#F6BE4A"/>
<path d="M251.16 244.222C250.88 247.15 248.218 249.369 245.222 249.184C242.225 249 240.021 246.468 240.314 243.54C240.601 240.618 243.263 238.4 246.252 238.591C249.242 238.782 251.44 241.301 251.16 244.222Z" fill="#1D2436"/>
<path d="M265.118 232.728C269.472 235.738 270.558 240.188 269.425 248.024C269.329 248.666 269.848 249.239 270.612 249.355L286.543 251.983C287.505 252.133 289.969 252.822 290.072 252.003C290.495 248.693 291.041 239.24 284.12 235.711C280.85 234.046 272.953 231.766 266.51 230.565C264.927 230.271 263.896 231.882 265.118 232.728Z" fill="#BB83C3"/>
<path d="M266.606 229.95C266.606 229.95 278.134 234.646 273.349 250.57" stroke="#634874" stroke-width="2" stroke-miterlimit="10" stroke-linecap="round" stroke-linejoin="round"/>
<path d="M274.865 231.766C274.865 231.766 284.413 238.066 279.82 251.321" stroke="#634874" stroke-width="2" stroke-miterlimit="10" stroke-linecap="round" stroke-linejoin="round"/>
<path d="M281.123 233.609C281.123 233.609 289.662 239.861 286.024 252.01" stroke="#634874" stroke-width="2" stroke-miterlimit="10" stroke-linecap="round" stroke-linejoin="round"/>
<path d="M269.042 252.836L289.969 256.474" stroke="#BB83C3" stroke-width="2" stroke-miterlimit="10" stroke-linecap="round" stroke-linejoin="round"/>
<path d="M308.446 282.288C308.446 282.288 306.767 275.667 305.812 273.852C305.341 272.957 305.45 271.176 304.365 268.555C303.191 265.716 303.764 263.422 302.508 261.17C301.443 259.259 296.522 262.74 296.72 266.337C296.829 268.371 297.075 272.343 297.621 274.329C298.236 276.582 289.82 274.8 289.82 274.8C288.926 274.486 283.144 274.896 282.202 274.998L276.237 275.08C273.759 275.879 273.343 277.681 273.425 280.281C273.466 281.674 280.155 280.889 282.987 281.346C285.049 281.674 289.642 280.902 289.711 281.203C289.711 281.203 273.944 285.148 273.077 287.175C271.37 291.195 271.862 296.457 272.49 297.242C274.353 299.57 274.497 299.747 274.497 299.747C274.497 299.747 274.387 302.744 276.571 304.211C279.868 306.429 290.366 308.272 290.366 308.272C290.366 308.272 302.747 304.095 304.815 302.136C306.883 300.184 309.463 298.587 309.73 292.355C309.982 286.144 308.446 282.288 308.446 282.288Z" fill="#F6874E"/>
<path d="M273.063 287.168C271.39 291.202 271.848 296.451 272.476 297.236C274.339 299.563 274.482 299.741 274.482 299.741C274.482 299.741 274.373 302.737 276.557 304.204C279.854 306.423 290.352 308.266 290.352 308.266L286.584 301.106C286.584 301.106 283.239 284.745 282.257 284.185C281.274 283.626 273.677 285.694 273.063 287.168Z" fill="#CE6D3E"/>
<path d="M244.88 224.906L244.444 203.072L234.356 212.184L222.834 195.352L221.647 215.248L204.979 215.446L217.906 224.19L211.736 231.711L228.322 232.469C229.796 232.53 220.404 228.51 220.404 228.51L221.483 224.551L217.886 218.429L225.448 218.067L226.889 210.15L233.823 216.893L240.928 212.313C240.922 212.306 244.887 225.063 244.88 224.906Z" fill="#F6BE4A"/>
<path d="M234.158 278.24L241.782 285.277C241.911 285.393 242.068 285.469 242.246 285.489C243.911 285.673 254.245 285.53 257.637 284.991C259.118 284.759 262.715 281.08 266.558 277.319C267.759 276.138 268.619 275.449 269.841 273.968C270.517 273.149 270.687 272.077 269.766 271.551C269.766 271.551 268.258 270.712 267.425 271.333C267.063 271.606 267.036 271.504 267.125 271.299C267.309 270.869 267.124 270.371 266.688 270.193C265.841 269.852 264.544 269.552 263.268 270.193C261.398 271.128 261.603 270.869 261.603 270.869C261.603 269.988 260.613 268.944 259.316 268.896C257.583 268.828 256.204 269.838 255.938 270.05C255.903 270.077 253.556 270.603 251.474 271.592C249.003 272.766 245.344 271.231 243.42 270.5C239.877 269.163 234.39 269.019 233.878 277.592C233.878 277.831 233.98 278.077 234.158 278.24Z" fill="#F6874E"/>
<path d="M307.763 174.507C304.351 193.878 297.894 197.468 297.894 197.468C269.746 207.815 246.293 196.144 243.911 179.223C240.833 162.242 238.772 153.334 267.391 147.799C295.826 142.304 310.767 157.498 307.763 174.507Z" fill="#1D2436"/>
<path d="M304.583 170.753C301.675 187.168 277.26 182.431 277.26 182.431C272.326 181.141 255.33 177.715 252.129 168.603C249.399 160.835 245.822 152.092 270.101 147.396C292.208 143.123 307.142 156.324 304.583 170.753Z" fill="#3D4C6D"/>
<path d="M301.354 179.701C301.354 179.701 303.375 174.398 301.498 168.651C301.498 168.651 308.917 170.364 301.354 179.701Z" fill="#1D2436"/>
<path d="M259.009 154.618C259.009 154.618 242.212 159.081 240.335 162.344C238.458 165.613 246.846 201.918 253.74 209.76C260.647 217.623 291.259 204.655 296.761 196.048C301.266 189.011 299.068 186.608 297.955 177.374C296.802 167.75 288.324 163.73 286.652 160.419C283.82 154.775 259.009 154.618 259.009 154.618Z" fill="#CE6D3E"/>
<path d="M294.515 182.274C295.751 188.574 289.567 202.962 276.844 206.846C264.074 210.75 253.747 209.754 248.471 196.219C243.058 182.329 256.818 163.375 269.479 159.593C282.093 155.832 290.201 168.105 294.515 182.274Z" fill="#F6874E"/>
<path d="M257.664 180.793C258.17 183.005 257.296 184.24 256.142 184.513C254.982 184.786 253.979 184.001 253.481 181.783C252.975 179.572 253.508 177.551 254.668 177.278C255.815 177.012 257.159 178.582 257.664 180.793Z" fill="#34273A"/>
<path d="M274.012 164.631L270.776 167.914" stroke="#34273A" stroke-miterlimit="10" stroke-linecap="round" stroke-linejoin="round"/>
<path d="M256.675 174.616L252.129 174.91" stroke="#34273A" stroke-miterlimit="10" stroke-linecap="round" stroke-linejoin="round"/>
<path d="M272.039 172.944C272.578 171.224 275.486 167.886 279.158 168.91C279.158 168.91 274.237 173.613 272.551 175.19C272.291 175.429 271.937 173.272 272.039 172.944Z" fill="#34273A"/>
<path d="M300.576 172.05C300.692 177.653 298.071 182.568 294.72 183.004C291.369 183.441 288.563 179.237 288.461 173.626C288.359 168.023 290.986 163.149 294.324 162.719C297.662 162.282 300.46 166.46 300.576 172.05Z" fill="#F6874E"/>
<path d="M276.059 147.546C276.059 147.546 249.126 176.725 239.925 180.302C230.697 183.892 235.325 158.849 248.853 149.969C262.306 141.151 276.059 147.546 276.059 147.546Z" fill="#1D2436"/>
<path d="M277.806 147.021C277.806 147.021 278.134 149.062 272.605 152.741C263.036 159.109 244.628 168.924 239.966 170.732C232.581 173.599 238.28 157.286 248.832 149.778C260.074 141.786 277.806 147.021 277.806 147.021Z" fill="#3D4C6D"/>
<path d="M259.371 155.225C259.371 155.225 251.897 166.432 244.095 170.009C244.089 170.016 262.579 161.9 259.371 155.225Z" fill="#1D2436"/>
<path d="M282.912 154.973C282.912 154.973 284.837 168.746 287.601 172.261L293.048 177.155L289.362 157.634L282.912 154.973Z" fill="#3D4C6D"/>
</svg>
