<svg width="830" height="636" viewBox="0 0 830 636" fill="none" xmlns="http://www.w3.org/2000/svg">
<path d="M815.839 585.893C794.646 555.601 650.254 445.985 423.226 455.028C230.673 462.7 95.9994 551.506 75.448 561.492C54.8965 571.477 63.4625 578.139 121.69 569.812C179.918 561.485 209.029 563.15 209.029 563.15L205.603 571.471C205.603 571.471 159.224 610.458 155.804 623.774C152.378 637.091 171.216 638.756 191.767 630.436C212.319 622.116 363.161 593.114 382 591.449C400.838 589.783 434.044 600.431 447.743 602.09C461.441 603.755 551.865 631.937 570.874 633.582C589.883 635.234 580.354 604.54 556.295 561.144C545.633 541.91 644.2 590.794 666.464 595.79C688.729 600.786 655.967 571.484 652.54 566.495C649.114 561.505 779.316 594.773 806.721 609.755C834.118 624.75 837.032 616.184 815.839 585.893Z" fill="#F4E8D8"/>
<path d="M305.985 440.729C305.985 440.729 139.566 471.273 72.2469 372.788C4.92742 274.304 66.7729 132.102 193.931 104.677C193.931 104.677 60.4047 160.244 107.78 297.367C155.156 434.49 305.985 440.729 305.985 440.729Z" fill="#F4E8D8"/>
<path d="M696.606 391.387C732.794 356.393 737.743 326.58 758.144 291.715C778.545 256.851 800.195 237.753 800.195 237.753C800.195 237.753 786.995 237.733 754.451 267.048C725.484 293.142 696.606 353.588 696.606 353.588C703.131 323.488 701.22 285.518 701.22 285.518C663.277 368.474 530.924 427.173 493.521 408.048C493.528 408.048 592.176 492.37 696.606 391.387Z" fill="#F4E8D8"/>
<path d="M615.144 253.739C621.375 253.739 732.344 202.397 737.313 152.763C741.053 115.366 733.572 59.2676 642.568 30.5939C539.327 -1.93625 496.715 14.3902 456.827 25.6045C456.827 25.6045 567.775 9.40083 636.337 58.0186C750.957 139.303 615.144 253.739 615.144 253.739Z" fill="#F4E8D8"/>
<path d="M564.028 122.847C564.028 122.847 490.477 54.285 418.175 65.5061C367.653 73.3485 236.167 105.612 216.223 185.177C202.565 239.685 263.592 261.219 263.592 261.219C263.592 261.219 224.946 240.026 243.648 187.668C262.35 135.31 378.28 79.2116 451.831 84.201C525.382 89.1904 564.028 122.847 564.028 122.847Z" fill="#F4E8D8"/>
<path d="M192.546 191.408C192.546 191.408 131.465 246.258 168.861 278.672C206.258 311.086 283.549 283.661 283.549 283.661C283.549 283.661 228.7 288.651 203.767 257.486C178.833 226.314 192.546 191.408 192.546 191.408Z" fill="#F4E8D8"/>
<path d="M72.2469 372.788C72.2469 372.788 -17.5079 333.521 3.06403 256.858C23.636 180.194 59.1625 215.721 59.1625 215.721C59.1625 215.721 51.6817 144.668 90.9486 122.225C130.215 99.7834 145.177 114.124 145.177 114.124C145.177 114.124 163.879 94.1797 173.223 97.92C177.379 99.5854 177.96 102.718 177.332 105.694C176.485 109.68 152.084 122.615 148.289 124.096C137.314 128.389 127.902 132.136 105.282 155.261C72.1376 189.142 60.8688 237.712 62.896 279.3C66.6363 355.956 72.2469 372.788 72.2469 372.788Z" fill="#F4E8D8"/>
<path d="M185.065 207.612C185.065 207.612 202.518 177.696 180.075 172.707C157.633 167.717 156.391 215.093 156.391 215.093C156.391 215.093 148.91 203.872 137.689 223.816C126.468 243.76 151.402 273.682 168.854 278.665C186.314 283.654 177.584 223.823 185.065 207.612Z" fill="#F4E8D8"/>
<path d="M708.946 183.928C708.946 183.928 745.878 179.641 764.109 138.115C780.941 99.7836 764.109 74.5363 744.472 68.9326C724.836 63.322 708.946 71.7378 708.946 71.7378C708.946 71.7378 725.777 23.1201 683.705 17.5096C641.633 11.8991 642.568 30.6008 642.568 30.6008C642.568 30.6008 628.542 10.0289 608.912 1.61991C589.275 -6.79588 590.21 20.3217 590.21 20.3217C590.21 20.3217 571.509 -0.250266 545.333 5.36026C519.157 10.9708 519.84 17.3458 531.996 18.2809C544.152 19.2159 617.164 19.3456 664.847 67.9634C712.529 116.581 708.946 183.928 708.946 183.928Z" fill="#F4E8D8"/>
<path d="M312.216 101.654C312.216 101.654 353.667 49.2958 410.694 41.8151C456.315 35.8292 433.409 67.7792 439.989 64.2572C457.442 54.9064 479.31 46.668 487.985 51.794C501.698 59.8958 489.856 69.8678 489.856 69.8678C489.856 69.8678 529.123 91.6819 534.733 103.524C535.354 106.643 502.237 78.734 459.312 75.4783C410.073 71.7379 312.216 101.654 312.216 101.654Z" fill="#F4E8D8"/>
<path d="M200.975 340.128C200.975 340.128 198.784 332.163 196.279 326.457C193.883 320.996 192.047 324.784 190.88 330.17C189.658 335.814 190.231 344.394 190.211 346.442C190.19 348.496 200.62 347.329 200.975 340.128Z" fill="#1D2538"/>
<path d="M223.123 407.659C229.116 405.332 241.955 389.688 239.395 378.862C236.835 368.037 234.283 351.991 230.931 345.991C230.931 345.991 230.406 334.62 229.321 328.511C228.242 322.409 226.631 322.136 224.488 325.085C222.345 328.033 219.506 338.08 219.506 338.08C219.506 338.08 205.22 332.361 193.712 337.336C182.204 342.312 178.689 350.114 177.741 356.768L177.393 357.253C177.393 357.253 164.786 360.365 158.855 362.809C152.923 365.253 151.128 368.297 153.817 374.672C156.507 381.047 156.957 384.234 160.602 386.575C164.247 388.916 180.341 394.022 188.6 395.237C188.6 395.237 192.108 410.123 194.92 414.096C197.732 418.075 217.137 409.993 223.123 407.659Z" fill="#273150"/>
<path d="M224.952 389.278C224.952 389.278 241.955 389.688 239.402 378.862C236.849 368.037 234.29 351.991 230.938 345.991C230.938 345.991 230.413 334.62 229.327 328.511C228.249 322.409 226.638 322.136 224.495 325.085C222.352 328.033 219.512 338.08 219.512 338.08C219.512 338.08 205.227 332.361 193.719 337.336C193.719 337.336 207.063 337.678 212.25 342.653C217.437 347.629 223.888 368.003 223.888 368.003C223.888 368.003 209.267 385.804 210.148 387.053C212.953 391.032 224.952 389.278 224.952 389.278Z" fill="#1D2538"/>
<path d="M198.115 340.306C198.115 340.306 196.449 332.525 195.248 327.358C193.897 321.549 191.078 324.887 189.91 330.272C188.689 335.917 188.034 341.712 188.013 343.766C187.999 345.821 198.517 345.329 198.115 340.306Z" fill="#273150"/>
<path d="M195.813 353.445C196.706 350.898 196.051 348.351 194.35 347.755C192.65 347.159 190.548 348.741 189.655 351.288C188.763 353.835 189.418 356.383 191.118 356.978C192.818 357.574 194.92 355.993 195.813 353.445Z" fill="#121721"/>
<path d="M152.582 368.959C152.152 372.481 153.94 374.098 154.834 376.085C156.056 378.794 163.503 373.723 163.94 370.201C164.37 366.679 164.411 361.724 160.206 362.502C157.278 363.048 153.012 365.437 152.582 368.959Z" fill="#121721"/>
<path d="M206.251 390.555C206.251 390.555 190.054 398.875 189.037 395.066C180.928 393.967 167.857 389.735 167.857 389.735L189.774 389.722L206.251 390.555Z" fill="#1D2538"/>
<path d="M283.092 400.977C282.47 398.957 280.593 387.941 278.191 384.023C275.795 380.105 269.748 371.102 262.513 371.362C262.513 371.362 266.67 366.14 279.679 372.495C292.688 378.842 294.511 397.872 294.654 399.483C295.282 406.677 284.859 406.738 283.092 400.977Z" fill="#1D2538"/>
<path d="M192.886 498.363C194.047 494.971 198.606 491.367 198.606 491.367C199.043 490.602 200.558 489.067 200.674 488.336C201.582 482.753 204.06 467.519 204.203 465.082C204.51 460.017 202.265 444.933 202.681 433.337C203.097 421.74 220.727 430.859 221.54 442.06C222.12 450.045 216.564 482.726 215.984 485.92L211.677 496.363C210.086 498.588 205.67 500.172 201.131 500.39C196.599 500.595 191.753 501.68 192.886 498.363Z" fill="#1D2538"/>
<path d="M270.499 434.197C266.103 432.743 259.271 436.531 259.196 442.763C259.134 448.066 283.249 469.027 283.249 469.027L284.6 473.3C284.6 473.3 281.201 477.224 282.655 479.333C282.996 479.832 287.644 479.013 291.391 478.262C294.135 477.709 296.087 476.398 296.08 475.081L296.067 473.423L297.486 467.13L280.887 449.854C280.894 449.861 276.505 436.19 270.499 434.197Z" fill="#1D2538"/>
<path d="M208.919 390.739C208.919 390.739 227.116 377.73 243.094 384.883C257.38 391.278 263.892 392.357 279.822 392.596C289.828 392.746 296.702 427.952 294.627 434.804C290.873 447.609 246.678 448.742 241.013 448.933C224.318 449.499 210.359 440.954 203.473 437.691C197.296 434.763 188.197 417.795 195.924 404.875C198.872 399.947 202.271 394.609 208.919 390.739Z" fill="#273150"/>
<path d="M213.458 392.056C223.853 383.763 227.109 377.737 243.094 384.883C257.38 391.278 268.192 392.568 284.115 393.053C302.141 393.606 299.718 423.897 294.422 436.879C290.402 446.735 246.678 448.742 241.019 448.933C241.019 448.933 256.308 439.036 255.558 431.999C254.814 424.962 237.272 414.621 237.272 414.621C228.822 406.042 209.773 394.998 213.458 392.056Z" fill="#1D2538"/>
<path d="M223.048 497.237C223.028 494.172 230.576 486.767 230.529 486.016C229.757 473.348 226.577 461.355 226.072 458.468C225.041 452.544 218.338 442.503 216.031 429.699C213.806 417.359 235.798 423.413 238.678 437.637C240.337 445.841 244.432 474.037 245.483 481.736C245.633 482.822 245.565 483.92 245.285 484.985L240.897 494.336C240.385 497.018 236.139 499.325 230.945 499.633C225.751 499.94 223.082 501.407 223.048 497.237Z" fill="#273150"/>
<path d="M294.852 421.495C289.364 416.492 277.16 423.065 274.935 425.099C272.601 427.235 282.798 440.661 283.31 442.538C283.842 444.497 306.435 456.953 311.021 460.598C315.983 464.543 311.834 469.962 314.796 471.655C316.297 472.515 328.822 469.887 328.024 464.973C327.273 460.332 322.345 453.022 322.222 452.653C321.983 451.936 302.585 436.886 302.121 435.951C301.677 435.037 296.476 422.983 294.852 421.495Z" fill="#1D2538"/>
<path d="M240.023 379.388C240.023 379.388 243.32 382.89 244.152 385.975C244.152 385.975 234.112 393.23 216.011 401.858C206.312 406.479 191.33 410.724 191.33 410.724L189.153 402.595C189.16 402.588 219.765 394.555 240.023 379.388Z" fill="#992C29"/>
<path d="M189.269 402.677C189.269 402.677 184.006 413.468 184.853 418.895L198.429 423.242C198.429 423.242 193.159 407.448 189.269 402.677Z" fill="#C93F37"/>
<path d="M189.269 402.677C193.282 406.67 198.429 423.242 198.429 423.242C198.429 423.242 191.351 417.604 190.627 415.434C189.904 413.263 189.269 402.677 189.269 402.677Z" fill="#992C29"/>
<path d="M191.392 408.048C191.392 408.048 201.104 416.573 205.445 417.638L206.571 410.43C206.578 410.43 199.541 406.874 191.392 408.048Z" fill="#992C29"/>
<path d="M484.354 151.084C484.354 151.084 476.068 148.319 467.782 159.37C461.271 168.052 457.96 175.942 464.404 186.678C466.226 189.716 458.882 190.364 463.482 203.251C468.301 216.745 495.705 217.366 504.913 210.922C504.913 210.922 522.713 225.959 542.657 215.216C556.076 207.987 537.75 188.822 537.75 188.822C537.75 188.822 547.326 167.97 525.232 147.412C509.499 132.778 492.64 142.798 484.354 151.084Z" fill="#273150"/>
<path d="M478.007 174.379C483.853 174.379 488.593 166.342 488.593 156.428C488.593 146.514 483.853 138.477 478.007 138.477C472.16 138.477 467.42 146.514 467.42 156.428C467.42 166.342 472.16 174.379 478.007 174.379Z" fill="#273150"/>
<path d="M500.789 147.706C503.883 140.456 502.79 133.042 498.348 131.146C493.907 129.251 487.798 133.592 484.705 140.842C481.611 148.092 482.703 155.506 487.145 157.401C491.587 159.297 497.695 154.956 500.789 147.706Z" fill="#273150"/>
<path d="M482.109 155.622C482.109 155.622 475.215 151.159 467.509 160.23C459.803 169.301 458.568 177.327 464.124 186.583C465.693 189.204 459.168 191.674 463.134 202.786C465.345 208.97 475.481 211.502 474.833 210.349C474.184 209.195 474.744 205.94 474.744 205.94C481.713 210.103 493.105 212.554 505.124 211.612C511.875 215.659 524.324 215.25 532.371 210.915C543.941 204.691 528.14 188.166 528.14 188.166C528.14 188.166 536.398 170.195 517.349 152.469C503.786 139.835 489.255 148.476 482.109 155.622Z" fill="#3D4C6D"/>
<path d="M480.962 156.79C480.962 165.335 481.686 175.703 476.641 175.703C471.604 175.703 467.516 168.775 467.516 160.23C467.516 151.684 471.604 144.756 476.641 144.756C481.679 144.756 480.962 148.244 480.962 156.79Z" fill="#3D4C6D"/>
<path d="M494.19 147.609C491.521 153.855 488.34 162.728 484.511 161.09C480.682 159.458 479.74 153.063 482.402 146.818C485.071 140.572 490.333 136.832 494.162 138.463C497.992 140.101 496.859 141.364 494.19 147.609Z" fill="#3D4C6D"/>
<path d="M519.389 215.202C519.389 215.202 527.129 213.045 528.392 207.462C528.392 207.462 531.095 215.563 519.389 215.202Z" fill="#273150"/>
<path d="M527.921 234.156C527.921 234.156 540.753 259.335 544.404 265.67C548.056 271.997 538.262 279.368 531.873 277.655C525.484 275.942 513.301 246.278 510.243 239.999C507.178 233.713 519.84 223.85 527.921 234.156Z" fill="#F6874E"/>
<path d="M529.695 237.248C529.695 237.248 517.942 213.776 510.031 215.018C502.1 216.26 502.257 219.837 503.943 226.744C506.441 236.982 513.28 250.688 513.28 250.688C513.28 250.688 520.085 239.883 529.695 237.248Z" fill="#C93F37"/>
<path d="M560.396 264.229C560.396 264.229 544.5 263.192 540.76 261.943C537.019 260.694 523.771 266.775 529.231 275.655C533.695 282.924 558.11 280.119 562.267 278.461C566.423 276.802 568.184 265.683 560.396 264.229Z" fill="#F6874E"/>
<path d="M601.431 96.8694C601.431 96.8694 576.327 227.672 576.027 229.706C575.726 231.74 575.46 233.57 575.46 233.57C575.044 234.518 574.027 234.675 570.307 233.822L554.369 231.051L576.614 92.0302C576.723 91.3203 590.053 79.4167 590.053 79.4167C590.497 79.3757 591.056 78.7342 592.176 80.0515L601.151 94.3918C601.684 95.4838 601.54 96.2961 601.431 96.8694Z" fill="#F6BE4A"/>
<path d="M601.431 96.8695C601.431 96.8695 576.327 227.673 576.027 229.707C575.727 231.741 575.46 233.57 575.46 233.57C575.044 234.519 576.805 234.73 573.092 233.87L598.646 95.4225C598.646 95.4225 591.057 78.7274 592.183 80.0448L601.158 94.385C601.684 95.4839 601.54 96.2962 601.431 96.8695Z" fill="#F6874E"/>
<path d="M587.978 161.636L589.282 156.326C589.446 155.944 588.729 155.718 587.985 155.923L582.934 157.316C582.484 157.439 582.272 157.718 582.463 157.93L586.92 162.025C587.241 162.38 587.801 162.025 587.978 161.636Z" fill="#F6874E"/>
<path d="M571.31 124.874L574.907 122.41L572.225 119.448L571.31 124.874Z" fill="#F6874E"/>
<path d="M595.732 118.206L591.486 114.124L596.79 113.783L595.732 118.206Z" fill="#F6874E"/>
<path d="M591.036 79.4371L563.693 232.198" stroke="#F4E8D8" stroke-miterlimit="10"/>
<path d="M567.379 149.767L570.669 150.34L573.522 146.286L571.502 142.231L578.539 135.781L581.228 133.256" stroke="#F4E8D8" stroke-miterlimit="10"/>
<path d="M558.042 283.675C557.973 283.887 556.39 284.631 553.551 283.88C550.22 282.999 550.513 280.713 550.513 280.713L556.144 232.061L571.679 234.552L558.042 283.675Z" fill="#1D2538"/>
<path d="M551.046 298.384C555.591 299.551 559.851 296.207 560.465 291.156C561.052 286.357 558.096 281.866 553.94 280.904C549.831 279.955 545.79 282.76 544.828 287.361C543.817 292.2 546.554 297.23 551.046 298.384ZM553.476 285.6C555.032 286.146 556.178 288.296 556.028 290.446C555.878 292.644 554.431 293.982 552.813 293.388C551.21 292.794 550.09 290.542 550.309 288.391C550.52 286.289 551.933 285.054 553.476 285.6Z" fill="#1D2538"/>
<path d="M550.616 295.251C553.189 295.961 555.619 294.029 556.008 291.033C556.083 290.446 556.069 289.859 555.987 289.299C556.042 289.675 556.056 290.064 556.028 290.453C555.878 292.65 554.431 293.988 552.814 293.394C551.21 292.801 550.09 290.548 550.309 288.398C550.52 286.296 551.933 285.067 553.476 285.607C554.438 285.948 555.243 286.897 555.68 288.084C555.086 286.419 553.824 285.095 552.24 284.692C549.817 284.071 547.469 285.798 546.957 288.63C546.439 291.545 548.056 294.548 550.616 295.251Z" fill="#F6BE4A"/>
<path d="M555.94 289.026C555.933 288.978 555.926 288.924 555.912 288.876C555.926 288.931 555.933 288.978 555.94 289.026Z" fill="#F6BE4A"/>
<path d="M555.803 288.446C555.783 288.371 555.755 288.296 555.728 288.214C555.755 288.289 555.783 288.364 555.803 288.446Z" fill="#F6BE4A"/>
<path d="M555.741 283.805C555.83 283.805 555.919 283.839 555.994 283.893C556.554 284.33 557.004 284.808 557.325 285.327C557.448 285.518 557.366 285.777 557.154 285.9C556.943 286.023 556.67 285.968 556.554 285.777C556.281 285.34 555.892 284.924 555.407 284.549C555.223 284.405 555.209 284.146 555.373 283.968C555.462 283.852 555.605 283.798 555.741 283.805Z" fill="#F4E8D8"/>
<path d="M557.257 263.861C554.397 263.861 552.39 264.762 552.39 264.762L555.202 240.989C555.393 238.422 556.021 230.969 556.021 230.969C556.021 230.969 570.689 233.099 572.539 233.651C572.539 233.651 570.539 241.746 569.863 244.033L563.7 264.687C563.7 264.694 560.117 263.861 557.257 263.861Z" fill="#C73F37"/>
<path d="M565.652 258.141L564.785 261.001C564.785 261.001 559.837 260.585 553.885 260.585C553.892 260.585 555.687 258.878 565.652 258.141Z" fill="#1D2538"/>
<path d="M552.377 264.946C552.377 264.946 560.553 264.878 563.236 266.264L562.192 269.663C562.192 269.663 553.851 267.342 552.097 267.342L552.377 264.946Z" fill="#C73F37"/>
<path d="M553.38 256.421L553.496 255.486C553.496 255.486 559.741 255.131 563.891 256.449L553.38 256.421Z" fill="#1D2538"/>
<path d="M566.969 253.316L567.734 250.893C567.734 250.893 559.427 249.091 553.96 251.241C553.96 251.241 563.994 250.893 566.969 253.316Z" fill="#1D2538"/>
<path d="M569.864 244.04L568.614 248.169C568.614 248.169 560.458 244.859 554.547 245.965L555.407 238.518C555.407 238.518 561.591 241.016 569.864 244.04Z" fill="#1D2538"/>
<path d="M571.147 239.078L571.754 236.921C571.754 236.921 563.993 233.208 557.373 234.825C557.373 234.825 570.334 237.255 571.147 239.078Z" fill="#1D2538"/>
<path d="M542.548 219.066C543.012 218.868 543.537 218.806 544.043 218.895L589.398 225.864C589.978 225.987 590.551 226.956 592.176 229.392C593.268 231.031 593.78 233.14 591.93 234.006C589.507 235.146 586.818 237.078 585.821 236.784L542.302 229.038C541.633 228.908 539.545 227.229 538.691 226.533C537.722 225.741 536.371 224.219 535.545 222.929C534.931 221.973 535.313 220.717 536.35 220.274L542.548 219.066Z" fill="#C73F37"/>
<path d="M541.415 217.134C541.906 216.922 542.446 216.861 542.978 216.956L589.029 225.14C589.152 225.167 592.34 228.662 591.93 229.966C591.521 231.269 585.985 233.576 585.985 233.576C585.985 233.576 539.04 225.986 538.623 225.42C537.852 224.369 536.576 223.304 535.709 221.959C535.067 220.963 535.47 219.652 536.548 219.188L541.415 217.134Z" fill="#F6874E"/>
<path d="M541.415 217.134C541.906 216.922 542.446 216.861 542.978 216.956L548.739 223.482L585.985 233.576C585.985 233.576 539.04 225.986 538.623 225.42C537.483 224.294 536.576 223.304 535.709 221.959C535.067 220.963 535.47 219.652 536.548 219.188L541.415 217.134Z" fill="#F6BE4A"/>
<path d="M567.549 155.507L565.529 167.472L580.047 188.747L582.252 177.075L567.549 155.507Z" fill="#F6BE4A"/>
<path d="M565.106 171.001L564.533 175.608L579.044 196.883L579.808 192.562L565.106 171.001Z" fill="#F6BE4A"/>
<path d="M549.216 218.267L550.561 220.165C551.011 220.833 551.148 220.902 551.837 220.458L554.028 219.113L549.216 218.267Z" fill="#C73F37"/>
<path d="M555.032 261.915C554.602 262.946 555.707 263.274 557.27 263.444C558.396 263.567 560.478 262.434 560.478 262.434C560.478 262.434 562.355 263.049 563.14 263.519C563.543 263.758 560 263.444 558.745 263.519C557.489 263.595 554.642 264.796 554.642 264.796C554.561 264.803 554.479 264.816 554.404 264.844C553.448 265.185 552.847 266.195 553.025 267.772C553.052 267.983 553.154 268.14 553.311 268.284C553.509 268.468 553.871 268.543 553.735 269.11C553.55 269.854 552.69 270.393 552.697 270.932C552.697 271.239 553.298 273.833 553.503 274.065L556.26 274.174C556.26 274.174 553.093 274.536 552.868 275.983C552.479 278.495 554.615 279.812 556.096 279.573C557.932 279.279 557.919 280.18 559.502 280.453C559.502 280.453 563.406 280.877 563.925 279.518C564.471 278.092 566.212 276.979 566.751 274.966C567.065 273.785 567.065 271.437 567.925 270.024C569.611 267.267 567.536 266.461 568 264.687C568.409 263.151 569.488 263.042 568.942 261.233C568.512 259.827 567.037 259.431 565.959 259.035C564.881 258.646 562.034 258.407 559.216 258.721C559.222 258.735 555.468 260.885 555.032 261.915Z" fill="#CE6D3E"/>
<path d="M555.032 261.915C554.602 262.946 555.694 263.431 557.257 263.601C558.383 263.724 560.471 262.434 560.471 262.434C560.471 262.434 562.348 263.048 563.133 263.519C563.536 263.758 559.994 263.444 558.738 263.519C557.482 263.594 554.636 264.796 554.636 264.796C554.554 264.803 554.472 264.816 554.397 264.843C553.441 265.185 552.759 266.284 552.943 267.854C552.97 268.065 553.4 268.584 553.557 268.727C553.755 268.911 553.598 269.15 553.557 269.232C553.216 269.922 552.8 270.072 552.684 270.597C552.411 271.812 552.731 272.938 553.496 274.065L556.39 274.174C556.39 274.174 553.052 274.529 552.861 275.983C552.677 277.382 553.878 279.286 555.482 278.877C557.775 278.29 560.547 279.232 560.84 279.102C562.908 278.16 561.099 276.153 561.782 274.604C562.287 273.457 562.328 272.147 562.86 270.911C563.324 269.84 563.133 266.768 563.133 266.768L565.836 264.338C565.836 264.338 565.747 261.997 565.563 261.096C565.229 259.417 560.881 258.407 559.216 258.721C558.915 258.789 555.468 260.885 555.032 261.915Z" fill="#F6874E"/>
<path d="M551.516 268.127C553.148 270.584 555.223 268.031 554.738 264.298C554.506 262.503 553.939 260.182 551.223 260.98C548.506 261.779 548.602 263.738 551.516 268.127Z" fill="#F6874E"/>
<path d="M576.184 345.151C576.321 348.878 562.233 350.571 558.629 355.608C553.428 362.884 557.912 363.171 510.025 366.768C471.284 369.682 459.141 350.96 459.626 343.07C460.104 335.289 487.876 325.003 517.096 324.969C546.37 324.941 575.897 337.254 576.184 345.151Z" fill="#EC5E4D"/>
<path d="M465.032 369.395C465.032 369.395 457.551 339.022 456.93 329.781C456.309 320.539 487.474 307.332 493.084 322.518C498.695 337.705 499.944 362.133 499.944 373.361C499.944 384.589 498.074 394.493 484.361 393.831C464.322 392.861 469.898 389.292 465.032 369.395Z" fill="#273150"/>
<path d="M465.032 369.395C465.032 369.395 457.551 339.022 456.93 329.781C456.309 320.539 487.474 307.332 493.084 322.518C498.695 337.705 499.944 362.133 499.944 373.361C499.944 384.589 498.074 394.493 484.361 393.831C464.322 392.861 469.898 389.292 465.032 369.395Z" fill="#102441"/>
<path d="M486.948 371.955C478.717 369.989 467.12 376.815 467.939 385.906C468.56 392.841 461.605 394.82 456.93 408.355C452.254 421.89 486.846 430.804 489.965 413.638C493.077 396.472 509.076 377.238 486.948 371.955Z" fill="#273150"/>
<path d="M487.474 369.73C479.242 367.764 467.127 376.815 467.946 385.906C468.567 392.841 472.724 396.861 468.049 410.396C463.373 423.931 486.853 430.811 489.972 413.638C493.077 396.472 509.595 375.013 487.474 369.73Z" fill="#102441"/>
<path d="M489.965 413.638C486.846 430.804 468.151 478.685 466.281 487.264C464.411 495.851 458.179 499.038 458.179 499.038C458.179 499.038 449.647 502.956 449.913 483.606C450.111 468.822 452.261 421.897 456.937 408.362C456.937 408.362 468.779 403.407 476.26 405.393C483.733 407.366 489.965 413.638 489.965 413.638Z" fill="#F6874E"/>
<path d="M489.965 413.638C486.846 430.804 468.151 478.685 466.281 487.264C465.366 491.475 464.308 497.796 462.022 497.966C459.653 498.144 458.698 499.734 458.076 484.95C457.455 471.081 463.373 421.89 468.048 408.355C468.048 408.355 468.779 403.4 476.26 405.386C483.733 407.365 489.965 413.638 489.965 413.638Z" fill="#CE6D3E"/>
<path d="M458.691 479.524C455.271 485.995 449.033 489.81 449.033 489.81C449.033 489.81 444.61 497.639 445.245 500.588C445.654 502.376 447.449 506.935 447.449 506.935C447.449 506.935 448.787 522.805 449.258 524.675C449.954 527.473 478.014 531.951 479.891 532.66C481.768 533.37 481.358 517.583 481.358 517.583C481.358 517.583 469.332 502.731 467.079 496.376C464.861 490.138 462.383 472.549 458.691 479.524Z" fill="#CE6D3E"/>
<path d="M506.168 317.891C499.937 323.174 496.299 335.057 500.974 346.285C505.65 357.513 509.909 377.757 514.27 382.384C518.632 387.012 526.112 393.169 534.842 393.169C543.565 393.169 547.306 380.624 545.749 370.72C544.193 360.816 538.583 332.75 534.221 320.205C529.86 307.659 512.4 312.608 506.168 317.891Z" fill="#102441"/>
<path d="M515.451 375.368C512.359 378.672 511.588 389.599 509.847 395.483C507.506 403.4 507.056 409.393 507.506 420.232C507.964 431.248 510.175 445.506 511.253 453.185C513.465 468.959 508.865 474.822 516.345 475.695C523.826 476.576 522.577 473.934 525.485 466.01C528.392 458.086 538.992 416.71 541.067 408.342C543.142 399.981 544.391 390.732 544.807 383.251C545.224 375.771 523.71 366.543 515.451 375.368Z" fill="#273150"/>
<path d="M516.502 374.392C511.772 377.58 511.158 389.545 512.55 402.37C513.656 412.546 538.999 416.717 541.074 408.356C543.149 399.994 544.398 390.746 544.814 383.265C545.231 375.785 525.478 367.143 516.502 374.392Z" fill="#102441"/>
<path d="M508.141 403.045C505.622 411.236 506.878 425.187 510.427 451.117C512.584 466.897 509.39 478.043 516.871 478.924C524.351 479.804 525.641 480.05 527.15 471.75C528.679 463.334 538.992 416.723 541.067 408.362C541.067 408.362 531.716 402.642 522.993 402.199C514.27 401.755 508.141 403.045 508.141 403.045Z" fill="#F6874E"/>
<path d="M512.55 402.369C512.598 411.727 516.332 440.845 516.762 456.413C517.205 472.501 512.919 476.624 520.4 477.504C527.88 478.385 525.682 480.057 527.157 471.75C528.754 462.727 538.999 416.723 541.074 408.362C541.074 408.362 532.112 402.929 523 402.199C519.321 401.898 512.55 402.369 512.55 402.369Z" fill="#CE6D3E"/>
<path d="M511.724 470.057C511.724 470.057 510.864 475.299 508.503 480.808C506.476 485.531 517.028 487.694 520.87 491.21C520.87 491.21 548.766 505.802 558.11 501.182C568.492 496.049 539.702 481.456 547.933 485.933C547.933 485.933 530.481 477.347 527.989 470.747C525.491 464.153 511.724 470.057 511.724 470.057Z" fill="#F6874E"/>
<path d="M516.195 469.197C515.833 477.026 512.4 478.794 511.151 483.422C508.742 492.343 526.44 497.823 525.28 497.134C525.28 497.134 548.445 505.181 557.796 500.56C568.369 495.332 539.504 481.558 547.927 485.94C547.927 485.94 530.474 477.354 527.983 470.754C525.491 464.153 516.523 462.133 516.195 469.197Z" fill="#CE6D3E"/>
<path d="M509.178 476.944C509.622 476.064 510.434 475.3 510.571 476.18C510.714 477.06 512.059 480.432 513.902 481.47C515.738 482.507 536.705 493.933 544.056 491.851C548.541 490.582 545.299 486.534 542.091 483.565C540.043 481.668 538.002 480.214 538.002 480.214C538.002 480.214 547.408 485.51 551.728 488.002C556.049 490.493 565.134 499.011 565.994 502.335C566.86 505.659 534.057 506.075 529.355 503.891C524.652 501.707 517.683 495.476 515.089 492.984C512.7 490.691 509.922 491.715 509.035 490.698C507.028 488.411 507.834 479.586 509.178 476.944Z" fill="#992C29"/>
<path d="M499.623 214.471C499.623 214.471 507.923 212.601 510.844 216.342C514.202 220.648 523.178 231.713 523.621 240.517C523.976 247.534 522.768 253.144 519.232 262.905C516.332 270.925 512.421 283.238 507.493 285.477C492.477 292.295 479.652 291.183 471.263 286.152C468.144 284.282 464.834 279.539 465.086 267.123C465.195 261.772 465.031 259.977 463.782 240.968C462.11 215.413 472.198 214.355 482.464 213.782C492.722 213.202 499.623 214.471 499.623 214.471Z" fill="#F6BE4A"/>
<path d="M498.531 224.43L496.893 224.341C493.958 224.184 491.705 221.672 491.869 218.737L493.03 197.21C493.187 194.275 495.698 192.022 498.633 192.186L500.271 192.275C503.206 192.432 505.459 194.944 505.295 197.879L504.135 219.406C503.971 222.341 501.466 224.587 498.531 224.43Z" fill="#F6874E"/>
<path d="M498.947 215.707L497.309 215.618C494.374 215.461 492.122 212.949 492.286 210.014L493.446 188.487C493.603 185.552 496.115 183.3 499.05 183.463L500.688 183.552C503.623 183.709 505.875 186.221 505.711 189.156L504.551 210.683C504.387 213.612 501.882 215.864 498.947 215.707Z" fill="#CE6D3E"/>
<path d="M450.132 488.957C449.244 489.244 447.36 490.739 447.026 491.612C445.558 495.441 444.323 499.059 444.685 501.332C444.828 502.219 445.681 504.485 446.562 508.785C447.538 513.522 446.883 522.054 449.517 525.644C452.145 529.234 474.587 537.029 479.57 536.094C484.559 535.159 481.733 520.477 481.351 517.59C480.948 514.546 470.021 500.909 465.475 490.766C465.475 490.766 465.516 491.762 466.24 494.301C467.946 500.24 471.27 512.689 466.622 513.147C459.967 513.795 450.418 504.751 450.022 500.226C449.633 495.755 448.903 492.186 449.033 491.264C449.162 490.329 450.132 488.957 450.132 488.957Z" fill="#992C29"/>
<path d="M520.29 336.169L532.993 347.356C534.324 348.407 536.18 347.581 535.914 346.039C534.999 340.749 532.296 331.815 520.29 336.169Z" fill="#EC5E4D"/>
<path d="M465.448 271.396C463.373 275.341 447.374 325.208 462.745 358.447C462.745 358.447 476.287 343.745 495.63 339.766C534.153 331.849 530.829 342.722 531.819 345.595C532.474 347.506 534.549 348.496 536.46 347.841C536.951 347.67 537.504 347.465 538.119 347.22C546.773 343.766 561.823 338.524 575.829 343.479C575.829 343.479 548.657 298.281 512.318 275.737C477.536 254.182 467.523 267.45 465.448 271.396Z" fill="#F6BE4A"/>
<path opacity="0.5" d="M534.515 342.653C534.515 342.653 530.918 316.73 521.915 308.813C521.915 308.813 525.512 314.935 525.512 319.611L521.191 316.73C521.191 316.73 525.669 323.337 528.754 330.053C531.457 335.937 532.665 341.978 534.515 342.653Z" fill="#F6BE4A"/>
<path d="M524.228 174.106C529.504 199.49 519.157 208.144 501.247 207.585C487.787 207.162 476.764 198.643 475.884 181.798C474.996 164.953 482.088 151.131 495.377 148.906C512.918 145.971 520.795 157.616 524.228 174.106Z" fill="#CE6D3E"/>
<path d="M518.058 179.88C518.324 181.129 518.536 182.324 518.706 183.464C521.191 200.452 513.123 206.336 499.779 205.933C489.077 205.605 480.306 198.978 479.603 185.866C478.9 172.754 489.944 163.956 500.517 162.23C514.475 159.943 515.328 167.042 518.058 179.88Z" fill="#F6874E"/>
<path d="M477.843 194.011C481.959 193.374 484.635 188.588 483.82 183.321C483.005 178.053 479.008 174.3 474.892 174.937C470.775 175.573 468.099 180.36 468.914 185.627C469.729 190.894 473.727 194.648 477.843 194.011Z" fill="#F6874E"/>
<path d="M475.877 174.823L480.197 179.566C480.197 179.566 480.218 159.725 495.766 154.258C509.608 149.384 515.942 154.845 515.942 154.845C515.942 154.845 508.468 142.497 489.651 150.585C473.911 157.35 475.877 174.823 475.877 174.823Z" fill="#F6BE4A"/>
<path d="M488.736 177.573C489.946 177.573 490.927 175.74 490.927 173.478C490.927 171.216 489.946 169.383 488.736 169.383C487.526 169.383 486.545 171.216 486.545 173.478C486.545 175.74 487.526 177.573 488.736 177.573Z" fill="#273150"/>
<path d="M511.253 175.819C512.463 175.819 513.444 173.986 513.444 171.724C513.444 169.462 512.463 167.629 511.253 167.629C510.043 167.629 509.062 169.462 509.062 171.724C509.062 173.986 510.043 175.819 511.253 175.819Z" fill="#273150"/>
<path d="M508.673 166.755L512.768 164.509" stroke="#273150" stroke-miterlimit="10" stroke-linecap="round" stroke-linejoin="round"/>
<path d="M492.231 167.922L486.797 166.461" stroke="#273150" stroke-miterlimit="10" stroke-linecap="round" stroke-linejoin="round"/>
<path d="M513.881 151.364C513.881 151.364 517.826 156.162 521.873 158.217C524.931 159.773 527.388 160.059 527.388 160.059L526.774 158.831L528.296 157.657C528.296 157.657 522.576 157.056 515.068 150.647L513.881 151.364Z" fill="#EE5D4F"/>
<path d="M513.485 150.804C513.485 150.804 515.553 156.66 518.652 159.977C520.993 162.482 523.204 163.595 523.204 163.595L523.047 162.237L524.883 161.656C524.883 161.656 519.717 159.138 514.857 150.538L513.485 150.804Z" fill="#EE5D4F"/>
<path d="M515.99 153.896C517.451 153.636 518.836 145.849 515.362 145.685C512.093 145.528 508.386 145.951 509.001 148.415C509.622 150.879 514.536 154.155 515.99 153.896Z" fill="#EE5D4F"/>
<path d="M517.253 149.466C517.253 149.466 516.713 146.129 515.676 146.204C514.638 146.279 515.567 147.705 515.833 149.903C516.106 152.101 517.437 150.879 517.253 149.466Z" fill="#F7BC4B"/>
<path d="M514.782 152.285C514.782 152.285 514.563 150.749 516.802 149.261C519.041 147.773 520.747 146.961 522.167 147.848C523.587 148.736 524.085 152.619 523.273 154.578C522.46 156.537 517.478 155.049 516.222 154.312C514.966 153.568 514.782 152.285 514.782 152.285Z" fill="#EE5D4F"/>
<path d="M522.932 150.981C522.932 150.981 523.403 154.101 522.01 154.606C519.942 155.363 521.246 149.459 521.369 148.531C521.485 147.596 523.307 148.749 522.932 150.981Z" fill="#F7BC4B"/>
<path d="M468.771 255.527C468.771 255.527 476.907 273.669 480.62 277.648C484.361 281.661 489.309 286.118 494.176 284.234C499.029 282.357 501.172 270.27 497.752 263.936C494.374 257.683 488.176 239.651 486.088 236.804C484.013 233.972 476.279 235.978 472.512 238.265C468.717 240.558 466.041 248.749 468.771 255.527Z" fill="#F6874E"/>
<path d="M488.64 241.752C488.64 241.752 481.651 213.638 472.3 214.88C463.373 216.068 461.728 223.685 462.854 234.121C464.001 244.783 468.908 256.058 468.908 256.058C468.908 256.058 470.771 245.834 488.64 241.752Z" fill="#EC5E4D"/>
<path d="M485.808 232.62C485.808 232.62 481.658 213.639 472.307 214.881C463.38 216.069 461.735 223.686 462.861 234.122C464.008 244.783 465.769 246.851 465.769 246.851C465.769 246.851 466.697 240.121 467.939 236.074C469.011 232.6 475.836 230.982 475.836 230.982L485.808 232.62Z" fill="#C93F37"/>
<path d="M541.695 249.165C541.695 249.165 527.566 252.073 519.683 254.673C512.734 256.967 500.831 260.844 494.033 265.649C487.173 270.502 486.381 277.436 488.204 281.968C490.046 286.541 498.899 283.818 506.209 281.32C513.485 278.829 541.155 265.594 547.926 261.219C554.643 256.871 552.909 244.913 541.695 249.165Z" fill="#CE6D3E"/>
<path d="M512.086 257.267C504.605 259.342 500.831 260.844 494.033 265.649C487.173 270.502 486.381 277.436 488.204 281.968C490.046 286.541 498.899 283.818 506.209 281.32C513.492 278.829 518.672 255.438 512.086 257.267Z" fill="#F6874E"/>
<path d="M546.5 257.997C548.554 260.809 553.769 260.379 555.523 258.891C557.653 257.096 558.922 255.567 560.274 255.574C561.12 255.574 564.239 256.161 565.946 256.932C566.041 257.117 565.632 257.84 565.707 258.045C565.809 258.332 565.898 258.502 566.205 258.523C568.143 258.659 569.74 257.383 569.638 255.356L569.44 252.66L571.426 250.257L571.809 242.729L565.222 235.644C564.894 235.296 564.43 235.111 563.952 235.146L554.997 235.808C554.458 235.849 553.967 236.142 553.68 236.592L545.551 249.315C545.544 249.322 544.445 255.185 546.5 257.997Z" fill="#CE6D3E"/>
<path d="M565.611 253.185C566.232 253.861 567.208 254.892 568.048 255.547C568.956 256.257 569.7 256.509 569.638 255.356L569.44 252.66L571.918 250.687C571.918 250.687 572.491 244.845 572.3 243.159C571.788 238.681 565.154 235.357 565.154 235.357C564.567 235.064 564.423 235.118 563.946 235.153C563.946 235.153 561.837 238.64 561.707 239.691C561.577 240.743 563.523 245.363 563.523 245.363C563.523 245.363 561.4 248.059 561.284 248.865C561.004 250.756 563.454 250.844 565.611 253.185Z" fill="#F6874E"/>
<path d="M466.014 241.268C466.014 241.268 466.635 237.064 469.754 235.815C469.754 235.815 466.294 245.896 465.761 246.851C465.229 247.807 465.236 243.609 466.014 241.268Z" fill="#C93F37"/>
<path d="M463.994 220.492C462.329 225.27 456.097 241.473 449.865 277.211C443.634 312.949 453.606 359.069 459.421 364.058C465.236 369.048 485.597 332.061 529.232 355.124C529.232 355.124 499.302 312.205 482.484 300.479C461.912 286.146 463.578 251.445 466.069 232.955C468.567 214.472 463.994 220.492 463.994 220.492Z" fill="#29ACE4"/>
<path d="M449.865 277.218C443.634 312.956 453.606 359.076 459.421 364.065C465.236 369.055 485.597 332.067 529.232 355.131C529.232 355.131 513.404 333.071 503.589 321.659C503.589 321.659 490.948 340.272 487.706 339.596C485.781 339.193 470.055 340.552 460.704 329.337C451.353 318.123 449.865 277.218 449.865 277.218Z" fill="#1689CB"/>
<path d="M460.165 319.338C460.165 319.338 460.684 323.365 465.298 330.136C470.874 338.32 487.713 341.746 487.713 341.746L494.463 337.289C494.463 337.289 485.194 336.525 477.27 332.566C469.345 328.607 460.465 321.85 460.165 319.338Z" fill="#1689CB"/>
<path d="M490.586 212.758C487.453 212.035 469.707 210.574 464.717 219.304C459.728 228.027 463.782 244.183 463.782 244.183C463.782 244.183 464.711 230.866 471.42 226.628C475.304 224.171 498.196 232.197 501.493 232.702C507.568 233.638 499.937 224.915 499.937 224.915C499.937 224.915 494.64 213.694 490.586 212.758Z" fill="#29ACE4"/>
<path d="M505.077 213.953C502.92 214.505 496.893 234.948 502.838 231.303C504.401 230.341 513.008 227.72 522.836 228.655C529.382 229.276 534.535 232.968 534.993 232.238C536.556 229.74 514.257 211.584 505.077 213.953Z" fill="#1689CB"/>
<path d="M502.585 229.535C503.188 229.535 503.677 229.046 503.677 228.443C503.677 227.84 503.188 227.351 502.585 227.351C501.982 227.351 501.493 227.84 501.493 228.443C501.493 229.046 501.982 229.535 502.585 229.535Z" fill="#273150"/>
<path d="M329.873 312.267C329.873 312.267 330.61 298.595 323.43 297.804C316.25 297.012 300.947 312.861 297.487 314.546C294.026 316.239 291.296 321.686 289.528 323.372C287.76 325.058 283.01 326.348 280.375 328.464C277.734 330.586 268.485 336.968 275.119 344.094C281.767 351.233 284.279 353.329 293.439 349.438C302.571 345.555 332.262 319.324 329.873 312.267Z" fill="#1D2436"/>
<path d="M315.656 387.156C315.656 387.156 291.419 379.224 263.626 375.709C251.094 374.126 250.459 392.971 258.745 407.502C263.298 415.495 287.576 421.249 310.032 432.333C328.597 441.493 345.531 457.048 353.237 456.727C370.239 456.011 359.435 396.527 315.656 387.156Z" fill="#48598B"/>
<path d="M293.412 395.537C289.712 395.217 296.388 402.424 298.128 405.584C303.193 414.778 307.336 425.276 311.793 431.938C315.731 437.821 312.967 429.938 309.766 419.925C308.312 415.379 307.22 411.024 306.162 408.048C305.568 406.369 293.412 395.537 293.412 395.537Z" fill="#273150"/>
<path d="M294.19 505.741C294.19 505.741 279.973 517.706 274.997 524.163C270.001 530.64 283.344 537.67 295.187 536.046C307.001 534.428 318.202 530.115 322.202 523.685C326.188 517.276 326.215 517.208 332.46 510.328C338.685 503.475 330.119 488.93 326.59 485.872C323.055 482.821 296.142 495.373 294.19 505.741Z" fill="#EC6141"/>
<path d="M294.559 502.622C294.559 502.622 280.341 514.587 275.365 521.044C270.369 527.521 284.573 531.848 296.415 530.224C308.23 528.606 316.298 526.572 320.297 520.143C324.283 513.733 327.191 512.792 333.436 505.911C339.661 499.059 330.488 485.817 326.959 482.76C323.423 479.702 296.511 492.254 294.559 502.622Z" fill="#13161F"/>
<path d="M286.307 483.49C286.307 483.49 290.634 490.124 289.794 492.827C288.955 495.537 286.395 503.052 296.538 506.458C305.179 509.359 326.113 496.909 332.713 492.547C333.887 491.769 334.665 490.513 334.795 489.182C335.149 485.476 335.347 477.845 331.778 473.327C326.932 467.205 327.566 468.965 319.901 448.783C312.298 428.743 288.02 387.053 286.498 382.774C284.976 378.501 265.23 374.433 261.25 374.904C257.264 375.375 241.818 395.783 242.228 401.407C242.637 407.045 251.387 426.552 258.909 443.124C266.472 459.792 275.754 467.518 277.973 472.296C281.447 479.784 286.307 483.49 286.307 483.49Z" fill="#48598B"/>
<path d="M326.768 467.32C323.198 460.672 324.918 470.644 323.041 477.709C321.963 481.763 330.344 473.968 326.768 467.32Z" fill="#273150"/>
<path d="M286.027 481.449C286.027 481.449 290.313 492.568 292.709 493.394C295.105 494.227 302.278 493.292 307.145 490.8C312.011 488.302 294.716 492.254 286.027 481.449Z" fill="#273150"/>
<path d="M249.784 410.028C249.784 410.028 252.391 405.564 254.459 401.475C256.527 397.387 257.51 411.236 253.039 414.799C248.569 418.368 249.784 410.028 249.784 410.028Z" fill="#273150"/>
<path d="M303.739 409.871L289.753 403.004L272.492 389.196C272.492 389.196 276.533 389.278 279.7 391.496C281.133 392.5 288.675 398.745 292.784 402.014C297.732 405.966 302.21 408.287 303.739 409.871Z" fill="#273150"/>
<path d="M386.47 316.69C386.47 316.69 314.851 300.916 328.502 290.514C342.064 280.173 379.904 261.56 393.739 281.579C407.67 301.742 394.865 323.856 386.47 316.69Z" fill="#1D2436"/>
<path d="M414.011 461.581C414.011 461.581 415.13 458.939 418.454 456.639C421.771 454.346 432.057 455.301 433.893 459.376C435.73 463.465 435.709 491.49 435.709 493.387C435.709 495.292 432.016 503.189 428.665 507.83C425.307 512.485 418.98 513.379 413.403 511.195C407.827 509.011 411.602 499.394 413.11 494.8C414.618 490.227 411.404 466.502 414.011 461.581Z" fill="#EC6141"/>
<path d="M411.834 459.404C411.834 459.404 412.032 457.779 415.356 455.479C418.673 453.186 428.959 454.141 430.795 458.216C432.631 462.304 433.532 489.313 433.532 491.21C433.532 493.114 429.839 501.012 426.488 505.653C423.13 510.308 416.802 511.202 411.226 509.018C405.65 506.834 409.424 497.217 410.933 492.623C412.441 488.043 409.226 464.325 411.834 459.404Z" fill="#13161F"/>
<path d="M394.661 469.949C394.661 469.949 407.11 459.308 412.953 459.049C425.43 458.489 422.543 471.034 422.515 479.682C422.495 488.357 415.765 494.746 413.267 496.404C410.769 498.063 415.123 497.217 407.868 507.107C400.572 517.045 387.617 528.955 378.989 530.17C372.417 531.098 350.37 519.515 362.158 495.886C365.844 488.507 388.04 476.194 394.661 469.949Z" fill="#273150"/>
<path d="M354.37 417.352C354.37 417.352 352.063 474.017 353.012 495.428C353.967 517.031 352.984 527.208 358.213 532.552C363.448 537.91 372.949 538.906 379.611 536.709C386.259 534.511 383.87 531.74 389.166 530.265C394.456 528.798 398.251 512.738 399.602 507.311C400.954 501.899 404.564 449.295 405.971 430.279C407.37 411.421 403.575 401.783 388.142 401.974C372.683 402.179 357.148 406.281 354.37 417.352Z" fill="#273150"/>
<path d="M352.964 426.512C352.964 426.512 352.186 479.191 352.93 498.868C353.688 518.724 352.909 528.068 357.025 532.989C361.148 537.91 368.642 538.831 373.891 536.804C379.133 534.784 392.156 515.004 393.221 510.021C394.285 505.045 398.08 471.136 394.668 439.009C392.832 421.741 392.777 412.82 380.614 412.997C368.431 413.168 355.155 416.335 352.964 426.512Z" fill="#47588A"/>
<path d="M311.465 399.175C315.247 404.11 319.355 407.7 324.345 411.639C325.512 412.56 365.066 429.091 365.066 429.091C365.066 429.091 342.869 420.655 345.954 422.86C359.134 432.272 362.574 438.647 377.952 442.387C381.542 443.261 389.009 436.21 391.146 438.545C398.005 446.025 395.569 460.188 396.135 453.192C398.155 428.218 406.858 416.826 388.033 407.066C368.205 396.786 300.913 385.388 311.465 399.175Z" fill="#273150"/>
<path d="M319.983 386.678C320.563 381.504 319.314 361.492 319.512 336.149C319.71 311.079 319.533 301.128 334.057 295.272C348.514 289.443 366.628 287.716 380.361 296.684C386.729 300.841 389.521 391.872 390.736 400.008C391.951 408.171 377.604 421.556 364.635 422.389C351.647 423.228 318.325 401.558 319.983 386.678Z" fill="#F6BE4A"/>
<path opacity="0.5" d="M352.193 392.527C352.193 392.527 350.131 396.377 350.985 400.076C343.415 396.787 335.969 393.067 333.907 390.453C333.907 390.453 340.555 401.674 350.527 405.414C360.499 409.154 369.639 407.489 369.639 407.489C369.639 407.489 355.401 397.694 352.193 392.527Z" fill="#F6BE4A"/>
<path d="M311.349 394.514C311.349 394.78 311.445 395.032 311.629 395.224C313.117 396.78 317.622 403.51 324.549 405.858C326.406 406.486 329.6 405.127 329.614 404.336L329.648 402.718C329.655 402.329 325.778 402.704 325.437 402.527C323.389 401.448 314.741 394.671 311.137 390.412C310.516 389.674 311.356 393.531 311.349 394.514Z" fill="#F4E8D8"/>
<path d="M340.03 292.569C341.784 291.592 318.646 302.793 329.034 349.124C331.798 361.444 329.054 382.951 329.955 387.122C330.863 391.292 333.655 400.602 329.546 402.711C321.935 406.615 314.728 394.616 312.073 391.927C307.95 387.763 316.427 385.811 316.079 370.461C315.711 354.237 310.271 331.596 311.335 322.382C313.772 301.353 320.707 299.728 323.43 297.804C326.399 295.708 337.907 293.756 340.03 292.569Z" fill="#972B28"/>
<path d="M340.03 292.569C340.692 290.111 326.597 297.449 324.666 299.196C322.782 300.903 320.789 303.257 318.98 306.52C313.185 316.949 327.88 343.657 327.88 343.657C327.88 343.657 327.833 318.11 328.392 312.281C328.945 306.465 338.753 297.319 340.03 292.569Z" fill="#F4E8D8"/>
<path d="M340.501 290.555C340.501 290.555 339.798 292.173 339.873 294.152C340.153 302.11 341.818 324.109 344.787 324.382C347.804 324.655 349.196 323.931 352.978 311.598C353.783 308.97 361.796 289.183 359.277 287.477" stroke="#913636" stroke-miterlimit="10"/>
<path d="M345.34 331.18C346.222 331.18 346.937 329.543 346.937 327.522C346.937 325.501 346.222 323.864 345.34 323.864C344.458 323.864 343.743 325.501 343.743 327.522C343.743 329.543 344.458 331.18 345.34 331.18Z" fill="#29ACE4"/>
<path d="M339.955 283.115L340.419 295.538C340.61 300.704 345.354 304.52 350.793 303.878L351.531 303.79C356.752 303.175 360.574 298.67 360.076 293.742L358.827 281.429C358.24 275.621 351.981 272.065 346.173 274.222C342.323 275.655 339.811 279.245 339.955 283.115Z" fill="#CE6D3E"/>
<path d="M366.301 408.874L366.349 409.912C366.376 410.506 366.601 411.059 366.983 411.468C369.72 414.417 381.385 426.655 389.091 429.549C395.022 431.774 402.981 432.19 407.52 432.224C409.677 432.238 411.656 430.839 412.571 428.648C413.171 427.214 412.414 425.556 411.035 425.276C404.128 423.863 385.412 419.106 369.789 406.717C368.308 405.537 366.205 406.834 366.301 408.874Z" fill="#F4E8D8"/>
<path d="M361.578 288.569C359.448 290.221 350.309 306.759 357.96 329.576C365.673 352.598 358.615 393.961 363.618 404.226C365.045 407.148 385.487 425.74 393.248 426.068C398.36 426.279 405.725 427.105 410.837 427.774C413.24 428.088 416.939 423.426 417.021 420.983C417.273 413.256 417.021 396.916 411.82 380.528C404.721 358.148 404.175 294.029 386.17 285.532C372.423 279.041 363.707 286.917 361.578 288.569Z" fill="#972B28"/>
<path d="M385.753 384.651C385.753 384.651 400.217 393.462 404.052 394.705L401.882 399.878C401.882 399.878 385.685 391.067 383.153 387.674L385.753 384.651Z" fill="#F4E8D8"/>
<path d="M361.175 287.34C365.434 283.634 379.29 281.736 383.44 284.378C385.788 285.866 374.689 281.177 369.058 293.872C362.083 309.584 359.571 334.586 359.571 334.586C359.571 334.586 355.783 332.525 354.431 312.533C353.53 299.189 356.909 291.053 361.175 287.34Z" fill="#F4E8D8"/>
<path d="M396.756 375.593C396.756 375.593 398.469 370.604 397.691 368.27C396.913 365.935 394.886 373.88 392.552 377.149C391.425 378.719 396.033 376.126 396.756 375.593Z" fill="#972B28"/>
<path d="M315.833 376.733L315.26 379.491L318.946 377.361L319.622 374.085L315.833 376.733Z" fill="#F4E8D8"/>
<path d="M358.322 431.896C358.322 431.896 364.554 435.534 368.71 438.858C372.867 442.182 380.764 444.783 380.764 444.783C380.764 444.783 370.785 446.442 358.322 431.896Z" fill="#273150"/>
<path d="M310.428 344.742C313.636 354.257 303.2 365.696 293.378 365.792C287.494 365.853 283.071 363.144 279.133 357.724C277.645 355.677 278.553 353.301 277.475 351.063C276.642 349.329 273.727 347.739 273.174 346.073C270.035 336.565 275.468 329.699 285.194 328.75C292.204 328.068 293.651 332.716 297.5 334.456C298.886 335.084 303.063 335.207 304.36 336.013C309.042 338.954 308.858 340.094 310.428 344.742Z" fill="#C93F37"/>
<path d="M308.51 350.837C308.994 355.772 305.882 360.686 301.541 361.813C297.193 362.932 293.289 359.82 292.818 354.871C292.347 349.929 294.47 342.735 298.797 341.63C303.118 340.517 308.025 345.909 308.51 350.837Z" fill="#F4E8D8"/>
<path d="M306.278 351.336C306.633 355.049 304.367 358.755 301.213 359.594C298.06 360.441 295.221 358.093 294.879 354.366C294.538 350.646 296.715 343.282 301.493 344.531C304.64 345.35 305.923 347.629 306.278 351.336Z" fill="#CE6D3E"/>
<path d="M300.299 345.363C298.531 346.756 297.111 349.65 296.613 354.086C296.115 358.523 305.739 363.321 305.739 363.321C305.739 363.321 311.738 365.539 315.738 355.922C317.328 352.093 309.124 345.002 309.186 342.558C309.411 333.692 303.2 343.077 300.299 345.363Z" fill="#F6874E"/>
<path d="M307.937 344.114C307.937 344.114 304.817 344.476 305.445 346.817C306.066 349.151 310.974 353.308 316.12 352.066C321.267 350.824 307.937 344.114 307.937 344.114Z" fill="#CE6D3E"/>
<path d="M277.706 347.855C277.29 345.152 277.57 342.565 277.502 342.039C277.297 340.483 275.01 348.066 275.01 348.066C277.809 352.114 277.918 349.254 277.706 347.855Z" fill="#972B28"/>
<path d="M296.094 334.763C296.094 334.763 290.17 329.467 288.306 337.882C288.3 337.882 291.733 335.698 296.094 334.763Z" fill="#972B28"/>
<path d="M386.232 343.404C381.979 336.524 377.652 327.781 373.195 320.935C368.745 314.109 371.304 292.425 380.99 288.691C390.648 284.972 392.45 289.565 401.364 302.465C410.312 315.42 424.113 349.404 419.847 361.116C417.574 367.348 397.569 370.522 386.232 343.404Z" fill="#1D2436"/>
<path d="M417.089 349.779C412.332 342.933 406.264 338.197 393.856 340.688C387.672 341.93 386.887 347.807 386.887 347.807C386.887 347.807 379.836 347.165 376.621 350.032C373.4 352.905 362.486 350.032 362.834 364.365C363.182 378.699 366.697 385.285 376.28 387.115C385.856 388.944 400.818 376.426 400.818 376.426C400.818 376.426 406.094 377.45 413.103 370.788C420.175 364.072 424.645 360.652 417.089 349.779Z" fill="#C93F37"/>
<path d="M388.484 345.875C388.484 345.875 394.129 340.906 399.678 345.807C400.285 346.346 392.832 344.851 388.484 345.875Z" fill="#972B28"/>
<path d="M363.155 370.426C362.424 383.388 377.952 382.098 377.952 382.098C377.952 382.098 374.976 383.47 376.826 383.975C379.01 384.569 382.832 385.217 385.167 383.586C393.507 377.75 398.156 363.423 387.952 357.553C386.081 356.482 385.528 364.577 385.255 362.243C384.962 359.765 382.327 355.929 377.666 353.492C375.065 352.127 364.056 354.359 363.155 370.426Z" fill="#972B28"/>
<path d="M402.736 354.086C402.736 354.086 400.06 351.281 396.613 350.032C393.166 348.783 387.133 347.384 387.133 347.384C388.081 347.097 403.111 346.169 402.736 354.086Z" fill="#972B28"/>
<path d="M370.137 354.578C367.782 354.721 360.302 355.472 359.728 368.734C359.271 379.436 368.806 381.927 368.806 381.927C368.806 381.927 375.748 382.528 378.908 379.839C383.167 376.214 383.515 367.594 380.874 360.215C379.515 356.434 372.492 354.434 370.137 354.578Z" fill="#F4E8D8"/>
<path d="M365.4 357.042C363.052 357.144 356.227 355.868 355.872 368.454C355.585 378.603 365.127 381.101 365.127 381.101C365.127 381.101 372.048 381.763 375.154 379.252C379.338 375.866 379.543 367.689 376.792 360.652C375.379 357.035 367.748 356.939 365.4 357.042Z" fill="#CE6D3E"/>
<path d="M318.796 311.926C318.796 311.926 321.506 308.247 329.239 308.486C340.044 308.82 351.647 312.062 355.101 316.942C357.66 320.553 357.803 324.218 357.803 324.218C357.803 324.218 361.237 324.553 362.936 327.064C364.008 328.648 363.53 348.558 363.53 348.558C363.346 352.073 361.592 354.489 358.015 354.441L354.985 354.4L318.059 349.575C318.072 349.575 315.267 316.239 318.796 311.926Z" fill="#634874"/>
<path d="M306.066 339.753C306.483 349.308 314.68 350.981 317.042 351.377C323.424 352.441 357.79 355.445 357.79 355.445C357.79 355.445 363.782 353.151 360.363 352.912C359.544 352.858 342.583 349.07 337.027 348.059C327.56 346.339 324.352 340.162 324.352 340.162C324.352 340.162 305.875 335.391 306.066 339.753Z" fill="#7E6391"/>
<path d="M356.548 384.084L359.373 356.011C359.209 354.564 358.07 353.957 353.578 353.172C353.578 353.172 351.408 352.974 349.708 352.803C348.883 352.721 346.89 353.124 346.808 355.608L345.395 387.401C345.272 388.562 349.442 387.749 349.442 387.749C355.606 386.985 356.418 386.705 356.548 384.084Z" fill="#634874"/>
<path d="M324.167 344.271C318.223 346.92 314.352 347.711 308.899 345.077C304.845 343.35 303.725 334.511 303.828 331.74L303.903 322.211C304.121 316 309.418 310.97 315.731 310.97C324.816 310.963 329.56 318.041 329.314 326.996L328.993 332.361C328.918 335.125 326.898 343.056 324.167 344.271Z" fill="#634874"/>
<path d="M348.193 387.197L348.971 354.626C349.108 351.957 349.278 351.513 345.013 351.158L341.163 351.131C337.989 351.302 336.419 352.913 336.324 355.534L337.648 381.566C337.586 386.2 336.986 387.49 340.255 387.75C345.702 388.18 348.132 388.787 348.193 387.197Z" fill="#7E6391"/>
<path d="M334.221 355.377C334.617 359.417 335.464 363.792 341.081 365.185C341.32 365.246 345.729 364.966 345.729 364.966L343.88 354.257C343.914 352.148 342.787 351.029 341.45 350.879L336.706 350.551C334.965 350.353 333.962 352.694 334.221 355.377Z" fill="#7E6391"/>
<path d="M338.938 355.459C339.272 359.301 340.242 363.622 345.094 364.953C345.299 365.008 345.518 365.008 345.729 364.967C348.616 365.205 353.23 363.39 353.264 361.376L353.729 353.179C353.592 352.838 341.45 351.247 341.45 351.247C339.948 351.063 338.713 352.913 338.938 355.459Z" fill="#634874"/>
<path d="M321.997 325.904C321.676 329.249 318.639 331.788 315.213 331.576C311.786 331.365 309.274 328.477 309.602 325.126C309.93 321.782 312.974 319.256 316.393 319.468C319.806 319.686 322.318 322.567 321.997 325.904Z" fill="#1D2436"/>
<path d="M320.12 324.136C319.676 328.784 315.458 332.32 310.694 332.027C305.923 331.733 302.435 327.713 302.893 323.058C303.35 318.417 307.575 314.901 312.325 315.202C317.076 315.502 320.564 319.502 320.12 324.136Z" fill="#F6BE4A"/>
<path d="M316.496 323.447C316.216 326.375 313.554 328.593 310.558 328.409C307.561 328.225 305.357 325.692 305.65 322.764C305.937 319.843 308.599 317.625 311.588 317.816C314.578 318.007 316.776 320.526 316.496 323.447Z" fill="#1D2436"/>
<path d="M330.454 311.953C334.808 314.963 335.894 319.413 334.761 327.249C334.665 327.89 335.184 328.464 335.948 328.58L351.879 331.207C352.841 331.358 355.305 332.047 355.408 331.228C355.831 327.918 356.377 318.464 349.456 314.936C346.186 313.27 338.289 310.99 331.846 309.789C330.263 309.496 329.232 311.107 330.454 311.953Z" fill="#BB83C3"/>
<path d="M331.942 309.175C331.942 309.175 343.47 313.871 338.685 329.795" stroke="#634874" stroke-width="2" stroke-miterlimit="10" stroke-linecap="round" stroke-linejoin="round"/>
<path d="M340.201 310.991C340.201 310.991 349.749 317.291 345.156 330.546" stroke="#634874" stroke-width="2" stroke-miterlimit="10" stroke-linecap="round" stroke-linejoin="round"/>
<path d="M346.459 312.833C346.459 312.833 354.998 319.086 351.36 331.235" stroke="#634874" stroke-width="2" stroke-miterlimit="10" stroke-linecap="round" stroke-linejoin="round"/>
<path d="M334.378 332.061L355.305 335.699" stroke="#BB83C3" stroke-width="2" stroke-miterlimit="10" stroke-linecap="round" stroke-linejoin="round"/>
<path d="M373.782 361.512C373.782 361.512 372.103 354.892 371.148 353.076C370.677 352.182 370.786 350.401 369.701 347.78C368.527 344.94 369.1 342.647 367.844 340.394C366.779 338.483 361.858 341.964 362.056 345.561C362.165 347.595 362.411 351.568 362.957 353.554C363.571 355.806 355.156 354.025 355.156 354.025C354.262 353.711 348.48 354.12 347.538 354.223L341.573 354.305C339.095 355.103 338.679 356.905 338.761 359.506C338.802 360.898 345.491 360.113 348.323 360.571C350.385 360.898 354.978 360.127 355.046 360.427C355.046 360.427 339.28 364.372 338.413 366.399C336.706 370.42 337.198 375.682 337.826 376.467C339.689 378.794 339.833 378.972 339.833 378.972C339.833 378.972 339.723 381.968 341.907 383.436C345.204 385.654 355.702 387.497 355.702 387.497C355.702 387.497 368.083 383.32 370.151 381.361C372.219 379.409 374.799 377.812 375.066 371.58C375.318 365.369 373.782 361.512 373.782 361.512Z" fill="#F6874E"/>
<path d="M338.399 366.393C336.726 370.427 337.184 375.675 337.812 376.46C339.675 378.788 339.818 378.965 339.818 378.965C339.818 378.965 339.709 381.962 341.893 383.429C345.19 385.647 355.688 387.49 355.688 387.49L351.92 380.33C351.92 380.33 348.575 363.97 347.593 363.41C346.61 362.85 339.013 364.918 338.399 366.393Z" fill="#CE6D3E"/>
<path d="M310.216 304.131L309.78 282.296L299.692 291.408L288.17 274.577L286.983 294.473L270.315 294.671L283.242 303.414L277.072 310.936L293.658 311.694C295.132 311.755 285.74 307.735 285.74 307.735L286.819 303.776L283.222 297.654L290.784 297.292L292.224 289.374L299.159 296.118L306.264 291.538C306.258 291.531 310.223 304.288 310.216 304.131Z" fill="#F6BE4A"/>
<path d="M299.494 357.465L307.118 364.502C307.247 364.618 307.404 364.693 307.582 364.714C309.247 364.898 319.581 364.755 322.973 364.215C324.454 363.983 328.051 360.304 331.894 356.544C333.095 355.363 333.955 354.673 335.177 353.192C335.853 352.373 336.023 351.302 335.102 350.776C335.102 350.776 333.594 349.937 332.761 350.558C332.399 350.831 332.372 350.728 332.46 350.524C332.645 350.094 332.46 349.595 332.024 349.418C331.177 349.077 329.88 348.776 328.604 349.418C326.734 350.353 326.939 350.094 326.939 350.094C326.939 349.213 325.949 348.169 324.652 348.121C322.918 348.053 321.54 349.063 321.274 349.274C321.239 349.302 318.891 349.827 316.81 350.817C314.339 351.991 310.68 350.455 308.756 349.725C305.213 348.387 299.726 348.244 299.214 356.817C299.214 357.055 299.316 357.301 299.494 357.465Z" fill="#F6874E"/>
<path d="M373.099 253.732C369.687 273.102 363.23 276.692 363.23 276.692C335.082 287.04 311.629 275.368 309.247 258.448C306.169 241.466 304.108 232.559 332.727 227.023C361.162 221.529 376.103 236.722 373.099 253.732Z" fill="#1D2436"/>
<path d="M369.919 249.977C367.011 266.393 342.596 261.656 342.596 261.656C337.662 260.366 320.666 256.939 317.465 247.827C314.735 240.06 311.158 231.317 335.436 226.621C357.544 222.348 372.478 235.548 369.919 249.977Z" fill="#3D4C6D"/>
<path d="M366.69 258.926C366.69 258.926 368.711 253.622 366.834 247.875C366.834 247.875 374.253 249.589 366.69 258.926Z" fill="#1D2436"/>
<path d="M324.345 233.842C324.345 233.842 307.548 238.306 305.671 241.569C303.794 244.838 312.182 281.143 319.076 288.985C325.983 296.848 356.595 283.88 362.097 275.273C366.602 268.236 364.404 265.833 363.291 256.598C362.138 246.974 353.66 242.954 351.988 239.644C349.156 233.999 324.345 233.842 324.345 233.842Z" fill="#CE6D3E"/>
<path d="M359.851 261.499C361.087 267.799 354.903 282.187 342.18 286.071C329.41 289.975 319.083 288.978 313.807 275.443C308.394 261.553 322.154 242.599 334.815 238.818C347.429 235.057 355.537 247.329 359.851 261.499Z" fill="#F6874E"/>
<path d="M323 260.018C323.506 262.229 322.632 263.465 321.478 263.738C320.318 264.011 319.315 263.226 318.816 261.008C318.311 258.796 318.844 256.776 320.004 256.503C321.151 256.237 322.495 257.806 323 260.018Z" fill="#34273A"/>
<path d="M339.348 243.855L336.112 247.138" stroke="#34273A" stroke-miterlimit="10" stroke-linecap="round" stroke-linejoin="round"/>
<path d="M322.011 253.841L317.465 254.134" stroke="#34273A" stroke-miterlimit="10" stroke-linecap="round" stroke-linejoin="round"/>
<path d="M337.375 252.169C337.914 250.449 340.822 247.111 344.494 248.135C344.494 248.135 339.573 252.838 337.887 254.414C337.627 254.653 337.273 252.496 337.375 252.169Z" fill="#34273A"/>
<path d="M365.912 251.274C366.028 256.878 363.407 261.792 360.056 262.229C356.705 262.666 353.899 258.461 353.797 252.851C353.695 247.247 356.322 242.374 359.66 241.944C362.998 241.507 365.796 245.684 365.912 251.274Z" fill="#F6874E"/>
<path d="M341.395 226.771C341.395 226.771 314.462 255.95 305.261 259.526C296.033 263.116 300.661 238.074 314.189 229.194C327.642 220.375 341.395 226.771 341.395 226.771Z" fill="#1D2436"/>
<path d="M343.142 226.245C343.142 226.245 343.47 228.286 337.941 231.965C328.372 238.333 309.964 248.148 305.302 249.957C297.917 252.824 303.616 236.511 314.168 229.003C325.41 221.01 343.142 226.245 343.142 226.245Z" fill="#3D4C6D"/>
<path d="M324.707 234.449C324.707 234.449 317.233 245.657 309.431 249.233C309.425 249.24 327.915 241.125 324.707 234.449Z" fill="#1D2436"/>
<path d="M348.248 234.197C348.248 234.197 350.173 247.971 352.937 251.486L358.384 256.38L354.698 236.859L348.248 234.197Z" fill="#3D4C6D"/>
</svg>
