<svg width="515" height="459" viewBox="0 0 515 459" fill="none" xmlns="http://www.w3.org/2000/svg">
<path d="M48.4582 260.904C48.4582 260.904 46.2672 252.938 43.7623 247.232C41.3665 241.772 39.5305 245.56 38.3633 250.945C37.1416 256.59 37.7149 265.169 37.6944 267.217C37.6739 269.272 48.1033 268.104 48.4582 260.904Z" fill="#1D2538"/>
<path d="M70.6068 328.434C76.5995 326.107 89.4382 310.463 86.8787 299.638C84.3191 288.813 81.7664 272.766 78.4151 266.766C78.4151 266.766 77.8895 255.395 76.8043 249.286C75.7259 243.185 74.1151 242.912 71.9719 245.86C69.8287 248.809 66.9893 258.856 66.9893 258.856C66.9893 258.856 52.7036 253.136 41.1959 258.112C29.6882 263.088 26.1731 270.889 25.2243 277.544L24.8762 278.029C24.8762 278.029 12.2696 281.141 6.33827 283.584C0.406945 286.028 -1.38815 289.072 1.30108 295.447C3.99031 301.822 4.44079 305.01 8.08558 307.351C11.7304 309.692 27.8248 314.797 36.0836 316.012C36.0836 316.012 39.5919 330.898 42.404 334.871C45.2161 338.85 64.6209 330.769 70.6068 328.434Z" fill="#273150"/>
<path d="M72.436 310.054C72.436 310.054 89.4382 310.463 86.8855 299.638C84.3328 288.813 81.7732 272.766 78.4219 266.766C78.4219 266.766 77.8963 255.395 76.8111 249.286C75.7327 243.185 74.1219 242.912 71.9787 245.86C69.8355 248.809 66.9961 258.856 66.9961 258.856C66.9961 258.856 52.7104 253.136 41.2027 258.112C41.2027 258.112 54.5465 258.453 59.7338 263.429C64.9212 268.405 71.3712 288.779 71.3712 288.779C71.3712 288.779 56.7511 306.579 57.6316 307.828C60.4368 311.808 72.436 310.054 72.436 310.054Z" fill="#1D2538"/>
<path d="M45.5984 261.081C45.5984 261.081 43.933 253.3 42.7317 248.133C41.3802 242.325 38.5613 245.662 37.3942 251.048C36.1724 256.692 35.5172 262.487 35.4967 264.542C35.4831 266.596 46.0011 266.105 45.5984 261.081Z" fill="#273150"/>
<path d="M43.2967 274.221C44.1893 271.674 43.5344 269.126 41.8339 268.53C40.1335 267.934 38.0315 269.516 37.1389 272.063C36.2464 274.61 36.9012 277.158 38.6017 277.754C40.3021 278.35 42.4041 276.768 43.2967 274.221Z" fill="#121721"/>
<path d="M0.0656847 289.734C-0.364319 293.256 1.42398 294.874 2.31812 296.86C3.53988 299.57 10.9864 294.498 11.4233 290.976C11.8533 287.454 11.8942 282.499 7.68975 283.277C4.76163 283.823 0.495688 286.212 0.0656847 289.734Z" fill="#121721"/>
<path d="M53.7343 311.33C53.7343 311.33 37.5375 319.65 36.5205 315.842C28.4119 314.743 15.3411 310.511 15.3411 310.511L37.2577 310.497L53.7343 311.33Z" fill="#1D2538"/>
<path d="M130.575 321.753C129.954 319.732 128.077 308.716 125.675 304.798C123.279 300.88 117.231 291.878 109.996 292.137C109.996 292.137 114.153 286.916 127.163 293.27C140.172 299.618 141.994 318.647 142.138 320.258C142.766 327.452 132.343 327.513 130.575 321.753Z" fill="#1D2538"/>
<path d="M40.37 419.138C41.5304 415.746 46.0897 412.142 46.0897 412.142C46.5266 411.378 48.0418 409.842 48.1579 409.112C49.0656 403.528 51.5433 388.294 51.6866 385.857C51.9938 380.793 49.7482 365.708 50.1645 354.112C50.5809 342.516 68.2111 351.634 69.0233 362.835C69.6035 370.821 64.0475 403.501 63.4674 406.695L59.1605 417.138C57.5702 419.363 53.1541 420.947 48.6152 421.165C44.083 421.37 39.237 422.455 40.37 419.138Z" fill="#1D2538"/>
<path d="M117.982 354.972C113.587 353.518 106.754 357.306 106.679 363.538C106.618 368.841 130.732 389.802 130.732 389.802L132.084 394.075C132.084 394.075 128.685 398 130.138 400.109C130.48 400.607 135.128 399.788 138.875 399.037C141.619 398.484 143.571 397.174 143.564 395.857L143.55 394.198L144.97 387.905L128.371 370.63C128.377 370.636 123.989 356.965 117.982 354.972Z" fill="#1D2538"/>
<path d="M56.403 311.515C56.403 311.515 74.5997 298.505 90.5781 305.658C104.864 312.054 111.375 313.132 127.306 313.371C137.312 313.521 144.185 348.727 142.11 355.58C138.356 368.384 94.1614 369.517 88.4963 369.708C71.8012 370.275 57.8432 361.729 50.9563 358.467C44.7792 355.539 35.6809 338.571 43.4073 325.65C46.3559 320.722 49.755 315.385 56.403 311.515Z" fill="#273150"/>
<path d="M60.942 312.832C71.3371 304.539 74.5929 298.512 90.5781 305.658C104.864 312.054 115.675 313.344 131.599 313.828C149.625 314.381 147.202 344.672 141.906 357.655C137.885 367.51 94.1615 369.517 88.5032 369.708C88.5032 369.708 103.792 359.811 103.041 352.774C102.297 345.737 84.756 335.397 84.756 335.397C76.3061 326.817 57.2562 315.774 60.942 312.832Z" fill="#1D2538"/>
<path d="M70.5317 418.012C70.5112 414.948 78.0601 407.542 78.0124 406.791C77.2411 394.123 74.0604 382.131 73.5554 379.244C72.5247 373.319 65.8221 363.279 63.5151 350.474C61.29 338.134 83.2816 344.188 86.162 358.412C87.8205 366.617 91.9158 394.813 92.967 402.512C93.1171 403.597 93.0488 404.696 92.769 405.761L88.3802 415.111C87.8683 417.794 83.6229 420.101 78.4287 420.408C73.2345 420.715 70.5658 422.183 70.5317 418.012Z" fill="#273150"/>
<path d="M142.335 342.27C136.848 337.267 124.644 343.84 122.419 345.874C120.084 348.01 130.282 361.436 130.794 363.313C131.326 365.272 153.918 377.728 158.505 381.373C163.467 385.318 159.317 390.738 162.279 392.43C163.781 393.29 176.306 390.663 175.507 385.748C174.756 381.107 169.828 373.797 169.706 373.428C169.467 372.712 150.069 357.662 149.605 356.727C149.161 355.812 143.96 343.758 142.335 342.27Z" fill="#1D2538"/>
<path d="M87.5067 300.164C87.5067 300.164 90.8033 303.665 91.6361 306.75C91.6361 306.75 81.5958 314.006 63.4947 322.633C53.7957 327.254 38.8138 331.499 38.8138 331.499L36.6365 323.37C36.6433 323.364 67.2487 315.33 87.5067 300.164Z" fill="#992C29"/>
<path d="M36.7525 323.453C36.7525 323.453 31.4901 334.244 32.3364 339.67L45.9123 344.018C45.9123 344.018 40.643 328.224 36.7525 323.453Z" fill="#C93F37"/>
<path d="M36.7525 323.452C40.7659 327.445 45.9123 344.017 45.9123 344.017C45.9123 344.017 38.8343 338.379 38.1108 336.209C37.3873 334.038 36.7525 323.452 36.7525 323.452Z" fill="#992C29"/>
<path d="M38.8753 328.824C38.8753 328.824 48.5879 337.349 52.9289 338.414L54.0551 331.206C54.0619 331.206 47.0249 327.65 38.8753 328.824Z" fill="#992C29"/>
<path d="M326.172 146.297C326.172 146.297 308.467 146.591 300.215 143.39C291.963 140.195 294.291 106.191 310.699 101.714C329.449 96.5944 351.979 107.529 364.443 116.32C376.906 125.111 371.842 138.257 353.809 144.455C335.51 150.741 326.172 146.297 326.172 146.297Z" fill="#1689CB"/>
<path d="M364.757 130.319C364.757 139.056 331.619 139.499 321.511 139.499C311.409 139.499 303.218 132.415 303.218 123.678C303.218 114.941 311.409 107.857 321.511 107.857C331.612 107.85 364.757 121.583 364.757 130.319Z" fill="#992C29"/>
<path d="M358.013 135.827C358.013 135.827 402.993 151.137 429.175 189.366C451.59 222.101 483.192 201.003 501.894 209.726C520.596 218.449 409.074 239.731 389.806 244.946C366.743 251.177 298.495 174.159 311.272 152.973C326.712 127.357 358.013 135.827 358.013 135.827Z" fill="#1689CB"/>
<path d="M368.92 145.84C369.145 146.898 393.362 157.307 408.706 181.162C441.325 231.854 481.841 199.031 500.536 207.754C519.23 216.477 513.832 238.98 513.832 238.98C513.832 238.98 482.667 230.257 475.186 255.184C467.705 280.11 402.843 283.639 383.575 288.847C360.511 295.079 307.477 285.748 307.477 285.748C307.477 285.748 287.458 201.01 312.726 144.591C317.19 134.619 348.669 137.11 348.669 137.11L368.92 145.84Z" fill="#992C29"/>
<path d="M331.838 71.859C331.838 71.859 323.552 69.0947 315.266 80.1451C308.754 88.8271 305.444 96.7173 311.887 107.454C313.71 110.491 306.365 111.14 310.966 124.026C315.785 137.52 343.189 138.141 352.396 131.698C352.396 131.698 370.197 146.734 390.141 135.991C403.56 128.763 385.234 109.597 385.234 109.597C385.234 109.597 394.81 88.7452 372.716 68.1869C356.983 53.5531 340.124 63.5729 331.838 71.859Z" fill="#273150"/>
<path d="M325.49 95.1542C331.337 95.1542 336.077 87.1173 336.077 77.2033C336.077 67.2892 331.337 59.2523 325.49 59.2523C319.644 59.2523 314.904 67.2892 314.904 77.2033C314.904 87.1173 319.644 95.1542 325.49 95.1542Z" fill="#273150"/>
<path d="M348.273 68.481C351.366 61.231 350.274 53.8171 345.832 51.9218C341.391 50.0265 335.282 54.3674 332.188 61.6174C329.094 68.8675 330.187 76.2813 334.629 78.1767C339.07 80.072 345.179 75.7311 348.273 68.481Z" fill="#273150"/>
<path d="M329.592 76.3978C329.592 76.3978 322.699 71.934 314.993 81.005C307.287 90.076 306.051 98.1028 311.607 107.358C313.177 109.979 306.652 112.45 310.618 123.562C312.829 129.746 322.965 132.278 322.317 131.124C321.668 129.971 322.228 126.715 322.228 126.715C329.197 130.879 340.588 133.329 352.608 132.387C359.358 136.435 371.808 136.025 379.855 131.691C391.424 125.466 375.623 108.942 375.623 108.942C375.623 108.942 383.882 90.9702 364.832 73.2444C351.27 60.6105 336.739 69.2515 329.592 76.3978Z" fill="#3D4C6D"/>
<path d="M328.446 77.5651C328.446 86.1106 329.169 96.4785 324.125 96.4785C319.088 96.4785 315 89.5506 315 81.0052C315 72.4597 319.088 65.5319 324.125 65.5319C329.162 65.5319 328.446 69.0197 328.446 77.5651Z" fill="#3D4C6D"/>
<path d="M341.674 68.3848C339.005 74.6301 335.824 83.5032 331.995 81.8651C328.166 80.2338 327.224 73.8383 329.886 67.593C332.555 61.3478 337.817 57.6074 341.646 59.2387C345.475 60.8768 344.342 62.1395 341.674 68.3848Z" fill="#3D4C6D"/>
<path d="M366.873 135.977C366.873 135.977 374.613 133.82 375.876 128.237C375.876 128.237 378.579 136.339 366.873 135.977Z" fill="#273150"/>
<path d="M375.405 154.932C375.405 154.932 388.236 180.111 391.888 186.445C395.54 192.772 385.745 200.144 379.357 198.43C372.968 196.717 360.785 167.054 357.727 160.774C354.662 154.488 367.323 144.625 375.405 154.932Z" fill="#F6874E"/>
<path d="M377.179 158.024C377.179 158.024 365.426 134.551 357.515 135.793C349.584 137.035 349.741 140.612 351.427 147.519C353.925 157.758 360.764 171.463 360.764 171.463C360.764 171.463 367.569 160.658 377.179 158.024Z" fill="#C93F37"/>
<path d="M407.88 185.005C407.88 185.005 391.984 183.967 388.243 182.718C384.503 181.469 371.255 187.551 376.715 196.431C381.179 203.7 405.594 200.895 409.75 199.236C413.907 197.577 415.668 186.459 407.88 185.005Z" fill="#F6874E"/>
<path d="M448.915 17.6448C448.915 17.6448 423.811 148.448 423.51 150.482C423.21 152.516 422.944 154.345 422.944 154.345C422.527 155.294 421.511 155.451 417.791 154.598L401.853 151.826L424.097 12.8055C424.207 12.0957 437.537 0.192089 437.537 0.192089C437.98 0.151136 438.54 -0.490452 439.659 0.826862L448.635 15.1671C449.167 16.2592 449.024 17.0715 448.915 17.6448Z" fill="#F6BE4A"/>
<path d="M448.915 17.6449C448.915 17.6449 423.811 148.448 423.511 150.482C423.21 152.516 422.944 154.345 422.944 154.345C422.528 155.294 424.289 155.505 420.576 154.645L446.13 16.1979C446.13 16.1979 438.54 -0.497171 439.666 0.820142L448.642 15.1604C449.167 16.2593 449.024 17.0716 448.915 17.6449Z" fill="#F6874E"/>
<path d="M435.462 82.4116L436.765 77.1013C436.929 76.7191 436.213 76.4939 435.469 76.6986L430.418 78.091C429.967 78.2139 429.756 78.4937 429.947 78.7053L434.404 82.8006C434.725 83.1555 435.284 82.8006 435.462 82.4116Z" fill="#F6874E"/>
<path d="M418.794 45.6496L422.391 43.1856L419.709 40.2234L418.794 45.6496Z" fill="#F6874E"/>
<path d="M443.215 38.9814L438.97 34.8997L444.273 34.5585L443.215 38.9814Z" fill="#F6874E"/>
<path d="M438.52 0.212524L411.177 152.973" stroke="#F4E8D8" stroke-miterlimit="10"/>
<path d="M414.863 70.542L418.152 71.1154L421.006 67.061L418.985 63.0067L426.022 56.5567L428.711 54.0312" stroke="#F4E8D8" stroke-miterlimit="10"/>
<path d="M405.525 204.45C405.457 204.662 403.874 205.406 401.034 204.655C397.703 203.775 397.997 201.488 397.997 201.488L403.628 152.836L419.163 155.328L405.525 204.45Z" fill="#1D2538"/>
<path d="M398.529 219.159C403.075 220.327 407.334 216.982 407.948 211.931C408.535 207.133 405.58 202.642 401.423 201.679C397.314 200.731 393.274 203.536 392.311 208.136C391.301 212.975 394.038 218.006 398.529 219.159ZM400.959 206.375C402.515 206.921 403.662 209.071 403.512 211.221C403.362 213.419 401.915 214.757 400.297 214.163C398.693 213.569 397.574 211.317 397.792 209.167C398.004 207.065 399.417 205.829 400.959 206.375Z" fill="#1D2538"/>
<path d="M398.099 216.026C400.673 216.736 403.102 214.805 403.491 211.808C403.567 211.221 403.553 210.634 403.471 210.075C403.526 210.45 403.539 210.839 403.512 211.228C403.362 213.426 401.915 214.764 400.297 214.17C398.693 213.576 397.574 211.324 397.792 209.174C398.004 207.071 399.417 205.843 400.959 206.382C401.922 206.723 402.727 207.672 403.164 208.86C402.57 207.194 401.307 205.87 399.724 205.467C397.301 204.846 394.953 206.573 394.441 209.406C393.922 212.32 395.54 215.323 398.099 216.026Z" fill="#F6BE4A"/>
<path d="M403.423 209.802C403.417 209.754 403.41 209.699 403.396 209.651C403.41 209.706 403.417 209.754 403.423 209.802Z" fill="#F6BE4A"/>
<path d="M403.287 209.222C403.266 209.146 403.239 209.071 403.212 208.99C403.239 209.065 403.266 209.14 403.287 209.222Z" fill="#F6BE4A"/>
<path d="M403.225 204.58C403.314 204.58 403.403 204.614 403.478 204.669C404.037 205.106 404.488 205.583 404.809 206.102C404.932 206.293 404.85 206.553 404.638 206.675C404.426 206.798 404.153 206.744 404.037 206.553C403.764 206.116 403.375 205.699 402.891 205.324C402.706 205.181 402.693 204.921 402.857 204.744C402.945 204.628 403.089 204.573 403.225 204.58Z" fill="#F4E8D8"/>
<path d="M404.74 184.636C401.881 184.636 399.874 185.537 399.874 185.537L402.686 161.764C402.877 159.198 403.505 151.744 403.505 151.744C403.505 151.744 418.173 153.874 420.023 154.427C420.023 154.427 418.023 162.522 417.347 164.808L411.184 185.462C411.184 185.469 407.6 184.636 404.74 184.636Z" fill="#C73F37"/>
<path d="M413.136 178.917L412.269 181.776C412.269 181.776 407.32 181.36 401.369 181.36C401.375 181.36 403.171 179.654 413.136 178.917Z" fill="#1D2538"/>
<path d="M399.86 185.722C399.86 185.722 408.037 185.653 410.72 187.039L409.675 190.438C409.675 190.438 401.335 188.117 399.58 188.117L399.86 185.722Z" fill="#C73F37"/>
<path d="M400.864 177.197L400.98 176.262C400.98 176.262 407.225 175.907 411.375 177.224L400.864 177.197Z" fill="#1D2538"/>
<path d="M414.453 174.091L415.218 171.668C415.218 171.668 406.911 169.866 401.444 172.016C401.444 172.016 411.477 171.668 414.453 174.091Z" fill="#1D2538"/>
<path d="M417.347 164.815L416.098 168.945C416.098 168.945 407.942 165.634 402.031 166.74L402.891 159.293C402.891 159.293 409.075 161.792 417.347 164.815Z" fill="#1D2538"/>
<path d="M418.63 159.853L419.238 157.696C419.238 157.696 411.477 153.983 404.856 155.601C404.856 155.601 417.818 158.031 418.63 159.853Z" fill="#1D2538"/>
<path d="M390.032 139.841C390.496 139.643 391.021 139.582 391.526 139.67L436.881 146.639C437.462 146.762 438.035 147.731 439.659 150.168C440.751 151.806 441.263 153.915 439.414 154.782C436.991 155.922 434.301 157.853 433.305 157.56L389.786 149.813C389.117 149.683 387.028 148.004 386.175 147.308C385.206 146.516 383.854 144.994 383.029 143.704C382.414 142.749 382.797 141.493 383.834 141.049L390.032 139.841Z" fill="#C73F37"/>
<path d="M388.899 137.909C389.39 137.698 389.929 137.636 390.462 137.732L436.513 145.916C436.636 145.943 439.823 149.437 439.414 150.741C439.004 152.045 433.469 154.352 433.469 154.352C433.469 154.352 386.523 146.762 386.107 146.195C385.336 145.144 384.059 144.079 383.192 142.735C382.551 141.738 382.954 140.428 384.032 139.964L388.899 137.909Z" fill="#F6874E"/>
<path d="M388.899 137.909C389.39 137.698 389.929 137.636 390.462 137.732L396.222 144.257L433.469 154.352C433.469 154.352 386.523 146.762 386.107 146.195C384.967 145.069 384.059 144.079 383.192 142.735C382.551 141.738 382.954 140.428 384.032 139.964L388.899 137.909Z" fill="#F6BE4A"/>
<path d="M415.033 76.2822L413.013 88.2473L427.531 109.522L429.735 97.8507L415.033 76.2822Z" fill="#F6BE4A"/>
<path d="M412.59 91.7761L412.016 96.3833L426.527 117.658L427.292 113.338L412.59 91.7761Z" fill="#F6BE4A"/>
<path d="M396.7 139.042L398.045 140.94C398.495 141.609 398.632 141.677 399.321 141.233L401.512 139.889L396.7 139.042Z" fill="#C73F37"/>
<path d="M402.515 182.691C402.085 183.722 403.191 184.049 404.754 184.22C405.88 184.343 407.962 183.21 407.962 183.21C407.962 183.21 409.839 183.824 410.624 184.295C411.027 184.534 407.484 184.22 406.228 184.295C404.972 184.37 402.126 185.571 402.126 185.571C402.044 185.578 401.962 185.592 401.887 185.619C400.932 185.96 400.331 186.97 400.508 188.547C400.536 188.759 400.638 188.916 400.795 189.059C400.993 189.243 401.355 189.318 401.218 189.885C401.034 190.629 400.174 191.168 400.181 191.707C400.181 192.014 400.782 194.608 400.986 194.84L403.744 194.949C403.744 194.949 400.577 195.311 400.351 196.758C399.962 199.27 402.099 200.587 403.58 200.348C405.416 200.055 405.402 200.956 406.986 201.229C406.986 201.229 410.89 201.652 411.409 200.294C411.955 198.867 413.695 197.755 414.234 195.741C414.548 194.56 414.548 192.212 415.408 190.8C417.094 188.042 415.019 187.237 415.484 185.462C415.893 183.926 416.972 183.817 416.425 182.008C415.995 180.602 414.521 180.206 413.443 179.811C412.364 179.421 409.518 179.183 406.699 179.497C406.706 179.51 402.952 181.66 402.515 182.691Z" fill="#CE6D3E"/>
<path d="M402.515 182.691C402.085 183.721 403.177 184.206 404.74 184.377C405.867 184.499 407.955 183.209 407.955 183.209C407.955 183.209 409.832 183.824 410.617 184.295C411.02 184.534 407.477 184.22 406.221 184.295C404.965 184.37 402.119 185.571 402.119 185.571C402.037 185.578 401.955 185.592 401.88 185.619C400.925 185.96 400.242 187.059 400.427 188.629C400.454 188.84 400.884 189.359 401.041 189.503C401.239 189.687 401.082 189.926 401.041 190.008C400.7 190.697 400.283 190.847 400.167 191.373C399.894 192.588 400.215 193.714 400.979 194.84L403.873 194.949C403.873 194.949 400.536 195.304 400.345 196.758C400.16 198.157 401.362 200.062 402.966 199.652C405.259 199.065 408.03 200.007 408.324 199.877C410.392 198.935 408.583 196.929 409.266 195.379C409.771 194.233 409.812 192.922 410.344 191.687C410.808 190.615 410.617 187.544 410.617 187.544L413.32 185.114C413.32 185.114 413.231 182.773 413.047 181.872C412.712 180.193 408.365 179.182 406.699 179.496C406.399 179.565 402.952 181.66 402.515 182.691Z" fill="#F6874E"/>
<path d="M399 188.902C400.631 191.359 402.706 188.807 402.222 185.073C401.99 183.278 401.423 180.957 398.707 181.756C395.99 182.554 396.086 184.513 399 188.902Z" fill="#F6874E"/>
<path d="M423.668 265.927C423.804 269.654 409.716 271.346 406.113 276.383C400.912 283.659 405.396 283.946 357.509 287.543C318.767 290.458 306.625 271.735 307.109 263.845C307.587 256.064 335.36 245.778 364.58 245.744C393.854 245.717 423.381 258.03 423.668 265.927Z" fill="#EC5E4D"/>
<path d="M312.515 290.171C312.515 290.171 305.035 259.798 304.413 250.556C303.792 241.314 334.957 228.107 340.568 243.294C346.178 258.48 347.428 282.909 347.428 294.136C347.428 305.364 345.557 315.268 331.845 314.606C311.805 313.637 317.382 310.067 312.515 290.171Z" fill="#273150"/>
<path d="M312.515 290.171C312.515 290.171 305.035 259.798 304.413 250.556C303.792 241.314 334.957 228.107 340.568 243.294C346.178 258.48 347.428 282.909 347.428 294.136C347.428 305.364 345.557 315.268 331.845 314.606C311.805 313.637 317.382 310.067 312.515 290.171Z" fill="#102441"/>
<path d="M334.432 292.73C326.2 290.765 314.604 297.59 315.423 306.682C316.044 313.616 309.089 315.596 304.414 329.131C299.738 342.665 334.33 351.579 337.449 334.413C340.561 317.247 356.56 298.013 334.432 292.73Z" fill="#273150"/>
<path d="M334.957 290.505C326.726 288.54 314.611 297.59 315.43 306.682C316.051 313.616 320.208 317.637 315.532 331.172C310.857 344.706 334.336 351.586 337.456 334.414C340.561 317.248 357.079 295.788 334.957 290.505Z" fill="#102441"/>
<path d="M337.449 334.414C334.329 351.58 315.635 399.46 313.764 408.04C311.894 416.626 305.663 419.814 305.663 419.814C305.663 419.814 297.131 423.732 297.397 404.381C297.595 389.597 299.745 342.672 304.42 329.138C304.42 329.138 316.263 324.182 323.743 326.168C331.217 328.141 337.449 334.414 337.449 334.414Z" fill="#F6874E"/>
<path d="M337.449 334.413C334.329 351.579 315.635 399.46 313.764 408.04C312.85 412.251 311.792 418.571 309.505 418.742C307.137 418.919 306.181 420.51 305.56 405.726C304.939 391.856 310.857 342.665 315.532 329.13C315.532 329.13 316.263 324.175 323.743 326.161C331.217 328.141 337.449 334.413 337.449 334.413Z" fill="#CE6D3E"/>
<path d="M306.174 400.3C302.755 406.77 296.516 410.586 296.516 410.586C296.516 410.586 292.094 418.414 292.728 421.363C293.138 423.151 294.933 427.711 294.933 427.711C294.933 427.711 296.271 443.58 296.742 445.45C297.438 448.249 325.497 452.726 327.374 453.436C329.251 454.146 328.842 438.358 328.842 438.358C328.842 438.358 316.815 423.506 314.563 417.152C312.345 410.913 309.867 393.324 306.174 400.3Z" fill="#CE6D3E"/>
<path d="M353.652 238.666C347.421 243.949 343.783 255.832 348.458 267.06C353.133 278.288 357.393 298.532 361.754 303.16C366.115 307.787 373.596 313.944 382.326 313.944C391.049 313.944 394.789 301.399 393.233 291.495C391.677 281.591 386.066 253.525 381.705 240.98C377.343 228.435 359.884 233.383 353.652 238.666Z" fill="#102441"/>
<path d="M362.935 296.143C359.843 299.447 359.072 310.375 357.331 316.258C354.99 324.176 354.539 330.168 354.99 341.007C355.447 352.023 357.659 366.282 358.737 373.961C360.949 389.734 356.348 395.597 363.829 396.471C371.31 397.351 370.061 394.71 372.968 386.786C375.876 378.861 386.476 337.485 388.551 329.117C390.626 320.756 391.875 311.508 392.291 304.027C392.707 296.546 371.194 287.318 362.935 296.143Z" fill="#273150"/>
<path d="M363.986 295.168C359.256 298.355 358.642 310.32 360.034 323.145C361.14 333.322 386.483 337.492 388.558 329.131C390.632 320.77 391.882 311.521 392.298 304.041C392.714 296.56 372.961 287.919 363.986 295.168Z" fill="#102441"/>
<path d="M355.625 323.821C353.106 332.011 354.362 345.962 357.911 371.892C360.068 387.673 356.874 398.819 364.354 399.699C371.835 400.58 373.125 400.825 374.634 392.526C376.162 384.11 386.476 337.499 388.551 329.138C388.551 329.138 379.2 323.418 370.477 322.974C361.754 322.531 355.625 323.821 355.625 323.821Z" fill="#F6874E"/>
<path d="M360.034 323.145C360.082 332.502 363.815 361.62 364.245 377.189C364.689 393.276 360.403 397.399 367.883 398.279C375.364 399.16 373.166 400.832 374.64 392.526C376.238 383.502 386.483 337.499 388.558 329.138C388.558 329.138 379.596 323.704 370.484 322.974C366.805 322.674 360.034 323.145 360.034 323.145Z" fill="#CE6D3E"/>
<path d="M359.208 390.833C359.208 390.833 358.348 396.075 355.986 401.583C353.959 406.306 364.511 408.47 368.354 411.985C368.354 411.985 396.25 426.578 405.594 421.957C415.975 416.824 387.186 402.231 395.417 406.709C395.417 406.709 377.964 398.122 375.473 391.522C372.975 384.929 359.208 390.833 359.208 390.833Z" fill="#F6874E"/>
<path d="M363.679 389.973C363.317 397.802 359.884 399.569 358.635 404.197C356.225 413.118 373.924 418.599 372.763 417.909C372.763 417.909 395.929 425.957 405.28 421.336C415.853 416.107 386.988 402.334 395.41 406.716C395.41 406.716 377.958 398.129 375.466 391.529C372.975 384.929 364.006 382.908 363.679 389.973Z" fill="#CE6D3E"/>
<path d="M356.662 397.72C357.106 396.839 357.918 396.075 358.055 396.955C358.198 397.836 359.543 401.208 361.385 402.245C363.221 403.283 384.189 414.708 391.54 412.627C396.025 411.357 392.782 407.31 389.574 404.341C387.527 402.443 385.486 400.989 385.486 400.989C385.486 400.989 394.891 406.286 399.212 408.777C403.533 411.268 412.617 419.787 413.477 423.111C414.344 426.435 381.541 426.851 376.838 424.667C372.135 422.483 365.167 416.251 362.573 413.76C360.184 411.466 357.406 412.49 356.519 411.473C354.512 409.187 355.318 400.361 356.662 397.72Z" fill="#992C29"/>
<path d="M347.107 135.247C347.107 135.247 355.406 133.377 358.328 137.117C361.686 141.424 370.661 152.488 371.105 161.293C371.46 168.309 370.252 173.92 366.716 183.68C363.815 191.7 359.904 204.013 354.976 206.252C339.96 213.071 327.135 211.958 318.747 206.928C315.628 205.058 312.317 200.314 312.57 187.898C312.679 182.547 312.515 180.752 311.266 161.743C309.594 136.189 319.682 135.131 329.947 134.557C340.206 133.977 347.107 135.247 347.107 135.247Z" fill="#F6BE4A"/>
<path d="M346.015 145.205L344.377 145.116C341.442 144.959 339.189 142.448 339.353 139.513L340.513 117.985C340.67 115.05 343.182 112.798 346.117 112.962L347.755 113.05C350.69 113.207 352.943 115.719 352.779 118.654L351.618 140.182C351.455 143.117 348.95 145.362 346.015 145.205Z" fill="#F6874E"/>
<path d="M346.431 136.482L344.793 136.394C341.858 136.237 339.606 133.725 339.769 130.79L340.93 109.262C341.087 106.327 343.598 104.075 346.533 104.239L348.172 104.328C351.106 104.485 353.359 106.996 353.195 109.931L352.035 131.459C351.871 134.387 349.366 136.639 346.431 136.482Z" fill="#CE6D3E"/>
<path d="M297.615 409.733C296.728 410.019 294.844 411.514 294.51 412.388C293.042 416.217 291.807 419.834 292.169 422.107C292.312 422.994 293.165 425.26 294.046 429.56C295.022 434.297 294.366 442.829 297.001 446.419C299.629 450.01 322.071 457.804 327.053 456.869C332.043 455.934 329.217 441.253 328.835 438.365C328.432 435.321 317.505 421.684 312.959 411.541C312.959 411.541 313 412.538 313.723 415.077C315.43 421.015 318.754 433.465 314.106 433.922C307.451 434.57 297.902 425.527 297.506 421.001C297.117 416.531 296.387 412.961 296.516 412.04C296.646 411.104 297.615 409.733 297.615 409.733Z" fill="#992C29"/>
<path d="M367.774 256.945L380.476 268.132C381.807 269.183 383.664 268.357 383.398 266.814C382.483 261.524 379.78 252.59 367.774 256.945Z" fill="#EC5E4D"/>
<path d="M312.932 192.171C310.857 196.116 294.858 245.983 310.229 279.223C310.229 279.223 323.77 264.521 343.114 260.542C381.637 252.624 378.313 263.497 379.302 266.371C379.958 268.282 382.032 269.271 383.944 268.616C384.435 268.445 384.988 268.241 385.602 267.995C394.257 264.541 409.307 259.299 423.313 264.255C423.313 264.255 396.141 219.056 359.802 196.512C325.019 174.957 315.007 188.226 312.932 192.171Z" fill="#F6BE4A"/>
<path opacity="0.5" d="M381.998 263.429C381.998 263.429 378.401 237.506 369.399 229.588C369.399 229.588 372.996 235.71 372.996 240.386L368.675 237.506C368.675 237.506 373.153 244.113 376.238 250.829C378.941 256.712 380.149 262.753 381.998 263.429Z" fill="#F6BE4A"/>
<path d="M371.712 94.8812C376.988 120.265 366.641 128.92 348.731 128.36C335.271 127.937 324.248 119.419 323.367 102.573C322.48 85.7283 329.572 71.9067 342.861 69.6816C360.402 66.7467 368.279 78.3909 371.712 94.8812Z" fill="#CE6D3E"/>
<path d="M365.542 100.656C365.808 101.905 366.019 103.099 366.19 104.239C368.675 121.228 360.607 127.111 347.263 126.708C336.561 126.381 327.79 119.753 327.087 106.642C326.384 93.5298 337.428 84.7318 348 83.005C361.958 80.7184 362.812 87.8169 365.542 100.656Z" fill="#F6874E"/>
<path d="M325.327 114.787C329.443 114.15 332.119 109.363 331.304 104.096C330.489 98.8287 326.492 95.075 322.375 95.7119C318.259 96.3488 315.583 101.135 316.398 106.402C317.213 111.67 321.21 115.423 325.327 114.787Z" fill="#F6874E"/>
<path d="M323.36 95.5981L327.681 100.342C327.681 100.342 327.701 80.5002 343.25 75.033C357.092 70.1596 363.426 75.62 363.426 75.62C363.426 75.62 355.952 63.2727 337.134 71.3609C321.395 78.1249 323.36 95.5981 323.36 95.5981Z" fill="#F6BE4A"/>
<path d="M336.22 98.3485C337.43 98.3485 338.411 96.515 338.411 94.2532C338.411 91.9915 337.43 90.158 336.22 90.158C335.01 90.158 334.029 91.9915 334.029 94.2532C334.029 96.515 335.01 98.3485 336.22 98.3485Z" fill="#273150"/>
<path d="M358.737 96.5945C359.947 96.5945 360.928 94.761 360.928 92.4992C360.928 90.2374 359.947 88.4039 358.737 88.4039C357.527 88.4039 356.546 90.2374 356.546 92.4992C356.546 94.761 357.527 96.5945 358.737 96.5945Z" fill="#273150"/>
<path d="M356.157 87.5304L360.252 85.2848" stroke="#273150" stroke-miterlimit="10" stroke-linecap="round" stroke-linejoin="round"/>
<path d="M339.714 88.6975L334.281 87.2368" stroke="#273150" stroke-miterlimit="10" stroke-linecap="round" stroke-linejoin="round"/>
<path d="M361.365 72.1392C361.365 72.1392 365.31 76.9375 369.357 78.9919C372.415 80.5481 374.872 80.8348 374.872 80.8348L374.258 79.6062L375.78 78.4322C375.78 78.4322 370.06 77.8316 362.552 71.4225L361.365 72.1392Z" fill="#EE5D4F"/>
<path d="M360.969 71.5793C360.969 71.5793 363.037 77.4355 366.136 80.7527C368.477 83.2577 370.688 84.3702 370.688 84.3702L370.531 83.0119L372.367 82.4318C372.367 82.4318 367.2 79.9132 362.341 71.3131L360.969 71.5793Z" fill="#EE5D4F"/>
<path d="M363.474 74.6711C364.934 74.4117 366.32 66.6239 362.846 66.4601C359.576 66.3031 355.87 66.7263 356.484 69.1903C357.105 71.6543 362.02 74.9305 363.474 74.6711Z" fill="#EE5D4F"/>
<path d="M364.736 70.2417C364.736 70.2417 364.197 66.9041 363.16 66.9792C362.122 67.0542 363.05 68.4807 363.317 70.6785C363.59 72.8763 364.921 71.6546 364.736 70.2417Z" fill="#F7BC4B"/>
<path d="M362.265 73.0604C362.265 73.0604 362.047 71.5247 364.286 70.0367C366.525 68.5488 368.231 67.7365 369.651 68.6238C371.07 69.5111 371.569 73.3948 370.756 75.3537C369.944 77.3126 364.962 75.8247 363.706 75.0875C362.45 74.3436 362.265 73.0604 362.265 73.0604Z" fill="#EE5D4F"/>
<path d="M370.415 71.7567C370.415 71.7567 370.886 74.8759 369.494 75.381C367.426 76.1386 368.729 70.2346 368.852 69.3063C368.968 68.3712 370.791 69.5247 370.415 71.7567Z" fill="#F7BC4B"/>
<path d="M316.255 176.302C316.255 176.302 324.391 194.444 328.104 198.423C331.845 202.437 336.793 206.894 341.66 205.01C346.512 203.133 348.656 191.045 345.236 184.711C341.857 178.459 335.66 160.426 333.571 157.58C331.496 154.747 323.763 156.754 319.996 159.04C316.201 161.334 313.525 169.524 316.255 176.302Z" fill="#F6874E"/>
<path d="M336.124 162.528C336.124 162.528 329.135 134.413 319.784 135.656C310.856 136.843 309.211 144.461 310.338 154.897C311.484 165.558 316.392 176.834 316.392 176.834C316.392 176.834 318.255 166.609 336.124 162.528Z" fill="#EC5E4D"/>
<path d="M333.292 153.396C333.292 153.396 329.142 134.414 319.791 135.656C310.863 136.844 309.218 144.461 310.345 154.897C311.491 165.559 313.252 167.627 313.252 167.627C313.252 167.627 314.18 160.897 315.423 156.849C316.494 153.375 323.32 151.758 323.32 151.758L333.292 153.396Z" fill="#C93F37"/>
<path d="M389.178 169.941C389.178 169.941 375.05 172.848 367.166 175.449C360.218 177.742 348.314 181.619 341.516 186.424C334.657 191.277 333.865 198.212 335.687 202.744C337.53 207.317 346.383 204.593 353.693 202.095C360.969 199.604 388.639 186.369 395.41 181.994C402.126 177.647 400.393 165.688 389.178 169.941Z" fill="#CE6D3E"/>
<path d="M359.57 178.042C352.089 180.117 348.314 181.619 341.516 186.424C334.657 191.277 333.865 198.212 335.687 202.744C337.53 207.317 346.383 204.594 353.693 202.095C360.976 199.604 366.156 176.213 359.57 178.042Z" fill="#F6874E"/>
<path d="M393.984 178.773C396.038 181.585 401.253 181.155 403.007 179.667C405.136 177.872 406.406 176.343 407.757 176.349C408.604 176.349 411.723 176.936 413.429 177.708C413.525 177.892 413.115 178.616 413.19 178.82C413.293 179.107 413.381 179.278 413.689 179.298C415.627 179.435 417.224 178.158 417.122 176.131L416.924 173.435L418.91 171.032L419.292 163.504L412.706 156.419C412.378 156.071 411.914 155.887 411.436 155.921L402.481 156.583C401.942 156.624 401.451 156.917 401.164 157.368L393.035 170.091C393.028 170.097 391.929 175.96 393.984 178.773Z" fill="#CE6D3E"/>
<path d="M413.095 173.961C413.716 174.636 414.692 175.667 415.531 176.322C416.439 177.032 417.183 177.285 417.122 176.131L416.924 173.435L419.402 171.463C419.402 171.463 419.975 165.62 419.784 163.934C419.272 159.457 412.638 156.133 412.638 156.133C412.051 155.839 411.907 155.894 411.429 155.928C411.429 155.928 409.32 159.416 409.191 160.467C409.061 161.518 411.006 166.139 411.006 166.139C411.006 166.139 408.883 168.835 408.767 169.64C408.488 171.531 410.938 171.62 413.095 173.961Z" fill="#F6874E"/>
<path d="M313.498 162.044C313.498 162.044 314.119 157.839 317.238 156.59C317.238 156.59 313.778 166.671 313.245 167.627C312.713 168.582 312.72 164.385 313.498 162.044Z" fill="#C93F37"/>
<path d="M311.478 141.267C309.812 146.045 303.581 162.249 297.349 197.987C291.118 233.725 301.09 279.844 306.905 284.834C312.72 289.823 333.08 252.836 376.716 275.899C376.716 275.899 346.786 232.981 329.968 221.255C309.396 206.921 311.061 172.221 313.553 153.73C316.051 135.247 311.478 141.267 311.478 141.267Z" fill="#29ACE4"/>
<path d="M297.349 197.994C291.117 233.732 301.089 279.851 306.905 284.841C312.72 289.83 333.08 252.843 376.716 275.906C376.716 275.906 360.887 253.846 351.072 242.434C351.072 242.434 338.432 261.047 335.189 260.371C333.265 259.969 317.539 261.327 308.188 250.113C298.837 238.898 297.349 197.994 297.349 197.994Z" fill="#1689CB"/>
<path d="M307.649 240.113C307.649 240.113 308.167 244.14 312.781 250.911C318.358 259.095 335.196 262.521 335.196 262.521L341.947 258.064C341.947 258.064 332.678 257.3 324.753 253.341C316.829 249.382 307.949 242.625 307.649 240.113Z" fill="#1689CB"/>
<path d="M338.07 133.534C334.937 132.81 317.191 131.35 312.201 140.079C307.212 148.802 311.266 164.958 311.266 164.958C311.266 164.958 312.194 151.642 318.904 147.403C322.788 144.946 345.68 152.973 348.977 153.478C355.051 154.413 347.421 145.69 347.421 145.69C347.421 145.69 342.124 134.469 338.07 133.534Z" fill="#29ACE4"/>
<path d="M352.56 134.728C350.403 135.281 344.376 155.723 350.321 152.078C351.884 151.116 360.491 148.495 370.32 149.43C376.866 150.051 382.019 153.744 382.476 153.013C384.039 150.515 361.74 132.36 352.56 134.728Z" fill="#1689CB"/>
<path d="M350.069 150.311C350.672 150.311 351.161 149.822 351.161 149.219C351.161 148.615 350.672 148.126 350.069 148.126C349.466 148.126 348.977 148.615 348.977 149.219C348.977 149.822 349.466 150.311 350.069 150.311Z" fill="#273150"/>
<path d="M177.357 233.042C177.357 233.042 178.094 219.371 170.914 218.579C163.733 217.787 148.431 233.636 144.97 235.322C141.51 237.015 138.78 242.461 137.012 244.147C135.244 245.833 130.493 247.123 127.859 249.239C125.217 251.362 115.969 257.743 122.603 264.869C129.251 272.009 131.763 274.104 140.923 270.214C150.055 266.33 179.746 240.1 177.357 233.042Z" fill="#1D2436"/>
<path d="M163.14 307.931C163.14 307.931 138.903 300 111.109 296.485C98.5777 294.901 97.943 313.746 106.229 328.278C110.782 336.27 135.06 342.024 157.516 353.109C176.081 362.268 193.015 377.824 200.721 377.503C217.723 376.786 206.918 317.302 163.14 307.931Z" fill="#48598B"/>
<path d="M140.896 316.313C137.196 315.992 143.871 323.2 145.612 326.36C150.676 335.554 154.82 346.051 159.277 352.713C163.215 358.596 160.451 350.713 157.249 340.7C155.796 336.154 154.703 331.8 153.646 328.824C153.052 327.145 140.896 316.313 140.896 316.313Z" fill="#273150"/>
<path d="M141.674 426.516C141.674 426.516 127.456 438.481 122.481 444.938C117.484 451.416 130.828 458.446 142.67 456.821C154.485 455.204 165.686 450.89 169.685 444.461C173.671 438.051 173.699 437.983 179.944 431.103C186.169 424.25 177.603 409.705 174.074 406.648C170.539 403.597 143.626 416.149 141.674 426.516Z" fill="#EC6141"/>
<path d="M142.042 423.397C142.042 423.397 127.825 435.362 122.849 441.819C117.853 448.296 132.057 452.624 143.899 450.999C155.714 449.382 163.781 447.348 167.781 440.918C171.767 434.509 174.675 433.567 180.92 426.687C187.145 419.834 177.972 406.593 174.443 403.535C170.907 400.477 143.994 413.029 142.042 423.397Z" fill="#13161F"/>
<path d="M133.79 404.265C133.79 404.265 138.118 410.9 137.278 413.603C136.439 416.312 133.879 423.827 144.022 427.233C152.663 430.134 173.596 417.684 180.197 413.323C181.37 412.545 182.149 411.289 182.278 409.958C182.633 406.252 182.831 398.621 179.261 394.102C174.415 387.98 175.05 389.741 167.385 369.558C159.782 349.518 135.503 307.829 133.981 303.549C132.459 299.276 112.713 295.208 108.734 295.679C104.748 296.15 89.3019 316.558 89.7114 322.183C90.121 327.82 98.8712 347.327 106.393 363.9C113.955 380.567 123.238 388.294 125.456 393.072C128.93 400.559 133.79 404.265 133.79 404.265Z" fill="#48598B"/>
<path d="M174.252 388.096C170.682 381.448 172.402 391.42 170.525 398.484C169.447 402.538 177.828 394.744 174.252 388.096Z" fill="#273150"/>
<path d="M133.51 402.225C133.51 402.225 137.797 413.343 140.193 414.169C142.588 415.002 149.762 414.067 154.628 411.576C159.495 409.077 142.199 413.029 133.51 402.225Z" fill="#273150"/>
<path d="M97.2673 330.803C97.2673 330.803 99.8746 326.339 101.943 322.251C104.011 318.162 104.994 332.011 100.523 335.574C96.0524 339.144 97.2673 330.803 97.2673 330.803Z" fill="#273150"/>
<path d="M151.222 330.646L137.237 323.78L119.976 309.972C119.976 309.972 124.016 310.054 127.183 312.272C128.617 313.275 136.159 319.52 140.268 322.79C145.216 326.742 149.694 329.062 151.222 330.646Z" fill="#273150"/>
<path d="M233.954 237.465C233.954 237.465 162.334 221.691 175.985 211.289C189.547 200.949 227.388 182.336 241.223 202.355C255.154 222.517 242.349 244.632 233.954 237.465Z" fill="#1D2436"/>
<path d="M261.495 382.356C261.495 382.356 262.614 379.715 265.938 377.414C269.255 375.121 279.541 376.077 281.377 380.151C283.213 384.24 283.193 412.265 283.193 414.163C283.193 416.067 279.5 423.964 276.149 428.605C272.791 433.26 266.464 434.154 260.887 431.97C255.311 429.786 259.085 420.169 260.594 415.576C262.102 411.003 258.887 387.277 261.495 382.356Z" fill="#EC6141"/>
<path d="M259.317 380.179C259.317 380.179 259.515 378.554 262.839 376.254C266.156 373.961 276.442 374.917 278.278 378.991C280.114 383.08 281.015 410.088 281.015 411.986C281.015 413.89 277.323 421.787 273.972 426.428C270.613 431.083 264.286 431.977 258.71 429.793C253.133 427.609 256.908 417.992 258.416 413.398C259.925 408.819 256.71 385.1 259.317 380.179Z" fill="#13161F"/>
<path d="M242.144 390.724C242.144 390.724 254.594 380.083 260.437 379.824C272.914 379.264 270.026 391.81 269.999 400.457C269.979 409.133 263.249 415.521 260.751 417.18C258.252 418.838 262.607 417.992 255.352 427.882C248.055 437.82 235.101 449.73 226.473 450.945C219.9 451.874 197.854 440.291 209.642 416.661C213.327 409.283 235.524 396.97 242.144 390.724Z" fill="#273150"/>
<path d="M201.854 338.127C201.854 338.127 199.547 394.792 200.495 416.204C201.451 437.806 200.468 447.983 205.696 453.327C210.932 458.685 220.433 459.682 227.094 457.484C233.742 455.286 231.353 452.515 236.65 451.041C241.94 449.573 245.735 433.513 247.086 428.087C248.437 422.674 252.048 370.07 253.454 351.055C254.853 332.196 251.058 322.558 235.626 322.749C220.166 322.954 204.632 327.056 201.854 338.127Z" fill="#273150"/>
<path d="M200.448 347.287C200.448 347.287 199.67 399.966 200.414 419.644C201.171 439.499 200.393 448.843 204.509 453.764C208.631 458.685 216.126 459.607 221.375 457.58C226.617 455.559 239.639 435.779 240.704 430.796C241.769 425.821 245.564 391.912 242.151 359.784C240.315 342.516 240.261 333.595 228.098 333.773C215.914 333.943 202.639 337.11 200.448 347.287Z" fill="#47588A"/>
<path d="M158.949 319.951C162.73 324.886 166.839 328.476 171.829 332.414C172.996 333.336 212.549 349.867 212.549 349.867C212.549 349.867 190.353 341.431 193.438 343.635C206.618 353.047 210.058 359.422 225.436 363.163C229.026 364.036 236.493 356.986 238.629 359.32C245.489 366.801 243.052 380.964 243.619 373.967C245.639 348.993 254.342 337.601 235.517 327.841C215.689 317.562 148.397 306.163 158.949 319.951Z" fill="#273150"/>
<path d="M167.467 307.453C168.047 302.28 166.798 282.267 166.996 256.925C167.194 231.855 167.016 221.903 181.541 216.047C195.997 210.218 214.112 208.491 227.845 217.46C234.213 221.616 237.005 312.648 238.22 320.784C239.435 328.947 225.087 342.332 212.119 343.164C199.13 344.004 165.808 322.333 167.467 307.453Z" fill="#F6BE4A"/>
<path opacity="0.5" d="M199.676 313.303C199.676 313.303 197.615 317.152 198.468 320.852C190.899 317.562 183.452 313.842 181.391 311.228C181.391 311.228 188.039 322.449 198.011 326.189C207.983 329.93 217.122 328.264 217.122 328.264C217.122 328.264 202.884 318.47 199.676 313.303Z" fill="#F6BE4A"/>
<path d="M158.833 315.289C158.833 315.555 158.928 315.808 159.113 315.999C160.601 317.555 165.105 324.285 172.033 326.633C173.89 327.261 177.084 325.903 177.098 325.111L177.132 323.493C177.139 323.104 173.262 323.48 172.92 323.302C170.873 322.224 162.225 315.446 158.621 311.187C158 310.45 158.84 314.306 158.833 315.289Z" fill="#F4E8D8"/>
<path d="M187.513 213.344C189.267 212.368 166.129 223.568 176.518 269.9C179.282 282.22 176.538 303.727 177.439 307.897C178.347 312.067 181.138 321.377 177.029 323.486C169.419 327.39 162.211 315.391 159.556 312.702C155.434 308.539 163.911 306.586 163.563 291.236C163.194 275.012 157.754 252.372 158.819 243.157C161.256 222.128 168.19 220.504 170.914 218.579C173.883 216.484 185.391 214.532 187.513 213.344Z" fill="#972B28"/>
<path d="M187.513 213.344C188.175 210.887 174.081 218.224 172.149 219.972C170.265 221.678 168.272 224.033 166.464 227.295C160.669 237.725 175.364 264.433 175.364 264.433C175.364 264.433 175.316 238.885 175.876 233.056C176.429 227.241 186.237 218.095 187.513 213.344Z" fill="#F4E8D8"/>
<path d="M187.984 211.33C187.984 211.33 187.281 212.948 187.356 214.927C187.636 222.886 189.302 244.884 192.271 245.157C195.288 245.43 196.68 244.707 200.461 232.373C201.267 229.745 209.28 209.958 206.761 208.252" stroke="#913636" stroke-miterlimit="10"/>
<path d="M192.824 251.956C193.706 251.956 194.421 250.318 194.421 248.297C194.421 246.277 193.706 244.639 192.824 244.639C191.941 244.639 191.226 246.277 191.226 248.297C191.226 250.318 191.941 251.956 192.824 251.956Z" fill="#29ACE4"/>
<path d="M187.438 203.891L187.902 216.313C188.094 221.48 192.837 225.295 198.277 224.654L199.014 224.565C204.236 223.951 208.058 219.446 207.56 214.518L206.311 202.205C205.724 196.396 199.465 192.84 193.656 194.997C189.807 196.43 187.295 200.021 187.438 203.891Z" fill="#CE6D3E"/>
<path d="M213.785 329.65L213.832 330.687C213.86 331.281 214.085 331.834 214.467 332.243C217.204 335.192 228.869 347.43 236.575 350.324C242.506 352.549 250.465 352.965 255.004 353C257.16 353.013 259.14 351.614 260.054 349.423C260.655 347.99 259.897 346.331 258.519 346.051C251.611 344.638 232.896 339.881 217.272 327.493C215.791 326.312 213.689 327.609 213.785 329.65Z" fill="#F4E8D8"/>
<path d="M209.061 209.344C206.932 210.996 197.792 227.534 205.444 250.352C213.157 273.374 206.099 314.736 211.102 325.002C212.529 327.923 232.971 346.515 240.731 346.843C245.844 347.055 253.208 347.881 258.321 348.549C260.723 348.863 264.423 344.202 264.504 341.758C264.757 334.032 264.504 317.692 259.303 301.304C252.205 278.923 251.659 214.805 233.653 206.307C219.907 199.816 211.191 207.692 209.061 209.344Z" fill="#972B28"/>
<path d="M233.237 305.426C233.237 305.426 247.7 314.238 251.536 315.48L249.366 320.654C249.366 320.654 233.169 311.842 230.637 308.45L233.237 305.426Z" fill="#F4E8D8"/>
<path d="M208.659 208.115C212.918 204.409 226.773 202.512 230.923 205.153C233.271 206.641 222.173 201.952 216.542 214.647C209.566 230.36 207.055 255.361 207.055 255.361C207.055 255.361 203.267 253.3 201.915 233.308C201.014 219.964 204.393 211.828 208.659 208.115Z" fill="#F4E8D8"/>
<path d="M244.24 296.369C244.24 296.369 245.953 291.379 245.175 289.045C244.397 286.711 242.37 294.655 240.035 297.925C238.909 299.495 243.516 296.901 244.24 296.369Z" fill="#972B28"/>
<path d="M163.317 297.509L162.744 300.266L166.43 298.137L167.105 294.86L163.317 297.509Z" fill="#F4E8D8"/>
<path d="M205.806 352.672C205.806 352.672 212.037 356.31 216.194 359.634C220.351 362.958 228.248 365.558 228.248 365.558C228.248 365.558 218.269 367.217 205.806 352.672Z" fill="#273150"/>
<path d="M157.911 265.518C161.119 275.032 150.683 286.472 140.862 286.567C134.978 286.629 130.555 283.919 126.617 278.5C125.129 276.452 126.037 274.077 124.958 271.838C124.126 270.104 121.211 268.514 120.658 266.849C117.518 257.341 122.952 250.474 132.678 249.526C139.688 248.843 141.135 253.491 144.984 255.232C146.37 255.86 150.547 255.983 151.844 256.788C156.526 259.73 156.342 260.87 157.911 265.518Z" fill="#C93F37"/>
<path d="M155.993 271.613C156.478 276.547 153.366 281.462 149.025 282.588C144.677 283.707 140.773 280.595 140.302 275.646C139.831 270.705 141.953 263.511 146.281 262.405C150.601 261.293 155.509 266.685 155.993 271.613Z" fill="#F4E8D8"/>
<path d="M153.762 272.111C154.116 275.824 151.85 279.53 148.697 280.37C145.544 281.216 142.704 278.868 142.363 275.142C142.022 271.422 144.199 264.057 148.977 265.306C152.123 266.125 153.407 268.405 153.762 272.111Z" fill="#CE6D3E"/>
<path d="M147.782 266.139C146.015 267.531 144.595 270.425 144.097 274.862C143.598 279.298 153.222 284.097 153.222 284.097C153.222 284.097 159.222 286.315 163.222 276.698C164.812 272.869 156.608 265.777 156.669 263.333C156.894 254.467 150.683 263.852 147.782 266.139Z" fill="#F6874E"/>
<path d="M155.42 264.89C155.42 264.89 152.301 265.251 152.929 267.592C153.55 269.927 158.458 274.083 163.604 272.841C168.75 271.599 155.42 264.89 155.42 264.89Z" fill="#CE6D3E"/>
<path d="M125.19 268.63C124.774 265.927 125.054 263.34 124.985 262.815C124.781 261.259 122.494 268.842 122.494 268.842C125.293 272.889 125.402 270.029 125.19 268.63Z" fill="#972B28"/>
<path d="M143.578 255.539C143.578 255.539 137.654 250.242 135.79 258.658C135.783 258.658 139.217 256.474 143.578 255.539Z" fill="#972B28"/>
<path d="M233.715 264.18C229.463 257.3 225.136 248.556 220.679 241.71C216.228 234.885 218.788 213.2 228.473 209.467C238.131 205.747 239.933 210.34 248.847 223.241C257.795 236.195 271.597 270.179 267.331 281.892C265.058 288.123 245.052 291.297 233.715 264.18Z" fill="#1D2436"/>
<path d="M264.573 270.555C259.816 263.709 253.748 258.972 241.339 261.463C235.155 262.705 234.371 268.582 234.371 268.582C234.371 268.582 227.32 267.941 224.105 270.807C220.883 273.681 209.97 270.807 210.318 285.141C210.666 299.474 214.181 306.061 223.764 307.89C233.34 309.719 248.301 297.201 248.301 297.201C248.301 297.201 253.577 298.225 260.587 291.563C267.658 284.847 272.129 281.428 264.573 270.555Z" fill="#C93F37"/>
<path d="M235.968 266.65C235.968 266.65 241.612 261.681 247.161 266.582C247.769 267.121 240.316 265.627 235.968 266.65Z" fill="#972B28"/>
<path d="M210.638 291.202C209.908 304.163 225.436 302.873 225.436 302.873C225.436 302.873 222.46 304.245 224.31 304.75C226.494 305.344 230.316 305.992 232.65 304.361C240.991 298.525 245.639 284.199 235.435 278.329C233.565 277.257 233.012 285.352 232.739 283.018C232.446 280.54 229.811 276.704 225.149 274.268C222.549 272.903 211.539 275.135 210.638 291.202Z" fill="#972B28"/>
<path d="M250.219 274.862C250.219 274.862 247.544 272.057 244.097 270.807C240.65 269.558 234.616 268.159 234.616 268.159C235.565 267.873 250.595 266.944 250.219 274.862Z" fill="#972B28"/>
<path d="M217.621 275.353C215.266 275.496 207.785 276.247 207.212 289.509C206.755 300.211 216.29 302.703 216.29 302.703C216.29 302.703 223.231 303.303 226.392 300.614C230.651 296.99 230.999 288.369 228.357 280.991C226.999 277.209 219.976 275.21 217.621 275.353Z" fill="#F4E8D8"/>
<path d="M212.884 277.817C210.536 277.919 203.711 276.643 203.356 289.229C203.069 299.379 212.611 301.877 212.611 301.877C212.611 301.877 219.532 302.539 222.638 300.027C226.822 296.642 227.026 288.465 224.276 281.428C222.863 277.81 215.232 277.715 212.884 277.817Z" fill="#CE6D3E"/>
<path d="M166.28 232.701C166.28 232.701 168.989 229.022 176.723 229.261C187.527 229.595 199.131 232.837 202.584 237.718C205.144 241.328 205.287 244.994 205.287 244.994C205.287 244.994 208.72 245.328 210.42 247.84C211.491 249.423 211.014 269.333 211.014 269.333C210.829 272.848 209.075 275.264 205.499 275.217L202.468 275.176L165.542 270.35C165.556 270.35 162.751 237.015 166.28 232.701Z" fill="#634874"/>
<path d="M153.55 260.528C153.966 270.084 162.164 271.756 164.525 272.152C170.907 273.217 205.273 276.22 205.273 276.22C205.273 276.22 211.266 273.927 207.847 273.688C207.028 273.633 190.066 269.845 184.51 268.835C175.043 267.115 171.835 260.938 171.835 260.938C171.835 260.938 153.359 256.167 153.55 260.528Z" fill="#7E6391"/>
<path d="M204.031 304.86L206.857 276.786C206.693 275.339 205.553 274.732 201.062 273.947C201.062 273.947 198.892 273.749 197.192 273.578C196.366 273.497 194.373 273.899 194.291 276.384L192.878 308.177C192.756 309.337 196.926 308.525 196.926 308.525C203.089 307.76 203.902 307.48 204.031 304.86Z" fill="#634874"/>
<path d="M171.651 265.047C165.706 267.695 161.836 268.487 156.383 265.852C152.328 264.125 151.209 255.286 151.311 252.515L151.386 242.987C151.605 236.776 156.901 231.745 163.215 231.745C172.3 231.739 177.043 238.817 176.798 247.772L176.477 253.136C176.402 255.901 174.381 263.832 171.651 265.047Z" fill="#634874"/>
<path d="M195.677 307.972L196.455 275.401C196.592 272.732 196.762 272.289 192.496 271.934L188.647 271.906C185.473 272.077 183.903 273.688 183.807 276.309L185.132 302.341C185.07 306.976 184.469 308.266 187.739 308.525C193.186 308.955 195.615 309.563 195.677 307.972Z" fill="#7E6391"/>
<path d="M181.705 276.152C182.101 280.193 182.947 284.568 188.565 285.96C188.804 286.022 193.213 285.742 193.213 285.742L191.363 275.033C191.397 272.924 190.271 271.804 188.933 271.654L184.19 271.326C182.449 271.128 181.446 273.47 181.705 276.152Z" fill="#7E6391"/>
<path d="M186.422 276.234C186.756 280.077 187.725 284.397 192.578 285.728C192.783 285.783 193.001 285.783 193.213 285.742C196.1 285.981 200.714 284.165 200.748 282.152L201.212 273.954C201.076 273.613 188.933 272.023 188.933 272.023C187.432 271.838 186.196 273.688 186.422 276.234Z" fill="#634874"/>
<path d="M169.481 246.68C169.16 250.024 166.123 252.563 162.696 252.352C159.27 252.14 156.758 249.253 157.086 245.902C157.413 242.557 160.457 240.032 163.877 240.243C167.29 240.462 169.802 243.342 169.481 246.68Z" fill="#1D2436"/>
<path d="M167.604 244.912C167.16 249.56 162.942 253.095 158.178 252.802C153.407 252.508 149.919 248.488 150.376 243.833C150.834 239.192 155.059 235.677 159.809 235.977C164.56 236.277 168.047 240.277 167.604 244.912Z" fill="#F6BE4A"/>
<path d="M163.979 244.222C163.7 247.15 161.038 249.369 158.041 249.184C155.045 249 152.84 246.468 153.134 243.54C153.42 240.618 156.082 238.4 159.072 238.591C162.061 238.782 164.259 241.301 163.979 244.222Z" fill="#1D2436"/>
<path d="M177.937 232.728C182.292 235.738 183.377 240.188 182.244 248.024C182.149 248.666 182.667 249.239 183.432 249.355L199.363 251.983C200.325 252.133 202.789 252.822 202.891 252.003C203.314 248.693 203.86 239.24 196.939 235.711C193.67 234.046 185.773 231.766 179.33 230.565C177.746 230.271 176.716 231.882 177.937 232.728Z" fill="#BB83C3"/>
<path d="M179.425 229.95C179.425 229.95 190.954 234.646 186.169 250.57" stroke="#634874" stroke-width="2" stroke-miterlimit="10" stroke-linecap="round" stroke-linejoin="round"/>
<path d="M187.684 231.766C187.684 231.766 197.233 238.066 192.639 251.321" stroke="#634874" stroke-width="2" stroke-miterlimit="10" stroke-linecap="round" stroke-linejoin="round"/>
<path d="M193.943 233.609C193.943 233.609 202.482 239.861 198.844 252.01" stroke="#634874" stroke-width="2" stroke-miterlimit="10" stroke-linecap="round" stroke-linejoin="round"/>
<path d="M181.862 252.836L202.789 256.474" stroke="#BB83C3" stroke-width="2" stroke-miterlimit="10" stroke-linecap="round" stroke-linejoin="round"/>
<path d="M221.266 282.288C221.266 282.288 219.587 275.667 218.631 273.852C218.16 272.957 218.27 271.176 217.184 268.555C216.01 265.716 216.584 263.422 215.328 261.17C214.263 259.259 209.342 262.74 209.54 266.337C209.649 268.371 209.895 272.343 210.441 274.329C211.055 276.582 202.639 274.8 202.639 274.8C201.745 274.486 195.964 274.896 195.022 274.998L189.057 275.08C186.579 275.879 186.163 277.681 186.245 280.281C186.286 281.674 192.975 280.889 195.807 281.346C197.868 281.674 202.462 280.902 202.53 281.203C202.53 281.203 186.763 285.148 185.897 287.175C184.19 291.195 184.682 296.457 185.31 297.242C187.173 299.57 187.316 299.747 187.316 299.747C187.316 299.747 187.207 302.744 189.391 304.211C192.688 306.429 203.185 308.272 203.185 308.272C203.185 308.272 215.567 304.095 217.635 302.136C219.703 300.184 222.283 298.587 222.549 292.355C222.802 286.144 221.266 282.288 221.266 282.288Z" fill="#F6874E"/>
<path d="M185.882 287.168C184.21 291.202 184.667 296.451 185.295 297.236C187.159 299.563 187.302 299.741 187.302 299.741C187.302 299.741 187.193 302.737 189.377 304.204C192.674 306.423 203.171 308.266 203.171 308.266L199.404 301.106C199.404 301.106 196.059 284.745 195.076 284.185C194.093 283.626 186.497 285.694 185.882 287.168Z" fill="#CE6D3E"/>
<path d="M157.7 224.906L157.263 203.072L147.175 212.184L135.654 195.352L134.466 215.248L117.798 215.446L130.726 224.19L124.556 231.711L141.141 232.469C142.616 232.53 133.224 228.51 133.224 228.51L134.302 224.551L130.705 218.429L138.268 218.067L139.708 210.15L146.643 216.893L153.748 212.313C153.741 212.306 157.707 225.063 157.7 224.906Z" fill="#F6BE4A"/>
<path d="M146.977 278.24L154.601 285.277C154.731 285.393 154.888 285.469 155.065 285.489C156.731 285.673 167.064 285.53 170.457 284.991C171.938 284.759 175.535 281.08 179.378 277.319C180.579 276.138 181.439 275.449 182.661 273.968C183.336 273.149 183.507 272.077 182.586 271.551C182.586 271.551 181.077 270.712 180.244 271.333C179.883 271.606 179.855 271.504 179.944 271.299C180.128 270.869 179.944 270.371 179.507 270.193C178.661 269.852 177.364 269.552 176.088 270.193C174.218 271.128 174.422 270.869 174.422 270.869C174.422 269.988 173.433 268.944 172.136 268.896C170.402 268.828 169.023 269.838 168.757 270.05C168.723 270.077 166.375 270.603 164.293 271.592C161.823 272.766 158.164 271.231 156.239 270.5C152.697 269.163 147.209 269.019 146.697 277.592C146.697 277.831 146.8 278.077 146.977 278.24Z" fill="#F6874E"/>
<path d="M220.583 174.507C217.17 193.878 210.713 197.468 210.713 197.468C182.565 207.815 159.113 196.144 156.731 179.223C153.653 162.242 151.591 153.334 180.21 147.799C208.645 142.304 223.586 157.498 220.583 174.507Z" fill="#1D2436"/>
<path d="M217.402 170.753C214.495 187.168 190.08 182.431 190.08 182.431C185.145 181.141 168.15 177.715 164.949 168.603C162.219 160.835 158.642 152.092 182.92 147.396C205.028 143.123 219.962 156.324 217.402 170.753Z" fill="#3D4C6D"/>
<path d="M214.174 179.701C214.174 179.701 216.194 174.398 214.317 168.651C214.317 168.651 221.737 170.364 214.174 179.701Z" fill="#1D2436"/>
<path d="M171.829 154.618C171.829 154.618 155.031 159.081 153.154 162.344C151.277 165.613 159.666 201.918 166.56 209.76C173.467 217.623 204.079 204.655 209.58 196.048C214.085 189.011 211.887 186.608 210.775 177.374C209.621 167.75 201.144 163.73 199.472 160.419C196.639 154.775 171.829 154.618 171.829 154.618Z" fill="#CE6D3E"/>
<path d="M207.335 182.274C208.57 188.574 202.386 202.962 189.664 206.846C176.893 210.75 166.566 209.754 161.29 196.219C155.878 182.329 169.638 163.375 182.299 159.593C194.913 155.832 203.021 168.105 207.335 182.274Z" fill="#F6874E"/>
<path d="M170.484 180.793C170.989 183.005 170.116 184.24 168.962 184.513C167.802 184.786 166.798 184.001 166.3 181.783C165.795 179.572 166.327 177.551 167.488 177.278C168.634 177.012 169.979 178.582 170.484 180.793Z" fill="#34273A"/>
<path d="M186.831 164.631L183.596 167.914" stroke="#34273A" stroke-miterlimit="10" stroke-linecap="round" stroke-linejoin="round"/>
<path d="M169.494 174.616L164.949 174.91" stroke="#34273A" stroke-miterlimit="10" stroke-linecap="round" stroke-linejoin="round"/>
<path d="M184.859 172.944C185.398 171.224 188.305 167.886 191.978 168.91C191.978 168.91 187.056 173.613 185.37 175.19C185.111 175.429 184.756 173.272 184.859 172.944Z" fill="#34273A"/>
<path d="M213.396 172.05C213.512 177.653 210.891 182.568 207.54 183.004C204.188 183.441 201.383 179.237 201.281 173.626C201.178 168.023 203.806 163.149 207.144 162.719C210.481 162.282 213.28 166.46 213.396 172.05Z" fill="#F6874E"/>
<path d="M188.879 147.546C188.879 147.546 161.946 176.725 152.745 180.302C143.517 183.892 148.144 158.849 161.673 149.969C175.126 141.151 188.879 147.546 188.879 147.546Z" fill="#1D2436"/>
<path d="M190.626 147.021C190.626 147.021 190.954 149.062 185.425 152.741C175.856 159.109 157.448 168.924 152.786 170.732C145.401 173.599 151.1 157.286 161.652 149.778C172.894 141.786 190.626 147.021 190.626 147.021Z" fill="#3D4C6D"/>
<path d="M172.19 155.225C172.19 155.225 164.717 166.432 156.915 170.009C156.908 170.016 175.398 161.9 172.19 155.225Z" fill="#1D2436"/>
<path d="M195.732 154.973C195.732 154.973 197.656 168.746 200.421 172.261L205.867 177.155L202.182 157.634L195.732 154.973Z" fill="#3D4C6D"/>
</svg>
