<?xml version="1.0" encoding="UTF-8"?>
<svg version="1.1" xmlns="http://www.w3.org/2000/svg" width="256" height="256">
<path d="M0 0 C4.43763562 2.13957432 7.39828655 4.81867481 10 9 C12.13467674 16.90988744 12.83889772 24.92473712 13.625 33.0625 C13.75991963 34.41866933 13.89533264 35.77478967 14.03125 37.13085938 C14.35900606 40.42012554 14.68178888 43.70979907 15 47 C15.13051758 46.25427734 15.26103516 45.50855469 15.39550781 44.74023438 C16.00085721 41.3244099 16.62525886 37.91232879 17.25 34.5 C17.45496094 33.32695313 17.65992188 32.15390625 17.87109375 30.9453125 C19.31573717 23.15299346 20.7043526 16.21526575 26.5625 10.5 C31.45004787 8.36725184 35.74827818 8.24080922 41 9 C46.11120168 11.32327349 48.98304681 14.8032047 51 20 C51.38380782 23.1679548 51.15063969 26.20317683 50.875 29.375 C50.81513916 30.26533936 50.75527832 31.15567871 50.69360352 32.07299805 C50.48629284 35.05094288 50.24440958 38.02488151 50 41 C49.82333834 43.31113079 49.64758171 45.6223309 49.47265625 47.93359375 C49.0088418 53.95809407 48.51474548 59.97965072 48 66 C48.42410156 65.03578125 48.84820312 64.0715625 49.28515625 63.078125 C54.55847831 51.53817654 54.55847831 51.53817654 58.5 49.125 C63.62925805 47.47630991 67.11586431 47.29806709 72.1875 49.1875 C76.62350238 52.04625709 78.6297503 54.31381241 79.77490234 59.52905273 C80.33419669 64.81788829 78.8356658 69.33267739 77.2890625 74.34765625 C76.694888 76.39934212 76.1036154 78.4518701 75.51489258 80.50512695 C75.20484283 81.57526031 74.89479309 82.64539368 74.5753479 83.74795532 C68.42467405 105.19976603 65.47095921 124.80083461 66.00775146 147.06027222 C66.23933556 160.64457177 63.41572161 173.80748136 54 184 C53.2884375 184.39445313 52.576875 184.78890625 51.84375 185.1953125 C49.3515726 187.63468953 49.55291752 189.7414281 49.48828125 193.11132812 C49.49607407 194.65820322 49.50388647 196.20507823 49.51171875 197.75195312 C49.40272848 203.44421759 49.40272848 203.44421759 47.16015625 206.5390625 C45 208 45 208 41.9375 207.9375 C38.8958237 206.96675225 37.90798885 206.46730392 36 204 C34.4446687 196.80668782 34.60234882 188.20473625 36 181 C38.69728206 176.83603942 41.94669009 174.74044538 46 172 C52.18416672 164.22096924 52.16620189 152.92160107 51.9921875 143.44140625 C51.60454104 118.25481468 55.75866238 96.20538646 63.1960907 72.15370178 C64.582677 67.66035279 64.582677 67.66035279 65 63 C64.75610031 63.50254807 64.51220062 64.00509613 64.26091003 64.52287292 C61.71666066 69.76407177 59.16919402 75.00369781 56.61987305 80.24243164 C55.66950603 82.19645879 54.71995368 84.15088238 53.77124023 86.10571289 C52.40563701 88.9191846 51.03708825 91.73120681 49.66796875 94.54296875 C49.03498116 95.84949654 49.03498116 95.84949654 48.38920593 97.18241882 C43.22039321 107.77960679 43.22039321 107.77960679 41 110 C37.625 110.3125 37.625 110.3125 34 110 C32.26391602 108.50415039 32.26391602 108.50415039 31 106 C30.87192509 103.10565924 30.92762586 100.49169917 31.15234375 97.62109375 C31.2080101 96.75657089 31.26367645 95.89204803 31.32102966 95.00132751 C31.52423807 91.99871753 31.75842485 88.99976356 32 86 C32.09001282 84.87281555 32.18002563 83.7456311 32.27276611 82.58428955 C32.99058694 73.73961981 33.77210693 64.90093167 34.5625 56.0625 C34.91439775 52.11137375 35.26444112 48.16008802 35.61228943 44.20860291 C35.82702617 41.77103377 36.04393568 39.33365479 36.26332092 36.89649963 C36.36019699 35.80022751 36.45707306 34.70395538 36.55688477 33.57446289 C36.64269302 32.61552628 36.72850128 31.65658966 36.81690979 30.66859436 C36.99298016 28.10231623 37.0330973 25.57132272 37 23 C36.01 22.67 35.02 22.34 34 22 C33.90090332 22.5455957 33.80180664 23.09119141 33.69970703 23.65332031 C32.60620311 29.65369652 31.49467559 35.65059843 30.37289429 41.64575195 C29.51964144 46.20746556 28.6724723 50.77025197 27.83007812 55.33398438 C26.74637494 61.19935315 25.64924283 67.06210558 24.54534912 72.92370605 C24.09804559 75.310058 23.65489583 77.69719224 23.21588135 80.08508301 C22.58979303 83.4859679 21.94890676 86.88375958 21.3046875 90.28125 C21.1172699 91.31767639 20.92985229 92.35410278 20.73675537 93.42193604 C20.46076508 94.85373199 20.46076508 94.85373199 20.17919922 96.31445312 C20.02329315 97.15012817 19.86738708 97.98580322 19.70675659 98.84680176 C18.88881259 101.33874256 18.09370233 102.4337918 16 104 C9.99777053 104.64309601 9.99777053 104.64309601 7.34545898 102.93359375 C5.34883538 100.06419456 5.25953359 97.07844864 4.97265625 93.6875 C4.89891785 92.94212982 4.82517944 92.19675964 4.74920654 91.42880249 C4.50759541 88.95357359 4.28508486 86.47700633 4.0625 84 C3.89724619 82.271535 3.73080374 80.54318327 3.56323242 78.81494141 C3.11797921 74.18414944 2.68978687 69.5519453 2.2668457 64.91906738 C1.99585222 61.9546268 1.72202476 58.990461 1.44726562 56.02636719 C1.30932335 54.53819489 1.30932335 54.53819489 1.16859436 53.0199585 C0.98432233 51.03349856 0.79994649 49.04704825 0.61546326 47.06060791 C0.17312859 42.29223874 -0.2650582 37.52357985 -0.69311523 32.75390625 C-0.77333923 31.87038483 -0.85356323 30.9868634 -0.93621826 30.0765686 C-1.08598049 28.42667951 -1.23370617 26.77660373 -1.37896729 25.12631226 C-1.72302777 21.36096749 -2.15994566 17.68891435 -3 14 C-4.66611905 13.957279 -6.33382885 13.95936168 -8 14 C-10.0218286 16.0218286 -9.20279366 20.16712057 -9.23364258 22.94458008 C-9.25348457 24.19337196 -9.25348457 24.19337196 -9.27372742 25.46739197 C-9.30235605 27.28167153 -9.32897634 29.0959836 -9.35386086 30.91031837 C-9.39468968 33.78066936 -9.44392236 36.65075245 -9.49601746 39.5209198 C-9.64399795 47.68376423 -9.78735691 55.84657241 -9.89868164 64.01000977 C-9.96731234 68.99765953 -10.05494257 73.98466412 -10.15506554 78.97177696 C-10.18963764 80.87466635 -10.21706364 82.77769934 -10.23725319 84.68079567 C-10.26626011 87.34361276 -10.31943254 90.00493272 -10.37817383 92.66723633 C-10.38092316 93.45544769 -10.38367249 94.24365906 -10.38650513 95.05575562 C-10.48747173 98.57415064 -10.72559823 100.62964884 -12.84745789 103.49345398 C-15.75787354 105.53042928 -17.5225712 105.51791493 -21 105 C-24.14315692 102.64137797 -24.96641734 99.81386595 -26.16064453 96.1550293 C-26.55760529 94.95335617 -26.95456604 93.75168304 -27.36355591 92.51359558 C-27.78696237 91.20057342 -28.21003982 89.88744512 -28.6328125 88.57421875 C-29.07386395 87.2250259 -29.51559582 85.87605531 -29.95797729 84.52729797 C-30.88306192 81.70041922 -31.80202119 78.87164866 -32.71630859 76.04125977 C-33.88508648 72.42365262 -35.06557088 68.81000726 -36.25027657 65.19758892 C-37.1631964 62.41140429 -38.07151171 59.6237365 -38.97829819 56.83555031 C-39.41184905 55.5032425 -39.84641896 54.17126584 -40.28204727 52.83963585 C-40.89180849 50.9722382 -41.49510195 49.10273243 -42.09814453 47.2331543 C-42.44217316 46.17186813 -42.78620178 45.11058197 -43.14065552 44.01713562 C-43.99410984 41.02068019 -44.55021246 38.08064307 -45 35 C-47.31 35 -49.62 35 -52 35 C-50.77108849 45.51310547 -49.24734705 55.92620945 -47.3984375 66.3515625 C-47.15419429 67.7491331 -46.91044081 69.14678935 -46.66714478 70.54452515 C-45.77787104 75.64821795 -44.88131208 80.75062167 -43.98260498 85.85266113 C-43.21587444 90.2056889 -42.45311015 94.55937092 -41.69612503 98.91410446 C-41.34330259 100.93438951 -40.98465074 102.95358305 -40.62582397 104.97280884 C-40.41205109 106.20204071 -40.1982782 107.43127258 -39.97802734 108.69775391 C-39.78864594 109.77312408 -39.59926453 110.84849426 -39.40414429 111.95645142 C-38.99875135 115.00940339 -38.92785667 117.92420155 -39 121 C-38.16339844 121.01417969 -37.32679687 121.02835937 -36.46484375 121.04296875 C-24.02006123 121.55288786 -11.24672527 124.01863329 -2 133 C-0.95392578 134.00546875 -0.95392578 134.00546875 0.11328125 135.03125 C6.89081144 142.06897788 10.83291577 150.1420306 11 160 C9.9375 162.9375 9.9375 162.9375 8 165 C5.0625 166 5.0625 166 2 166 C-0.99674316 164.394198 -1.87868766 163.32176032 -3.08984375 160.109375 C-3.50943359 158.44648438 -3.50943359 158.44648438 -3.9375 156.75 C-5.95392759 149.84201044 -7.43754529 145.26941559 -13.63671875 141.3203125 C-20.974235 137.39319113 -27.90409035 135.13556229 -36.23046875 134.9140625 C-42.99326437 134.71172339 -47.09599991 134.28563462 -51.90625 129.36328125 C-52.5971875 128.58339844 -53.288125 127.80351562 -54 127 C-54.96668661 125.94991965 -55.93561256 124.90189826 -56.90625 123.85546875 C-58.48705113 122.14521503 -60.06613426 120.43353556 -61.63989258 118.71679688 C-68.15080081 110.91264648 -68.15080081 110.91264648 -77.203125 107.359375 C-79.08257812 107.18148437 -79.08257812 107.18148437 -81 107 C-79.0143544 110.60945383 -77.02436592 114.21647173 -75.03076172 117.8215332 C-74.35678668 119.04161639 -73.68388963 120.26229585 -73.01220703 121.48364258 C-63.98954852 138.44940725 -63.98954852 138.44940725 -52.25 153.51171875 C-51 155 -51 155 -51 157 C-50.43539062 157.25265625 -49.87078125 157.5053125 -49.2890625 157.765625 C-46.68778898 159.16835952 -44.63708965 160.84896049 -42.375 162.75 C-38.17201575 166.18710712 -33.89005245 168.97974665 -29.12890625 171.578125 C-26.6910342 173.20635514 -25.52496625 174.49243178 -24 177 C-23.34493937 181.47573983 -23.49057647 185.98141694 -23.5 190.5 C-23.47164063 191.73621094 -23.44328125 192.97242188 -23.4140625 194.24609375 C-23.41019531 196.02693359 -23.41019531 196.02693359 -23.40625 197.84375 C-23.39916016 198.92849609 -23.39207031 200.01324219 -23.38476562 201.13085938 C-24 204 -24 204 -26.33789062 206.38867188 C-29 208 -29 208 -32.1875 207.9375 C-35 207 -35 207 -37 204 C-37.11254883 201.87451172 -37.11254883 201.87451172 -36.95703125 199.4296875 C-36.27007724 189.97379247 -36.27007724 189.97379247 -39.15332031 181.28027344 C-41.63510477 178.9658379 -44.52350023 177.38928727 -47.5078125 175.828125 C-65.24409444 166.54335996 -75.00355911 146.89978862 -84.2746582 130.06860352 C-85.32334135 128.16784989 -86.38119149 126.27238703 -87.43945312 124.37695312 C-96.34794264 108.31961759 -96.34794264 108.31961759 -95.4375 102.25 C-93.58788985 98.0682727 -91.84546519 95.86350314 -87.6875 93.91796875 C-80.50032844 91.46304823 -73.19142864 92.62175883 -66.37109375 95.64453125 C-62.41992768 97.90327034 -59.24692967 100.84521085 -56 104 C-56.58047517 96.10317759 -57.69315887 88.4015779 -59.1015625 80.61328125 C-59.51343262 78.27025464 -59.92487841 75.92715341 -60.3359375 73.58398438 C-60.98078128 69.9361868 -61.62920505 66.28912808 -62.28515625 62.64331055 C-62.92180471 59.0933759 -63.54391791 55.54113081 -64.1640625 51.98828125 C-64.36295074 50.90476883 -64.56183899 49.82125641 -64.76675415 48.70491028 C-66.0099942 41.50682689 -66.83533242 35.4084745 -63.25 28.75 C-60.22709904 25.05534327 -57.5587509 22.51958363 -53 21 C-47.30737162 20.43615871 -42.85055862 20.69280094 -38 24 C-32.35902684 29.42722953 -30.56916058 36.0596166 -28.1875 43.375 C-27.78080078 44.58800781 -27.37410156 45.80101562 -26.95507812 47.05078125 C-25.95806287 50.03009741 -24.97351563 53.01293961 -24 56 C-23.9906543 54.73929688 -23.98130859 53.47859375 -23.97167969 52.1796875 C-23.93162628 47.47539722 -23.86582499 42.77175037 -23.79248047 38.06787109 C-23.76435965 36.03703108 -23.74310114 34.00608343 -23.72900391 31.97509766 C-23.70745102 29.04534145 -23.66073778 26.11686735 -23.609375 23.1875 C-23.60814636 22.28821777 -23.60691772 21.38893555 -23.60565186 20.46240234 C-23.46966319 14.52946277 -22.37322514 9.95345638 -19 5 C-13.02223658 -0.55078032 -7.96337584 -0.75047521 0 0 Z " fill="#000000" transform="translate(122,4)"/>
<path d="M0 0 C1.39858317 0.48347931 2.7917502 0.98285192 4.1796875 1.49609375 C4.92033447 1.76639404 5.66098145 2.03669434 6.42407227 2.31518555 C18.63685761 6.9086236 32.54503075 13.16428024 38.6796875 25.43359375 C41.08479553 32.07353316 40.96849539 37.52124875 38.1171875 43.99609375 C30.37481791 57.83397531 13.8142891 64.2615557 -0.6484375 68.77734375 C-5.95128187 70.25744468 -11.31468616 71.46096029 -16.6953125 72.62109375 C-17.62214844 72.82371826 -18.54898438 73.02634277 -19.50390625 73.23510742 C-36.76552659 76.76308354 -54.06808703 77.30746367 -71.6328125 77.24609375 C-72.68947113 77.24460327 -73.74612976 77.24311279 -74.83480835 77.24157715 C-90.07789471 77.20291438 -104.93160991 76.79232964 -119.9453125 73.93359375 C-120.77047363 73.78905762 -121.59563477 73.64452148 -122.44580078 73.49560547 C-142.90536419 69.89213643 -165.72685237 64.14427574 -179.9453125 47.93359375 C-183.63026857 42.40137398 -185.18603208 36.51383867 -183.9453125 29.93359375 C-180.15223491 18.22611387 -171.12519889 12.10320952 -160.68408203 6.66943359 C-144.59228839 -1.35425372 -144.59228839 -1.35425372 -135.9453125 -0.06640625 C-134.0078125 1.05859375 -134.0078125 1.05859375 -132.9453125 2.93359375 C-132.5078125 5.87109375 -132.5078125 5.87109375 -132.9453125 8.93359375 C-136.18983007 13.22903475 -140.14295273 14.27555367 -145.0703125 15.80859375 C-154.75796851 19.04261117 -164.37943543 22.80814413 -169.9453125 31.93359375 C-170.9453125 34.43359375 -170.9453125 34.43359375 -169.9453125 36.93359375 C-162.98023146 48.46950922 -145.30127916 53.72173625 -132.9453125 56.93359375 C-86.53704601 68.13189872 -26.00198018 70.10107252 16.7421875 45.87109375 C21.34656702 42.92643243 24.09390984 40.2091198 26.2421875 35.12109375 C25.9899267 30.83266007 24.5928139 29.07301245 21.65234375 26.015625 C12.83800024 18.95089554 1.82857144 15.19654374 -8.93359375 12.234375 C-12.49988942 10.69406831 -13.4970187 9.49988113 -14.9453125 5.93359375 C-14.2578125 2.68359375 -14.2578125 2.68359375 -12.9453125 -0.06640625 C-8.81377 -2.1321775 -4.27533931 -1.31573096 0 0 Z " fill="#000000" transform="translate(199.9453125,175.06640625)"/>
<path d="M0 0 C1.8125 1.125 1.8125 1.125 3 3 C3.20625 3.94875 3.4125 4.8975 3.625 5.875 C5.76658545 10.74223966 9.21956664 12.00656564 14 14 C42.25500258 24.43354418 77.02143042 25.05913927 105 13 C110.01427568 10.17388685 110.01427568 10.17388685 112.75 5.375 C114 2 114 2 116 0 C122.07755662 -0.66300618 122.07755662 -0.66300618 125 1.4375 C126.58968284 5.51106228 126.31804228 8.85465458 125 13 C118.43965714 23.98707877 106.0163841 28.43036399 94.23339844 31.46386719 C65.70039271 38.3132857 28.87560407 38.81790947 2.4375 24.1875 C-2.77548598 20.73565793 -7.80233609 16.76674608 -9.75390625 10.62890625 C-10.2982026 7.13968017 -10.2898042 4.74262327 -9 1.4375 C-5.94588215 -0.7576472 -3.6520301 -0.45650376 0 0 Z " fill="#000000" transform="translate(70,199)"/>
</svg>
